<?xml version="1.0" encoding="UTF-8" standalone="no"?>
<!DOCTYPE svg  PUBLIC '-//W3C//DTD SVG 1.1//EN'  'https://www.w3.org/Graphics/SVG/1.1/DTD/svg11.dtd'>
<svg xmlns="https://www.w3.org/2000/svg">
<defs>
<font id="olivier-Regular" horiz-adv-x="500">
<font-face underline-position="-50" font-weight="400" descent="-200" panose-1="0 0 0 0 0 0 0 0 0 0" units-per-em="1000" unicode-range="U+0020-2212" bbox="-43 -384 976 863.333" x-height="405" underline-thickness="50" font-family="olivier" ascent="800" cap-height="690"/>
<missing-glyph horiz-adv-x="1000"/>
<glyph glyph-name=".notdef" horiz-adv-x="1000"/>
<glyph glyph-name=".null" horiz-adv-x="0"/>
<glyph glyph-name="nonmarkingreturn" horiz-adv-x="333"/>
<glyph glyph-name="space" horiz-adv-x="281" unicode=" "/>
<glyph glyph-name="exclam" horiz-adv-x="230" unicode="!" d="M89 80q18 -5 34 -20.5t14 -35.5q0 -23 -12.5 -25.5t-17.5 -2.5q-15 0 -33 8q-14 4 -20 17.5t-4.5 27.5t11.5 24t28 7zM155 660q10 -14 10.5 -24.5t0.5 -15.5q0 -13 -2.5 -29t-6.5 -34.5t-4 -35.5q0 -25 5 -58.5t6.5 -55.5t1.5 -31q0 -25 -5 -52.5t-26 -49.5 q-4 -3 -10 -14t-12.5 -20t-10.5 -10t-5 -1q-7 0 -13 13q-15 25 -18.5 54t-5.5 57q-3 41 -8 83.5t-7 74t-2 50.5q0 23 2.5 56t14.5 74q6 14 13 14.5t8 0.5q12 0 26 -7t27.5 -18.5t20.5 -20.5z"/>
<glyph glyph-name="quotedbl" horiz-adv-x="354" unicode='&quot;' d="M72 586q-14 33 -17 69q-1 14 -1 27q0 22 3 44q10 14 23 16t25 -6q12 -6 21 -18t12 -24q12 -36 12 -71q0 -36 -12 -72q-4 -14 -13 -14q-9 -1 -19 7t-20 20t-14 22zM173 624l-3 30t-2 42t5 38t18 18h5q8 0 18 -5q13 -7 25 -19q13 -12 21 -24q8 -13 10 -22q1 -8 1 -18 q0 -9 -1 -19q-2 -19 -7 -39t-13 -36t-18 -25q-5 -5 -10 -5q-4 0 -10 5q-10 9 -20 25q-8 16 -14 32t-5 22z"/>
<glyph glyph-name="numbersign" horiz-adv-x="570" unicode="#" d="M330 334q-18 0 -32 -6t-31 -10q-3 -2 -3 -16t-1 -34t-1 -38q0 -20 -2 -32q12 2 20 6t14 8t14 6q8 4 19 6q2 1 2 14v30v36t1 30zM332 -6l4 66q1 9 1 17q0 24 -5 48q-3 -1 -13 -3t-23 -8q-12 -4 -26 -10t-24 -11q-2 -7 -4 -27t-8 -40t-16 -34t-26 -11q-12 3 -19 19t-11 33 t-4 31q0 9 1 11q-26 -10 -51 -17q-22 -7 -42 -12t-31 -5h-5q-18 0 -24 7q-5 6 -5 13q0 11 9 25q7 10 12 13q12 9 22 14l18 9l20 8t22 10q8 4 18 8t16 6q8 4 13 8t4 9l-3 24q-2 15 -3 33t-1 34t-1 24q-14 -1 -27 -7q-14 -6 -26 -12q-12 -7 -24 -11t-25 -1q-33 9 -33 31 q0 16 20 29q28 17 62 33t63 30q5 1 7 13q2 13 4 29v34t3 29q3 15 6 49t9 69t17 63t31 33h4q10 -1 16 -13q8 -16 10 -42q4 -26 4 -59t-1 -65t-3 -59t-2 -41q12 0 26 3t25 7t19 8t7 5q-1 11 -2 27q-1 11 -1 22v12q0 18 5 33q4 16 13 24q12 10 24 8t21 -11q10 -9 16 -21t7 -21 q2 -14 4 -27t6 -26q14 -2 29 3t29 9l18 3t24 2q13 2 24 2t15 -2q1 -14 -18 -28t-43 -27t-44 -25t-24 -20q-2 -5 -2 -20t-1 -33q1 -18 1 -35v-27q14 0 34 1q14 1 26 1q6 -1 12 -1q18 0 27 -3q10 -3 3 -11q-10 -15 -26 -27q-16 -11 -32 -21t-27 -16t-10 -10v-7q0 -19 -4 -48 q-5 -35 -14 -71t-21 -69q-12 -32 -28 -47q-14 -12 -23 -12h-3q-10 4 -15 16t-7 28t0 28z"/>
<glyph glyph-name="dollar" horiz-adv-x="531" unicode="$" d="M158 465q-1 -7 -1 -14q0 -20 14 -33q19 -17 43 -24q3 19 3 41v11q-1 14 -1 27t1 26q-14 6 -25 6q-10 0 -16 -5q-14 -11 -18 -35zM262 -251q-5 -2 -9 -2q-9 0 -15 8q-9 11 -15 30t-9 43t-5 44q-1 20 -3 34t-5 14q-31 5 -69 23q-38 19 -67 43t-43 52q-6 12 -6 24q0 14 9 27 q10 7 27 1q16 -6 40 -16t52 -22q28 -11 60 -16q1 26 3 64q1 38 3 75t2 64t-4 29q-26 11 -54 36q-28 24 -50 58t-30 74q-3 15 -4 31q0 25 9 51q10 22 26 36t35 24q18 8 40 12t44 4q-3 19 -3 37q0 14 2 26l8 56q3 20 11 27q7 7 17 7l1 -1q10 0 20 -4l15 -6q9 -10 14 -30t7 -44 t4 -44v-34q0 -4 15 -8t33 -13q18 -8 32 -21t13 -33q-32 -20 -64 -20q-12 0 -23 3q-3 -14 -3 -32t1 -38l2 -40v-13q0 -12 -1 -22q0 -1 15 -9t38 -22t49 -36q27 -22 49 -50t36 -64q13 -34 13 -74v-6q-1 -38 -15 -66t-33 -46q-19 -20 -43 -32t-46 -19t-38 -9t-22 -4 q-2 -4 -2 -27t-5 -51t-19 -52t-40 -31zM404 44q4 2 0 1t-7 -3zM404 44q26 8 34 20q6 8 6 18q0 4 -1 10q-4 14 -18 30q-15 16 -31 30t-34 28q-18 12 -28 19v-19v-27q2 -22 3 -43t1 -41q0 -3 1 -6q0 -17 -3 -34q12 1 20 2t15 3t15 4t20 6z"/>
<glyph glyph-name="percent" horiz-adv-x="522" unicode="%" d="M216 657q42 -15 62 -48t21 -73v-5q1 -37 -13 -75q-14 -40 -40 -70t-58 -42q-13 -5 -26 -5q-20 0 -40 11q-29 12 -44 34t-21 48q-5 19 -5 39q0 7 1 14q2 28 7 55q2 24 16 46t34 38t46 22q9 2 19 1q17 0 34 -6q5 4 4 9t3 7zM427 378q-25 -38 -67 -80t-90 -82 q-46 -40 -91 -78t-75 -67q-24 -25 -36 -25t-13 12q-1 3 -1 8q0 10 4 24q5 20 14 39q18 41 44 77t54 71q12 15 27 31t31 31t31 31t26 34t25 38t31 38t37 32t39 18q1 -2 7 -18t11 -38t5 -48t-13 -48zM433 86q4 8 -7 20q-10 12 -26 23t-31 20t-19 12q-11 -15 -11 -41t11 -46 q14 -6 31 -6q6 0 13 1q25 3 39 17zM509 161q15 -17 15 -36q0 -7 -2 -13q-8 -26 -28 -47t-46 -36t-44 -19q-12 -3 -22 -3q-21 0 -39 12q-27 18 -41 49q-14 30 -16 66v7q0 31 14 55q14 26 46 34q8 2 17 3q27 0 67 -18q1 -2 11 -7q10 -4 23 -12q14 -8 26 -16t19 -19zM194 411 q3 3 5 7l2 2q-1 -2 -3 -4l-6 -6q-2 -3 2 1zM194 411q3 3 5 7q1 1 3 2h-1q7 10 13 24q8 20 12 42q3 16 3 33q-1 6 -1 12q-2 22 -9 39q-8 18 -23 26q-9 5 -22 5q-7 0 -16 -2q-22 -5 -34 -26t-13 -49q-1 -7 -1 -15q0 -21 4 -41q6 -28 18 -48q12 -19 27 -24q3 -1 7 -1 q13 0 28 16z"/>
<glyph glyph-name="ampersand" horiz-adv-x="541" unicode="&amp;" d="M262 592q-7 16 -17 24q-11 8 -21 12t-20 4t-19 -2q-31 -4 -41 -28q-7 -17 -7 -36q0 -8 1 -17q4 -29 16 -57t24 -43q8 5 26 21t34 36t24 43q4 11 5 22q0 11 -5 21zM174 277q-14 -16 -32 -38t-33 -45q-14 -24 -19 -46q-1 -7 -1 -12q0 -15 8 -27q17 -24 42 -24q1 1 3 1 q28 2 56 16q28 16 50 40t29 46q3 6 -13 21t-36 31t-36 27q-17 11 -18 10zM244 11q-40 -17 -73 -19q-8 -1 -15 -1q-24 1 -44 7q-26 8 -47 24q-20 16 -33 40q-29 49 -29 91q0 39 15 73q14 34 40 63t50 54q4 3 -10 19t-31 40t-33 56q-16 31 -17 64v10q-1 24 3 48q4 30 18 54 q13 26 34 46t53 30q21 7 53 9h14l48 -5q32 -6 59 -24t40 -49q11 -28 11 -55v-6q-2 -30 -12 -60q-10 -28 -25 -53t-30 -45t-26 -32t-13 -15q-5 -8 4 -21t24 -27q15 -13 32 -27t28 -23q4 7 13 25t21 39t28 43q15 22 31 40q17 18 33 28q12 7 22 7q4 0 9 -1q29 -7 45 -23t15 -32 q1 -2 -9 -16q-10 -15 -24 -35t-31 -44t-33 -44q-16 -22 -26 -38q-11 -16 -14 -19q-4 -4 10 -16t36 -25t48 -24t43 -12q16 -3 20 -16q1 -4 1 -9q0 -9 -5 -18q-8 -13 -26 -23q-12 -6 -27 -7q-8 0 -18 2q-25 5 -42 11q-16 6 -30 14t-26 16t-28 17q-4 0 -11 -11t-21 -27 q-14 -17 -36 -35t-56 -33z"/>
<glyph glyph-name="quotesingle" horiz-adv-x="164" unicode="&apos;" d="M25 568q-4 19 -4 39q-1 23 5 46q10 43 23 85q12 14 27 14h2q16 -1 28 -11t21 -26t11 -31q2 -10 2 -20t-2 -18q-4 -16 -10 -30t-16 -29q-10 -14 -24 -32q-12 -15 -22 -19q-6 -3 -11 -3q-4 0 -7 1q-8 2 -14 12t-9 22z"/>
<glyph glyph-name="parenleft" horiz-adv-x="244" unicode="(" d="M30 382q4 43 14 77q10 33 22 63t28 58q15 28 33 60q0 2 7 14q8 12 18 28t23 31q13 17 25 27t20 12q2 0 2 1q6 0 8 -9q0 -24 -13 -62t-31 -86q-18 -50 -36 -110t-27 -127q-4 -29 -4 -59q1 -14 1 -26q2 -44 8 -85t15 -79q7 -38 13 -67t6 -47t-7 -21h-1q-6 0 -18 12 q-14 13 -30 39t-33 64t-29 82q-12 46 -18 99q-2 19 -1 39q0 35 5 72z"/>
<glyph glyph-name="parenright" horiz-adv-x="245" unicode=")" d="M142 261q0 39 -1 72.5t-3 64.5t-5 61t-8 63q-2 9 -10 30t-19 46.5t-22.5 53t-19.5 50.5t-9.5 32.5t-1.5 12.5q0 9 6 11h5q15 0 35 -15t42 -45.5t42.5 -72.5t36.5 -90t26.5 -99t11.5 -99v-11q0 -62 -11 -125.5t-30.5 -115t-42.5 -81.5t-42 -30h-3q-7 3 -8 14.5t-1 19.5 q0 11 1.5 29.5t5.5 48.5t9 60.5t9.5 60.5t6.5 54z"/>
<glyph glyph-name="asterisk" d="M429 233q-5 -12 -23 -9t-37 13t-37 21t-23 14q-19 13 -33 13q-3 0 -6 -1q-14 -4 -26 -20t-22 -38t-25 -43q-23 -33 -37 -40q-5 -3 -10 -3q-6 0 -10 6q-5 10 -5 30q0 24 5 52q4 26 10 49q6 24 9 37q-5 1 -19 0q-14 -2 -30 -2h-17h-17q-16 0 -28 6t-14 17q-1 3 -1 6 q0 10 7 24q7 15 23 22t34 10q19 3 37 3t31 3q-3 13 -15 21t-22 17t-18 19t-4 26q5 18 14 22t19 -1q10 -4 20 -12t18 -13q23 -18 45 -20q6 -1 13 -1q15 0 28 4q19 5 35 17t28 22t20 17q5 3 8 3t5 -2q5 -6 2 -16t-10 -24l-15 -30t-10 -29q11 -2 22 -2q6 1 12 1l32 4t33 4 q8 1 16 1l16 -1q1 -2 1 -5q0 -6 -6 -12q-8 -8 -22 -14q-12 -7 -24 -11t-16 -5q-14 -5 -30 -11t-29 -15q-6 -4 0 -13q5 -10 17 -22t27 -26t27 -26t21 -23q8 -10 6 -14z" unicode="*"/>
<glyph glyph-name="plus" horiz-adv-x="469" unicode="+" d="M282 74q-4 -6 -14 -6q-4 0 -9 2q-17 4 -37 16q-20 13 -36 34q-17 21 -23 48q-2 10 -3 23t-1 24q-1 13 0 27q-7 -2 -31 -2t-50 4t-48 12q-20 8 -20 20q0 20 12 32t28 20q16 7 36 9q19 2 35 2q16 -1 27 -1t11 1q-1 1 -1 19q0 4 -1 10q-1 14 1 32q2 24 6 48q4 26 11 42 t19 20q2 1 4 1q10 0 24 -16q22 -22 38 -35q16 -14 28 -26t18 -30t6 -50q0 -2 21 0t72 7q15 1 25 -9t15 -22q6 -14 10 -26t10 -17q-3 -13 -23 -19t-46 -10t-50 -6q-25 -3 -38 -10q-1 -8 -1 -20v-12q1 -10 1 -21t-1 -23q-1 -24 -6 -47q-5 -24 -19 -45z"/>
<glyph glyph-name="comma" horiz-adv-x="295" unicode="," d="M211 82q13 -10 18 -22q4 -10 4 -21q-1 -3 -1 -7q-2 -14 -8 -30t-16 -30q-16 -26 -38 -50t-49 -41q-16 -11 -32 -15q-9 -2 -15 -2t-11 2q-11 4 -11 16t15 33q18 25 25 47q8 22 12 42t10 36q6 17 22 32q22 20 40 21h2q16 0 33 -11z"/>
<glyph glyph-name="hyphen" horiz-adv-x="479" unicode="-" d="M326 350q20 -5 44 -14t41 -17q13 -8 17 -19q3 -7 3 -13q0 -4 -1 -9q-3 -10 -12 -18t-22 -8q-56 -6 -100 -10t-100 -10h-13q-21 0 -39 5q-22 7 -51 19q-13 8 -17 20q-3 8 -3 16q0 4 1 7q2 11 8 19t11 12q7 5 39 10t70 8t74 4h16q23 0 34 -2z"/>
<glyph glyph-name="period" horiz-adv-x="263" unicode="." d="M159 134q14 0 27 -8t21.5 -20.5t9.5 -21.5t1 -13q0 -11 -5 -21q-10 -18 -31.5 -33t-34.5 -16.5t-17 -1.5q-19 0 -37 13t-24 52q-1 5 -1 10q0 15 9 25.5t24.5 17t32 9.5t25.5 8z"/>
<glyph glyph-name="slash" horiz-adv-x="316" unicode="/" d="M225 350q-2 -23 -6 -56q-5 -34 -11 -70t-14 -73t-20 -67t-26 -50t-33 -25q-8 -2 -14 -2q-15 -1 -23 11q-12 16 -13 46v9q0 25 5 59q6 38 14 75q8 36 16 65t11 41q4 19 14 56t24 81q15 44 31 88t33 80t34 54q13 15 24 15q3 0 7 -1q10 -4 10 -22q0 -5 -1 -12 q-4 -29 -16 -74t-26 -104t-20 -124z"/>
<glyph glyph-name="zero" horiz-adv-x="492" unicode="0" d="M334 421q-3 15 -10 36t-18 41t-26 32q-15 14 -33 15q-17 1 -31 -13t-24 -34t-18 -40t-11 -34q-11 -34 -19 -72t-10 -76q-1 -21 -1 -40q0 -16 1 -32q2 -35 10 -63t24 -46q14 -18 36 -21h10q26 0 46 14q24 16 40 44t26 67q10 37 14 77q3 26 3 52q0 13 -1 26q-2 38 -8 67z M358 615q0 -27 12 -43t26 -28q16 -13 33 -29t29 -43q11 -28 16 -58q4 -25 4 -52v-10q-1 -32 -6 -65q-5 -32 -13 -60q-11 -37 -33 -79t-52 -76t-70 -54q-35 -18 -77 -17h-12q-47 3 -86 31t-67 70t-44 90q-14 43 -14 82v10q2 61 16 112t37 90q21 39 49 66t55 41q31 13 53 15 q8 1 16 1q14 1 28 -1l44 -4h3q22 0 53 11z"/>
<glyph glyph-name="one" horiz-adv-x="391" unicode="1" d="M194 175q5 73 10.5 135.5t5.5 108.5q0 29 -2 57q-17 -6 -32 -20.5t-28.5 -32.5t-25.5 -36.5t-21 -31.5q-10 -12 -22.5 -37.5t-26.5 -49.5t-25.5 -35t-19.5 -11l-14 5q-4 3 -4 10q0 8 6.5 27t24 52t39 67.5t39.5 58.5q16 23 33.5 45t34.5 43.5t32.5 43t27.5 45.5 q10 17 21.5 29.5t29.5 17.5q7 -2 18.5 -6.5t23 -10t20 -12t10.5 -13.5q1 -6 1 -12t-1.5 -16t-5 -23l-7 -26t-4.5 -25q-1 -15 -1 -30q0 -11 1 -27.5t6 -44.5q2 -60 2 -121t2 -121q1 -11 3 -31.5t2 -34.5q0 -16 -2.5 -39t-14 -43.5t-33.5 -20.5q-4 0 -9 1q-29 2 -48 15 t-29.5 35t-13.5 48t-3 52v15z"/>
<glyph glyph-name="two" horiz-adv-x="479" unicode="2" d="M332 -6q-34 2 -58 4.5t-42.5 6t-34.5 8.5t-34 11q-16 7 -30 14.5t-22.5 17t-9.5 22t11 28.5q26 36 40.5 79t28.5 82q11 36 26.5 75.5t27 80t15 67t3.5 38.5q0 26 -7 50q-8 40 -22.5 45.5t-22.5 5.5q-14 0 -34 -12t-41 -42t-27 -66q-2 -6 -3 -14.5t-0.5 -17.5t4.5 -16.5 t12 -12.5q0 -11 -6.5 -20t-15.5 -15t-18.5 -9t-15.5 -3q-15 -2 -24 5t-13.5 20t-4.5 29t3 32q8 27 27 63t47 68.5t64 54.5t78 22q21 0 43 -7t41 -19t31.5 -29t14.5 -36q7 -32 7 -63q0 -22 -5.5 -60t-23.5 -89.5t-43 -97.5t-49 -83t-42.5 -63t-25.5 -37q16 -6 50.5 -9t72 -5 t70 -3.5t45.5 -4.5q6 0 15 -1.5t17.5 -5t14 -9.5t5.5 -14q0 -2 -2.5 -12.5t-16 -23t-39 -21t-64.5 -8.5h-17z"/>
<glyph glyph-name="three" horiz-adv-x="464" unicode="3" d="M235 118q33 10 53 35t26 55q2 12 2 25q0 18 -5 37q-9 31 -34 54q-21 19 -45 23q-24 5 -49 7t-46 9t-33 31q-5 8 -5 16q1 6 5 14q10 16 27 32q18 16 40 34q23 18 39 36q16 20 21 40q1 5 1 10q0 16 -11 34q-4 9 -16 10q-12 2 -27 -2q-14 -4 -30 -12t-26 -20q-5 -6 -13 -16 t-17 -18q-10 -8 -20 -12q-10 -2 -20 9t-10 25q0 6 2 12q6 20 22 40t38 38t42 26q40 16 75 16h5q36 -2 63 -18q26 -16 39 -43q11 -23 11 -50q0 -6 -1 -13q-3 -27 -16 -54t-30 -51q-17 -23 -36 -43t-35 -30h7q26 0 54 -6q32 -8 64 -23q30 -15 56 -38t42 -53t18 -68v-12 q0 -32 -12 -68q-10 -26 -30 -48t-48 -40t-60 -30t-63 -18q-16 -2 -31 -2q-20 0 -40 4q-34 8 -62 27q-28 18 -48 42q-22 24 -35 49q-13 26 -17 50q-1 9 -1 16q0 14 4 25q7 21 13 19t16 -18q10 -15 24 -37q14 -21 36 -39t53 -25q10 -2 22 -2q23 0 52 9z"/>
<glyph glyph-name="four" horiz-adv-x="430" unicode="4" d="M75 406q11 -4 25 -10t26 -8t19 1q8 3 8 17q-1 27 -3 54t-2 50q-20 -27 -36 -50t-37 -54zM278 307q-2 1 0 -21t4 -56t4 -74q1 -30 2 -57v-18q0 -35 -6 -60q-4 -25 -14 -27q-4 -1 -9 -1q-8 1 -18 3q-15 4 -29 10q-14 7 -24 16t-14 19q-10 25 -14 53t-6 54l-2 40v14 q0 27 1 52q-1 20 -1 30t-4 14t-14 6t-28 8q-27 4 -53 16t-46 31q-13 13 -13 30q0 6 2 13q6 26 22 52t38 50q20 24 30 37q17 25 41 55q25 30 49 54t47 39q16 10 29 10q5 0 10 -2q4 -10 0 -17q-4 -6 -10 -14t-14 -16t-12 -20q10 -16 18 -51t16 -73q6 -38 10 -69q4 -32 3 -42 q0 -1 12 0t30 2q19 1 39 2q10 1 19 1q10 0 19 -1q18 -1 30 -5t12 -14q0 -16 -20 -30t-44 -22q-26 -10 -52 -16t-40 -5z"/>
<glyph glyph-name="five" horiz-adv-x="539" unicode="5" d="M256 95q34 14 55 36.5t33 46.5t17 45.5t7 33.5v6q0 25 -16.5 37t-31.5 13t-19 1q-22 0 -47 -7.5t-43 -20.5q-40 -38 -60 -42t-26 -4q-26 0 -48 22q-18 16 -29 38t-16 46t-5.5 38.5t-0.5 19.5q0 19 2 37q4 29 11 62.5t11 62.5q-11 6 -21 13.5t-14 15t-4 13.5q0 3 1.5 10 t15.5 17q22 16 39 18t27 2q13 0 31 -3t41 -9t45 -8q12 -2 27 -2q19 0 51 4t55 5t29 1q32 0 60 -7.5t32 -37.5q1 -11 -17 -19t-47 -13.5t-65 -9.5t-70.5 -6t-63.5 -3.5t-44 -2.5q3 -39 3 -77q0 -14 -0.5 -28.5t-0.5 -29.5q0 -39 3 -81q12 19 36.5 40.5t55.5 38.5t60 25.5 t50 8.5q11 0 32.5 -3.5t49 -27t43.5 -71.5q14 -44 15 -65.5t1 -29.5q0 -26 -5.5 -51t-19.5 -48t-32 -44q-24 -30 -56.5 -51.5t-69.5 -34t-66.5 -15.5t-49.5 -3q-19 0 -38 2t-43 8t-45.5 15.5t-34.5 21.5t-13 27q0 20 23 20t55.5 -3.5t53.5 -4.5t25 -1q34 0 66 13z"/>
<glyph glyph-name="six" horiz-adv-x="565" unicode="6" d="M211 195q-1 -3 5 -13t20 -21q12 -12 30 -25q18 -12 38 -22t44 -13q7 -1 15 -1q16 0 32 5q19 5 29 17t15 28q3 12 3 25v6q-1 16 -5 28q-11 35 -39 52q-25 15 -55 15h-7q-34 -2 -68 -22t-57 -59zM221 30q-32 18 -45 29t-17 4q-7 -25 -7 -45t-1 -34t-3 -22t-12 -7h-2 q-5 -1 -11 9q-8 12 -14 33q-7 21 -9 51q-1 10 0 20q0 20 3 42q1 5 -9 17t-24 38t-28 70q-16 44 -28 115q-4 19 -6 56q-1 13 -1 27q1 27 3 55q4 44 20 92t49 90q36 46 69 60q15 6 27 6q15 0 27 -9q0 -9 -6 -16t-14 -15q-9 -8 -20 -16q-11 -10 -21 -24q-13 -42 -23 -87 t-10 -92q2 -63 8 -101t13 -56q7 -20 13 -26t8 -5q3 9 15 22t27 27q14 14 30 26t27 19q51 26 97 26q24 1 47 -7q66 -20 120 -85q16 -21 23 -57q3 -17 3 -35q0 -21 -4 -43q-9 -42 -35 -81q-26 -40 -77 -66q-55 -29 -100 -29h-8q-48 3 -94 24z"/>
<glyph glyph-name="seven" horiz-adv-x="586" unicode="7" d="M514 312q-32 -6 -56 -6t-26 -8q-4 -14 -10 -43t-14 -61l-15 -60q-8 -28 -14 -41q-7 -19 -15 -37t-16 -34t-18 -24q-8 -7 -17 -6h-4q-14 2 -20 24q-7 22 -7 54v9q0 29 3 61q3 38 7 74q4 34 8 62t6 39q-15 5 -40 7t-53 4q-27 2 -57 2q-30 2 -54 4t-40 6t-18 11t14 17t39 20 q24 9 52 15q24 5 43 5h6q8 -2 28 -2t39 1t33 3t15 3q13 58 15 112t9 103h-22q-28 0 -58 2l-82 4q-15 1 -31 0q-26 0 -50 -2q-40 -2 -81 -13q-8 14 -8 25q0 7 3 13q8 16 30 27q22 12 56 18t72 9t76 3t71 -2t57 -6t31 -8t21 -14t28 -24t23 -30q10 -16 11 -29q-3 -47 -10 -103 t-13 -103q0 -1 7 -3t17 -4q9 -2 21 -2h22q18 -2 32 -6t25 -10t18 -15q7 -8 8 -15q1 -10 -11 -14t-28 -6l-32 -4t-26 -2z"/>
<glyph glyph-name="eight" horiz-adv-x="416" unicode="8" d="M225 288q-10 -24 -23 -54q-12 -30 -24 -58t-18 -51q-6 -22 -1 -28q7 -7 27 -3t43 14t43 24t25 30q4 14 -1 30q-4 16 -16 33t-26 33t-29 30zM378 638q3 -11 3 -23q-1 -25 -11 -53q-16 -44 -38 -85q-24 -42 -47 -77t-29 -51q0 -2 19 -21q19 -18 42 -48t43 -66t24 -72v-8 q0 -33 -21 -63q-23 -34 -86 -59q-21 -8 -51 -10q-12 -1 -25 -2q-17 0 -34 2q-29 4 -53 14t-31 29q-7 14 -7 35v10q2 28 10 60t20 67q12 33 24 63t22 52t12 31q0 1 -12 7t-27 18q-17 12 -35 29t-32 39t-20 48q-3 12 -2 24q0 16 4 34q6 25 20 47q14 21 30 39t27 30 q12 12 12 17q-1 5 -9 7t-20 0q-12 0 -23 -2q-12 -2 -18 -5q7 36 33 52t60 17h5q31 0 67 -11q38 -12 72 -30q32 -18 55 -41t27 -44zM235 564q4 16 8 31q5 17 5 29q0 10 -6 18t-18 12q-4 1 -9 1q-11 -1 -27 -7q-22 -10 -44 -26t-39 -36t-18 -39q0 -22 8 -41q7 -19 21 -35 q14 -17 32 -29t37 -21q6 19 13 36l14 34q6 17 12 35t11 38z"/>
<glyph glyph-name="nine" horiz-adv-x="541" unicode="9" d="M271 384q13 10 23 24t12 28t-3 25q-6 12 -22 19q-13 6 -17 16t-6 24q-2 12 -4 26t-13 26q-10 12 -31 22t-59 14q-17 -16 -22 -44q-3 -14 -3 -29t3 -30q5 -31 17 -60t32 -48q19 -19 43 -25q6 -1 12 -1q18 0 38 13zM122 39q-23 9 -45 23t-37 30t-21 32q-2 6 -2 11q0 8 5 15 q7 9 20 9q4 0 10 -1q21 -4 52 -13t71 -19t87 -10q45 0 76 23t48 58q18 35 20 76v14q0 33 -10 63l-16 36t-29 26q-5 -6 -10 -18t-13 -27t-19 -29q-13 -14 -31 -22q-14 -6 -32 -6h-12q-26 2 -64 21q-48 21 -82 57t-44 80q-4 18 -5 36q0 28 10 58q16 50 68 103q22 24 56 29 q12 2 24 2q23 0 46 -6q37 -10 69 -34t50 -57q7 -14 7 -28q0 -5 -1 -10q-3 -20 -10 -37q-8 -17 -16 -29l-10 -15q4 -2 23 -8t43 -18q24 -10 46 -26t33 -35q10 -18 18 -40t13 -45q4 -22 6 -44q1 -13 1 -24v-14q-8 -52 -24 -88t-48 -65q-29 -33 -65 -49t-76 -18h-14 q-34 0 -72 8q-46 10 -94 25z"/>
<glyph glyph-name="colon" horiz-adv-x="330" unicode=":" d="M237 39q-17 -19 -37 -31t-40 -12q-3 0 -6 -1q-18 -1 -35 9q-20 10 -36 35q-9 15 -11 33q-1 5 -1 9q1 11 5 23q6 16 18 28q13 12 33 16q11 2 20 2q7 0 13 -2q12 -4 16 -11q4 -9 2 -21t-10 -27q2 -4 15 -5t27 -4t24 -12t3 -29zM256 442q-6 -18 -15 -34t-23 -26t-30 -10h-2 q-15 0 -35 10q-13 6 -27 14t-26 18t-18 24q-8 14 -8 34q0 14 15 22t37 12q13 2 27 2q10 0 20 -1q25 -2 45 -10q20 -7 33 -21q8 -10 8 -23q0 -5 -1 -11z"/>
<glyph glyph-name="semicolon" horiz-adv-x="316" unicode=";" d="M211 82q13 -10 18 -22t3 -28q-2 -14 -8 -30t-16 -30q-16 -26 -38 -50t-49 -41q-16 -11 -32 -15q-9 -2 -15 -2t-11 2q-11 4 -11 16t15 33q18 25 25 47q8 22 12 42t10 36q6 17 22 32q22 20 40 21h2q16 0 33 -11zM108 437q26 45 53 53q6 2 12 1q22 0 47 -20q12 -9 20 -30 q5 -14 5 -29q1 -6 -1 -14q-4 -22 -22 -42q-18 -19 -55 -23h-6q-14 1 -27 7q-16 8 -26 22q-12 17 -12 39q0 17 12 36z"/>
<glyph glyph-name="less" horiz-adv-x="321" unicode="&lt;" d="M210 106q-40 16 -78 44t-62 62q-25 36 -25 72q0 34 32 62q17 14 39 36t47 40t51 26q12 4 24 3l28 -5q26 -10 28 -26v-6q0 -12 -10 -28q-12 -18 -32 -39q-22 -19 -44 -37t-42 -33q-19 -15 -27 -23q11 -8 31 -18t41 -23q22 -13 44 -28t38 -31q5 -8 11 -16t10 -16 q4 -9 4 -15t-5 -10q-11 -8 -29 -8q-8 -1 -16 1q-30 4 -58 16z"/>
<glyph glyph-name="equal" d="M55 330q0 26 22 41t55 15q27 6 60 6h11q27 0 55 -2q34 -2 65 -8q31 -4 56 -10t41 -11t19 -8q9 -9 3 -23t-26 -26t-56 -14q-8 -1 -17 -1q-30 0 -68 9h-153h-26t-24 4t-16 10q-3 4 -3 8q0 5 2 10zM77 232q22 16 59 24t80 10h22q32 0 64 -4q44 -4 80 -12t58 -18t22 -22 q0 -6 -18 -12t-47 -14q-29 -6 -67 -12t-78 -9t-80 -3t-73 6q-7 4 -15 14t-12 20q-4 9 -4 16q0 11 9 16z" unicode="="/>
<glyph glyph-name="greater" horiz-adv-x="354" unicode="&gt;" d="M115 141q11 21 33 47t44 51q22 23 38 41q17 18 20 22q-7 4 -25 13t-40 21q-23 12 -43 26t-32 29q-9 12 -9 23q0 2 1 6q3 14 28 28q13 7 28 7q10 0 20 -3q26 -8 51 -24t47 -36t34 -33q32 -32 36 -61l2 -14q0 -22 -10 -42q-14 -26 -40 -48t-52 -42q-28 -19 -54 -34t-37 -25 q-10 -7 -19 -7h-4q-10 2 -16 10t-8 20q-1 12 7 25z"/>
<glyph glyph-name="question" horiz-adv-x="412" unicode="?" d="M222 77q16 3 30 -5t22 -21t4 -27q-3 -14 -23 -21q-8 -2 -14 -2q-11 0 -21 6q-15 10 -22 24q-7 15 -2 29t26 17zM178 401q2 7 12 16t26 21t33 28q18 16 34 40q12 18 21 32q8 14 14 30t8 34v9q0 14 -3 31q-3 16 -15 18q-3 1 -7 1q-10 0 -24 -5q-19 -7 -41 -21t-42 -30 q-20 -15 -37 -31q-16 -16 -22 -27q-6 -9 -12 -27q-7 -18 -15 -34t-20 -22t-27 9q-26 23 -29 47q-1 4 -1 9q0 21 12 48q14 29 35 57t47 53t57 41t64 22q12 2 23 2q23 0 42 -8q29 -12 49 -37q20 -24 28 -56q5 -20 5 -40q0 -12 -2 -24q-3 -17 -19 -47t-38 -60q-22 -31 -44 -57 t-35 -34q-11 -7 -11 -17t4 -22t10 -23q6 -12 10 -24q2 -12 6 -31q4 -17 5 -34q0 -22 -11 -36q-10 -14 -37 -13q-17 1 -29 13t-18 32t-10 44q-2 24 -2 47t2 43t4 33z"/>
<glyph glyph-name="at" horiz-adv-x="815" unicode="@"/>
<glyph glyph-name="A" horiz-adv-x="618" unicode="A" d="M261 599q-10 -7 -16 -26t-9 -45q-2 -26 -4 -58t-2 -62v-58v-44q4 -1 20 -1q16 1 36 1t44 2q23 2 42 3q19 2 31 4t12 4q-2 14 -11 42q-8 27 -22 61t-30 68t-34 62q-16 26 -32 40t-25 7zM537 -137h-5q-8 1 -14 5q-7 6 -11 16t-5 24q-1 12 -1 23q-1 11 -3 41t-8 71t-17 88 t-29 89q-2 5 -17 5q-9 0 -22 -2q-35 -5 -89 -5h-14h-20q-16 -2 -29 -4t-21 -4t-9 -3q-1 -13 -3 -33t-4 -44q-4 -23 -10 -46t-18 -41q-11 -18 -27 -29q-14 -9 -32 -9h-7q-16 1 -22 30t-8 66q-2 26 -2 51v20q1 34 1 43q-55 7 -75 19q-15 9 -14 19q0 3 1 5q6 12 33 24 q27 11 66 18q4 36 9 90t15 110t30 106q18 50 50 76q13 10 32 10q6 0 12 -1q26 -4 56 -21t58 -44t48 -60q12 -22 26 -57t26 -71t23 -68q11 -31 18 -45q2 -4 16 -3q15 1 31 0t30 -7q15 -6 15 -26q1 -15 -11 -25q-12 -12 -28 -18q-15 -8 -28 -12t-13 -5q12 -63 23 -127t16 -114 q3 -29 3 -52q0 -19 -2 -34q-4 -34 -20 -39z"/>
<glyph glyph-name="B" horiz-adv-x="491" unicode="B" d="M370 153q11 29 11 59v9q-2 33 -14 61t-32 46t-41 20q-13 2 -26 2q-11 0 -20 -2q-22 -4 -38 -10q-16 -7 -27 -16t-15 -17q-8 -17 -12 -39q-3 -16 -4 -33q0 -8 1 -16q13 10 29 16t31 9q15 4 27 2t16 -7q8 -6 0 -10q-8 -3 -22 -11t-28 -21q-15 -13 -24 -38q-3 -11 -3 -22 q-1 -9 1 -15q4 -16 27 -27q19 -10 43 -10q0 1 2 1q26 0 50 8t42 24q19 16 26 37zM304 608q-5 3 -11 3q-11 -1 -21 -9q-16 -12 -32 -36t-32 -52q-14 -30 -23 -56t-11 -42q-2 -17 4 -16q31 3 56 19q24 17 42 39t28 47t14 47q2 11 2 20q0 10 -2 18q-4 16 -14 18zM288 391h10 q38 1 68 -13q34 -16 56 -44t34 -62q12 -36 12 -72v-7q0 -33 -8 -63q-10 -34 -29 -57q-28 -31 -66 -51q-37 -20 -77 -22q-5 0 -11 -1q-34 1 -66 15q-37 16 -62 55q-5 7 -5 3v-15q0 -10 -1 -23t-5 -23q-4 -11 -16 -15q-4 -2 -11 -1q-9 0 -21 4q-30 9 -44 29t-21 44t-9 47 t-4 36v29q0 29 1 55q3 39 7 77t12 76t21 81q9 33 21 63t27 56t37 50t52 45q31 20 66 20h4q38 -1 68 -19q32 -18 50 -48q13 -22 13 -49q0 -10 -2 -21q-6 -28 -17 -54q-10 -26 -24 -48t-30 -42q-16 -19 -30 -35z"/>
<glyph glyph-name="C" horiz-adv-x="526" unicode="C" d="M514 235q0 1 -1 1v0q1 0 1 -1zM514 235l1 -3h-1v3zM513 236q1 -3 1 -8q0 -6 -2 -16q-2 -20 -6 -42t-10 -42q-5 -20 -8 -24q-20 -26 -45 -51t-57 -38q-45 -18 -90 -18q-6 1 -14 1q-52 4 -96 26t-81 62q-36 40 -58 90q-21 47 -27 108q-3 26 -3 53q1 35 5 69q8 62 32 116 t64 87q43 35 87 45q31 7 60 7q13 1 25 -1q41 -4 76 -21q35 -16 59 -34q7 -5 25 -18t28 -27q12 -14 10 -26q-2 -11 -35 -12h-9q-17 0 -33 3q-20 3 -40 9t-40 10t-42 5q-115 0 -142 -157l-7 -56t-4 -66q0 -4 -1 -7q0 -31 4 -60q5 -33 15 -60t28 -44t49 -19h10q23 0 43 6 q26 8 48 24q24 14 46 31t40 34q4 3 16 19t28 29q16 14 30 21t20 -6q1 -1 1 -2z"/>
<glyph glyph-name="D" horiz-adv-x="562" unicode="D" d="M422 376q-1 27 -9 60.5t-22.5 65.5t-35 57.5t-46.5 36.5q-21 9 -40 14t-34 5q-6 0 -18 -1.5t-24 -14.5t-12 -41t2.5 -93t3 -101.5t0.5 -57.5q0 -31 -1 -72.5t-7 -93.5q-3 -26 -7.5 -53t-11.5 -50t-17.5 -38t-25.5 -17h-3q-18 0 -30 12.5t-20 34t-12 47.5t-5.5 51.5 t-1.5 47.5t-1 34q-1 48 -1 95q0 24 0.5 71t2.5 118q0 12 -2.5 31.5t-4.5 41t-2 42.5t5 37.5t16 25.5t27 9h7q8 -1 15 -1q12 0 27.5 2.5t35.5 6t34.5 5t23.5 1.5q13 0 26 -2q24 -3 51.5 -14.5t54.5 -26.5t51 -33t40 -34q45 -49 62.5 -106t17.5 -111q0 -6 -1 -39t-20 -87.5 t-49 -91.5q-38 -47 -90.5 -76t-109.5 -34q-10 -2 -22 -2t-22.5 1.5t-17.5 6t-7 13.5t18 15t44 14.5t56 22.5t54 39q35 38 47 89t12 101q0 18 -1 37z"/>
<glyph glyph-name="E" horiz-adv-x="469" unicode="E" d="M360 444q-12 7 -24 7l-22 -9q-23 -10 -51 -36q13 1 32 5.5t35.5 10.5t26 12.5t3.5 9.5zM439 141q7 -5 7 -14q0 -4 -3 -15t-17.5 -30t-37.5 -36.5t-51 -27.5q-24 -9 -50 -15.5t-41.5 -7t-19.5 -0.5q-24 0 -52 5.5t-59 22.5q-65 34 -83 74t-18 75q0 14 5.5 46.5t35.5 79 t67 78.5q-54 24 -74 59t-20 71q0 3 1 25.5t21.5 63t51 73t64.5 51t63 18.5h6q30 -2 61.5 -14.5t55.5 -28.5t35 -32.5t1 -26.5q-6 -6 -19.5 -0.5t-34.5 13.5t-46.5 14t-51.5 6h-15q-54 -3 -76.5 -37.5t-26.5 -88.5v-11q0 -26 8.5 -47t21 -35t24 -19.5t14.5 -3.5 q36 30 76.5 49t63.5 22t32 3q24 0 46.5 -10t28.5 -42q-1 -17 -16 -31t-38 -25t-50 -20t-50 -15t-39 -9.5t-17 -4.5q-26 -19 -51.5 -43t-37.5 -61q-6 -17 -6 -33q0 -15 8 -35t33.5 -36.5t51 -20.5t40.5 -4q24 0 51 6q15 2 33 9t36 12.5t33.5 8t24.5 -4.5z"/>
<glyph glyph-name="F" horiz-adv-x="426" unicode="F" d="M285 -3q-3 -17 -19 -19q-2 0 -6 -1q-16 -1 -32 7q-20 8 -40 26q-20 16 -28 35q-8 15 -14 39t-12 50q-4 26 -8 50t-4 42q-6 48 -6 74t-11 25q-12 -1 -32 5q-21 6 -35 14q-18 10 -17 20q0 8 17 15q17 3 35 6t36 7q5 29 10 64t11 64q12 48 36 82t54 54q32 20 70 26 q20 3 39 4q19 0 39 -3q14 -3 40 -9t52 -16t48 -22t29 -27q1 -4 1 -8q0 -8 -6 -12q-10 -7 -26 -7h-5q-15 0 -33 3q-22 3 -42 7t-34 8q-15 4 -19 5q-27 8 -47 8q-12 0 -22 -3q-27 -7 -43 -26q-15 -20 -23 -46t-10 -52q-2 -22 -3 -41q1 -3 1 -7v-14q0 -12 -1 -20h12h27 q28 -2 58 -8q28 -6 50 -14q20 -9 20 -22q0 -7 -22 -12q-22 -6 -50 -10t-54 -8t-37 -4q-1 -8 -1 -21t1 -33q3 -40 11 -88t18 -100q12 -50 27 -87z"/>
<glyph glyph-name="G" horiz-adv-x="579" unicode="G" d="M427 37q-25 -15 -47 -34q-20 -17 -38 -40t-27 -52q-3 -16 -3 -27q0 -10 3 -18q5 -14 19 -16q2 0 4 -1q12 0 28 9q18 10 33 28q19 14 25 39t7 50v10q0 24 -4 52zM428 -186q-26 -20 -60 -30q-25 -7 -50 -8q-8 0 -16 1q-32 3 -54 19q-23 16 -29 44q-3 15 -3 29q0 15 3 29 q5 28 17 52t33 48q20 24 44 47q28 25 57 45t55 37v47q-1 30 -1 66t-2 73t-7 68q-21 -59 -43 -115t-52 -104q-28 -47 -65 -82t-87 -51q-21 -7 -38 -7q-15 0 -27 5q-27 10 -45 35q-18 24 -26 60q-9 36 -11 75q-1 13 -1 26q0 25 3 51q4 38 13 69q16 53 42 109t61 105t77 85 t85 47q16 3 30 3q15 0 27 -3q26 -7 44 -22q20 -15 34 -35t20 -37q7 -18 7 -31t-7 -14h-4q-13 0 -27 17q-17 20 -47 48q-12 9 -28 7t-35 -11q-19 -10 -38 -28t-34 -42q-29 -43 -50 -85t-33 -84t-18 -88q-4 -33 -4 -70q0 -14 1 -29q1 -47 13 -63q9 -11 21 -11q5 -1 10 1 q19 6 43 31q24 23 46 57t41 72t29 73q8 27 22 57t34 50t45 26q5 1 11 2q21 0 44 -17q10 -7 16 -29t11 -52q4 -30 6 -62q3 -34 3 -65v-29v-27q0 -25 -2 -37l27 18t30 16t29 8q14 1 23 -10q4 -4 4 -10q-1 -6 -5 -12q-10 -13 -28 -28q-18 -16 -41 -32t-41 -31q-2 -2 -4 -32 t-10 -72t-28 -87t-60 -76z"/>
<glyph glyph-name="H" horiz-adv-x="574" unicode="H" d="M397 312q-15 -2 -37 -2q-5 0 -15.5 0.5t-25.5 0.5q-14 0 -35 -0.5t-41 -2.5t-21 -7q-3 -17 -4.5 -42t-2.5 -48t-1 -40q0 -9 0.5 -26t0.5 -35q1 -8 1.5 -23t1 -31t0 -30t-2.5 -20q-4 -11 -12 -11q-2 0 -9 3t-19 15t-21 25.5t-10 16.5q-17 34 -31 71.5t-17 74.5 q-2 22 -2.5 46.5t-2.5 44.5q-9 -1 -22 -2.5t-25.5 -0.5t-22.5 6.5t-14 19.5q1 16 6.5 25.5t16 14.5t25.5 8l35 7q0 14 -1 40.5t-1.5 58.5t-0.5 67t2.5 66t7.5 54t15 31q17 15 30 15q7 0 19.5 -7.5t25 -38t21 -73t13 -83.5t7 -74t3.5 -43q23 4 50.5 5t51 1.5t39.5 2.5t16 8 q0 19 -2 55t-4 74t-2 70.5t4 44.5q8 25 21.5 28t26.5 -6t23 -25.5t11 -29.5q1 -23 4.5 -48.5t6.5 -52t4 -47.5t1 -35v-18q14 -2 29.5 0t29.5 4t24.5 1t14.5 -8q1 -3 1 -6q0 -9 -9.5 -18.5t-26.5 -19t-34.5 -18t-25.5 -15.5q-1 -2 -0.5 -11.5t1 -23t1.5 -29.5t1 -31 q0 -10 0.5 -28t0.5 -31t-0.5 -35.5t-2 -53t-5.5 -54t-9 -32.5t-10 -9q-4 0 -8 3q-21 17 -30.5 56.5t-14 86.5t-6.5 94t-6 80z"/>
<glyph glyph-name="I" horiz-adv-x="306" unicode="I" d="M221 383q1 -10 1 -21q0 -16 -2 -36q-3 -34 -9 -70t-15 -72q-10 -36 -20 -63t-21 -43q-9 -13 -18 -13h-3q-13 3 -21 25q-7 22 -13 55q-6 32 -8 70q-2 39 -4 73t-3 62t-2 38q-3 22 -5 53t-2 65q0 17 -1 33q1 17 1 33q0 34 2 60t3 43q2 15 5 15q46 0 74 -36q26 -34 39 -80 t17 -98t5 -93z"/>
<glyph glyph-name="J" horiz-adv-x="453" unicode="J" d="M74 130q10 -12 38 -20q20 -6 44 -7q8 0 16 1q32 3 62 21t44 59q8 32 12 73t4 85t-4 86q-4 43 -8 80q-4 36 -8 64t-8 40q-5 20 -13 34t-14 24q-7 10 -7 20t11 21q16 16 32 16q3 -1 7 -1q18 -4 34 -24t29 -48q13 -30 23 -60t16 -56t8 -36q7 -38 16 -82t14 -92q4 -36 4 -72 v-22q-2 -46 -15 -87t-41 -75t-75 -55q-56 -26 -107 -26q-16 0 -30 2q-64 10 -121 58q-24 21 -29 57q-2 15 -2 30q0 21 4 41q7 35 21 61t28 26q10 0 13 -8q2 -8 2 -20t-2 -28l-4 -32t-1 -28q1 -13 7 -20z"/>
<glyph glyph-name="K" horiz-adv-x="521" unicode="K" d="M100 -20q-14 1 -24 23q-10 21 -14 53q-6 32 -9 68t-5 69q-2 32 -2 54q-1 22 -3 25q-14 22 -14 42t6 38q5 18 13 34q8 15 9 24q3 22 5 56t4 70t6 70t11 55q9 27 25 37q13 8 26 8h7q17 -2 29 -16q12 -13 14 -32q1 -23 2 -54q2 -31 2 -61v-54t1 -32q16 11 30 25t31 34 q16 20 40 42t59 48q27 20 59 37t63 30q15 5 27 3t18 -8q4 -5 4 -13q0 -3 -1 -5q-2 -12 -15 -25q-20 -19 -50 -47t-65 -59q-34 -31 -68 -63t-61 -62q-27 -29 -43 -52q-15 -22 -15 -34q0 -24 16 -48q13 -20 29 -46q11 -17 27 -32q16 -16 35 -24t41 -8t43 14q27 17 51 17 q2 -1 6 -1q26 -2 44 -16t22 -33l2 -10q0 -13 -9 -22q-36 -38 -70 -52q-26 -11 -51 -11q-6 0 -14 1q-32 4 -61 22t-55 44q-26 27 -48 57t-40 59q-2 3 -3 -13t-3 -44q-2 -27 -5 -59q-4 -32 -11 -60q-6 -28 -18 -46q-11 -17 -28 -17h-2z"/>
<glyph glyph-name="L" horiz-adv-x="407" unicode="L" d="M249 412q32 33 48 69q13 29 13 65v5q-1 39 -36 81q-4 3 -6 -5t-4 -23t-5 -35q-2 -20 -3 -41q-4 -50 -7 -116zM36 17q4 -14 13 -22t21 -8t25 11t27 35q-11 8 -28 14q-17 7 -32 7t-24 -8t-2 -29zM-17 -14q-8 19 -8 37q1 13 5 25q10 29 32 48q23 19 56 24q8 1 17 1 q25 0 51 -11q2 -1 5 10t5 29q2 19 2 41t-3 44q-13 -7 -31 -14t-36 -10q-18 -4 -32 -2t-14 12q-2 9 8 18t26 20t36 26t38 37q2 1 2 27t2 64q2 40 4 86t8 88t14 74t22 43q21 18 47 18q5 -1 11 -1q34 -4 62 -28t47 -62q18 -37 18 -81q0 -63 -21 -114q-19 -45 -41 -77t-40 -49 t-18 -22q-2 -27 -2 -57q-1 -30 -1 -58t-2 -50q-2 -23 -8 -38q35 -20 64 -42q30 -22 62 -37t73 -21q15 -2 31 -1q31 0 70 6q16 3 16 -9q0 -11 -14 -25q-15 -15 -46 -29t-80 -16q-9 -1 -18 -1q-38 1 -71 11q-41 12 -72 29q-36 19 -67 45q-6 -9 -16 -20q-8 -10 -20 -20t-29 -18 q-17 -10 -37 -12q-7 -1 -13 0q-13 0 -27 3q-20 5 -36 19q-18 14 -31 40z"/>
<glyph glyph-name="M" horiz-adv-x="854" unicode="M" d="M871 -80q-98 8 -154 81.5t-77 194.5q-8 43 -10.5 88t-3.5 89.5t-1 88t-1 84.5q-30 -4 -52 -41.5t-37.5 -92t-25.5 -118t-17.5 -120t-12.5 -98t-10 -50.5q-6 -14 -20 -22t-24.5 -9t-14.5 -1l-20 4q-21 4 -31 15q-24 26 -37 69.5t-15 87.5q-4 106 -15.5 216.5t-34.5 212.5 q-7 -5 -14.5 -10.5t-15 -16t-16 -27.5t-17.5 -44q-7 -21 -13 -58t-10.5 -82t-8 -94t-6 -93.5t-4 -80t-2.5 -54.5q-1 -15 -15.5 -24.5t-25 -10t-12.5 -0.5l-27 8q-26 7 -35 26q-14 28 -17.5 58t-3.5 55q0 10 1 33t6.5 58t10.5 66q4 27 12 69.5t20.5 89t30.5 91.5t43 77.5 t50 43t43 10.5q19 0 41 -8q27 -10 46 -44t31 -82t18.5 -104.5t9.5 -110.5t3.5 -100t1.5 -73q8 21 18.5 57.5t24 81t30 92t36.5 91t43 78.5t47.5 52t49.5 17q4 0 20.5 -1.5t49.5 -32.5q22 -21 36.5 -67.5t25 -105.5t18.5 -124t16.5 -122t18.5 -99.5t26 -57.5q24 -24 46 -30.5 t39 -7.5t29.5 -1t17.5 -11q2 -3 2 -7q0 -6 -5.5 -14.5t-19.5 -17t-32 -13.5t-35 -5q-7 0 -13 1z"/>
<glyph glyph-name="N" horiz-adv-x="547" unicode="N" d="M157 130v-11q0 -13 -1 -31q-2 -26 -10 -48t-26 -28q-3 -1 -7 -2q-16 0 -39 21q-18 14 -28 45q-10 32 -12 74q-2 30 -3 63q1 15 1 31q2 52 6 105q6 55 14 109t16 103q3 19 10 41t16 42q8 20 20 34t25 17h3q11 0 24 -11q14 -13 29 -47q18 -43 27 -90t15 -95t12 -94 q5 -46 17 -88t33 -78t56 -63q15 9 23 29t14 48q4 27 5 57q1 15 1 29t-1 29q-1 27 -3 51t-1 37v23q1 18 1 39q2 35 4 69q3 34 7 66t9 54t9 32q2 6 5 6l3 -3q2 -5 4 -25l5 -50t7 -68t9 -76t11 -75q6 -36 13 -63q13 -29 19 -71q5 -32 5 -64q0 -11 -1 -22q-2 -44 -11 -84 t-25 -64q-18 -27 -39 -33q-7 -2 -15 -2q-14 0 -28 6q-23 10 -45 32t-42 52q-20 28 -36 59t-27 57q-9 22 -19 50t-18 56q-9 28 -17 58t-15 58q-17 64 -32 132q-2 -10 -4 -27q-2 -15 -2 -39q0 -8 -1 -17q0 -19 1 -42q1 -43 5 -89q5 -46 9 -87t8 -75t7 -52z"/>
<glyph glyph-name="O" horiz-adv-x="531" unicode="O" d="M147 522q-9 -20 -19 -64t-18 -98q-6 -51 -6 -103v-8q0 -56 14 -99q12 -43 40 -64q16 -12 37 -12q17 0 37 7q35 11 57 39q21 28 35 62t20 74q6 38 11 71q3 26 3 52q0 23 -2 47q-4 50 -18 93q-12 43 -32 75t-43 49q-9 4 -18 4q-12 0 -23 -8q-18 -13 -32 -35t-25 -45 q-11 -24 -18 -37zM397 71q-27 -33 -61 -53t-72 -24q-11 -1 -21 -2l-53 8q-38 12 -70 41q-60 53 -86 125q-26 74 -26 154q0 78 20 152q20 76 51 137q13 27 43 51t68 38q32 11 68 11h10q40 -2 75 -27q27 -20 40 -44t32 -54q49 -76 61 -156q6 -43 6 -83q0 -35 -5 -67 q-10 -70 -34 -126q-24 -54 -46 -81z"/>
<glyph glyph-name="P" horiz-adv-x="397" unicode="P" d="M328 640h-4q-37 0 -63.5 -20.5t-44.5 -50.5t-25.5 -61.5t-7.5 -52.5v-5q2 1 16.5 9t34.5 20.5t41.5 30t37 38t19.5 36t4 23.5q0 16 -8 33zM187 88q4 -18 6 -30.5t2 -19.5q0 -12 -3 -24q-8 -12 -19 -14t-19 -2t-20.5 2t-28 8.5t-24.5 12.5q-17 49 -24 102t-7.5 86t-0.5 46 q0 40 2.5 85.5t7.5 91.5q2 34 12.5 72t27.5 73.5t41 65.5t54.5 46.5t50 17t20.5 0.5q36 0 77 -21.5t51.5 -49.5t10.5 -51q0 -14 -5 -41t-30 -67.5t-57.5 -74.5t-69 -57t-68.5 -27q-1 -28 -1 -57t1.5 -72.5t12.5 -100.5z"/>
<glyph glyph-name="Q" horiz-adv-x="571" unicode="Q" d="M132 445q-23 -86 -23 -152q0 -45 11 -81q27 -86 138 -104q13 -2 22 -2q18 0 26 7q9 9 9 22q-1 5 -1 9q-4 20 -18 44t-30 46t-29 39q-13 16 -14 18q-3 15 7 20t26 3t36 -9t40 -16q19 -9 34 -18t21 -15q6 12 15 42q10 30 14 71q3 30 3 63q-1 12 -1 22q-2 44 -16 84 q-15 40 -46 70t-83 42q-5 1 -11 1q-13 0 -25 -7q-17 -10 -31 -29t-27 -43q-11 -24 -21 -50q-10 -24 -16 -45t-10 -32zM199 42q-47 23 -82 66q-35 42 -57 94t-33 106q-7 39 -7 73q0 14 1 27q3 36 11 81t23 87q16 42 43 74t69 43q33 7 73 9q7 0 14 1q33 -1 64 -7q38 -8 71 -24 t54 -44q19 -24 33 -54t24 -62t14 -64q4 -26 3 -51v-11q-3 -36 -7 -68t-8 -58t-9 -42q-4 -16 -4 -19q-1 -2 11 -17q12 -16 27 -38t33 -48t29 -49q4 -9 4 -16q0 -9 -7 -15q-10 -8 -26 -8h-12q-24 4 -56 22t-60 52q-2 0 -20 -16t-49 -28q-31 -14 -73 -17h-9q-38 0 -82 21z"/>
<glyph glyph-name="R" horiz-adv-x="536" unicode="R" d="M304 619q-30 -5 -53 -23t-41 -46q-18 -26 -30 -58q-14 -32 -26 -62q7 -3 16 -3q10 0 23 4q23 7 46 21t44 36q21 20 32 43q10 21 10 42q0 26 -21 46zM474 2q-34 14 -60 44t-46 59q-23 33 -47 75q-23 42 -51 78t-60 62t-69 26q-7 0 -11 -16t-5 -40q-2 -23 -3 -49t-1 -45 v-15q-1 -33 3 -63q4 -36 6 -64q0 -6 1 -12q1 -18 -3 -30q-4 -15 -22 -15h-2q-16 1 -31 10t-27 23t-22 34q-9 19 -12 40q-8 56 -8 127v9q0 76 15 152q13 76 43 144t81 113q29 26 65 39q30 11 59 11q5 -1 11 -1q34 -2 64 -20t47 -55q12 -27 12 -52q1 -14 -3 -27 q-10 -36 -38 -66t-65 -50t-70 -25q25 -9 55 -29t59 -46q29 -24 55 -50t47 -49q21 -25 35 -41t23 -30t15 -26q6 -14 14 -35q10 -26 10 -44q0 -5 -2 -11q-4 -20 -16 -31q-12 -9 -25 -11q-14 -2 -21 2z"/>
<glyph glyph-name="S" horiz-adv-x="539" unicode="S" d="M398 583q-12 -2 -32 -4.5t-43.5 -12t-49 -28.5t-49.5 -53q-22 -32 -22 -56q0 -11 10 -30t77 -48q34 -14 71.5 -24.5t70 -29t56.5 -51t32 -89.5q1 -10 1 -19q0 -32 -19 -59.5t-55 -48t-79.5 -30t-80.5 -9.5h-7q-71 0 -123 20t-83 46t-36.5 42.5t-5.5 23.5q0 12 9 17 t24.5 0t38 -13.5t51 -16.5t48 -8.5t23.5 -0.5q33 0 73 8.5t90 35.5q18 10 20 21.5t2 15.5q0 15 -10.5 33t-39 36t-74.5 28q-40 9 -78.5 19t-69.5 28t-51 46t-24 72v6q0 28 19 65t51.5 75t74.5 70.5t78.5 46.5t65.5 14q11 0 35 -4t50 -42q17 -26 37.5 -42.5t36 -27.5 t20 -17.5t4.5 -9.5q0 -6 -6 -13q-11 -11 -24 -8.5t-29.5 9.5t-33 12.5t-30.5 5.5q-7 0 -14 -1z"/>
<glyph glyph-name="T" horiz-adv-x="412" unicode="T" d="M292 602q4 -48 7 -108t3 -124q0 -9 1 -18q0 -56 -3 -108q-3 -62 -10 -110q-6 -50 -18 -80t-29 -32h-1q-10 0 -20 19q-10 20 -18 52t-15 72t-12 79q-5 38 -9 72t-6 54q-3 22 -5 52q-3 30 -3 62t-1 62t-2 52q-1 6 -11 8t-24 2q-16 2 -36 6t-38 18q-19 12 -19 21q0 2 1 4 q6 11 30 17t58 10t68 4q34 2 58 2q26 0 31 -1q9 -1 27 -1t42 -1t48 -3q26 -2 47 -4q21 -4 35 -8t13 -10q1 -10 -17 -20t-46 -20q-28 -8 -60 -14q-34 -6 -66 -6z"/>
<glyph glyph-name="U" horiz-adv-x="485" unicode="U" d="M131 511q5 -39 13 -91t19 -106t27 -104t38 -82q20 -29 38 -29q0 1 2 1q18 2 34 20q14 18 24 44t13 42q7 32 14 78t14 94t15 94t16 83q8 36 20 58q11 21 25 21h1q8 0 10 -14q2 -10 2 -24v-12q-1 -22 -3 -46t-3 -43q-1 -18 -1 -35q1 -13 1 -27q2 -31 2 -63q2 -32 2 -62 q0 -32 -4 -64q-4 -38 -14 -84t-29 -85t-51 -65q-31 -26 -80 -26h-4q-66 1 -111 30t-74 76q-29 46 -44 106t-19 123q-3 40 -3 80q1 22 1 44q2 61 8 111t14 82t13 38q8 11 16 11q3 1 5 -1q10 -4 17 -20q8 -16 14 -39t11 -45q6 -22 8 -42q2 -19 3 -27z"/>
<glyph glyph-name="V" horiz-adv-x="437" unicode="V" d="M160 172q-19 44 -34 93q-16 49 -28 99t-22 96q-10 48 -16 88q-7 40 -12 71t-8 47q-2 10 -2 17q0 17 9 23q9 7 22 7q5 0 11 -1q20 -4 38 -18q20 -14 26 -32q22 -50 30 -104t14 -112t18 -123q11 -64 38 -136q4 13 12 55t20 100q12 57 27 119t31 114t36 85q17 31 35 31h2 q1 -1 1 -6v-9q-2 -14 -5 -38t-7 -53t-6 -59t-2 -58t5 -48q5 -25 5 -56v-18q-2 -42 -10 -86t-22 -88t-28 -80t-29 -60q-14 -24 -24 -29q-5 -2 -10 -2q-10 1 -22 9q-17 14 -33 38q-16 26 -32 59q-15 33 -28 65z"/>
<glyph glyph-name="W" horiz-adv-x="838" unicode="W" d="M380 231q-6 -25 -12 -59t-18 -67q-10 -33 -26 -61t-43 -42q-22 -11 -41 -11q-11 -1 -20 3q-28 10 -50 38t-39 69q-17 42 -30 90t-21 98q-8 49 -15 93q-6 44 -9 78t-4 47v16q0 21 2 45q2 34 8 62t18 47q11 19 26 20h2q14 0 26 -13q12 -14 22 -36t16 -48t9 -47 q7 -58 14 -110q7 -53 15 -103t17 -102q10 -52 25 -108q19 16 34 56t29 90q15 50 29 101t33 91t44 60q15 12 33 12q13 0 27 -6q42 -18 67 -48q24 -30 38 -68t20 -80t12 -86t14 -84q9 -40 28 -74q8 24 15 78t16 119t21 133t30 121q7 21 16 41t18 35t18 23t17 5q19 -8 22 -33 q1 -9 1 -22q0 -22 -3 -52q-5 -48 -13 -124t-9 -184q0 -54 -18 -112t-47 -101q-21 -33 -52 -35h-10q-26 0 -52 12q-30 14 -56 38t-35 47q-21 47 -29 103t-14 110t-12 102q-7 48 -24 83q-2 3 -8 -11t-14 -36q-8 -23 -17 -53t-17 -59q-8 -30 -16 -54q-6 -24 -8 -37z"/>
<glyph glyph-name="X" d="M490 23q-16 -9 -31 -9q-9 0 -17 2q-24 8 -46 30q-23 22 -45 52t-42 64q-19 34 -37 66t-32 57q-12 -10 -26 -36q-14 -27 -30 -59t-32 -66t-32 -62t-28 -44q-10 -12 -18 -12q-3 0 -6 2q-17 9 -17 34q0 28 14 72q12 38 31 81q18 43 38 81t35 68t19 41q0 1 -4 9l-11 22 l-14 28t-13 28q-14 32 -30 65t-38 62q-4 5 -20 17t-28 28q-17 18 -17 30q0 11 19 16q42 -2 75 -20t61 -47t53 -61t50 -60q15 20 35 46t42 52l44 52t40 45t32 29q9 7 14 7q2 0 3 -1q5 -5 5 -14q0 -8 -4 -20q-8 -26 -26 -60t-40 -73q-22 -38 -42 -71t-34 -56t-11 -28 q3 -12 21 -40t40 -66q22 -36 46 -76t40 -75q13 -27 18 -49q6 -25 6 -45q0 -13 -3 -23t-7 -13z" unicode="X"/>
<glyph glyph-name="Y" horiz-adv-x="422" unicode="Y" d="M44 699h2q14 -1 32 -15q18 -16 36 -40t31 -56t16 -61q8 -59 21 -87t27 -39q13 -10 27 -10q4 0 7 1q20 51 38 102q14 44 27 92t15 90q1 18 19 16t40 -18q20 -18 36 -50q11 -23 12 -51q0 -11 -2 -23q-5 -39 -20 -102q-14 -62 -44 -132t-76 -138t-113 -116q-39 -29 -76 -39 q-24 -6 -41 -6q-10 -1 -18 1q-23 6 -23 26q0 18 31 44q51 42 84 88t53 83q24 44 37 86q-32 7 -64 24q-26 15 -56 41t-52 68q-16 32 -34 70t-25 70q-3 13 -3 26q0 17 6 30q10 23 50 25z"/>
<glyph glyph-name="Z" horiz-adv-x="554" unicode="Z" d="M561 56q-39 -12 -89 -22t-104 -16q-52 -6 -102 -6q-3 0 -6 -1q-47 0 -85 8l-35 7t-38 10t-34 17q-16 10 -23 26q-5 11 -5 20q0 7 3 13q7 13 21 22t30 16t24 16q42 40 78 90t68 104t63 109q30 55 59 105q-24 2 -46 4l-44 4t-44 8q-22 5 -43 16q-13 7 -29 25q-16 19 -24 35 t0 24q3 4 10 4q10 0 28 -6q52 -18 105 -26q33 -5 68 -6q20 0 40 2q17 2 37 2h6q18 0 34 -3q20 -3 37 -11q18 -8 32 -21q3 -3 3 -9q0 -8 -6 -23q-10 -25 -28 -61q-20 -36 -47 -82q-27 -44 -56 -90t-58 -90t-53 -78t-38 -58q-14 -22 -15 -25q41 -5 73 -9t60 -5h14q21 0 43 2 q29 3 65 12q22 5 48 7q17 1 32 1h14q20 -1 34 -6q11 -4 10 -10q0 -9 -22 -21q-20 -10 -65 -24z"/>
<glyph glyph-name="bracketleft" horiz-adv-x="507" unicode="[" d="M344 732q0 -8 -10 -13t-25 -9t-32 -11t-33 -17t-26 -26t-11 -44q-2 -39 -2 -78q-1 -34 1 -66q2 -72 3 -143q1 -37 -9 -75t-14 -76q-2 -23 -5 -48q-2 -14 -2 -26q-1 -10 1 -19q2 -20 16 -32q10 -10 31 -10q5 0 11 1q33 4 67 12t68 15q33 7 67 9q9 1 18 1q24 0 48 -5 q-1 -17 -32 -37q-31 -21 -77 -37t-101 -26q-39 -7 -75 -7q-15 0 -29 1q-48 4 -84 26t-43 66q-8 43 -8 87q0 25 3 51q7 70 15 138q4 34 9 76t11 84q7 42 13 82t12 72t11 56q5 22 9 28t20 10t40 8q23 4 48 4h10q18 0 36 -2q22 -2 36 -7t14 -13z"/>
<glyph glyph-name="backslash" horiz-adv-x="421" unicode="\" d="M43 638q-5 8 -7 26q-2 12 -1 25v9q1 16 7 28q4 7 10 7q3 0 7 -2q11 -6 26 -27t31 -51q16 -29 34 -65t34 -71t30 -65t23 -50q25 -50 47 -98t45 -99q8 -19 22 -49q13 -30 23 -64t11 -63q0 -28 -18 -44q-4 -4 -8 -4q-7 -1 -19 11q-18 18 -39 50t-43 76l-44 84q-20 42 -36 76 q-16 35 -26 53q-6 13 -14 35t-16 47t-13 47q-6 22 -9 37q-5 14 -12 33q-7 18 -15 38t-16 38t-14 32z"/>
<glyph glyph-name="bracketright" d="M40 94q12 8 30 8t40 -4t48 -8q24 -6 48 -8q12 -1 23 -1q11 -1 22 1q21 2 36 15q19 15 31 59t16 102q5 53 5 113q-1 5 -1 11q0 66 -5 124t-15 101t-21 57q-21 -2 -45 -7t-48 -9q-21 -3 -41 -3q-3 1 -6 1q-24 0 -46 11t-27 19q-6 8 0 16t18 13q12 7 28 11q15 4 29 6t22 4 q22 2 47 8q26 6 50 9q9 1 18 1q15 0 29 -3q23 -5 42 -25q3 -14 11 -47t16 -77t16 -94l16 -100q8 -48 12 -90t6 -68v-15q0 -29 -2 -61q-4 -42 -12 -78q-8 -37 -24 -64q-15 -27 -37 -32q-26 -6 -66 -8q-16 -1 -32 -1q-24 0 -50 2q-42 3 -81 11t-63 23q-11 7 -19 19t-11 24 t-5 22t-2 12z" unicode="]"/>
<glyph glyph-name="asciicircum" horiz-adv-x="378" unicode="^" d="M182 627q-16 -21 -28 -37t-22 -28q-12 -12 -24 -20t-31 -10q-18 -2 -20 16q-1 4 -1 9q0 15 5 33q7 24 17 49t16 38q12 28 24 44t27 21q7 2 15 2q10 0 20 -2q20 -6 46 -20q20 -10 48 -38t49 -58q22 -31 31 -59q3 -10 3 -18q0 -14 -10 -21q-8 -5 -18 -5q-10 -1 -20 5 q-21 12 -43 31t-44 39t-40 29z"/>
<glyph glyph-name="underscore" d="M404 39q20 -5 44 -14t41 -17q13 -8 17 -16q3 -5 3 -11q0 -3 -1 -6q-3 -8 -12 -13t-22 -5q-40 -8 -86 -8q-4 1 -6 1q-50 0 -99 2q-50 2 -97 5q-12 1 -23 1q-33 0 -61 -5h-13q-21 0 -39 5q-22 7 -51 19q-13 9 -17 18q-3 6 -3 12q0 3 1 5q2 8 8 14t11 9t29 7t60 8t78 6 q36 2 73 3q7 -1 14 -1q43 0 83 -4t68 -15z" unicode="_"/>
<glyph glyph-name="grave" horiz-adv-x="354" unicode="`" d="M187 579q-7 5 -29 25t-43 45t-33 49q-6 12 -6 21t5 15t17 6q7 0 16 -2q25 -5 57 -19q32 -15 66 -35t60 -42q25 -22 39 -40q8 -12 9 -21q0 -6 -4 -11q-13 -18 -33 -22q-12 -3 -24 -2q-8 0 -17 1q-21 3 -43 12t-37 20z"/>
<glyph glyph-name="a" horiz-adv-x="490" unicode="a" d="M296 423q-3 -13 -17 -21.5t-32 -17.5t-37 -20t-32 -29q-20 -29 -28 -68t-8 -73q0 -39 9 -66.5t22 -27.5q16 0 33.5 15t31.5 34.5t23 40t9 31.5t-0.5 24.5t-0.5 21.5q0 12 1 27t5.5 29t15.5 15t26.5 5t29.5 1t21.5 -18t7.5 -44v-14q-1 -17 -1 -33q0 -57 10 -94t42 -44 q5 -1 9 -1q16 0 32 13t30 31t24 32.5t16 11.5q5 -2 5 -16q0 -4 -1 -17.5t-14 -41t-38.5 -55t-65.5 -42.5q-21 -8 -39 -8t-32.5 5t-25.5 14t-20 20q-20 25 -32 62q-10 -24 -28 -42q-15 -16 -39 -29.5t-59 -15.5h-3q-33 0 -63.5 22.5t-49 61.5t-19.5 66.5t-1 30.5q0 49 23 102 q16 37 42 63t55.5 42.5t59 24t43.5 8t18 0.5q18 0 31 -4t11 -12z"/>
<glyph glyph-name="b" horiz-adv-x="484" unicode="b" d="M132 298q28 38 53 86q20 42 39 99t24 127q1 8 1 15q0 18 -4.5 34t-13.5 22t-20 -1t-22 -29q-11 -23 -19.5 -50t-14.5 -56t-10 -59t-7 -57q-6 -64 -6 -131zM87 648q13 34 36 57t48.5 35t39.5 12.5t17 0.5q23 0 40 -9q20 -11 30.5 -27.5t15 -38t4.5 -46t-3 -49.5 q-4 -36 -13 -70.5t-21.5 -66.5t-27 -62t-29.5 -55q-34 -60 -76 -112v-8q0 -37 9.5 -66.5t25.5 -49.5t34 -29.5t32 -9.5q21 0 37 21.5t25 52.5t10 52t1 28q0 26 -5 47q-7 26 -19 36t-23.5 14.5t-18.5 8.5t-4 18q4 15 19 27t31 16.5t29 4.5q7 0 21 -2t29 -18q15 -17 34 -32 t38.5 -25.5t35.5 -15.5t27 -5q4 0 13 1.5t14.5 -4t5.5 -10.5q0 -3 -2.5 -9.5t-16.5 -16t-39 -12.5q-8 -1 -15 -1q-9 0 -21.5 2.5t-25.5 7.5q-15 6 -28 14q9 -12 13 -29q4 -14 4.5 -26.5t0.5 -15.5q0 -19 -4 -43q-5 -23 -16.5 -50t-32.5 -50t-52.5 -38.5t-76.5 -15.5 q-67 0 -112 33.5t-70.5 88.5t-32.5 111.5t-7 100.5q0 28 4 79.5t22.5 122.5t45.5 126z"/>
<glyph glyph-name="c" horiz-adv-x="335" unicode="c" d="M290 377q-3 -5 -19 -3q-10 2 -22 2h-15q-21 -2 -42 -14t-34 -43q-12 -32 -16 -68q-2 -18 -3 -35q1 -18 3 -34q4 -32 16 -56t34 -33t42 -9q6 0 12 1q24 3 43 13t33 21t21 14q17 5 17 -11q0 -21 -28 -56q-14 -18 -35 -34t-47 -27q-26 -10 -56 -11h-5q-29 0 -60 12 q-32 12 -58 39q-27 27 -43 63t-22 76q-3 19 -4 38q0 22 4 44q8 42 30 80t63 68q39 27 75 28h6q34 0 58 -10q28 -10 42 -28q15 -18 10 -27z"/>
<glyph glyph-name="d" horiz-adv-x="508" unicode="d" d="M135 264q-9 -24 -11 -45.5t-2 -36.5q0 -9 1 -24t6 -30t12 -16q14 -4 29.5 6t41.5 41q12 16 24.5 39t21 45t10.5 39t-5 20q-8 3 -22 5.5t-25 2.5q-7 0 -21 -1.5t-32.5 -11t-27.5 -33.5zM291 354q6 67 10 126q3 51 4.5 88.5t1.5 56.5t-1 32v6q0 21 12.5 41t30.5 35t36 23 t26 8t9 -30t1 -56t-1 -73.5t-3 -116t-2 -126.5v-46q1 -75 9 -122t20.5 -73.5t26.5 -37.5t27 -14.5t22 -4.5t12 -7q1 -2 1 -5q0 -8 -9 -20t-29.5 -22t-35 -10.5t-15.5 -0.5q-27 0 -57 17q-26 14 -39 37.5t-18 46.5q-5 22 -5 46v8q-22 -40 -52 -70q-13 -13 -29 -25t-35 -21 t-38 -13.5t-36 -4.5q-7 0 -14 1q-27 2 -48.5 21.5t-36 49t-20 61.5t-5.5 60q0 9 1 31.5t13 56t35 57.5q17 17 36 26t33.5 11t24.5 2l20 -2q19 -2 36 -7q40 -12 81 -40z"/>
<glyph glyph-name="e" horiz-adv-x="386" unicode="e" d="M139 273q13 2 29 8q14 5 30.5 15t35.5 28q18 17 24.5 33t7.5 27q1 13 -4 24q-14 4 -30 0q-14 -4 -31 -16t-35 -38q-14 -20 -20 -35.5t-8 -25.5q-2 -12 1 -20zM46 382q14 27 37 47t50.5 32.5t58 18.5t59.5 6q30 -2 51.5 -19.5t29 -40t7.5 -41.5q0 -12 -4 -35.5t-28 -58.5 q-26 -38 -55.5 -57t-54.5 -27q-26 -9 -52 -9h-5v-7q0 -33 8 -58q4 -12 9.5 -22.5t14.5 -18.5t22 -11.5t30 -0.5q36 6 58.5 26.5t37.5 41.5t24.5 36.5t18.5 11.5q12 -5 12 -27q0 -19 -10 -45.5t-29.5 -55t-49.5 -48.5t-56 -25t-40 -5q-28 0 -60 10q-39 12 -65 38t-41 60 t-19 65t-4 54q0 16 2.5 43t14 62t28.5 60z"/>
<glyph glyph-name="f" horiz-adv-x="336" unicode="f" d="M322 695q0 -15 -14.5 -18.5t-33 -4t-36.5 -4t-25 -18.5t-11.5 -36.5t-7.5 -47t-4 -53t-1 -54.5q0 -62 4 -133q11 3 28 7q14 3 35 7t50 9q15 2 27 2t25 -3t17.5 -8.5t4.5 -10.5q0 -4 -4 -10t-20 -9q-33 -8 -62 -17.5t-51 -18.5q-26 -11 -46 -21q4 -64 4 -119v-21 q0 -27 -1.5 -54.5t-4.5 -50.5t-8.5 -40t-12.5 -24q-14 -13 -30.5 -22.5t-26.5 -11.5t-16 -2q-8 0 -16.5 3.5t-11.5 18.5q-2 8 -3 24.5t-1.5 32t-0.5 26.5t0.5 29t0.5 41q1 55 2 119q-4 -2 -8 -5q-9 -6 -25 -7h-7q-17 0 -24 10t-7 20t5 22t14.5 22t20.5 18q12 9 27 15 q-4 55 -4 107q0 21 1 41q0 30 2 62t6 62.5t10 57.5t15 47q15 33 37.5 49.5t41 19.5t30.5 3l26 -4q25 -3 45 -12t32.5 -19t12.5 -16z"/>
<glyph glyph-name="g" horiz-adv-x="402" unicode="g" d="M257 -252q5 18 7 44t2 52q-1 30 -3 63q-21 -18 -37 -38q-14 -17 -24 -40q-9 -19 -9 -41v-8q2 -24 11 -36q10 -12 20 -14t20 4t13 14zM463 115q19 8 31 8h3q12 -1 15 -7q1 -2 1 -6q1 -5 -3 -11q-6 -10 -18 -19q-10 -7 -24 -19q-14 -11 -30 -25t-30 -27t-25 -21 q7 -48 8 -96v-12q0 -42 -6 -80q-7 -44 -23 -82t-43 -62q-38 -34 -77 -39q-8 -1 -17 -1q-29 0 -52 14q-30 18 -47 56q-12 27 -12 59q0 14 2 29q8 52 32 92t52 67q32 32 69 55q-1 8 -4 22q-2 12 -7 30t-13 48q-5 16 -13 32t-14 27q-9 13 -17 23q-16 -18 -33 -32 q-14 -12 -31 -22t-32 -9q-16 0 -36 17q-19 17 -35 45t-24 64q-5 21 -5 43q0 15 2 31q7 38 18 61q11 22 24 36t28 20t30 9q6 1 13 1q18 0 40 -7q30 -9 58 -25t46 -32q19 -16 19 -25q1 -9 -21 -7q-20 2 -48 6q-26 4 -52 4t-35 -16q-10 -16 -16 -38q-5 -22 -7 -44q0 -6 -1 -12 q0 -14 3 -28q4 -18 15 -28q7 -4 17 4t24 20t31 24t37 14q3 0 6 1q16 -1 34 -11q21 -12 43 -48q13 -20 27 -48t26 -79q26 17 49 31t48 25z"/>
<glyph glyph-name="h" horiz-adv-x="461" unicode="h" d="M129 380l9 26q8 26 18 62.5t17.5 74.5t7.5 65v7q-2 30 -8 51.5t-14 29t-16 -2.5t-13 -43t-5.5 -65.5t-0.5 -50.5q0 -27 1 -61q1 -33 3 -63zM34 111q-1 33 -2 82t-1 94q0 22 0.5 68.5t2.5 120t7.5 134.5t15.5 102t26 47q15 5 29 5q13 0 33.5 -6.5t42.5 -25t36.5 -42 t16.5 -42.5q6 -32 6 -60q0 -27 -8 -64.5t-27 -79.5t-40 -77t-30 -68q25 45 56 76q13 13 28 24t32 17t35 6t37 -10q31 -16 47.5 -45.5t24 -66t9.5 -76.5t4.5 -77t8.5 -68.5t22 -50.5q23 -27 40 -37.5t29 -13t19.5 -2t11.5 -3.5q3 -3 4 -5.5t1 -4.5t-1 -4.5t-8 -7t-21 -9.5 q-16 -5 -37 -5q-15 0 -45 4.5t-78 39.5q-24 17 -36.5 48t-19.5 67.5t-10.5 74t-8.5 68.5t-14.5 50.5t-19 20t-10.5 0.5q-17 0 -30.5 -14t-23.5 -38.5t-16.5 -55.5t-10.5 -61t-6 -57t-3 -43q-1 -25 -12 -35t-25.5 -10t-30.5 6.5t-26 13.5q-11 8 -16 24t-7 32q-1 12 -1 26v14z "/>
<glyph glyph-name="i" horiz-adv-x="235" unicode="i" d="M49 619q11 22 33 27q10 2 21 2t23 -3q22 -7 38 -21q13 -12 12 -27v-6q-4 -23 -26 -39q-17 -13 -48 -14q-8 0 -16 1q-12 1 -22 9t-15 20q-7 12 -7 25q0 14 7 26zM4 262q3 24 8 46q4 22 12 41t17 33t20 19t29 11q14 4 26 4h6q16 -2 24 -14q4 -6 4 -16q0 -11 -5 -28 q-4 -16 -7 -42q-4 -26 -4 -56v-11q0 -23 2 -47q2 -30 8 -55t14 -43q10 -18 24 -22q13 -5 25 -5q14 0 25 7q21 12 39 37q7 11 17 19t16 6q6 -1 7 -13q0 -12 -13 -40q-14 -29 -36 -51t-48 -34t-56 -15h-9l-51 9q-30 10 -49 28t-29 50t-14 76q-2 28 -3 63q0 20 1 43z"/>
<glyph glyph-name="j" horiz-adv-x="414" unicode="j" d="M177 512q-7 2 -19 4t-23 6t-20 10t-12 17q-2 10 -2 19q0 12 4 20q5 13 17 17q6 2 14 2q6 1 12 -1q14 -4 30 -12q14 -8 26 -18t17 -19q6 -8 4 -17t-9 -16q-8 -7 -18 -11t-21 -1zM125 -187q5 -1 9 -1q16 0 30 9q17 11 29 29q13 18 19 40t9 41q3 11 5 35q1 12 0 24v24 q-2 26 -6 48t-13 31q-22 -13 -42 -38t-35 -55q-14 -30 -24 -61q-10 -33 -12 -59v-10q0 -20 6 -34q8 -18 25 -23zM324 181q-6 -6 -4 -25t6 -45t8 -56t5 -58q1 -29 -1 -49t-6 -38l-8 -36q-6 -18 -14 -39q-11 -28 -24 -51q-12 -23 -30 -41t-40 -30t-53 -18q-17 -2 -32 -2 q-35 0 -56 13q-29 20 -41 54q-9 26 -9 58q1 10 1 20q4 44 11 85q11 77 49 145t106 113q-6 39 -22 77t-30 70q-15 32 -25 57q-6 16 -6 27q0 7 2 12q11 8 27 9h5q13 1 27 -3q16 -4 32 -12t27 -16q14 -14 24 -34q9 -20 17 -41q8 -22 14 -45t11 -42q4 2 19 6q16 4 36 10t42 10 t42 6h8q14 0 24 -3q12 -4 13 -15q0 -12 -20 -20q-21 -8 -47 -16t-52 -18q-26 -8 -36 -19z"/>
<glyph glyph-name="k" horiz-adv-x="488" unicode="k" d="M182 214q20 26 40 40q18 11 38 12h1q20 0 38 -26q28 26 28 50q0 22 -20 33q-10 6 -21 6q-8 0 -16 -3q-20 -7 -38 -24q-18 -16 -32 -40t-18 -48zM154 412v-2v2zM171 321q5 9 19 23q18 19 44 36q26 16 55 28q19 8 36 8q9 0 18 -2q35 -8 58 -26t29 -59q1 -6 1 -12 q-1 -17 -7 -33q-8 -22 -25 -42t-39 -36t-47 -23q-3 -1 1 -15t12 -30q10 -18 26 -35t36 -26q17 -7 33 -7h11q21 4 39 15q19 11 33 26t24 29t18 24q6 10 8 9q9 -3 9 -19q1 -16 -7 -39t-24 -49t-36 -48q-22 -22 -48 -34q-22 -11 -46 -11q-6 0 -11 1q-38 2 -63 18q-24 16 -40 37 t-24 44t-12 43t-6 32t-4 12q-12 -4 -24 -6t-22 -1h-16h-6q-2 -39 -4 -72t-3 -53q1 -20 -13 -30q-13 -10 -29 -10h-2q-17 0 -35 14q-18 13 -26 41q-5 16 -8 58t-4 98q-1 37 -1 78q1 19 1 41q0 64 2 122t5 107q3 48 8 72q7 45 25 75t40 47t46 21q9 2 18 2q14 0 27 -4 q47 -14 63 -48q15 -30 14 -68v-10q-2 -44 -19 -92t-38 -92t-42 -80q-18 -30 -28 -49z"/>
<glyph glyph-name="l" horiz-adv-x="348" unicode="l" d="M133 283q26 43 48 89q19 40 37 86t26 91q4 22 8 45q3 20 3 38q0 24 -8 38q-7 14 -23 15h-4q-18 -1 -34 -15q-16 -16 -28 -46t-18 -70q-7 -40 -10 -86q-2 -34 -2 -69v-24q1 -48 5 -92zM326 605q-4 -45 -14 -86t-24 -78t-29 -70q-16 -33 -32 -60q-38 -64 -84 -116 q0 -7 3 -18q2 -11 8 -25t19 -34q25 -42 57 -52q17 -6 35 -6q15 0 27 4q30 8 51 30q22 22 30 43q8 23 16 30q9 7 15 3t10 -14q3 -9 2 -18v-6q-17 -45 -43 -79q-11 -15 -26 -29t-33 -25t-40 -17q-19 -6 -39 -6h-7q-64 1 -106 31t-69 77q-26 46 -37 106q-10 60 -12 121 q0 11 -1 23q-1 48 5 94q6 56 16 99q10 44 26 87t42 76q24 33 58 52q27 15 60 15q9 0 18 -1q33 -5 57 -23q20 -15 34 -45q9 -20 9 -51q0 -15 -2 -32z"/>
<glyph glyph-name="m" horiz-adv-x="860" unicode="m" d="M40 454h5q16 0 29 -6q15 -6 26 -16t19 -25q8 -14 13 -29q11 -34 14 -78q5 10 14 23q12 21 45 61q16 19 34 36q19 18 41 28t49 11h4q26 0 58 -12q33 -12 53 -33q20 -20 30 -46t16 -54q5 -28 11 -55q9 -53 14 -61l2 -2q6 0 19 40q8 24 24 56t38 56t48 36q11 5 22 5 q15 0 32 -9q18 -12 36 -32t32 -48t22 -64q9 -34 12 -72q2 -39 8 -65t16 -41t24 -19q7 -2 16 -2q11 0 24 3q18 4 25 -6q4 -5 4 -12q0 -5 -3 -11q-6 -13 -26 -25t-52 -11q-32 0 -58 16t-47 40q-21 23 -37 53t-28 58t-20 52q-8 23 -11 35q-6 18 -15 7q-9 -12 -20 -36t-23 -54 t-24 -53q-13 -22 -27 -42t-32 -30q-11 -6 -24 -6q-7 -1 -15 1q-22 6 -49 35q-18 19 -30 49t-18 62q-8 34 -12 68t-8 64q-2 30 -4 52t-6 30q-8 17 -24 17q-6 -1 -14 -3q-26 -10 -68 -57q-21 -23 -30 -63t-12 -80q-2 -31 -2 -58v-18q1 -35 1 -50t-10 -27t-26 -18 q-11 -4 -25 -4q-6 1 -12 1q-21 2 -42 17q-13 11 -23 45t-16 80q-7 46 -9 98q-2 32 -1 61q1 17 1 33q2 44 6 73q6 29 16 31z"/>
<glyph glyph-name="n" d="M39 365q6 10 17.5 18.5t24 15t25 10t20.5 3.5q4 0 6.5 -8t5 -21t3.5 -29.5t2 -33.5q1 -27 1 -58v-33q13 26 28 51q13 21 30 43.5t35 38.5q17 15 36 22.5t36 7.5q3 0 15.5 -1t32 -15t34.5 -42q10 -19 15 -47.5t7.5 -60t5 -63.5t9 -59t18 -46t33.5 -24q9 -3 19 -3 q8 0 21 3.5t28.5 11t27 13t16.5 2.5q1 -1 1 -4q0 -6 -7 -21t-26.5 -34t-45 -30.5t-51.5 -11.5q-10 0 -20 1q-75 10 -108 77.5t-38 176.5q-2 39 -9.5 58t-14 19.5t-7.5 0.5q-11 0 -26 -14t-33 -41q-21 -31 -31 -62t-13.5 -58t-4.5 -48t-5 -31q-5 -11 -21 -15t-34.5 -4t-36 4 t-24.5 10q-4 4 -6.5 28.5t-3.5 53t-1 54.5q0 13 0.5 39t2 61.5t4.5 61.5t7 33z" unicode="n"/>
<glyph glyph-name="o" horiz-adv-x="383" unicode="o" d="M134 319q-6 -6 -10 -29t-6 -54q-1 -13 0 -27q0 -18 1 -38q1 -34 7 -62t16 -46t24 -16q14 3 27 19t23 40t18 54q6 30 8 58v13q0 21 -4 38q-5 23 -17 35q-27 30 -47 32h-5q-17 0 -35 -17zM251 406q46 -28 71 -68q24 -40 32 -86q3 -19 4 -38q0 -25 -6 -50q-10 -44 -34 -80 t-59 -58q-36 -23 -82 -24h-4q-55 0 -93 26q-40 26 -61 67t-25 89q-1 10 0 20q0 38 11 72q14 42 46 72t80 33q44 3 64 9t29 12q8 6 12 8h3q4 0 12 -4z"/>
<glyph glyph-name="p" horiz-adv-x="454" unicode="p" d="M49 463q8 9 18 9h3q12 -2 24 -10t22 -19t16 -19q6 -10 9 -28t5 -36t3 -28q2 -11 7 -5q4 7 15 23t29 34t46 30q22 11 48 11q6 0 13 -1q25 -2 49 -12t43 -30t29 -49q9 -24 8 -54v-12q-2 -39 -15 -69t-35 -50t-50 -32t-57 -19q-42 -9 -62 -9q-5 0 -9 1q-18 3 -15 19 q2 8 8 14q7 6 17 10q10 6 26 12t36 18q18 10 34 30t22 42q3 12 3 24q0 10 -2 21q-5 23 -26 40q-22 18 -44 18q-13 0 -25 -6q-34 -17 -59 -71q-11 -24 -17 -68t-8 -96t-3 -109q1 -56 1 -105v-86t-2 -51q-3 -21 -15 -27q-8 -4 -18 -4q-5 0 -10 1q-17 3 -33 13t-27 23 q-4 5 -7 37t-5 82t-3 111q-1 63 -1 127t1 126t3 112q3 50 5 81q2 32 5 36z"/>
<glyph glyph-name="q" d="M297 91q6 1 12.5 2t12.5 3q-4 43 -9.5 78.5t-16.5 58.5q-12 25 -27.5 47t-32.5 35.5t-27.5 14.5t-12.5 1q-16 0 -32 -12q-14 -11 -21.5 -34.5t-7.5 -51t9 -56t28.5 -50t44 -30.5t48.5 -9q15 0 32 3zM436 451q3 -4 5.5 -31t4.5 -68.5t3.5 -94t1.5 -108.5q29 19 49 38.5 t33 33t20.5 18t12.5 -5.5q2 -3 2 -8q0 -7 -4.5 -20.5t-18.5 -34.5t-37.5 -44t-56.5 -43q0 -47 -1 -91.5t-3 -82t-4.5 -65t-6.5 -40.5q-9 -31 -25.5 -48.5t-28.5 -21t-17 -3.5q-10 0 -20.5 6.5t-13.5 27.5q-2 12 -2.5 39.5t-0.5 64t-0.5 79t-2.5 85.5q-24 -5 -46.5 -7.5 t-44.5 -2.5h-14q-47 0 -86 17.5t-66.5 50t-37.5 68.5t-10 68q0 20 3 42q10 46 25 76.5t33.5 49t41 27.5t46.5 14q11 2 22 2q21 0 44.5 -11.5t44 -32.5t33 -41t16.5 -26t5 9t1 30q0 7 -1 17v21t0.5 28.5t5.5 18.5q4 2 16.5 6t23.5 5.5t18 1.5l14 -2q15 -1 24 -11z" unicode="q"/>
<glyph glyph-name="r" horiz-adv-x="344" unicode="r" d="M17 391q-11 6 -20 7t-16.5 1t-13 1.5t-9.5 9.5q-1 1 -1 3q0 6 11.5 17t31 18.5t40.5 7.5q4 0 19 -1t39 -20q21 -18 34.5 -34.5t21.5 -29.5q9 -15 13 -29q28 27 58 45q26 16 50.5 23.5t41.5 7.5l30 -4q8 -3 8 -11q0 -10 -8 -21.5t-21 -21.5t-31 -14q-35 -8 -55.5 -30 t-31.5 -51.5t-14 -63t-3 -64.5v-6q0 -60 -18.5 -91t-50.5 -33h-4q-34 0 -51.5 35t-17.5 121q1 54 1 94t-3 67.5t-10 43.5t-20 23z"/>
<glyph glyph-name="s" horiz-adv-x="351" unicode="s" d="M264 487q4 -8 -1 -12.5t-14.5 -9t-21.5 -11t-23 -18.5t-18.5 -31t-7.5 -52q0 -27 14 -53t35 -51.5t46 -50t45 -50t30 -48.5t10 -44q0 -7 -1 -14q-5 -28 -31.5 -47.5t-64.5 -30t-62.5 -11t-28.5 -0.5q-39 0 -75.5 8t-64.5 26t-35 46q-8 29 -8 52q0 9 3 27t15 36.5t27 29 t26 16.5q12 6 19 6q8 0 11 -5t3 -10q0 -12 -12 -32q-5 -9 -5 -20q0 -5 2.5 -17t17 -27.5t37 -26.5t51.5 -12h7q15 0 31.5 4t30 14.5t13.5 26.5q0 12 -12 27.5t-44 41.5t-65.5 57.5t-59 67t-25.5 71.5q0 71 25.5 104t82.5 43q25 5 43 5q2 0 11.5 -0.5t20 -4.5t15.5 -9.5 t8 -10.5z"/>
<glyph glyph-name="t" horiz-adv-x="320" unicode="t" d="M91 720q3 18 13.5 19t13.5 1q15 0 33.5 -9t35.5 -27.5t18 -40.5q1 -23 2 -47t2 -43q1 -23 2 -43q27 2 47 2h13q23 -1 41 -6t18 -18q0 -14 -17.5 -24t-39.5 -17q-26 -8 -58 -14q2 -67 4 -130q1 -37 1 -76q0 -19 -0.5 -59t-4.5 -85q-5 -45 -15.5 -66t-21 -26t-19.5 -5 q-5 0 -14.5 2.5t-21.5 7.5q-6 2 -11 21t-8 49t-5 67.5t-3 76.5q-3 92 -3 206q-27 -6 -50 -6q-20 0 -39 7.5t-19 27.5q0 11 14 21.5t34 18.5q23 9 54 16v16q0 7 0.5 14.5t0.5 12.5q0 40 -1 65t-1 41.5t1 27t4 22.5z"/>
<glyph glyph-name="u" horiz-adv-x="484" unicode="u" d="M140 342q-1 -12 -1 -41.5t2 -61.5t7 -58.5t15 -43.5t26 -17q23 0 39.5 17t28.5 43t19 58.5t11.5 63.5t6 58t2.5 42q1 18 10.5 26t17 8.5t8.5 0.5q13 0 28.5 -6t29.5 -15t23 -20.5t10 -22.5v-11q0 -13 -1.5 -37t-3 -59.5t-1.5 -73t5.5 -69t17 -54t32.5 -27.5 q19 -5 24.5 -11t5.5 -11q0 -3 -4 -8.5t-16 -8.5t-21 -3q-12 0 -28 3q-46 8 -71 32t-37 50q-14 30 -17 66q-13 -40 -34 -69q-18 -26 -43 -42t-54 -16q-9 0 -34.5 3.5t-52 24t-43 49.5t-24.5 63.5t-11 69.5q-3 28 -3 56t2 52t6 41t9 22q6 5 25 11t30 6.5t12 0.5q19 0 34 -7 t15 -26z"/>
<glyph glyph-name="v" horiz-adv-x="425" unicode="v" d="M36 421q21 11 43 11h3q24 0 42 -9q18 -8 29 -21t9 -27q-4 -36 -4 -69q0 -32 4 -60q8 -60 20 -100q13 -42 27 -61t21 -7t13 50q5 38 17 82q12 46 34 90t59 69q25 16 37 16q4 0 8 -2q10 -6 9 -25v-7q-3 -25 -13 -63t-21 -76q-7 -26 -20 -60t-29 -68q-16 -32 -36 -56 t-39 -29q-17 -4 -33 -4q-16 1 -30 5q-26 8 -46 25t-36 39t-28 43q-10 13 -20 39t-20 60q-10 32 -16 67t-8 65q0 7 -1 13q1 23 5 41q6 22 20 29z"/>
<glyph glyph-name="w" horiz-adv-x="794" unicode="w" d="M46 403q21 10 40 10t33 -7q14 -8 22 -20t7 -26q-4 -31 -4 -59q0 -31 5 -61q9 -56 24 -94t31 -57q16 -18 23 -7q6 10 14 46q9 36 21 79t31 85t48 64q29 23 50 25h6q17 0 30 -9q15 -12 25 -32t20 -41q8 -23 16 -57t16 -65t18 -49t24 -9q9 7 19 29q9 22 21 52t26 61 q14 32 29 59t35 44q18 16 41 16h3q26 -2 48 -14t40 -28q16 -16 25 -34q9 -17 9 -28q0 -12 -11 -12h-1q-11 0 -33 17q-9 6 -19 6q-16 -1 -34 -17q-29 -28 -45 -98q-7 -34 -17 -62t-24 -48t-33 -31q-20 -12 -49 -15q-5 -1 -9 -1q-22 1 -41 13q-24 14 -42 38t-30 51 q-12 28 -17 52q-5 23 -9 33t-6 6q-4 -3 -9 -17t-14 -37l-16 -46q-8 -22 -21 -42q-14 -20 -34 -36t-54 -22q-16 -3 -31 -3q-15 -1 -31 3q-30 8 -54 24t-44 36q-19 20 -31 41q-8 13 -18 37t-19 56q-10 30 -16 62t-8 62v11q0 21 4 38q6 21 20 28z"/>
<glyph glyph-name="x" horiz-adv-x="476" unicode="x" d="M476 446q0 -2 4 -4t5 -8q1 -4 -1 -12t-11 -20q-15 -24 -30 -46t-34 -48t-45 -56t-61 -68q37 -36 75 -70t69 -64t49 -55q16 -22 16 -37q0 -16 -27 -8q-25 6 -65 25q-40 18 -90 46t-103 63q-8 4 -18 14q-37 -36 -75 -64t-68 -44q10 -12 14 -23q4 -10 2 -21t-15 -20 q-9 -6 -19 -6q-6 0 -12 2q-16 6 -25 21q-6 11 -6 25q-1 8 1 16q4 24 34 53q16 16 46 47t62 67q-30 33 -58 73t-51 82t-39 82t-24 74q-4 22 -4 40q0 10 1 19q4 25 23 36q8 4 16 4q9 -1 18 -5q18 -10 38 -30q20 -22 39 -53q20 -31 40 -65q19 -34 39 -70t39 -66q4 -5 7 -10 t7 -10q31 34 55 58t42 44q20 18 38 34t37 32q27 21 45 26t20 0z"/>
<glyph glyph-name="y" horiz-adv-x="459" unicode="y" d="M71 405q20 -2 28.5 -16t11 -31t2.5 -33q0 -5 -0.5 -15.5t-0.5 -23.5q0 -7 0.5 -19.5t5 -25.5t18.5 -14q12 -2 23.5 10t23 31.5t24 43.5t27.5 47q11 17 24 25t24 11q13 4 26 2h1l41 -31q9 -14 19 -35.5t20 -54t20 -77t19 -104.5q8 -54 8 -102q0 -28 -5 -76.5t-26.5 -104 t-55 -95.5t-72.5 -63.5t-68 -28t-44 -4.5q-26 0 -51 7q-38 11 -67.5 42.5t-43 68.5t-13.5 73q0 11 3 40t35 71q31 42 74 66.5t81 34.5t63 10q2 0 17 -0.5t14 -7.5q0 -8 -14.5 -17t-37 -23.5t-51 -37t-56 -57t-27.5 -63.5q0 -31 18.5 -43.5t40.5 -12.5q11 0 37 4.5t74 44.5 q24 20 38 49t20 62t6 67q0 3 -0.5 23t-4.5 56q-10 84 -38 176q-16 -30 -36 -54q-17 -20 -41.5 -36.5t-54.5 -16.5q-45 0 -72 19.5t-39.5 48.5t-13 47.5t-0.5 20.5q0 31 6 58.5t17 45.5t22 18h1z"/>
<glyph glyph-name="z" horiz-adv-x="359" unicode="z" d="M190 -208q17 50 21 83q3 22 3 38q0 8 -1 15q-3 24 -13 37q-29 -33 -52 -67q-20 -30 -36 -66q-16 -34 -16 -70q0 -40 10 -54t24 -8t30 30t30 62zM399 194q1 -4 1 -7q0 -5 -2 -9q-4 -8 -12 -16t-20 -18t-24 -19q-30 -25 -44 -43q-8 -10 -13 -17q15 -24 24 -57q8 -28 11 -72 q1 -10 1 -21q0 -36 -8 -83q-8 -50 -32 -88q-25 -38 -55 -62t-62 -36q-22 -7 -41 -7q-9 0 -16 2q-21 6 -37 17t-26 32t-10 53q0 4 -1 9q0 30 9 70q8 39 18 65t24 50q16 24 38 50t56 64q-18 36 -37 50t-35 20t-28 10t-14 19q-3 10 6 21t23 23q15 12 31 23q16 12 29 25t22 29 q9 17 11 33v6q0 13 -6 25q-8 15 -26 25q-13 7 -24 7q-7 0 -12 -3q-14 -8 -26 -18t-24 -18q-5 -3 -12 -3q-9 0 -20 7q-10 6 -12 20q-1 5 -1 10q-1 10 3 22q6 18 18 36t33 31q20 13 47 18q10 2 22 2q18 0 39 -5q65 -16 92 -62q18 -31 18 -71q0 -19 -4 -41q-6 -32 -24 -56 t-38 -38q-23 -18 -49 -30q9 0 20 -5q10 -5 23 -15t28 -30q33 34 59 53t44 27t30 5q12 -2 15 -9z"/>
<glyph glyph-name="braceleft" horiz-adv-x="406" unicode="{" d="M354 -173q-38 -22 -77 -22q-26 0 -54 10q-33 10 -63 30q-30 19 -52 47t-34 62q-9 27 -9 54q0 7 1 15q5 38 17 78t28 74q11 19 19 35t18 30q-20 14 -39 26t-40 25q-14 9 -23 16t-14 21q-1 2 -1 4q1 5 7 11q8 7 22 15t34 16q18 8 36 13q18 6 30 11q14 5 19 7q10 3 12 11 q3 8 -1 16t-10 16q-6 7 -13 12q-16 13 -34 25t-33 27q-16 16 -24 34q-6 13 -5 28q0 7 1 15q1 17 8 39t18 42q10 20 26 37t34 25q22 10 48 15q21 4 40 4h8q22 -1 38 -7t22 -17q8 -17 2 -23t-20 -8t-35 -4q-20 -2 -41 -11q-21 -11 -31 -31q-9 -20 -11 -41q0 -4 -1 -8 q0 -16 5 -32q6 -19 17 -29q15 -15 27 -29q12 -13 23 -29t17 -34t8 -43q1 -4 1 -9q0 -19 -12 -33q-15 -17 -37 -28t-48 -17t-43 -11q8 -5 33 -16t49 -25q23 -14 37 -30q6 -7 7 -15q0 -8 -8 -14q-5 -5 -17 -19t-24 -36t-22 -54t-14 -73v-17q0 -20 2 -38q2 -24 11 -44t25 -36 t44 -26q17 -7 33 -7q11 0 23 4q26 9 48 23q21 14 36 26t23 5q4 -4 4 -10l-3 -9q-6 -12 -17 -26q-13 -14 -27 -26t-24 -17z"/>
<glyph glyph-name="bar" horiz-adv-x="311" unicode="|" d="M173 41q0 -9 -4.5 -25.5t-11 -30t-12.5 -18.5t-10 -5q-5 0 -9 5q-7 9 -11.5 33t-6.5 56.5t-3 70.5t-1.5 74.5t-0.5 68.5t-1 53q-1 53 -2 88.5t-1 58.5q0 30 1 60v52.5t3.5 64.5t14 57.5t31.5 32.5q2 1 4 1q10 0 17 -20t12 -56.5t7.5 -83t4 -90.5t1.5 -81t1 -56v-10 q0 -11 -1.5 -29.5t-4 -43t-6 -46.5t-5.5 -35q-2 -15 -3 -34t-2 -39.5t-1 -39.5v-33z"/>
<glyph glyph-name="braceright" horiz-adv-x="344" unicode="}" d="M83 -164q1 10 14 16t31 14t40 20q21 12 37 32q17 20 25 51q5 17 4 38q0 17 -3 38q-3 13 -8 28t-13 29t-20 22q-12 10 -26 13t-26 11t-21 18q-8 10 -9 24t8 28q10 13 22 22t22 22q6 10 -4 20t-24 23t-28 29t-18 36q-1 4 -1 8q0 13 7 31q8 23 22 46t30 44t27 33 q12 15 19 35q8 22 8 43q0 18 -6 36q-6 20 -18 35q-10 13 -21 14t-21 -1t-21 0q-10 0 -19 11q-10 15 -4 27t20 18t32 8q5 0 8 1q11 0 19 -3q36 -16 63 -44t42 -62q16 -36 16 -75q0 -34 -15 -66q-6 -14 -21 -31l-32 -34t-32 -32t-24 -25q-12 -13 0 -25t32 -25t38 -29t18 -39 q-6 -13 -16 -22t-22 -17t-23 -16t-17 -20q2 -5 16 -12l34 -17q20 -9 40 -23t32 -32q25 -35 31 -70t6 -65q1 -23 -7 -46t-24 -43t-42 -38q-26 -17 -63 -29q-11 -3 -27 -5q-8 -1 -15 -1q-9 1 -17 1q-16 2 -30 6q-14 6 -25 16z"/>
<glyph glyph-name="asciitilde" d="M265 233q-18 22 -25 40t-12 31.5t-13.5 22.5t-28.5 14q-18 0 -27 -9.5t-13.5 -22.5t-6 -27t-3.5 -24q-2 -11 -9 -20t-17 -15t-21 -7.5t-21 1.5q-17 9 -20 26t-3 28q0 7 1 13q1 19 10 42t25 42.5t38.5 33t51.5 13.5q40 0 63 -10.5t39 -28.5t30 -42t36 -49 q11 -13 22.5 -12.5t21.5 9t20 22t18 27t15 24.5t13 13q-1 -17 3.5 -28.5t8.5 -23t5 -20t1 -12.5q0 -13 -5 -30q-3 -13 -11 -23.5t-17 -19t-17.5 -14t-14.5 -7.5q-27 -9 -38 -9.5t-13 -0.5q-19 0 -34 6t-27.5 18.5t-24.5 28.5z" unicode="~"/>
<glyph glyph-name="exclamdown" horiz-adv-x="239" unicode="" d="M127 606q-9 2 -20.5 5.5t-21 10t-16 17.5t-4.5 29q0 11 7.5 18t16.5 8.5t16 1.5q5 0 15 -1t22 -6q13 -4 19.5 -18.5t5 -30t-11.5 -26.5t-28 -8zM61 33q-10 14 -10.5 24.5t-0.5 15.5q0 13 2.5 29t6.5 34.5t4 35.5q0 25 -5 58.5t-6.5 55.5t-1.5 31q0 25 5 52.5t26 49.5 q4 3 10 14t12.5 20t10.5 10t5 1q7 0 13 -13q15 -25 18.5 -54t5.5 -57q3 -41 8 -83.5t7 -74t2 -50.5q0 -23 -2.5 -56.5t-14.5 -73.5q-6 -14 -13 -14.5t-8 -0.5q-12 0 -26 7t-27.5 18.5t-20.5 20.5z"/>
<glyph glyph-name="cent" d="M136 265q-1 -11 -1 -21q0 -22 3.5 -49.5t15 -55t33 -47t55.5 -25.5q-4 52 -6.5 98.5t-3 73.5t-0.5 36q0 36 2 76.5t8 89.5q-9 3 -26 -8t-34.5 -34.5t-30.5 -57.5t-15 -76zM492 386q-4 -13 -12 -12.5t-19 8t-24.5 19.5t-29.5 23q-20 14 -37 17t-24 3v-33.5v-64t0.5 -81 t0.5 -83t-0.5 -70.5t-0.5 -44q30 1 53 12t40.5 27t31 32.5t24 28.5t20 15t20.5 -8q8 -8 8 -22t-6.5 -30t-17.5 -31.5t-25 -27.5q-21 -26 -60.5 -43t-78.5 -22q0 -10 -1 -34.5t-4.5 -51t-11 -48.5t-20.5 -28q-8 -3 -15 -3q-13 0 -23.5 13.5t-17 40.5t-9.5 57.5t-5 50.5 q0 2 -15 4.5t-38 9.5t-51 20.5t-54 37t-46.5 60t-29.5 88.5q-4 26 -4 51q0 30 9.5 68.5t41 77t79 65.5t106.5 41q3 0 3 7.5t-0.5 16t-0.5 11.5q0 12 2 28.5t10 39.5q0 7 3.5 17t10.5 18t13.5 10t9.5 2q8 0 17 -5q6 -10 11 -28.5t9 -39t6 -37t2 -27.5v-8q13 -4 27 -9 q12 -5 27 -12t31 -18q12 -11 24 -24t21 -26.5t14.5 -26.5t5.5 -22z" unicode=""/>
<glyph glyph-name="sterling" horiz-adv-x="431" unicode="" d="M105 -36q-5 -2 -11 -2t-15.5 3.5t-20.5 13.5t-21 24.5t-10 22.5q0 3 2 9t5 14t6 14.5t5 7.5q12 6 29.5 21t35 37t30 50.5t14.5 60.5q1 16 0.5 31t-1.5 27q-1 14 -3 27q-53 0 -73.5 10.5t-20.5 22.5q0 16 26 29t65 17q-4 15 -10.5 47t-7.5 55.5t-1 32.5q0 28 5 62t25 61.5 t47 35.5t49 8q28 0 63 -8q10 -3 23.5 -6t25 -9t18 -15t0.5 -22q-5 -10 -20.5 -9t-36 4t-33 3.5t-14.5 0.5q-21 0 -40 -10q-17 -10 -21.5 -26t-4.5 -31q0 -6 1.5 -21t8.5 -39.5t15.5 -47t15.5 -40t10 -26.5q1 -2 13.5 -5t29.5 -5.5t31 -3.5t21 -1q10 0 19 1q18 3 26 -6 t6.5 -21t-13 -23.5t-33.5 -14.5q-33 -8 -59.5 -8t-26.5 -1q0 -26 -5.5 -56t-18.5 -60.5t-34 -58.5t-52 -50q9 1 31 4.5t50 6t58 2.5t54.5 -5.5t38.5 -17.5t14 -30v-5q-1 -16 -16.5 -25t-40.5 -15t-56.5 -9.5t-65.5 -7.5t-68 -9.5t-63 -15.5z"/>
<glyph glyph-name="currency" horiz-adv-x="680" unicode="" d="M453 394q-17 14 -32 26t-47 16q-7 1 -14 1q-22 0 -40 -8q-24 -10 -34 -34q-13 -30 -13 -58q0 -8 1 -16q5 -35 23 -59q19 -24 45 -33q11 -4 22 -4q15 0 30 7q29 10 50 28q20 18 30 40q6 15 7 32q1 8 -1 16q-4 24 -27 46zM641 131q13 -18 15 -37q0 -4 1 -7q1 -15 -5 -28 q-6 -15 -20 -25q-12 -10 -27 -8q-22 6 -36 14q-15 8 -25 18t-19 24t-20 31q-15 29 -25 36t-22 4t-28 -11t-40 -9q-42 5 -60 14t-20 4q-20 -23 -38 -50t-41 -50q-26 -27 -38 -32q-5 -2 -8 -2q-5 0 -7 5q-4 8 2 27t15 41t21 42q12 21 21 35q10 15 10 27q1 12 -5 24t-14 27 q-8 14 -12 34q-5 12 -12 38q-4 17 -4 38q0 12 1 25q-7 4 -17 9q-9 5 -22 13t-30 19q-10 7 -28 19t-37 24q-19 14 -34 30t-16 31v8q1 18 13 21q6 2 13 2q11 0 24 -4q23 -6 45 -17t31 -15q17 -8 30 -20t32 -20q17 -15 26 -17q9 -1 17 3t20 12q10 8 29 16q20 10 49 18 q19 5 36 4q9 0 18 -1q22 -2 40 -9q18 -8 30 -14q14 -6 22 -10t13 -2q11 9 25 25t28 34q14 17 30 35q15 18 29 30t25 18q5 2 9 2q6 0 10 -4q4 -6 4 -15q0 -5 -1 -12q-4 -19 -15 -41t-26 -46t-29 -43q-14 -20 -26 -33q-11 -13 -13 -15q8 -17 12 -35q4 -16 5 -38v-7 q0 -18 -4 -38q-11 -31 -21 -50q-6 -11 -12 -21q-3 -3 10 -13t31 -24q18 -13 38 -29q19 -16 27 -29z"/>
<glyph glyph-name="yen" horiz-adv-x="440" unicode="" d="M442 233q-5 -3 -13.5 -10t-21 -14.5t-28.5 -13.5t-36 -7q-7 -1 -16 -2t-16.5 -2t-12.5 -2.5t-5 -2.5v-30.5t-1 -50.5t-3.5 -50t-8.5 -30q-15 -13 -27 -13q-5 0 -15 5t-21 23t-16.5 38.5t-6.5 28.5q-2 11 -3.5 25t-2.5 27l-2 30q-7 1 -30 3.5t-49.5 6.5t-49 11.5 t-27.5 19.5q-2 7 6.5 17.5t17.5 12.5q5 3 24.5 3t42.5 -1t43 -2t26 0q1 12 0 28t-3 16q-1 1 -7.5 1.5t-15 1t-18 1t-17.5 0.5q-15 2 -30 2q-4 0 -7 -0.5t-5 -0.5q-16 0 -33 4q-6 1 -15.5 6t-16.5 12t-9 12t-2 7q0 6 6 12q9 11 29.5 14.5t46 3.5t43.5 -1t28 -1q13 0 24 1v4 v12.5t-0.5 16t-2.5 14.5q-2 8 -11 26t-17 26q-29 32 -57 68.5t-48.5 69t-27 49.5t-6.5 24q0 9 6 12h1q4 0 15 -7.5t26.5 -22t33.5 -32.5t34 -35t29 -31.5t18 -20.5q3 -4 10 -12.5t14 -18t12 -19t5 -15.5q18 13 36 36.5t35 49t34 49t34 37.5q7 5 14.5 2t14.5 -10.5t12.5 -18 t9.5 -20.5q2 -7 -4 -22.5t-17 -34.5t-25 -39.5t-26.5 -38t-21.5 -30t-10 -15.5q-8 -11 -9 -28t-2 -31q0 -4 10.5 -7t24.5 -5.5t29 -4.5t23 -4q3 0 9.5 -2.5t12.5 -6.5t10 -9.5t3 -11.5q-5 -7 -13 -4.5t-15 0.5q-2 -1 -11 -3.5t-20.5 -4.5l-23 -4t-18.5 -3q-14 -2 -19 0.5 t-2 -2.5q1 -8 1 -16v-14q0 -7 -1 -13h33.5t50 -1.5t44.5 -5t17 -11.5z"/>
<glyph glyph-name="brokenbar" horiz-adv-x="287" unicode="" d="M97 -37q-1 19 -3 43.5t-2 45.5q0 8 0.5 27t8 43t25.5 34q14 9 21 7.5t11.5 -8t8.5 -16.5t11 -18t8 -20.5t-0.5 -27t-4 -29.5t-0.5 -27q-1 -7 -1 -18q0 -6 0.5 -20.5t0.5 -40t-1 -52.5t-4 -49.5t-8.5 -36t-14.5 -13.5q-15 2 -25 23t-17 48.5t-10 57t-4 47.5zM146 325 q-6 -6 -10 -7t-5 -1q-7 0 -13 15t-11.5 55t-6.5 86t-1 59q0 58 7.5 99.5t20.5 64.5t24 26.5t18 3.5q6 0 12 -2q7 -4 11 -24t4.5 -38.5t0.5 -26.5q0 -23 -1.5 -52.5t-5 -60.5t-8.5 -54t-10 -31q-8 -12 -9.5 -27t-1.5 -31t-2.5 -30t-12.5 -24z"/>
<glyph glyph-name="section" horiz-adv-x="402" unicode="" d="M131 374q-17 -16 -19 -38q0 -3 -1 -6q0 -19 9 -36q10 -20 30 -34t42 -18h8q19 0 39 10q24 12 45 48q8 15 8 29v7q-2 18 -14 32q-11 14 -27 26q-16 11 -32 17q-14 5 -27 3q-12 -2 -24 -9t-22 -16t-15 -15zM250 120q26 -6 46 -16t34 -23t24 -29t20 -34q17 -29 17 -60 q0 -39 -28 -81q-13 -17 -35 -31t-46 -22q-26 -8 -52 -11q-15 -2 -28 -2q-9 0 -17 1q-14 0 -36 6t-42 15q-19 9 -33 21t-11 28q3 17 11 22t22 3q12 -1 27 -7t32 -10t35 -4t35 10q15 10 25 24t13 32q1 7 1 13q0 9 -2 19q-4 16 -18 31q-14 16 -30 26t-34 20t-40 23 q-21 13 -43 36q-55 52 -77 110q-11 28 -11 62q0 35 12 76q6 20 19 38q14 18 26 30q12 14 20 22t6 9q-30 17 -43 47t-15 61v15q0 24 4 44q6 28 14 42q14 29 44 45t64 21q16 2 33 2l37 -2q34 -6 60 -21q26 -17 38 -29t10 -20q0 -8 -12 -12q-12 -2 -31 2q-21 4 -45 8 q-18 3 -35 3q-7 -1 -13 -1q-24 -2 -44 -10q-20 -9 -32 -31q-6 -15 -6 -33t6 -36t18 -32t32 -20q44 -16 80 -30t62 -31t44 -38t26 -48q10 -32 10 -62q0 -15 -2 -29q-8 -43 -53 -70q-35 -24 -67 -32q-22 -5 -43 -5q-7 0 -15 1q-26 4 -50 14q-22 10 -40 22q8 -6 16 -16t21 -23 t33 -25t52 -18z"/>
<glyph glyph-name="dieresis" d="M91 713q-3 -7 -5 -11l-2 -4q0 2 11 25l1 1q22 18 41 18q20 0 34 -30q6 -8 16 -17t20 -19q11 -10 17 -20t5 -21q-5 -23 -20 -33q-13 -8 -29 -8h-4q-18 2 -38 12t-34 28t-17 40q-1 6 -1 12q0 13 5 27zM335 710v2q1 5 1 1q12 23 28 24h2q16 0 30 -12q15 -13 23 -33 q4 -10 4 -20t-4 -19q-12 -26 -28 -26q-16 -1 -29 13q-14 14 -22 34q-6 14 -6 26v-2q-2 -10 -2 -5q1 2 3 17z" unicode=""/>
<glyph glyph-name="copyright" horiz-adv-x="718" unicode="" d="M341 209q-55 18 -89 60t-36 100v12q0 44 27 78.5t67.5 50.5t80.5 16q8 0 37 -2t67 -30q19 -14 19 -23q0 -2 -2.5 -7.5t-18.5 -10.5t-37 -6t-31 2q-13 3 -27 3q-7 0 -20.5 -1.5t-31 -10t-28.5 -23.5t-11 -37v-9q0 -27 11 -46t28 -26t35 -7q6 0 21.5 1.5t39.5 12.5 q7 3 19.5 9t26 11t25 7t16.5 -3q5 -6 5 -13q0 -11 -13.5 -30.5t-44.5 -41t-60.5 -31t-48.5 -9.5q-14 0 -26 4zM669 194q-17 -32 -39 -53t-47.5 -38t-54 -32t-58.5 -33q-80 -46 -159 -46q-2 0 -43 0.5t-105.5 38t-105 106t-43.5 155.5q0 84 22 166t72 148q26 36 51.5 54.5 t52.5 25.5t55 7q4 0 22 -0.5t59 -3.5q33 -3 63 -12.5t58.5 -22t56 -26.5t56.5 -26q19 -8 44 -32.5t47 -54.5t37 -60t15 -48q-2 -20 -9.5 -52.5t-17 -65.5t-18 -60t-11.5 -35zM592 230q17 25 28.5 54.5t15.5 56t4 48.5q0 11 -1.5 32.5t-11.5 51.5q-11 26 -22 44.5t-25 32 t-32 22.5t-43 17q-24 6 -46.5 16t-48 20t-55 17.5t-66.5 8.5h-4q-30 0 -52.5 -14.5t-38.5 -38.5t-27 -53t-20 -55q-17 -48 -23.5 -92.5t-6.5 -75.5q0 -25 5 -65.5t30 -89.5t75 -80q52 -35 102 -35q1 0 28 0.5t74 25t88 66t73 86.5z"/>
<glyph glyph-name="ordfeminine" horiz-adv-x="436" unicode="" d="M250 579q-9 -24 -22 -46q-14 -23 -32 -35q-17 -12 -38 -11h-4q-24 1 -52 25q-24 18 -42 44t-24 54q-2 11 -2 22q0 16 4 32q8 27 38 48q39 32 83 32h7q48 -2 106 -43q8 -3 14 -3h11t8 -2t5 -13l4 -34t7 -34q3 -27 11 -39t16 -18q9 -6 19 -10q10 -3 17 -10q-8 -17 -24 -33 t-39 -18h-5q-9 1 -18 5q-12 6 -22 18t-18 30t-8 39zM222 664q1 -2 1 -1t-1 1zM222 664l-24 12q-12 8 -23 12q-10 4 -20 5q-1 -1 -3 -1q-12 0 -23 -11q-19 -17 -23 -41q-1 -4 -1 -9q0 -19 15 -37q14 -17 30 -17q2 1 6 1q20 4 38 19q18 16 28 39q7 16 6 31q0 6 -1 12 q-7 3 -9 0t0 -7q1 -4 3 -8h1z"/>
<glyph glyph-name="guillemotleft" horiz-adv-x="440" unicode="" d="M273 271l48 -24q29 -15 57 -35t44 -45q10 -15 11 -31q0 -10 -4 -19q-3 -8 -15 -5t-29 13q-17 9 -37 23t-38 27t-32 23t-22 11q-26 11 -40 27q-15 19 -16 40q0 18 10 34q10 20 31 34q26 20 56 38t59 33q6 4 24 9t36 6t26 -6q4 -3 5 -8q0 -7 -8 -19q-5 0 -26 -13t-47 -32 t-52 -41t-41 -40zM317 423q-8 -3 -27 -15q-20 -12 -45 -28t-51 -36t-46 -38t-29 -33q-10 -15 -3 -22q11 -12 27 -22t33 -19q18 -10 34 -20t29 -24q13 -10 29 -28t20 -38q2 -8 -2 -16t-10 -12t-14 -6h-1q-7 0 -13 6q-12 10 -34 28t-49 39q-25 21 -51 44t-44 45t-26 41 q-3 8 -4 15q0 9 6 16q15 16 32 36t41 42q23 22 57 42q34 22 81 40h7h15q14 -2 26 -6q11 -4 17 -12q2 -3 2 -6q0 -6 -6 -13h-1z"/>
<glyph glyph-name="logicalnot" d="M397 129q-14 22 -20 50t-12 52t-17.5 40.5t-37.5 16.5q-5 0 -33 2t-65 6t-75.5 11.5t-65.5 18.5t-32 20t-5 13q0 12 18 27q15 12 43.5 18.5t56 8t48.5 1.5q16 0 42.5 -1t59 -4t56 -7t31.5 -6q22 0 37 -10t25.5 -25.5t16.5 -34.5t9 -38q0 -48 -9.5 -84.5t-22.5 -57.5 t-21.5 -24t-11.5 -3q-9 0 -15 10z" unicode=""/>
<glyph glyph-name="registered" horiz-adv-x="699" unicode="" d="M302 517q-17 -9 -27 -29q-9 -20 -15 -42t-8 -46t-3 -40q21 13 33 18t31 10q19 3 35 12t26 31q4 11 1 29t-12 34t-25 24q-7 4 -15 4q-10 0 -21 -5zM392 235q-38 27 -74 56t-73 58q-2 -6 -2 -13q0 -10 3 -20q5 -18 13 -38t15 -37q7 -18 9 -32q3 -13 -5 -21t-29 -6 q-22 2 -35 25t-19 57q-5 26 -5 56q0 10 1 21q1 42 11 83t27 77t41 58q20 20 44 20q2 -1 4 -1q27 -2 51 -16q25 -16 41 -40t17 -48q1 -6 1 -13q0 -15 -5 -29q-7 -21 -22 -38t-37 -29t-51 -16q7 -13 23 -23t36 -20t42 -20t38 -21t26 -25q5 -8 5 -18q0 -6 -2 -12 q-7 -12 -19 -11t-26 7t-26 16q-12 9 -18 13zM617 458q1 -4 1 -8v-11t0 3q0 4 -1 16zM616 467q-4 23 -20 39t-34 30l-36 28q-17 15 -24 38q-54 24 -116 43q-49 15 -98 15q-13 0 -25 -1q-55 -5 -93 -35t-60 -73t-30 -93q-6 -37 -7 -71q0 -12 1 -24q3 -59 25 -113t60 -95 t89 -65q49 -23 106 -23h5q44 -1 81 19q36 20 66 52t52 74t36 86t20 89q4 28 3 54q0 13 -1 26zM491 641h1q2 1 12 5t31 2q20 -4 49 -22t68 -60q24 -25 31 -59q5 -25 5 -51v-19q-2 -36 -11 -72q-8 -36 -15 -66q-18 -77 -54 -139t-89 -100t-122 -48q-21 -3 -43 -4 q-51 0 -109 17q-67 25 -117 75t-78 114t-34 134q-1 12 -1 25q0 59 20 115q11 30 27 60t36 56t46 47q26 20 59 29q28 8 56 8h17q36 -4 72 -13t72 -19t71 -15zM491 641h1q-2 0 -6 1q-8 2 -12 2q6 0 17 -3z"/>
<glyph glyph-name="degree" horiz-adv-x="311" unicode="" d="M203 552q24 18 27 38t3 29q0 20 -9 41t-22.5 26.5t-20.5 5.5q-17 0 -37 -17q-12 -8 -16.5 -22t-4.5 -29q0 -3 0.5 -13.5t6.5 -27.5t17 -28t19 -12.5t11 -1.5q12 0 26 11zM276 552q-13 -28 -37.5 -50t-44 -26.5t-29.5 -4.5q-19 0 -44.5 10.5t-49.5 53.5q-25 37 -25 82.5 t25 83.5q6 12 15.5 21t20 15t21 9t16.5 3q46 0 78.5 -20.5t50 -51.5t17.5 -67q0 -32 -14 -58z"/>
<glyph glyph-name="plusminus" horiz-adv-x="488" unicode="" d="M41 361q2 15 16.5 21t31.5 7.5t32 1.5q8 0 18 -1h21t23 1q1 8 2.5 25.5t1.5 28.5q0 16 -2 35v7q0 31 13.5 40t24.5 9q9 0 25.5 -7t36 -37.5t19.5 -78.5q-1 -10 10 -13t25.5 -4t27.5 -1q6 0 11 0.5t9 0.5q16 0 32 -2.5t25.5 -9t9.5 -17.5q0 -18 -11.5 -26.5t-26.5 -12 t-32.5 -5t-32.5 -2t-26.5 -2t-14.5 -5.5q-4 0 -7.5 -0.5t-5.5 -8t-1.5 -23.5t3.5 -46q-3 -21 -9.5 -39.5t-29.5 -23.5h-9q-23 0 -35.5 15.5t-17.5 38.5t-5 45l1 13q0 17 -2 26q-23 -1 -51.5 -1t-53 4.5t-36.5 13.5t-12 20q0 6 2 13zM263 48q-18 -1 -41.5 -2.5t-41.5 -1.5 q-13 0 -35.5 1t-49.5 7.5t-39 23.5q-3 17 23 29t66.5 18t73.5 7t50 1q29 0 63 -2t62 -8.5t29 -16.5q2 -7 2 -13q0 -22 -36 -31.5t-126 -11.5z"/>
<glyph glyph-name="twosuperior" horiz-adv-x="224" unicode="" d="M48 519q-6 -1 -10 -1q-14 0 -22 7q-10 10 -10 25q0 14 8 28q8 16 20 26q10 8 21 18t20 23q9 11 14 25t5 28q0 11 -7 14t-15 -1q-8 -5 -14 -13t-7 -20q-7 -6 -13 6t-4 30q2 16 17 28q9 8 28 8q11 0 24 -3q33 -11 41 -33q3 -9 3 -19q1 -13 -5 -27q-10 -26 -32 -51t-50 -43 h42q1 0 3 1q17 0 38 -7q7 -2 18 -7t17 -12t7 -15q0 -8 -13 -14q-2 -1 -8 -1h-8q-13 1 -31 2q-19 1 -39 1t-38 -3z"/>
<glyph glyph-name="threesuperior" horiz-adv-x="186" unicode="" d="M161 560q0 -22 -15 -30.5t-34 -13.5q-6 0 -19 0.5t-26.5 3.5t-25 9t-13.5 17q-2 5 -2 9q0 6 5 10t15.5 5t23.5 0t25 -2t21 0t10 7q0 5 -12.5 14t-26.5 19t-24 20.5t-5 19.5q6 7 21 12t31.5 9.5t29.5 9.5t15 13q2 16 -3.5 22t-16 7t-24 -1.5t-25.5 -4.5t-21.5 -1.5 t-11.5 7.5q-7 16 5.5 23.5t25 8.5t19.5 1q13 0 29 -2.5t23 -6.5q25 -17 25 -34q0 -18 -14.5 -33.5t-34 -29t-30.5 -24.5q2 -2 12 -7t20.5 -12.5t19 -18.5t8.5 -26z"/>
<glyph glyph-name="acute" horiz-adv-x="431" unicode="" d="M187 718q15 11 37 20t43 12q8 1 17 1q12 -1 24 -3q20 -4 33 -21q4 -5 4 -11q-1 -8 -9 -20q-14 -20 -39 -42q-26 -22 -60 -42t-66 -34t-57 -19q-9 -2 -16 -2q-12 0 -17 6t-5 15q0 10 6 22q12 24 33 48q21 25 43 45t29 25z"/>
<glyph glyph-name="mu" horiz-adv-x="622" unicode="" d="M169 446q3 -26 3 -54v-56t-1 -56q0 -28 4 -53q0 -9 4 -25q3 -16 11 -36q8 -19 18 -37q10 -17 24 -29q12 -12 26 -14h4q12 0 25 12q27 16 45 42t30 58t16 66q6 34 7 63q-1 8 -1 15q0 18 5 36q7 26 19 45q12 21 28 33q14 12 28 12t24 -15t12 -49q3 -20 3 -46q0 -13 -1 -28 q-2 -44 -2 -90q0 -4 -1 -9q0 -42 5 -81q5 -43 23 -70q8 -13 23 -17q13 -4 27 -4q2 1 4 1q16 0 32 2t26 3q12 0 12 -6q0 -4 -8 -14q-22 -25 -49 -39t-55 -16q-6 -1 -12 -1q-22 0 -42 7q-25 10 -45 30t-30 52q-7 23 -7 51q0 11 1 24q-14 -37 -36 -73t-50 -56q-27 -18 -62 -18 h-8q-40 2 -89 38v-18q0 -28 2 -59q3 -43 7 -85t10 -82q4 -40 7 -68q1 -9 1 -17q0 -29 -12 -45q-13 -17 -30 -18h-4q-20 2 -42 26q-20 24 -27 68q-15 106 -19 216q-1 32 -1 64q0 79 8 158q-1 22 -3 58t-4 77q-2 40 -4 78v7q0 34 5 57q5 9 23 19t36 12q4 1 9 1q15 0 27 -7 q16 -9 21 -40z"/>
<glyph glyph-name="periodcentered" horiz-adv-x="459" unicode="" d="M253 373q13 0 25 -7.5t20 -19t9 -20t1 -11.5q0 -11 -5 -20q-9 -16 -29 -29.5t-32 -15t-16 -1.5q-17 0 -33.5 12t-21.5 48q-1 5 -1 9q0 13 8 23t22 16t29 9t24 7z"/>
<glyph glyph-name="cedilla" horiz-adv-x="392" unicode="" d="M181 -214q-1 0 0 3q4 3 4 2q7 3 19 3h29q15 0 23 7q8 6 2 23q-8 25 -22 27q-14 3 -30 -1q-15 -4 -28 -6t-19 13q-7 18 -14 37t-11 39q-4 18 -4 38q0 26 10 53q5 1 9 1q15 1 23 -13q12 -18 18 -44t8 -50q2 -26 8 -37q22 6 46 6q24 -1 44 -9t32 -28q10 -16 10 -39 q0 -6 -1 -13q1 -27 -21 -42t-52 -17h-8q-24 0 -46 10q-24 11 -29 37z"/>
<glyph glyph-name="onesuperior" horiz-adv-x="238" unicode="" d="M185 542q20 -5 30 -13.5t10 -16.5q0 -10 -9.5 -13.5t-21.5 -3.5q-8 0 -17 1q-12 0 -25.5 -0.5t-19.5 -0.5q-13 0 -29.5 1t-31 6t-14.5 17q0 6 9.5 12t22.5 10.5t25 6t18 0.5q3 24 3.5 39.5t0.5 23.5q0 16 -1 32q-9 -3 -15 -10t-12.5 -14t-13.5 -13t-17 -8q-2 -1 -11.5 1 t-18.5 6.5t-13 10.5t-4 11t3 10q17 6 31.5 19t29 28.5t28.5 30.5t30 25q10 0 16.5 -14.5t9.5 -36.5t4 -47.5t1 -47.5v-37t2 -15z"/>
<glyph glyph-name="ordmasculine" horiz-adv-x="397" unicode="" d="M237 512q19 15 28 36.5t9 43.5q0 24 -9 45t-23 32t-31 11q-2 0 -12.5 -0.5t-32.5 -19.5q-15 -10 -20.5 -27.5t-5.5 -35.5q0 -3 0.5 -15.5t8.5 -33t20.5 -34t22.5 -14.5t12 -1q15 0 33 13zM325 512q-15 -34 -44.5 -61t-53.5 -32.5t-36 -5.5q-24 0 -54 13t-59 65 q-30 45 -30 99.5t30 100.5q7 15 18.5 25.5t24.5 18t25 11t20 3.5q56 0 94.5 -24.5t59 -60.5t21.5 -58.5t1 -25.5q0 -38 -17 -68z"/>
<glyph glyph-name="guillemotright" d="M204 300q-6 6 -22 16t-38 21q-20 11 -42 23t-40 26q-18 13 -27 26q-8 10 -8 20q0 3 1 6q6 3 16 3q8 0 19 -2q24 -5 54 -15q31 -10 63 -26t58 -32q26 -18 44 -34q17 -16 17 -30q-1 -16 -13 -40t-32 -52t-45 -54q-25 -27 -50 -47t-47 -29q-12 -5 -21 -5t-16 4q-14 9 -14 23 q-1 14 9 34t26 41q16 22 36 44q20 23 39 43t33 36zM331 194q15 20 39 40t37 43q9 18 7 27q-2 8 -10 14t-19 10q-12 4 -26 11q-38 17 -73 37t-69 46q-19 15 -23 24q-1 3 -1 6q0 4 4 6q5 4 19 4t30 -3t30 -8t23 -10q13 -7 33 -16t44 -21t46 -24q24 -12 42 -28t27 -33 q5 -10 5 -21q0 -7 -2 -15q-4 -15 -18 -37t-35 -48q-20 -26 -43 -51q-22 -26 -44 -46q-22 -19 -39 -31q-13 -9 -20 -9q-3 0 -5 1q-11 5 -9 22q3 18 11 38t19 40t20 32z" unicode=""/>
<glyph glyph-name="onequarter" horiz-adv-x="689" unicode="" d="M135 538q-1 -7 -4 -20.5t-8 -27.5t-11 -26t-14 -17t-17 -0.5t-19 23.5q-6 11 -9.5 31t-4 36t-0.5 26q0 14 1 33.5t6 39.5t12.5 33t18.5 14h2q14 0 23.5 -13.5t15.5 -36t7 -43.5t1 -34v-18zM360 171h10q11 0 29.5 1.5t38.5 4.5t34 6t13 4q-3 12 -3.5 36t-0.5 81 q0 -3 -18 -20t-39.5 -38.5t-41 -42.5t-22.5 -32zM610 131q0 -21 1 -30.5t0 -16t-4.5 -16t-12.5 -30.5q-17 -32 -26.5 -32.5t-10.5 -0.5q-16 0 -29.5 15t-23.5 40.5t-11 46.5q-8 -3 -33.5 -9t-56.5 -6t-62 10.5t-49 40.5q-13 22 -13 43q0 25 12.5 49t31.5 44.5t40 38.5t41 33 t33 26q25 18 51.5 40.5t57.5 28.5q12 2 21 2t18 -3.5t13 -13.5t1.5 -24t-7.5 -26.5t-10.5 -23t-7.5 -13.5q-3 -11 -2 -30t3.5 -38.5t5.5 -33.5t5 -14q4 -8 17 -8t27.5 0.5t28.5 -2.5t18.5 -12t4.5 -15q0 -5 -4 -13.5t-15 -18t-26 -17t-27 -11.5zM106 127l-4 -3v1 q-13 -8 -22 -9q-8 0 -14 4q-16 12 -20 39q-1 6 -1 11q0 18 8.5 42.5t23 52t31 52.5t27.5 43q30 49 60 95t57 95q6 9 16 33t22.5 45t21 26t12.5 5q10 0 20 -16q13 -19 13 -46q0 -29 -9.5 -61.5t-25.5 -66.5t-33.5 -64.5t-34 -57t-27.5 -43.5q-12 -18 -31.5 -40.5t-38 -46.5 t-33.5 -47.5t-18 -42.5z"/>
<glyph glyph-name="onehalf" horiz-adv-x="617" unicode="" d="M26 566q-3 24 -8.5 44t-5.5 35q0 14 7.5 26t29.5 25q10 -6 16 -14.5t10 -19.5t8 -22.5t11 -23.5q3 -9 4 -33t1 -41t-1 -43.5t-5.5 -54.5t-12.5 -28q-29 1 -40.5 18t-13.5 35t-2 31q0 11 1 25.5t1 27.5v13zM367 -13q-42 0 -60 18.5t-18 44.5q0 25 14 51t37 44q20 15 44 28 t45 32t35 48.5t14 78.5q0 21 -10 22.5t-14 1.5q-14 0 -31.5 -8t-34 -26t-16.5 -40q-10 -5 -19 5.5t-12.5 25t-3.5 26.5q0 7 1.5 21t16 30t34.5 21.5t36 5.5q20 0 45 -5q50 -10 71 -32.5t21 -52.5q0 -31 -19 -67.5t-47.5 -72t-63.5 -67t-69 -53.5q23 0 46 4t45.5 8t35.5 4.5 t16 0.5q19 0 37 -5q13 -5 32.5 -14.5t33 -21.5t13.5 -27q0 -14 -24 -26q-19 4 -35 4.5t-22 0.5q-22 0 -50 -2t-61 -4t-63 -2zM121 132h-4q-25 2 -33 26q-5 14 -4 35q0 15 4.5 44.5t23.5 81.5t45.5 105t58.5 102t65 84.5t58.5 49.5t42.5 14q11 0 20 -4q9 -11 9 -28 q0 -7 -3.5 -24.5t-20.5 -50t-41.5 -67.5t-48.5 -67t-44 -59t-27 -42q-7 -14 -19 -44.5t-26.5 -62.5t-29 -59t-26.5 -34z"/>
<glyph glyph-name="threequarters" horiz-adv-x="594" unicode="" d="M205 457q0 -15 -7.5 -25.5t-19 -17.5t-25 -10.5t-26.5 -6.5q-7 0 -24.5 0.5t-36.5 4.5t-34 12t-18 23q-2 6 -2 11q0 8 6 14t16.5 7t17.5 1q9 0 23.5 -1.5t31 -2.5t28.5 0.5t14 10.5q0 8 -17.5 20t-37 25.5t-33.5 28t-7 27.5q7 10 20 12t27 4t28 9t24 28q3 21 -2.5 30.5 t-16 11t-24 -1t-26.5 -4.5t-23.5 -0.5t-13.5 11.5q-4 8 -4 15q0 11 13.5 20t31 10.5t26.5 1.5q19 0 44 -4t41 -12q20 -10 30 -25.5t10 -33.5q0 -14 -7.5 -29t-23.5 -27q-10 -8 -21 -12t-22 -7.5t-20 -7t-15 -9.5q2 -3 14.5 -9.5t27 -18.5t24 -28.5t9.5 -36.5v-8zM342 177 q14 -1 30 -1.5t29 0t21 1.5t7 2q-3 12 -3.5 36t-0.5 81q0 -3 -12 -18t-26.5 -33.5t-28 -37.5t-16.5 -30zM521 123q0 -43 -2.5 -70t-16.5 -37q-14 -15 -24 -15q-2 0 -8.5 1.5t-14.5 16t-12.5 37t-5.5 43.5q-8 -3 -30.5 -6.5t-45.5 -3.5q-6 0 -24 0.5t-46 8.5t-41 28 q-6 9 -6 21q0 13 9.5 36.5t33 57.5t51.5 65t48 48q14 13 28.5 27t29 25.5t27.5 16.5t23 5q5 0 11 -1q20 -4 24 -17t0.5 -28t-11 -28t-10.5 -18q-3 -11 -3.5 -27.5t-0.5 -27.5t0.5 -27.5t1.5 -33.5t3 -17h10.5t22.5 -1.5t25.5 -7.5t17 -15.5t4.5 -14.5q0 -4 -3.5 -10t-14 -12 t-24.5 -10.5t-26 -8.5zM134 103l-4 -3v1q-13 -8 -22 -9q-8 0 -14 4q-16 12 -20 39q-1 6 -1 11q0 18 8.5 42.5t23 52t31 52.5t27.5 43q30 49 60 95t57 95q4 7 9.5 21t13 29.5t16 29.5t16.5 21.5t16 7.5q1 0 6.5 -0.5t14.5 -15.5q11 -17 11 -41q0 -4 -1 -20t-12.5 -47.5 t-30 -65.5t-38 -64.5t-37.5 -57t-29 -43.5q-12 -18 -28 -40.5t-31.5 -46.5t-27 -47.5t-14.5 -42.5z"/>
<glyph glyph-name="questiondown" d="M332 685q16 7 29 7q9 0 15 -3q18 -9 24 -25q4 -10 5 -20q0 -8 -2 -14q-4 -18 -21 -23q-23 -9 -39 -9q-9 0 -15 2q-20 6 -25 22q-3 7 -3 15q0 9 4 20q8 19 28 28zM538 -18l2 -1zM538 -18q0 -22 -20 -48t-47 -49q-27 -25 -55 -43t-46 -26q-37 -16 -81 -16h-13 q-52 2 -102 21q-50 18 -89 49q-40 31 -57 70q-21 44 -21 86q1 8 1 16q4 50 28 92t62 76t82 55q22 9 43 15t44 10q27 4 37 12q11 9 11 23q0 12 -5 29q-5 18 -6 39q-1 6 -1 12q-1 14 3 29q4 22 16 41q10 19 28 32t44 13q9 -2 17 -20q9 -18 15 -43t11 -55t9 -57t6 -49 q4 -32 3 -35q-1 -17 -9 -25q-10 -10 -26 -14t-38 -6q-22 0 -43 -2q-22 -2 -42 -5q-20 -4 -34 -14q-50 -35 -74 -77t-24 -82q-1 -42 25 -78q24 -34 73 -51q26 -9 49 -9h14q30 4 56 16t50 26q24 16 44 28t34 18q16 6 28 -4z" unicode=""/>
<glyph glyph-name="Agrave" horiz-adv-x="579" unicode="" d="M236 660q-12 7 -26 19t-26 26t-16 27q-6 13 1 22q4 5 16 5h4q15 -1 34 -7t39 -15q20 -10 38 -23q16 -13 26 -28q8 -12 7 -25v-5q-5 -12 -17 -16t-26 -1t-29 9t-25 12zM256 501q-14 -9 -20 -38t-8 -65t-2 -71q0 -36 -1 -60q6 -3 33 -3h28h28q30 0 54 3q24 2 23 5 q-1 12 -9 36t-20 50q-12 28 -26 56t-30 50q-14 22 -28 32q-14 11 -22 5zM508 -71q-4 -1 -8 -1q-16 0 -21 15q-7 18 -13 47q-10 36 -18 89t-31 110q-2 5 -15 5q-8 0 -20 -2q-32 -5 -81 -5q-15 1 -29 0t-26 -3t-20 -4t-7 -2q-3 -16 -5 -48t-11 -62t-27 -52q-16 -19 -42 -19h-7 q-13 1 -19 27t-8 59q-1 22 -1 43v20q1 30 1 39q-50 7 -68 17q-13 8 -13 16q0 3 2 6q6 11 30 21t59 16q4 32 8 76t15 89q9 45 27 85t47 64q13 11 34 11h5q24 -2 52 -16q26 -14 51 -38q25 -26 42 -61q11 -19 23 -47t23 -56t21 -54q10 -25 14 -38q1 -8 18 -8q6 0 12 -1 q12 0 24 1h19h16q13 -1 13 -8q0 -1 -1 -3q-1 -7 -15 -15t-31 -16q-17 -7 -31 -12t-14 -6q11 -57 22 -106t17 -86q5 -28 5 -48q0 -7 -1 -12q-2 -23 -17 -27z"/>
<glyph glyph-name="Aacute" horiz-adv-x="530" unicode="" d="M263 659q-11 -8 -27 -17q-16 -8 -34 -14t-32 -6t-19 9q-1 2 -1 6q0 10 11 28q15 25 40 47t53 35q15 7 27 7q11 0 21 -6q10 -10 8 -22t-8 -24q-8 -12 -19 -24t-20 -19zM256 501q-14 -9 -20 -38t-8 -65t-2 -71q0 -36 -1 -60q6 -3 33 -3h28h28q30 0 54 3q24 2 23 5 q-1 12 -9 36t-20 50q-12 28 -26 56t-30 50q-14 22 -28 32q-14 11 -22 5zM508 -71q-4 -1 -8 -1q-16 0 -21 15q-7 18 -13 47q-10 36 -18 89t-31 110q-2 5 -15 5q-8 0 -20 -2q-32 -5 -81 -5q-15 1 -29 0t-26 -3t-20 -4t-7 -2q-3 -16 -5 -48t-11 -62t-27 -52q-16 -19 -42 -19h-7 q-13 1 -19 27t-8 59q-1 22 -1 43v20q1 30 1 39q-50 7 -68 17q-13 8 -13 16q0 3 2 6q6 11 30 21t59 16q4 32 8 76t15 89q9 45 27 85t47 64q13 11 34 11h5q24 -2 52 -16q26 -14 51 -38q25 -26 42 -61q11 -19 23 -47t23 -56t21 -54q10 -25 14 -38q1 -8 18 -8q6 0 12 -1 q12 0 24 1h19h16q13 -1 13 -8q0 -1 -1 -3q-1 -7 -15 -15t-31 -16q-17 -7 -31 -12t-14 -6q11 -57 22 -106t17 -86q5 -28 5 -48q0 -7 -1 -12q-2 -23 -17 -27z"/>
<glyph glyph-name="Acircumflex" horiz-adv-x="580" unicode="" d="M245 677q-13 -15 -21 -27t-16 -21t-18 -15t-22 -6q-12 -2 -14 11q0 3 -1 7q-1 11 3 24q4 18 12 36t13 27q9 21 17 33t20 14q5 2 11 2q7 0 14 -2q14 -4 34 -14q14 -8 34 -28t36 -42t23 -43q7 -20 -5 -28q-11 -8 -27 0t-32 22t-32 29t-29 21zM256 501q-14 -9 -20 -38 t-8 -65t-2 -71q0 -36 -1 -60q6 -3 33 -3h28h28q30 0 54 3q24 2 23 5q-1 12 -9 36t-20 50q-12 28 -26 56t-30 50q-14 22 -28 32q-14 11 -22 5zM508 -71q-4 -1 -8 -1q-16 0 -21 15q-7 18 -13 47q-10 36 -18 89t-31 110q-2 5 -15 5q-8 0 -20 -2q-32 -5 -81 -5q-15 1 -29 0 t-26 -3t-20 -4t-7 -2q-3 -16 -5 -48t-11 -62t-27 -52q-16 -19 -42 -19h-7q-13 1 -19 27t-8 59q-1 22 -1 43v20q1 30 1 39q-50 7 -68 17q-13 8 -13 16q0 3 2 6q6 11 30 21t59 16q4 32 8 76t15 89q9 45 27 85t47 64q13 11 34 11h5q24 -2 52 -16q26 -14 51 -38q25 -26 42 -61 q11 -19 23 -47t23 -56t21 -54q10 -25 14 -38q1 -8 18 -8q6 0 12 -1q12 0 24 1h19h16q13 -1 13 -8q0 -1 -1 -3q-1 -7 -15 -15t-31 -16q-17 -7 -31 -12t-14 -6q11 -57 22 -106t17 -86q5 -28 5 -48q0 -7 -1 -12q-2 -23 -17 -27z"/>
<glyph glyph-name="Atilde" horiz-adv-x="579" unicode="" d="M266 662q-9 12 -14 19t-9 11t-7.5 5.5t-10.5 1.5q-14 0 -19.5 -6.5t-7.5 -17.5q-3 -12 -14 -18.5t-22 -2.5q-13 5 -15.5 16.5t-0.5 20.5q1 10 6.5 22.5t15 23.5t22 19t27.5 8q18 0 29 -3t19.5 -9t16 -15t19.5 -22q11 -12 20.5 -11.5t17 6.5t13.5 14t10 10q8 -9 10 -18 t2 -14q0 -12 -5 -29q-3 -13 -9.5 -22t-23.5 -14q-11 -3 -20 -3q-10 0 -23.5 5.5t-26.5 22.5zM256 501q-13 -9 -19.5 -38t-8.5 -64.5t-2 -71.5t-1 -60q6 -2 26.5 -2.5t34.5 -0.5t36 0.5t45.5 2.5t23.5 5q-1 12 -9 35.5t-20 51t-26.5 55.5t-29 49.5t-28 32.5t-22.5 5zM508 -71 q-4 -1 -8 -1q-16 0 -22 16.5t-12 45.5q-9 36 -17.5 89t-31.5 110q-2 5 -15 5q-8 0 -30 -3.5t-71 -3.5q-14 1 -28.5 0t-26.5 -3t-19.5 -3.5t-7.5 -2.5q-2 -17 -4.5 -48.5t-11.5 -62t-26 -50.5t-43 -20h-7q-14 1 -19.5 27t-7 53.5t-1.5 48.5q0 10 0.5 30t0.5 29 q-50 7 -65.5 16t-15.5 17q0 3 4 10t28 17t59 16q4 32 8.5 76t14.5 89t27.5 85t46.5 64q13 11 34 11q3 0 16.5 -1t40 -14.5t51.5 -39t42 -60.5q11 -20 23 -47.5t23 -56t20.5 -53.5t14.5 -38q1 -8 12.5 -8.5t17.5 -0.5q12 0 23 0.5t20 0.5t19 -0.5t10 -7.5q0 -1 -1 -3 q-1 -7 -15 -15.5t-31 -15.5t-31 -12t-14 -6q11 -57 22 -106t16.5 -81.5t5.5 -52.5q0 -7 -1.5 -21t-16.5 -18z"/>
<glyph glyph-name="Adieresis" horiz-adv-x="580" unicode="" d="M256 501q-14 -9 -20 -38t-8 -65t-2 -71q0 -36 -1 -60q6 -3 33 -3h28h28q30 0 54 3q24 2 23 5q-1 12 -9 36t-20 50q-12 28 -26 56t-30 50q-14 22 -28 32q-14 11 -22 5zM508 -71q-4 -1 -8 -1q-16 0 -21 15q-7 18 -13 47q-10 36 -18 89t-31 110q-2 5 -15 5q-8 0 -20 -2 q-32 -5 -81 -5q-15 1 -29 0t-26 -3t-20 -4t-7 -2q-3 -16 -5 -48t-11 -62t-27 -52q-16 -19 -42 -19h-7q-13 1 -19 27t-8 59q-1 22 -1 43v20q1 30 1 39q-50 7 -68 17q-13 8 -13 16q0 3 2 6q6 11 30 21t59 16q4 32 8 76t15 89q9 45 27 85t47 64q13 11 34 11h5q24 -2 52 -16 q26 -14 51 -38q25 -26 42 -61q11 -19 23 -47t23 -56t21 -54q10 -25 14 -38q1 -8 18 -8q6 0 12 -1q12 0 24 1h19h16q13 -1 13 -8q0 -1 -1 -3q-1 -7 -15 -15t-31 -16q-17 -7 -31 -12t-14 -6q11 -57 22 -106t17 -86q5 -28 5 -48q0 -7 -1 -12q-2 -23 -17 -27zM120 730 q-2 -3 -3 -5l-3 -3q0 2 10 19v0q17 15 33 15t27 -24q4 -6 12 -13t16 -15t14 -15q6 -8 4 -17q-4 -18 -16 -26q-10 -7 -23 -6h-3q-14 1 -30 9t-26 22t-14 32q-2 13 2 27zM313 728v4q1 4 1 1q9 18 22 19h3q13 0 23 -9q12 -11 18 -27q3 -8 3 -14q0 -8 -4 -16q-10 -20 -22 -20 q-1 0 -1 -1q-12 1 -22 11t-16 26q-5 12 -5 23q0 -1 -1 -3z"/>
<glyph glyph-name="Aring" horiz-adv-x="574" unicode="" d="M280 620q17 13 19 27t2 19q0 15 -6.5 30t-16.5 19t-14 4q-12 0 -26 -12q-13 -9 -14 -21t-1 -16q0 -15 6 -30.5t15.5 -21.5t15.5 -6q9 0 20 8zM256 501q-13 -9 -19.5 -38t-8.5 -64.5t-2 -71.5t-1 -60q6 -2 26.5 -2.5t34.5 -0.5t36 0.5t45.5 2.5t23.5 5q-1 12 -9 35.5 t-20 51t-26.5 55.5t-29 49.5t-28 32.5t-22.5 5zM331 620q-11 -23 -31 -40q26 -14 50 -40.5t41 -68.5q11 -20 23 -47.5t23 -56t20.5 -53.5t14.5 -38q1 -8 12.5 -8.5t17.5 -0.5q12 0 23 0.5t20 0.5t19 -0.5t10 -7.5q0 -1 -1 -3q-1 -7 -15 -15.5t-31 -15.5t-31 -12t-14 -6 q11 -57 22 -106t16.5 -81.5t5.5 -52.5q0 -7 -1.5 -21t-16.5 -18q-4 -1 -8 -1q-16 0 -22 16.5t-12 45.5q-9 36 -17.5 89t-31.5 110q-3 5 -17 5q-7 0 -27 -2.5t-70 -7.5q-34 -1 -59 -2.5t-25 -3.5q-2 -17 -4.5 -48.5t-11.5 -62t-26 -50.5t-43 -20h-7q-14 1 -19.5 27t-7 53.5 t-1.5 48.5q0 10 0.5 30t0.5 29q-50 7 -65.5 16t-15.5 17q0 3 4 10t28 17t59 16q4 32 8.5 77t14.5 91.5t27 88t45 65.5q-11 11 -19 26q-17 25 -17 57t17 59q8 17 26 25.5t26 8.5q33 0 55.5 -14.5t35 -36.5t12.5 -49q0 -22 -10 -39z"/>
<glyph glyph-name="AE" horiz-adv-x="742" unicode="" d="M340 561q-14 -9 -24 -32t-18 -50t-14 -53t-11 -39q13 1 25 -1t23 -1t20 3t15 10q3 4 3 18q1 14 -1 32l-4 36q-2 20 -6 36q-2 16 -4 28q-2 11 -4 13zM176 98q-6 -16 -18 -38t-29 -40q-15 -18 -33 -23q-4 -1 -7 -1q-14 0 -27 16q-7 8 -7 28q1 22 7 53q6 28 13 59 q7 32 15 60t14 51t5 34q1 5 -17 7t-39 5t-37 9q-14 5 -14 12q0 22 22 34q16 10 36 12q18 3 36 4h5h31q4 0 12 16t18 37q10 23 19 47q10 24 18 43q15 35 33 71t45 64q28 34 53 34q3 0 6 -1q27 -5 64 -49q2 -2 24 0t53 6t67 10t68 8q18 1 31 2q11 0 21 -1q23 -2 23 -14 q0 -10 -20 -19q-23 -11 -53 -21t-62 -17q-31 -7 -45 -10q-26 -5 -35 -28q-10 -24 -10 -54v-6q0 -28 4 -58q4 -34 4 -58q0 -1 12 0q12 2 32 2h14q14 0 28 -1q22 -1 43 -5q11 -3 24 -2q13 2 26 2h25t24 -5q-6 -19 -24 -31t-42 -21t-52 -13t-50 -6t-36 -5q-14 -2 -15 -5 q-1 -26 -1 -56v-15q0 -23 2 -43q2 -28 6 -48t13 -25q28 -17 54 -17h9q30 4 60 13q29 9 58 13q5 1 10 1l48 -17q2 -2 2 -5t-2 -7q-2 -9 -6 -19q-4 -11 -10 -19t-9 -10q-20 -18 -40 -24q-21 -6 -41 -8q-8 -1 -15 0q-13 0 -27 2q-22 2 -46 4q-24 3 -54 7q-30 3 -57 13t-46 28 t-22 47q-1 9 -3 37t-4 59t-4 57t-3 32q-1 4 -13 6t-28 2t-34 -2t-33 -3q-1 -1 -9 -23t-18 -53t-22 -65q-11 -34 -18 -56z"/>
<glyph glyph-name="Ccedilla" d="M279 -198q9 4 23 6t27 6q13 6 21 16q7 8 7 25v8q-3 17 -11 24t-18 8t-21 -1t-21 -2q-10 -1 -18 2t-9 14q-3 14 -7 25l-8 22q-3 11 -4 23t2 28q-67 14 -116 61t-79 114q-21 47 -27 108q-3 26 -3 53q1 36 5 70q8 62 32 115q24 54 64 87q43 34 87 44q31 7 60 8q13 0 25 -2 q41 -4 76 -20t59 -34q7 -5 25 -18q18 -14 28 -28q12 -14 10 -25t-35 -12h-9q-17 0 -33 3q-20 4 -40 10t-40 10t-42 4q-115 0 -142 -157q-6 -37 -11 -89q-2 -26 -2 -51q0 -26 2 -51q5 -50 25 -86t64 -39h9q22 -1 46 7q28 10 53 25t49 33t43 35q3 3 15 19t29 29q16 14 30 21 t20 -6q2 -3 2 -11q1 -6 -1 -15q-2 -20 -8 -42q-4 -22 -9 -42t-8 -24q-20 -26 -45 -51t-57 -38q-42 -17 -84 -18q3 -20 3 -35v-10q-2 -18 1 -31q8 1 16 1q14 0 30 -2q24 -4 43 -15t28 -32q5 -11 5 -25q0 -13 -4 -28q-3 -27 -27 -45q-24 -19 -52 -23q-9 -1 -17 -1q-17 1 -33 7 q-22 10 -23 38z" unicode=""/>
<glyph glyph-name="Egrave" horiz-adv-x="414" unicode="" d="M308 403q-12 8 -23 8q-10 0 -25 -9t-41 -33q12 1 29 5t32 9.5t24 11t4 8.5zM378.5 128q7.5 -5 7.5 -14q0 -4 -2.5 -13.5t-16 -27t-34.5 -33.5t-46 -25q-22 -8 -45.5 -14t-38 -6.5t-18.5 -0.5q-22 0 -47.5 5t-53.5 20q-40 20 -61 46.5t-26.5 49t-5.5 39.5q0 14 4.5 36 t18 51t34 54.5t42.5 45.5q-49 22 -67.5 53.5t-18.5 65.5q0 3 1 23.5t20 57.5t47 66t59 46t57 17h6q27 -2 55.5 -13t50.5 -26t32.5 -30t0.5 -24q-6 -5 -18 0t-31.5 12.5t-43 13t-51.5 5.5h-9q-48 -3 -69 -34.5t-24 -80.5v-11q0 -23 7.5 -42.5t19 -32t22 -17.5t12.5 -3 q33 27 70.5 44.5t58.5 20t29 2.5q22 0 42.5 -9t25.5 -38q-1 -15 -15 -28t-34.5 -23t-45 -18t-46 -13.5t-36 -9t-15.5 -4.5q-23 -17 -46.5 -39t-34.5 -56q-5 -16 -5 -30q0 -13 7 -31t30.5 -33.5t47 -19t37.5 -3.5q22 0 46 5q13 2 29.5 8t33 11.5t30.5 7.5t21.5 -3zM171 725 q-10 6 -22.5 16.5t-22 22t-13 20t-3.5 12.5q0 5 3.5 9t13.5 4q7 0 23.5 -3t42 -15.5t43 -29.5t17.5 -34v-5q-4 -11 -12 -13.5t-15 -2.5q-4 0 -12.5 1.5t-21 7t-21.5 10.5z"/>
<glyph glyph-name="Eacute" horiz-adv-x="412" unicode="" d="M308 403q-12 8 -23 8q-10 0 -25 -9t-41 -33q12 1 29 5t32 9.5t24 11t4 8.5zM378.5 128q7.5 -5 7.5 -14q0 -4 -2.5 -13.5t-16 -27t-34.5 -33.5t-46 -25q-22 -8 -45.5 -14t-38 -6.5t-18.5 -0.5q-22 0 -47.5 5t-53.5 20q-40 20 -61 46.5t-26.5 49t-5.5 39.5q0 14 4.5 36 t18 51t34 54.5t42.5 45.5q-49 22 -67.5 53.5t-18.5 65.5q0 3 1 23.5t20 57.5t47 66t59 46t57 17h6q27 -2 55.5 -13t50.5 -26t32.5 -30t0.5 -24q-6 -5 -18 0t-31.5 12.5t-43 13t-51.5 5.5h-9q-48 -3 -69 -34.5t-24 -80.5v-11q0 -23 7.5 -42.5t19 -32t22 -17.5t12.5 -3 q33 27 70.5 44.5t58.5 20t29 2.5q22 0 42.5 -9t25.5 -38q-1 -15 -15 -28t-34.5 -23t-45 -18t-46 -13.5t-36 -9t-15.5 -4.5q-23 -17 -46.5 -39t-34.5 -56q-5 -16 -5 -30q0 -13 7 -31t30.5 -33.5t47 -19t37.5 -3.5q22 0 46 5q13 2 29.5 8t33 11.5t30.5 7.5t21.5 -3zM234 730 q-9 -7 -22.5 -14.5t-28 -12t-26 -4.5t-15.5 8q-1 2 -1 5q0 8 11 25.5t31 36t38 27t28 8.5t18 -5q7 -7 7 -15q0 -10 -7 -22t-16 -21.5t-17 -15.5z"/>
<glyph glyph-name="Ecircumflex" horiz-adv-x="414" unicode="" d="M308 403q-12 8 -23 8q-10 0 -25 -9t-41 -33q12 1 29 5t32 9.5t24 11t4 8.5zM378.5 128q7.5 -5 7.5 -14q0 -4 -2.5 -13.5t-16 -27t-34.5 -33.5t-46 -25q-22 -8 -45.5 -14t-38 -6.5t-18.5 -0.5q-22 0 -47.5 5t-53.5 20q-40 20 -61 46.5t-26.5 49t-5.5 39.5q0 14 4.5 36 t18 51t34 54.5t42.5 45.5q-49 22 -67.5 53.5t-18.5 65.5q0 3 1 23.5t20 57.5t47 66t59 46t57 17h6q27 -2 55.5 -13t50.5 -26t32.5 -30t0.5 -24q-6 -5 -18 0t-31.5 12.5t-43 13t-51.5 5.5h-9q-48 -3 -69 -34.5t-24 -80.5v-11q0 -23 7.5 -42.5t19 -32t22 -17.5t12.5 -3 q33 27 70.5 44.5t58.5 20t29 2.5q22 0 42.5 -9t25.5 -38q-1 -15 -15 -28t-34.5 -23t-45 -18t-46 -13.5t-36 -9t-15.5 -4.5q-23 -17 -46.5 -39t-34.5 -56q-5 -16 -5 -30q0 -13 7 -31t30.5 -33.5t47 -19t37.5 -3.5q22 0 46 5q13 2 29.5 8t33 11.5t30.5 7.5t21.5 -3zM177 749 q-18 -20 -30.5 -36t-32.5 -18q-11 4 -12.5 11t-1.5 11q0 7 3 16.5t10 21t15 19.5q10 12 17 20t13 10.5t11 2.5q3 0 10 -1.5t22 -8.5q10 -5 25.5 -19t27.5 -30t16 -25.5t4 -13.5q0 -7 -7.5 -11t-19.5 1.5t-24 15t-24 20t-22 14.5z"/>
<glyph glyph-name="Edieresis" horiz-adv-x="414" unicode="" d="M308 403q-12 8 -23 8q-10 0 -25 -9t-41 -33q12 1 29 5t32 9.5t24 11t4 8.5zM378.5 128q7.5 -5 7.5 -14q0 -4 -2.5 -13.5t-16 -27t-34.5 -33.5t-46 -25q-22 -8 -45.5 -14t-38 -6.5t-18.5 -0.5q-22 0 -47.5 5t-53.5 20q-40 20 -61 46.5t-26.5 49t-5.5 39.5q0 14 4.5 36 t18 51t34 54.5t42.5 45.5q-49 22 -67.5 53.5t-18.5 65.5q0 3 1 23.5t20 57.5t47 66t59 46t57 17h6q27 -2 55.5 -13t50.5 -26t32.5 -30t0.5 -24q-6 -5 -18 0t-31.5 12.5t-43 13t-51.5 5.5h-9q-48 -3 -69 -34.5t-24 -80.5v-11q0 -23 7.5 -42.5t19 -32t22 -17.5t12.5 -3 q33 27 70.5 44.5t58.5 20t29 2.5q22 0 42.5 -9t25.5 -38q-1 -15 -15 -28t-34.5 -23t-45 -18t-46 -13.5t-36 -9t-15.5 -4.5q-23 -17 -46.5 -39t-34.5 -56q-5 -16 -5 -30q0 -13 7 -31t30.5 -33.5t47 -19t37.5 -3.5q22 0 46 5q13 2 29.5 8t33 11.5t30.5 7.5t21.5 -3zM72 771 q0 -3 -2 -5l-3 -3q0 1 8 16q1 2 1 1q14 13 28 13t23 -20q4 -5 11 -11.5l14 -13t12 -14t4 -14.5q-5 -23 -17.5 -25t-17.5 -2q-15 0 -31.5 9t-27.5 30q-5 10 -5 21q0 9 3 18zM239 769v4q1 3 1 1q8 16 19 16h1q11 0 21.5 -8.5t14 -18.5t3.5 -16q0 -7 -3 -14q-8 -18 -19 -18 t-20 9t-15 23q-4 10 -4 19v-2q1 2 1 5z"/>
<glyph glyph-name="Igrave" horiz-adv-x="315" unicode="" d="M227 311q0 -30 -3 -66.5t-9.5 -72.5t-15 -70t-18.5 -59t-19.5 -38t-17.5 -13q-2 0 -4 1q-13 3 -21.5 23.5t-14.5 50t-9.5 65.5t-5 71t-1.5 65t1 48q0 23 0.5 54t1.5 63t3 62.5t5 54.5t8 39t11 14q38 -5 59 -35.5t31.5 -74t13.5 -92.5t5 -90zM145 668q-11 7 -25.5 19 t-26 26t-15.5 23.5t-4 14.5q0 6 4 11t16 5q2 0 10.5 -0.5t27.5 -6t39.5 -15.5t37 -23t25.5 -26.5t9 -24.5q0 -3 -1 -7q-5 -12 -14.5 -15t-17.5 -3q-5 0 -15 1.5t-25 8t-25 12.5z"/>
<glyph glyph-name="Iacute" horiz-adv-x="302" unicode="" d="M170 688q-9 -7 -22.5 -14.5t-28 -12t-26 -4.5t-15.5 8q-1 2 -1 5q0 8 11 25.5t31 36t38 27t28 8.5t18 -5q8 -8 6.5 -18t-7.5 -20.5t-15 -20t-17 -15.5zM221 311q0 -30 -3 -66.5t-9.5 -72.5t-15 -70t-18.5 -59t-19.5 -38t-17.5 -13q-2 0 -4 1q-13 3 -21.5 23.5t-14.5 50 t-9.5 65.5t-5 71t-1.5 65t1 48q0 23 0.5 54t1.5 63t3 62.5t5 54.5t7.5 38.5t10.5 14.5h1q38 -5 59 -35.5t31.5 -74t13.5 -92.5t5 -90z"/>
<glyph glyph-name="Icircumflex" horiz-adv-x="302" unicode="" d="M134 728q-18 -20 -30.5 -36t-32.5 -18q-11 4 -12.5 11t-1.5 11q0 7 3 16.5t10 21t15 19.5q10 12 17 20t13 10.5t11 2.5q3 0 10 -1.5t22 -8.5q10 -5 25.5 -19t27.5 -30t16 -25.5t4 -13.5q0 -7 -7.5 -11t-19.5 1.5t-24 15t-24 20t-22 14.5zM221 311q0 -30 -3 -66.5 t-9.5 -72.5t-15 -70t-18.5 -59t-19.5 -38t-17.5 -13q-2 0 -4 1q-13 3 -21.5 23.5t-14.5 50t-9.5 65.5t-5 71t-1.5 65t1 48q0 23 0.5 54t1.5 63t3 62.5t5 54.5t7.5 38.5t10.5 14.5h1q38 -5 59 -35.5t31.5 -74t13.5 -92.5t5 -90z"/>
<glyph glyph-name="Idieresis" horiz-adv-x="303" unicode="" d="M221 311q0 -30 -3 -66.5t-9.5 -72.5t-15 -70t-18.5 -59t-19.5 -38t-17.5 -13q-2 0 -4 1q-13 3 -21.5 23.5t-14.5 50t-9.5 65.5t-5 71t-1.5 65t1 48q0 23 0.5 54t1.5 63t3 62.5t5 54.5t7.5 39t11.5 14q38 -5 59 -35.5t31.5 -74t13.5 -92.5t5 -90zM18 771q0 -3 -2 -5l-3 -3 q0 1 8 16q1 2 1 1q14 13 28 13t23 -20q4 -5 11 -11.5l14 -13t12 -14t4 -14.5q-5 -23 -17.5 -25t-17.5 -2q-15 0 -31.5 9t-27.5 30q-5 10 -5 21q0 9 3 18zM185 769v4q1 3 1 1q8 16 19 16h1q11 0 21.5 -8.5t14 -18.5t3.5 -16q0 -7 -3 -14q-8 -18 -19 -18t-20 9t-15 23 q-4 10 -4 19v-2q1 2 1 5z"/>
<glyph glyph-name="Eth" horiz-adv-x="552" unicode="" d="M451 376q-1 27 -11.5 60.5t-27.5 65.5t-40 57.5t-49 36.5q-21 9 -40 14t-34 5q-6 0 -18 -1.5t-24.5 -15t-11.5 -44.5q0 -36 1.5 -71.5t2.5 -70.5q10 1 22.5 2t24.5 0t22.5 -4.5t16.5 -11.5q5 -12 0.5 -24.5t-16.5 -25.5t-29.5 -25.5t-38.5 -24.5q0 -40 -1.5 -79t-6.5 -79 q-3 -26 -7.5 -53t-11.5 -50t-17.5 -38t-25.5 -17h-3q-18 0 -30 12.5t-20 34t-12 47.5t-5.5 51.5t-1.5 47.5t-1 34q0 4 -0.5 7t-0.5 7q-18 -5 -31 -5.5t-18 6.5q-5 6 -5 14q0 13 8.5 28.5t20 30t24.5 28.5l4 168q0 12 -2.5 31.5t-4.5 41t-2 42.5t5 37.5t16 25.5t27 9h7 q8 -1 15 -1q12 0 27.5 2.5t35.5 6t34.5 5t23.5 1.5q13 0 26 -2q24 -3 51.5 -14.5t54.5 -26.5t51 -33t40 -34q45 -49 66 -108.5t21 -120.5q0 -57 -17 -109.5t-47 -89.5q-19 -23 -44 -43.5t-53 -36t-58 -25t-58 -12.5q-10 -2 -22 -2t-22.5 1.5t-17.5 6t-7 13.5t18 15t44 14.5 t56 22.5t54 39q35 38 54.5 91.5t19.5 109.5q0 13 -1 26z"/>
<glyph glyph-name="Ntilde" d="M157 112v-11q0 -13 -1.5 -35.5t-10 -44t-18.5 -25.5t-14 -4q-16 0 -39 21q-18 14 -27.5 45t-12.5 67t-3 70q0 15 1 48.5t6.5 87.5t13.5 108.5t16 103.5q3 18 10 40.5t16 42.5t20.5 34.5t24.5 16.5t27 -11t29 -47q27 -65 58 -135t58 -135t46.5 -119.5t22.5 -87.5 q7 88 10.5 138.5t3.5 81.5q0 16 -1 29q-1 28 -1 60q0 16 0.5 49t5 76.5t12.5 72t20 28.5h1q11 -1 15 -16t5 -40.5t1 -59.5t3 -73t11 -80.5t26 -82.5q0 -46 -1 -91t-4.5 -85t-9.5 -71.5t-15 -50.5q-14 -30 -28 -35.5t-24 -5.5q-11 0 -27.5 7t-39 28.5t-43 49.5t-37.5 58.5 t-28 56.5q-9 22 -18.5 49.5t-18.5 56.5t-17 58.5t-15 57.5q-17 64 -32 132q-2 -10 -4 -27q-2 -14 -2.5 -30.5t-0.5 -25.5q0 -19 1 -42q1 -43 5 -89t8.5 -87t9 -74.5t6.5 -52.5zM261 729q-9 12 -14 19t-9 11t-7.5 5.5t-10.5 1.5q-14 0 -19.5 -6.5t-7.5 -17.5 q-3 -12 -14 -18.5t-22 -2.5q-13 5 -15 14t-2 15q0 4 1 8q1 10 6.5 22.5t15 23.5t22 19t27.5 8q18 0 29 -3t19.5 -9t16 -15t19.5 -22q11 -12 20.5 -11.5t17 6.5t13.5 14t10 10q8 -9 10 -18t2 -14q0 -12 -5 -29q-3 -13 -9.5 -22t-23.5 -14q-11 -3 -20 -3q-10 0 -23.5 5.5 t-26.5 22.5z" unicode=""/>
<glyph glyph-name="Ograve" d="M146 499q-9 -18 -19 -60t-16 -94q-6 -48 -6 -97q1 -4 1 -8q0 -54 12 -94t38 -62q15 -12 35 -11q16 0 36 7q33 11 57 37t38 59q16 34 24 70t13 68q2 20 2 41q1 27 -3 53q-6 48 -22 89q-14 41 -35 72t-45 46q-9 4 -17 4q-11 1 -21 -7q-18 -12 -32 -34q-14 -20 -23 -43 q-10 -23 -17 -36zM412 70q-24 -32 -62 -50t-79 -24q-12 -1 -24 -1q-29 0 -57 8q-40 11 -70 39q-58 49 -82 118q-24 70 -24 144t19 148t49 131q14 26 42 49t64 35q32 11 66 11h8q38 -2 71 -26q13 -9 21 -20t16 -23q8 -13 15 -25t16 -25q57 -79 73 -155q12 -55 11 -104 q1 -19 -1 -38q-6 -66 -29 -116q-22 -50 -43 -76zM236 738q-12 7 -26 19t-26 26t-16 27q-2 6 -3 11q0 6 4 11t16 5h4q15 -1 34 -7t39 -15q20 -10 38 -23q16 -13 26 -28q8 -12 7 -25v-5q-5 -12 -17 -16q-7 -2 -15 -2q-5 0 -11 1q-14 3 -29 9t-25 12z" unicode=""/>
<glyph glyph-name="Oacute" d="M146 499q-9 -18 -19 -60t-16 -94q-6 -48 -6 -97q1 -4 1 -8q0 -54 12 -94t38 -62q15 -12 35 -11q16 0 36 7q33 11 57 37t38 59q16 34 24 70t13 68q2 20 2 41q1 27 -3 53q-6 48 -22 89q-14 41 -35 72t-45 46q-9 4 -17 4q-11 1 -21 -7q-18 -12 -32 -34q-14 -20 -23 -43 q-10 -23 -17 -36zM412 70q-24 -32 -62 -50t-79 -24q-12 -1 -24 -1q-29 0 -57 8q-40 11 -70 39q-58 49 -82 118q-24 70 -24 144t19 148t49 131q14 26 42 49t64 35q32 11 66 11h8q38 -2 71 -26q13 -9 21 -20t16 -23q8 -13 15 -25t16 -25q57 -79 73 -155q12 -55 11 -104 q1 -19 -1 -38q-6 -66 -29 -116q-22 -50 -43 -76zM263 748q-11 -8 -27 -17t-34 -15t-32 -5q-14 0 -19 9q-1 2 -1 6q0 10 11 28q15 24 40 46t53 36q15 7 27 7q11 0 21 -6q9 -8 9 -18q1 -13 -9 -29q-8 -12 -19 -24t-20 -18z" unicode=""/>
<glyph glyph-name="Ocircumflex" d="M146 499q-9 -18 -19 -60t-16 -94q-6 -48 -6 -97q1 -4 1 -8q0 -54 12 -94t38 -62q15 -12 35 -11q16 0 36 7q33 11 57 37t38 59q16 34 24 70t13 68q2 20 2 41q1 27 -3 53q-6 48 -22 89q-14 41 -35 72t-45 46q-9 4 -17 4q-11 1 -21 -7q-18 -12 -32 -34q-14 -20 -23 -43 q-10 -23 -17 -36zM412 70q-24 -32 -62 -50t-79 -24q-12 -1 -24 -1q-29 0 -57 8q-40 11 -70 39q-58 49 -82 118q-24 70 -24 144t19 148t49 131q14 26 42 49t64 35q32 11 66 11h8q38 -2 71 -26q13 -9 21 -20t16 -23q8 -13 15 -25t16 -25q57 -79 73 -155q12 -55 11 -104 q1 -19 -1 -38q-6 -66 -29 -116q-22 -50 -43 -76zM245 778q-13 -14 -21 -26t-16 -22q-8 -8 -18 -14t-22 -7q-12 -2 -14 11q0 3 -1 7q-1 11 3 24q4 18 12 36t13 27q9 20 17 32t20 16q5 2 11 1q7 0 14 -2q14 -4 34 -14q14 -8 34 -28q20 -21 36 -43t23 -42q3 -7 3 -13 q0 -10 -8 -15q-6 -4 -13 -4q-6 0 -14 4q-16 8 -32 22t-32 29t-29 21z" unicode=""/>
<glyph glyph-name="Otilde" d="M256 726q-9 12 -14 19t-9 11t-7.5 5.5t-10.5 1.5q-14 0 -19.5 -6.5t-7.5 -17.5q-3 -12 -14 -18.5t-22 -2.5q-13 5 -15.5 16.5t-0.5 20.5q1 10 6.5 22.5t15 23.5t22 19t27.5 8q18 0 29 -3t19.5 -9t16 -15t19.5 -22q11 -12 20.5 -11.5t17 6.5t13.5 14t10 10q8 -9 10 -18 t2 -14q0 -12 -5 -29q-3 -13 -9.5 -22t-23.5 -14q-11 -3 -20 -3q-10 0 -23.5 5.5t-26.5 22.5zM146 499q-9 -18 -19 -60t-16 -92t-6 -99q0 -4 0.5 -33t12.5 -69.5t32.5 -56.5t40.5 -16q16 0 36 7q33 11 56.5 37t39 59t24 69.5t12.5 68.5q2 20 2 41q0 27 -5 64t-19.5 78 t-35.5 72t-45 46q-9 4 -17 4q-11 0 -25 -10t-27.5 -30.5t-23.5 -43.5t-17 -36zM412 70q-25 -32 -62.5 -50.5t-64 -21.5t-38.5 -3q-29 0 -63 9.5t-64 37.5q-57 49 -81.5 118t-24.5 143.5t19 148t49 131.5q13 26 41.5 49t62.5 34.5t68 11.5q4 0 25.5 -1t53.5 -25 q13 -9 21.5 -20t16 -23t14.5 -24.5t16 -25.5q56 -78 70 -143.5t14 -115.5q0 -19 -4 -61.5t-26 -93t-43 -75.5z" unicode=""/>
<glyph glyph-name="Odieresis" d="M146 499q-9 -18 -19 -60t-16 -94q-6 -48 -6 -97q1 -4 1 -8q0 -54 12 -94t38 -62q15 -12 35 -11q16 0 36 7q33 11 57 37t38 59q16 34 24 70t13 68q2 20 2 41q1 27 -3 53q-6 48 -22 89q-14 41 -35 72t-45 46q-9 4 -17 4q-11 1 -21 -7q-18 -12 -32 -34q-14 -20 -23 -43 q-10 -23 -17 -36zM412 70q-24 -32 -62 -50t-79 -24q-12 -1 -24 -1q-29 0 -57 8q-40 11 -70 39q-58 49 -82 118q-24 70 -24 144t19 148t49 131q14 26 42 49t64 35q32 11 66 11h8q38 -2 71 -26q13 -9 21 -20t16 -23q8 -13 15 -25t16 -25q57 -79 73 -155q12 -55 11 -104 q1 -19 -1 -38q-6 -66 -29 -116q-22 -50 -43 -76zM123 773q-1 -3 -3 -5l-2 -3q0 1 8 16q1 2 1 1q15 13 29 13t22 -20q4 -5 11 -11t14 -14q7 -6 12 -14t4 -14q-5 -22 -25 -26q-5 -1 -10 -1q-15 -1 -29 7q-19 10 -30 32q-5 10 -5 21q0 9 3 18zM290 771v4q1 3 1 1q8 16 19 16h1 q11 0 21 -8t16 -23q2 -6 2 -12q0 -7 -3 -14q-8 -18 -19 -18t-20 9q-8 9 -14 23q-4 10 -5 19v-2q1 2 1 5z" unicode=""/>
<glyph glyph-name="multiply" horiz-adv-x="598" unicode="" d="M107 16q1 26 11 54t26 55t32 51t30 42t21 30q8 12 6 15q-38 38 -86 83t-90 83q-7 7 -7 14t8 15q13 11 39 12q7 0 15 -1q17 -3 46 -19q28 -16 58 -37t56 -42t37 -33q19 20 35 36t30 32q15 16 31 32t35 36q6 6 22 16t37 19q20 9 39 15q12 4 21 3q5 0 9 -1q11 -4 11 -18 t-19 -44q-16 -24 -28 -44t-26 -40q-14 -21 -32 -46t-44 -61q-4 -5 13 -23t41 -40t48 -42t33 -31q15 -17 28 -44q15 -30 15 -52q0 -18 -14 -23q-3 -1 -6 -1q-16 0 -48 19q-20 13 -44 31q-24 19 -50 37t-49 35q-24 17 -43 28q-2 -1 -16 -15t-36 -34t-47 -44q-27 -22 -53 -39 t-51 -23q-9 -2 -18 -3q-14 0 -26 7z"/>
<glyph glyph-name="Oslash" horiz-adv-x="627" unicode="" d="M243 561q-33 -39 -53 -85t-30 -96t-9 -100q0 -50 9 -96q58 91 114 187t119 187q-1 6 -15 18t-37 20q-12 4 -25 3q-11 -1 -23 -3q-26 -6 -50 -35zM329 71q33 7 59 27t47 48t37 59t24 61q4 11 8 31t6 44q2 25 3 51q0 26 -4 50t-12 42t-21 29q-3 1 -17 -15q-15 -16 -35 -44 q-20 -26 -44 -58t-44 -64q-22 -30 -39 -54t-24 -35q-11 -17 -20 -35t-19 -35l-20 -34t-24 -35q29 -30 60 -38q11 -3 25 -3q24 0 54 8zM462 51q-64 -36 -120 -41q-20 -2 -39 -2q-33 0 -60 6q-41 10 -67 22t-27 11q-1 -3 -9 -15t-21 -26t-29 -22q-9 -5 -18 -5q-6 0 -12 2 q-6 3 -6 12v5q2 14 10 32q7 18 16 36l16 32q1 0 -4 10q-6 10 -12 26t-12 39t-8 51q-4 38 -4 78v8q0 36 5 71q5 39 17 77t34 72q46 72 108 98q45 19 97 19q20 0 42 -3q9 2 24 -2t30 -9t26 -9t13 -2q6 9 25 31q19 23 41 43t42 33q12 8 21 8q6 0 10 -4q11 -3 11 -15t-8 -27 q-6 -17 -18 -35t-22 -34t-18 -30q-8 -12 -6 -15q12 -9 32 -39t36 -75t24 -100q3 -21 2 -42q0 -34 -7 -69q-12 -56 -48 -108t-107 -93z"/>
<glyph glyph-name="Ugrave" d="M154 523q6 -39 10 -91t12 -106t20 -104t36 -82q20 -29 40 -29q2 1 4 1q22 2 39 20q18 18 31 44t16 42q8 34 14 76t12 86t13 86t15 73q8 32 19 51q10 18 24 18h1q8 2 11 -12t3 -34q0 -5 1 -11q1 -16 -1 -33q-2 -23 -3 -41q-1 -21 -1 -41v-20q1 -30 2 -61q1 -20 1 -40 q-1 -11 -1 -21q0 -30 -4 -62q-6 -38 -14 -80t-26 -77t-50 -57q-30 -22 -79 -22h-4q-63 1 -108 28t-75 71t-45 100q-16 56 -23 115q-6 52 -6 102v14q2 58 6 105t11 79t12 39q11 6 21 6q10 -1 18 -7q16 -14 26 -37q10 -24 16 -50q5 -26 6 -38zM260 705q-12 7 -26 19t-26 26 t-16 27q-2 6 -3 11q0 6 4 11t16 5h4q15 0 34 -6t39 -16t38 -23q16 -13 26 -28q8 -12 7 -25v-5q-5 -11 -17 -15q-7 -2 -15 -3q-5 0 -11 1q-14 2 -29 8t-25 13z" unicode=""/>
<glyph glyph-name="Uacute" d="M154 523q6 -39 10 -91t12 -106t20 -104t36 -82q20 -29 40 -29q2 1 4 1q22 2 39 20q18 18 31 44t16 42q8 34 14 76t12 86t13 86t15 73q8 32 19 51q10 18 24 18h1q8 2 11 -12t3 -34q0 -5 1 -11q1 -16 -1 -33q-2 -23 -3 -41q-1 -21 -1 -41v-20q1 -30 2 -61q1 -20 1 -40 q-1 -11 -1 -21q0 -30 -4 -62q-6 -38 -14 -80t-26 -77t-50 -57q-30 -22 -79 -22h-4q-63 1 -108 28q-45 26 -75 70t-46 99t-24 113q-7 51 -7 99v13q1 56 7 100t13 72q8 28 15 31q13 8 24 8q8 -1 14 -5q16 -10 26 -28t14 -40q5 -22 6 -33zM307 697q-11 -8 -27 -17 q-16 -8 -34 -14t-32 -6t-19 9q-1 2 -1 6q0 10 11 28q15 25 40 47t53 35q15 7 27 7q11 0 21 -6q9 -8 9 -18q1 -12 -9 -28q-8 -12 -19 -24t-20 -19z" unicode=""/>
<glyph glyph-name="Ucircumflex" d="M154 523q6 -39 10 -91t12 -106t20 -104t36 -82q20 -29 40 -29q2 1 4 1q22 2 39 20q18 18 31 44t16 42q8 34 14 76t12 86t13 86t15 73q8 32 19 51q10 18 24 18h1q8 2 11 -12t3 -34q0 -5 1 -11q1 -16 -1 -33q-2 -23 -3 -41q-1 -21 -1 -41v-20q1 -30 2 -61q1 -20 1 -40 q-1 -11 -1 -21q0 -30 -4 -62q-6 -38 -14 -80t-26 -77t-50 -57q-30 -22 -79 -22h-4q-63 1 -108 28t-75 71t-45 100q-16 56 -23 115q-6 52 -6 102v14q2 58 6 105t11 79t12 39q11 6 21 6q10 -1 18 -7q16 -14 26 -37q10 -24 16 -50q5 -26 6 -38zM265 774q-13 -14 -21 -26 t-16 -22q-8 -8 -18 -14t-22 -7q-12 -2 -14 11q0 3 -1 7q-1 11 3 24q4 18 12 36t13 27q9 20 17 32t20 16q5 2 11 1q7 0 14 -2q14 -4 34 -14q14 -8 34 -28q20 -21 36 -43t23 -42q3 -7 3 -13q0 -10 -8 -15q-6 -4 -13 -4q-6 0 -14 4q-16 8 -32 22t-32 29t-29 21z" unicode=""/>
<glyph glyph-name="Udieresis" d="M154 523q6 -39 10 -91t12 -106t20 -104t36 -82q20 -29 40 -29q2 1 4 1q22 2 39 20q18 18 31 44t16 42q8 34 14 76t12 86t13 86t15 73q8 32 19 51q10 18 24 18h1q8 2 11 -12t3 -34q0 -5 1 -11q1 -16 -1 -33q-2 -23 -3 -41q-1 -21 -1 -41v-20q1 -30 2 -61q1 -20 1 -40 q-1 -11 -1 -21q0 -30 -4 -62q-6 -38 -14 -80t-26 -77t-50 -57q-30 -22 -79 -22h-4q-63 1 -108 28t-75 71t-45 100q-16 56 -23 115q-6 52 -6 102v14q2 58 6 105t11 79t12 39q11 6 21 6q10 -1 18 -7q16 -14 26 -37q10 -24 16 -50q5 -26 6 -38zM168 755q0 -3 -2 -5l-3 -3 q0 1 8 16q1 2 1 1q14 13 28 13t23 -20q4 -5 11 -11t14 -14q7 -6 12 -14t4 -14q-5 -22 -25 -26q-5 -1 -10 -1q-15 -1 -29 7q-19 10 -30 32q-5 10 -5 21q0 9 3 18zM335 753v4q1 3 1 1q8 16 19 16h1q12 0 22 -8t15 -23q2 -6 2 -12q0 -7 -3 -14q-8 -18 -19 -18t-20 9t-15 23 q-4 10 -4 19v-2q1 2 1 5z" unicode=""/>
<glyph glyph-name="Yacute" horiz-adv-x="468" unicode="" d="M78 674h2q14 0 29 -13q17 -13 31 -37t25 -53t14 -58q7 -57 21 -83t30 -37q14 -10 29 -10q4 0 8 1q23 51 41 99q8 19 16 41t14 42l12 40q4 18 6 33q0 19 16 19h2q16 0 32 -14q18 -14 29 -42q8 -20 8 -46q0 -11 -1 -22q-4 -37 -20 -101q-16 -63 -46 -135t-75 -140 t-109 -116q-37 -26 -72 -36q-23 -6 -40 -7q-9 0 -16 2q-22 5 -22 24q0 17 29 42q47 40 81 87t55 89q25 48 40 96q-31 7 -61 23q-26 14 -54 38t-48 65q-15 31 -32 67t-24 66q-3 13 -3 25q-1 15 5 27q10 22 48 24zM279 714q-10 -8 -26 -16t-32 -14q-15 -5 -29 -5t-19 9 q-1 2 -1 6q0 9 10 26q14 23 38 44t50 33q14 6 25 6t21 -5q8 -8 8 -18q0 -12 -8 -26q-8 -12 -18 -22t-19 -18z"/>
<glyph glyph-name="Thorn" d="M393 403q-4 16 -14 37.5t-24 41t-31.5 33t-36.5 13.5q-32 0 -54 -17t-35.5 -42.5t-20 -55t-7.5 -46.5t-1 -25q0 -15 2.5 -29t7.5 -14q28 0 67 6t73 18.5t54.5 31t20.5 40.5q0 4 -1 8zM51 591q0 24 -0.5 42t-0.5 20q0 30 6 56.5t18 36.5t23 10q13 0 30 -8q15 -16 22 -42 t10 -54t4.5 -55.5t4.5 -46.5q33 12 73 23t62 12t28 1q33 0 64.5 -11.5t51.5 -46.5q16 -24 19 -50.5t3 -37.5q0 -31 -11.5 -68.5t-45.5 -72t-94 -42.5q-20 0 -46 -1.5t-49 -4.5t-39 -7t-16 -8q3 -11 6 -35.5t3 -54.5t-3.5 -61.5t-14 -54.5t-24.5 -31.5t-27 -8.5q-11 0 -25 5 q-3 8 -6.5 43t-7 86.5t-7 114t-6 126t-4 122.5t-1.5 104z" unicode=""/>
<glyph glyph-name="germandbls" horiz-adv-x="519" unicode="" d="M235 -6q-33 0 -46 12.5t-10 27.5t20.5 28.5t44.5 16.5q33 4 53.5 13t31.5 21.5t15 28.5t5 34q0 10 -3 27.5t-10.5 36t-22.5 35.5t-39 27q-8 3 -20.5 11.5t-24.5 20.5t-20.5 26.5t-8.5 30.5q0 20 4.5 33t13 23.5t21 19.5t29.5 22q24 19 37.5 33.5t17 26t3.5 20.5 q0 7 -2.5 19t-12.5 36q-15 30 -32.5 42.5t-34.5 12.5l-11 -1q-11 -1 -27.5 -16.5t-27.5 -41.5q-21 -48 -30 -100t-11.5 -96t-2.5 -78q0 -11 0.5 -39t0.5 -59q1 -33 4 -79t4 -81t1 -57t-1 -52.5t-9 -54.5q-2 -5 -8 -5q-4 0 -14 4t-26.5 17t-30.5 31.5t-15 37.5 q-9 123 -10 186.5t-1 70.5q0 113 24 226q6 27 13.5 58.5t19 61.5t28 56t39.5 43t43.5 20.5t30.5 3.5q23 0 51 -8q52 -17 89 -43.5t54 -78.5q5 -13 5 -26q0 -9 -4 -25.5t-16.5 -38.5t-29.5 -42t-31.5 -36t-24 -28t-6.5 -17q3 -21 24.5 -38t47.5 -37t49 -46.5t28 -66.5 q2 -18 2 -35q0 -38 -13.5 -71.5t-46 -58.5t-77 -35t-93.5 -10z"/>
<glyph glyph-name="agrave" horiz-adv-x="491" unicode="" d="M226 600q-11 7 -25.5 19t-26 26t-17 27t1.5 22q4 5 16 5q2 0 10.5 -0.5t27.5 -6t39.5 -15.5t37 -23t25 -26.5t8.5 -26.5v-5q-5 -12 -16.5 -15.5t-26 -1.5t-29.5 8.5t-25 12.5zM296 423q-3 -13 -17 -21.5t-32 -17.5t-37 -20t-32 -29q-20 -29 -28 -68t-8 -73q0 -39 9 -66.5 t22 -27.5q16 0 33.5 15t31.5 34.5t23 40t9 31.5t-0.5 24.5t-0.5 21.5q0 12 1 27t5.5 29t15.5 15t26.5 5t29.5 1t21.5 -18t7.5 -44v-14q-1 -11 -1 -21q0 -29 5 -58.5t15 -55t24 -41t30 -18.5q9 -2 17 -2q11 0 22.5 4.5t21 12t16.5 13.5t13 3q5 -2 5 -9q0 -3 -2.5 -12.5 t-15 -26t-34.5 -31.5t-52 -19q-16 -3 -30 -3q-26 0 -52 12.5t-46 32.5q-23 24 -37 56q-10 -24 -28 -42q-15 -16 -39 -29.5t-59 -15.5h-3q-33 0 -63.5 22.5t-49 61.5t-19.5 66.5t-1 30.5q0 49 23 102q16 37 42 63t55.5 42.5t59 24t43.5 8t18 0.5q18 0 31 -4t11 -12z"/>
<glyph glyph-name="aacute" horiz-adv-x="492" unicode="" d="M261 602q-11 -8 -27.5 -17t-33.5 -14.5t-31.5 -5.5t-19.5 9q-1 2 -1 6q0 10 13 31t38 43.5t46.5 32.5t33.5 10q11 0 21 -6q10 -9 8.5 -21.5t-9 -25t-18.5 -24t-20 -18.5zM296 423q-3 -13 -17 -21.5t-32 -17.5t-37 -20t-32 -29q-20 -29 -28 -68t-8 -73q0 -39 9 -66.5 t22 -27.5q16 0 33.5 15t31.5 34.5t23 40t9 31.5t-0.5 24.5t-0.5 21.5q0 12 1 27t5.5 29t15.5 15t26.5 5t29.5 1t21.5 -18t7.5 -44v-14q-1 -11 -1 -21q0 -29 5 -58.5t15 -55t24 -41t30 -18.5q9 -2 17 -2q11 0 22.5 4.5t21 12t16.5 13.5t13 3q5 -2 5 -9q0 -3 -2.5 -12.5 t-15 -26t-34.5 -31.5t-52 -19q-16 -3 -30 -3q-26 0 -52 12.5t-46 32.5q-23 24 -37 56q-10 -24 -28 -42q-15 -16 -39 -29.5t-59 -15.5h-3q-33 0 -63.5 22.5t-49 61.5t-19.5 66.5t-1 30.5q0 49 23 102q16 37 42 63t55.5 42.5t59 24t43.5 8t18 0.5q18 0 31 -4t11 -12z"/>
<glyph glyph-name="acircumflex" horiz-adv-x="491" unicode="" d="M178 645q-12 -14 -20.5 -26.5t-16.5 -21.5t-17.5 -14.5t-22.5 -6.5q-13 -2 -14 6t-1 12q0 11 4 26.5t11.5 33.5t12.5 27q9 21 17.5 32.5t16.5 14t14 2.5q7 0 17.5 -3t30.5 -13q14 -8 34 -28t36 -42.5t23 -42.5t-5 -28t-27.5 0t-32 22t-32 29t-28.5 21zM296 423 q-3 -13 -17 -21.5t-32 -17.5t-37 -20t-32 -29q-20 -29 -28 -68t-8 -73q0 -39 9 -66.5t22 -27.5q16 0 33.5 15t31.5 34.5t23 40t9 31.5t-0.5 24.5t-0.5 21.5q0 12 1 27t5.5 29t15.5 15t26.5 5t29.5 1t21.5 -18t7.5 -44v-14q-1 -11 -1 -21q0 -29 5 -58.5t15 -55t24 -41 t30 -18.5q9 -2 17 -2q11 0 22.5 4.5t21 12t16.5 13.5t13 3q5 -2 5 -9q0 -3 -2.5 -12.5t-15 -26t-34.5 -31.5t-52 -19q-16 -3 -30 -3q-26 0 -52 12.5t-46 32.5q-23 24 -37 56q-10 -24 -28 -42q-15 -16 -39 -29.5t-59 -15.5h-3q-33 0 -63.5 22.5t-49 61.5t-19.5 66.5t-1 30.5 q0 49 23 102q16 37 42 63t55.5 42.5t59 24t43.5 8t18 0.5q18 0 31 -4t11 -12z"/>
<glyph glyph-name="atilde" horiz-adv-x="489" unicode="" d="M296 423q-3 -13 -17 -21.5t-32 -17.5t-37 -20t-32 -29q-20 -29 -28 -68t-8 -73q0 -39 9 -66.5t22 -27.5q16 0 33.5 15t31.5 34.5t23 40t9 31.5t-0.5 24.5t-0.5 21.5q0 12 1 27t5.5 29t15.5 15t26.5 5t29.5 1t21.5 -18t7.5 -44v-14q-1 -11 -1 -21q0 -29 5 -58.5t15 -55 t24 -41t30 -18.5q9 -2 17 -2q11 0 22.5 4.5t21 12t16.5 13.5t13 3q5 -2 5 -9q0 -3 -2.5 -12.5t-15 -26t-34.5 -31.5t-52 -19q-16 -3 -30 -3q-26 0 -52 12.5t-46 32.5q-23 24 -37 56q-10 -24 -28 -42q-15 -16 -39 -29.5t-59 -15.5h-3q-33 0 -63.5 22.5t-49 61.5t-19.5 66.5 t-1 30.5q0 49 23 102q16 37 42 63t55.5 42.5t59 24t43.5 8t18 0.5q18 0 31 -4t11 -12z"/>
<glyph glyph-name="adieresis" horiz-adv-x="489" unicode="" d="M296 423q-3 -13 -17 -21.5t-32 -17.5t-37 -20t-32 -29q-20 -29 -28 -68t-8 -73q0 -39 9 -66.5t22 -27.5q16 0 33.5 15t31.5 34.5t23 40t9 31.5t-0.5 24.5t-0.5 21.5q0 12 1 27t5.5 29t15.5 15t26.5 5t29.5 1t21.5 -18t7.5 -44v-14q-1 -11 -1 -21q0 -29 5 -58.5t15 -55 t24 -41t30 -18.5q9 -2 17 -2q11 0 22.5 4.5t21 12t16.5 13.5t13 3q5 -2 5 -9q0 -3 -2.5 -12.5t-15 -26t-34.5 -31.5t-52 -19q-16 -3 -30 -3q-26 0 -52 12.5t-46 32.5q-23 24 -37 56q-10 -24 -28 -42q-15 -16 -39 -29.5t-59 -15.5h-3q-33 0 -63.5 22.5t-49 61.5t-19.5 66.5 t-1 30.5q0 49 23 102q16 37 42 63t55.5 42.5t59 24t43.5 8t18 0.5q18 0 31 -4t11 -12zM109 651l-2 -4l-3 -3q0 2 10 19v0q17 15 33 15t27 -24q4 -6 12 -13t16 -14.5t13.5 -15.5t4.5 -17q-4 -18 -15 -25t-24 -7q-2 0 -10 0.5t-23.5 8.5t-25.5 22t-14 32q-2 13 1 26zM303 650 v4q1 4 1 1q9 18 22 19h3q13 0 24 -9.5t15.5 -21.5t4.5 -19q0 -8 -4 -16q-10 -20 -17 -20l-6 -1q-11 0 -21.5 10.5t-16.5 26.5q-5 12 -5 23q0 -1 -1 -3z"/>
<glyph glyph-name="aring" horiz-adv-x="492" unicode="" d="M262 607q19 12 21.5 28t-5 28.5t-21 17t-25.5 -6.5q-18 -12 -21 -27t4 -26.5t20 -16.5t27 3zM322 595q-16 -22 -38.5 -33t-35.5 -11.5t-15 -0.5q-20 0 -39 7.5t-30 24.5q-26 25 -29 46t-3 27q0 30 21 62q11 24 34 33.5t41 9.5h4q44 -2 68.5 -21t32 -41.5t7.5 -40.5 q0 -8 -2.5 -26t-15.5 -36zM296 423q-3 -13 -17 -21.5t-32 -17.5t-37 -20t-32 -29q-20 -29 -28 -68t-8 -73q0 -39 9 -66.5t22 -27.5q16 0 33.5 15t31.5 34.5t23 40t9 31.5t-0.5 24.5t-0.5 21.5q0 12 1 27t5.5 29t15.5 15t26.5 5t29.5 1t21.5 -18t7.5 -44v-14q-1 -11 -1 -21 q0 -29 5 -58.5t15 -55t24 -41t30 -18.5q9 -2 17 -2q11 0 22.5 4.5t21 12t16.5 13.5t13 3q5 -2 5 -9q0 -3 -2.5 -12.5t-15 -26t-34.5 -31.5t-52 -19q-16 -3 -30 -3q-26 0 -52 12.5t-46 32.5q-23 24 -37 56q-10 -24 -28 -42q-15 -16 -39 -29.5t-59 -15.5h-3q-33 0 -63.5 22.5 t-49 61.5t-19.5 66.5t-1 30.5q0 49 23 102q16 37 42 63t55.5 42.5t59 24t43.5 8t18 0.5q18 0 31 -4t11 -12z"/>
<glyph glyph-name="ae" horiz-adv-x="646" unicode="" d="M187 225q-15 -15 -27 -37t-14 -44q-1 -5 0 -10q0 -17 6 -33q8 -21 32 -34q10 -4 18 -4q10 1 16 5q14 8 20 26q8 18 11 42t3 48q0 6 1 12q1 17 -1 32l-3 30q-5 0 -23 -8t-39 -25zM476 387q0 5 -8 13t-20 15t-28 9q-14 2 -27 -6q-14 -17 -19 -40q-3 -13 -3 -25q0 -10 2 -20 q3 -5 19 1t34 16t34 20q16 11 16 17zM545 426q11 -17 11 -32q0 -14 -6 -28t-20 -26q-12 -12 -27 -25q-17 -13 -37 -23t-39 -16q-18 -7 -30 -12t-12 -9q-5 -9 -7 -27q-2 -15 -2 -31v-7q0 -22 4 -44t14 -40t25 -30q15 -11 36 -10h4q38 4 65 26t50 56q8 12 18 28t20 31 q10 14 20 23t22 7q9 -2 9 -25q-1 -20 -9 -48q-8 -30 -26 -62q-18 -33 -47 -60q-17 -19 -47 -34t-62 -21q-18 -3 -36 -3q-16 0 -30 2q-32 5 -55 27q-27 17 -49 23q-6 2 -13 2q-18 0 -40 -12q-32 -23 -66 -28q-14 -2 -28 -2q-19 0 -36 4q-30 7 -52 23t-30 35q-5 10 -7 30 q-1 8 0 16q0 14 2 28q4 24 16 48t36 48t63 44t97 31q-2 19 -5 46t-10 53t-19 44q-12 19 -31 21q-19 -3 -30 -15t-20 -27t-18 -29t-24 -18q-7 -1 -14 -1q-13 0 -23 3q-18 6 -29 16t-15 24q-1 4 -1 8q0 10 6 21q29 50 77 72q29 13 59 13q19 0 39 -5q23 -7 46 -21 q24 -14 42 -32q18 -16 29 -30t11 -21q4 39 34 57t68 18t74 -19q37 -19 55 -55z"/>
<glyph glyph-name="ccedilla" horiz-adv-x="450" unicode="" d="M296 15q-2 -1 -3 -9t-3 -22t-8 -35q-6 -20 -16 -43q-32 -74 -60 -81q-3 -1 -5 -1q-23 0 -31 51q-2 11 -2 23t2 24q6 22 15 40t17 32q8 13 8 18q-33 11 -62 26q-26 12 -52 30t-39 39q-21 33 -31 83q-7 35 -7 70q0 14 1 30q4 52 22 99t50 76q31 25 64 35q28 8 56 8h11 q34 -2 68 -13t67 -27q10 -4 20 -14t13 -20q4 -10 0 -20q-4 -9 -20 -11h-4q-16 1 -29 7q-15 8 -29 16q-15 9 -29 15q-9 4 -18 4q-7 0 -14 -2q-30 -7 -52 -29t-34 -54t-16 -68q-1 -13 -1 -26q-1 -22 3 -44q6 -34 20 -62t38 -40q36 -18 62 -20q4 0 8 -1q21 1 38 7q20 8 34 21 l26 26q9 9 15 17q7 8 13 16q6 6 14 10t21 2q16 0 16 -15q0 -10 -4 -22q-6 -17 -18 -37q-29 -46 -61 -72t-74 -37z"/>
<glyph glyph-name="egrave" horiz-adv-x="390" unicode="" d="M192 589q-12 7 -26 19t-26 26t-16 27q-6 13 1 22q4 5 16 5h4q15 0 34 -6t39 -16t38 -23q16 -13 26 -27q8 -11 8 -24q0 -4 -1 -7q-5 -11 -17 -15t-26 -2t-29 8t-25 13zM146 275q16 0 33 4q14 4 31 14t32 30q14 20 20 36t8 27q3 12 1 22q-20 -2 -38 -8q-16 -6 -32 -16 t-26 -29q-12 -22 -18 -37t-8 -25q-3 -11 -3 -18zM56 387q14 27 38 47t52 31q28 12 58 17q25 4 49 4h10q30 -2 51 -20q22 -18 30 -48q5 -16 4 -34q0 -14 -2 -28q-6 -34 -32 -68q-28 -38 -58 -56t-54 -25t-47 -7h-11v-14q0 -28 6 -51q2 -12 8 -23t15 -19t21 -12t30 -2 q36 5 59 23t39 38t25 36q10 16 20 15q7 -1 9 -19q1 -5 1 -10q-1 -14 -5 -34q-6 -26 -19 -56t-39 -52t-64 -32q-15 -4 -33 -3q-26 0 -58 8q-48 11 -77 45t-44 70q-18 41 -24 91q-2 14 -2 29t2 30q2 26 12 60t30 69z"/>
<glyph glyph-name="eacute" horiz-adv-x="391" unicode="" d="M242 621q-12 -8 -28 -17q-16 -8 -33 -14t-31 -6t-20 9q-1 2 -1 6q0 10 11 28q15 25 40 47t53 35q15 7 27 7q11 0 21 -6q11 -10 9 -22t-10 -24t-18 -24q-11 -12 -20 -19zM146 275q16 0 33 4q14 4 31 14t32 30q14 20 20 36t8 27q3 12 1 22q-20 -2 -38 -8q-16 -6 -32 -16 t-26 -29q-12 -22 -18 -37t-8 -25q-3 -11 -3 -18zM56 387q14 27 38 47t52 31q28 12 58 17q25 4 49 4h10q30 -2 51 -20q22 -18 30 -48q5 -16 4 -34q0 -14 -2 -28q-6 -34 -32 -68q-28 -38 -58 -56t-54 -25t-47 -7h-11v-14q0 -28 6 -51q2 -12 8 -23t15 -19t21 -12t30 -2 q36 5 59 23t39 38t25 36q10 16 20 15q7 -1 9 -19q1 -5 1 -10q-1 -14 -5 -34q-6 -26 -19 -56t-39 -52t-64 -32q-15 -4 -33 -3q-26 0 -58 8q-48 11 -77 45t-44 70q-18 41 -24 91q-2 14 -2 29t2 30q2 26 12 60t30 69z"/>
<glyph glyph-name="ecircumflex" horiz-adv-x="390" unicode="" d="M189 638q-13 -14 -21 -26t-16 -22q-8 -8 -18 -14t-22 -7q-12 -2 -14 11q0 3 -1 7q-1 11 3 24q4 18 12 36t13 27q9 20 17 32t20 16q5 2 11 1q7 0 14 -2q14 -4 34 -14q14 -8 34 -28q20 -21 36 -43t23 -42t-5 -28q-11 -8 -27 0t-32 22t-32 29t-29 21zM146 275q16 0 33 4 q14 4 31 14t32 30q14 20 20 36t8 27q3 12 1 22q-20 -2 -38 -8q-16 -6 -32 -16t-26 -29q-12 -22 -18 -37t-8 -25q-3 -11 -3 -18zM56 387q14 27 38 47t52 31q28 12 58 17q25 4 49 4h10q30 -2 51 -20q22 -18 30 -48q5 -16 4 -34q0 -14 -2 -28q-6 -34 -32 -68q-28 -38 -58 -56 t-54 -25t-47 -7h-11v-14q0 -28 6 -51q2 -12 8 -23t15 -19t21 -12t30 -2q36 5 59 23t39 38t25 36q10 16 20 15q7 -1 9 -19q1 -5 1 -10q-1 -14 -5 -34q-6 -26 -19 -56t-39 -52t-64 -32q-15 -4 -33 -3q-26 0 -58 8q-48 11 -77 45t-44 70q-18 41 -24 91q-2 14 -2 29t2 30 q2 26 12 60t30 69z"/>
<glyph glyph-name="edieresis" horiz-adv-x="391" unicode="" d="M146 275q16 0 33 4q14 4 31 14t32 30q14 20 20 36t8 27q3 12 1 22q-20 -2 -38 -8q-16 -6 -32 -16t-26 -29q-12 -22 -18 -37t-8 -25q-3 -11 -3 -18zM56 387q14 27 38 47t52 31q28 12 58 17q25 4 49 4h10q30 -2 51 -20q22 -18 30 -48q5 -16 4 -34q0 -14 -2 -28 q-6 -34 -32 -68q-28 -38 -58 -56t-54 -25t-47 -7h-11v-14q0 -28 6 -51q2 -12 8 -23t15 -19t21 -12t30 -2q36 5 59 23t39 38t25 36q10 16 20 15q7 -1 9 -19q1 -5 1 -10q-1 -14 -5 -34q-6 -26 -19 -56t-39 -52t-64 -32q-15 -4 -33 -3q-26 0 -58 8q-48 11 -77 45t-44 70 q-18 41 -24 91q-2 14 -2 29t2 30q2 26 12 60t30 69zM71 684l-2 -4l-3 -4q0 2 10 20v0q17 15 33 15t27 -24q4 -6 12 -13q8 -6 16 -14t14 -16t4 -17q-4 -17 -16 -25q-10 -7 -23 -7h-3q-14 1 -30 9t-26 22t-14 32q-2 13 1 26zM265 683v4q1 4 1 1q9 18 22 19h3q13 0 23 -9 q12 -10 18 -26q3 -8 3 -15q0 -8 -4 -16q-10 -21 -22 -21h-1q-12 0 -22 10t-16 28q-5 12 -5 22q0 -1 -1 -3z"/>
<glyph glyph-name="igrave" horiz-adv-x="302" unicode="" d="M150 591q-12 7 -26 19t-26 26t-16 27q-6 13 1 22q4 5 16 5h4q15 0 34 -6t39 -16t38 -23q16 -13 26 -28q8 -12 8 -23q0 -3 -1 -7q-5 -11 -17 -15t-26 -2t-29 8t-25 13zM6 186q8 10 15 20t13 22t12 30q6 17 10 42q4 24 5 46t3 38t7 25q5 10 18 13q11 2 33 8t42 6t32 -12 q8 -8 8 -25q0 -8 -2 -19q-4 -13 -6 -38q-2 -26 -4 -56q-2 -24 -2 -50v-12q0 -32 5 -61q5 -28 13 -48t23 -26t27 -6t22 6q20 12 41 38q9 11 19 19t16 6q6 -1 6 -11q0 -13 -15 -46q-28 -59 -72 -79q-27 -12 -61 -13q-21 0 -43 5q-33 7 -53 32q-20 24 -31 52t-16 51t-9 25 q-4 4 -8 2t-8 -6t-10 -7q-6 -4 -15 -6q-21 -3 -25 7q-1 2 0 4q0 10 10 24z"/>
<glyph glyph-name="iacute" horiz-adv-x="302" unicode="" d="M194 606q-12 -8 -28 -17t-33 -15t-31 -5q-14 0 -20 9q-1 2 -1 6q0 10 11 28q15 24 40 46t53 36q15 7 27 7q11 0 21 -6q11 -9 9 -21t-10 -26q-8 -12 -18 -24q-11 -12 -20 -18zM6 186q8 10 15 20t13 22t12 30q6 17 10 42q4 24 5 46t3 38t7 25q5 10 18 13q11 2 33 8t42 6 t32 -12q8 -8 8 -25q0 -8 -2 -19q-4 -13 -6 -38q-2 -26 -4 -56q-2 -24 -2 -50v-12q0 -32 5 -61q5 -28 13 -48t23 -26t27 -6t22 6q20 12 41 38q9 11 19 19t16 6q6 -1 6 -11q0 -13 -15 -46q-28 -59 -72 -79q-27 -12 -61 -13q-21 0 -43 5q-33 7 -53 32q-20 24 -31 52t-16 51 t-9 25q-4 4 -8 2t-8 -6t-10 -7q-6 -4 -15 -6q-21 -3 -25 7q-1 2 0 4q0 10 10 24z"/>
<glyph glyph-name="icircumflex" horiz-adv-x="302" unicode="" d="M157 649q-14 -12 -25 -22q-10 -10 -20 -17t-20 -11t-24 -2q-14 1 -12 13t9 30q7 16 19 32t18 25q26 37 46 39h3q20 0 52 -26q11 -10 27 -34t27 -48q11 -26 13 -48t-10 -26q-14 -5 -28 6t-26 28q-14 16 -26 34t-23 27zM7 186q8 10 15 20q8 10 14 22t12 30q6 17 9 42 q4 24 5 46t3 38t7 25q5 10 18 13q12 2 34 8t40 6q20 0 32 -12q8 -8 9 -25q0 -8 -2 -19q-3 -13 -5 -38q-2 -26 -5 -56q-2 -24 -2 -50q1 -6 1 -12q0 -32 4 -61q4 -28 12 -48t24 -26q15 -6 27 -6q13 0 23 6q20 12 40 38q9 11 19 19q11 8 17 6q6 -1 5 -11q0 -13 -15 -46 q-28 -59 -72 -79q-27 -12 -61 -13q-21 0 -43 5q-33 7 -53 32q-20 24 -31 52t-16 51t-9 25q-5 4 -9 2t-7 -6q-4 -4 -10 -7q-6 -4 -15 -6q-20 -3 -24 7q-1 2 -1 4q0 10 10 24z"/>
<glyph glyph-name="idieresis" horiz-adv-x="297" unicode="" d="M6 186q8 10 15 20t13 22t12 30q6 17 10 42q4 24 5 46t3 38t7 25q5 10 18 13q11 2 33 8t42 6t32 -12q8 -8 8 -25q0 -8 -2 -19q-4 -13 -6 -38q-2 -26 -4 -56q-2 -24 -2 -50v-12q0 -32 5 -61q5 -28 13 -48t23 -26t27 -6t22 6q20 12 41 38q9 11 19 19t16 6q6 -1 6 -11 q0 -13 -15 -46q-28 -59 -72 -79q-27 -12 -61 -13q-21 0 -43 5q-33 7 -53 32q-20 24 -31 52t-16 51t-9 25q-4 4 -8 2t-8 -6t-10 -7q-6 -4 -15 -6q-21 -3 -25 7q-1 2 0 4q0 10 10 24zM19 670l-2 -4l-3 -4q0 2 10 20v0q17 15 33 15t27 -24q4 -6 12 -13q8 -6 16 -14t14 -16 t4 -17q-4 -17 -16 -25q-10 -7 -23 -7h-3q-14 1 -30 9t-26 22t-14 32q-2 13 1 26zM213 669v4q1 4 1 1q9 18 22 19h3q13 0 23 -9q12 -10 18 -26q3 -8 3 -15q0 -8 -4 -16q-10 -21 -22 -21h-1q-12 0 -22 10t-16 28q-5 12 -5 22q0 -1 -1 -3q1 3 1 6z"/>
<glyph glyph-name="eth" horiz-adv-x="402" unicode="" d="M180 522l-4 -4q-4 -4 -12 -10t-17 -12q-10 -6 -23 -9q-6 -1 -16 -3t-20 0t-17 6q-7 5 -5 16q1 10 9 19q7 9 17 17t18 12q8 5 9 6l-9 9q-6 7 -14 17t-14 20t-4 20q4 8 18 8t32 -4t32 -12q15 -6 18 -9l6 2q6 2 14 5t14 6q7 3 12 5q21 13 39 15q8 1 15 1q8 0 16 -2 q12 -3 19 -9t6 -10q-14 -19 -35 -34t-37 -27q20 -17 41 -35t37 -41q7 -11 13 -21t9 -22q1 -2 7 -2t16 -3q10 -1 21 -7t21 -18q-5 -12 -12 -18t-13 -8q-7 -2 -11 -4t-3 -5q7 -21 11 -53q4 -29 4 -60v-8q0 -36 -7 -70q-6 -34 -18 -55q-19 -37 -39 -63t-44 -45q-24 -18 -55 -29 t-72 -16q-10 -1 -19 -1q-21 0 -36 6q-22 9 -36 27t-20 40q-6 24 -8 50q-1 10 -1 18q-1 16 1 32q2 24 8 44q9 45 29 78t48 59t62 47t70 42q-11 31 -31 57t-40 45zM208 91l-2 -1l4 2t3 3q5 7 1 3zM208 91q1 1 2 1q2 1 3 3q21 21 39 53t30 64q13 37 13 71q0 30 -12 52 q-26 -17 -53 -31t-52 -29t-46 -37t-35 -55q-7 -21 -9 -47q0 -5 -1 -10q0 -19 5 -35q6 -17 22 -22q11 -3 23 -3h12q19 2 37 12q14 6 22 13z"/>
<glyph glyph-name="ntilde" d="M268 576q-12 14 -18 23t-10 14t-10 7q-4 2 -12 1q-16 0 -23 -8t-9 -21q-4 -14 -18 -22t-26 -3q-16 6 -19 20t-1 25q1 12 8 27q6 15 18 29t28 22q16 10 33 10q21 0 35 -4t24 -10q10 -7 20 -18t23 -27q13 -15 25 -14t20 8t16 17t13 12q9 -11 13 -28q1 -5 1 -11 q0 -14 -6 -35q-4 -16 -12 -27t-28 -17q-13 -4 -24 -4t-23 4q-22 8 -38 30zM39 365q5 11 17 19t24 14t26 10q12 4 20 4q4 0 6 -8t6 -21q2 -13 3 -29t2 -34q1 -27 1 -58v-33q13 26 28 51q13 22 30 44t35 38q17 15 37 23q17 7 35 7h7q20 -2 40 -16t35 -42q10 -20 15 -48 q6 -28 8 -60t4 -63q2 -32 10 -59q6 -27 18 -46t33 -24q9 -3 19 -3q8 1 16 3q18 4 34 12t26 12q12 6 17 3q1 -1 1 -4q0 -6 -6 -18q-8 -18 -28 -37q-20 -18 -48 -32q-22 -10 -48 -10q-10 0 -20 1q-75 9 -108 77t-38 177q-2 39 -10 58t-19 20h-2q-11 1 -25 -13q-16 -14 -34 -42 q-21 -31 -31 -62q-9 -31 -13 -58t-5 -48t-5 -31q-5 -11 -21 -15q-17 -4 -35 -4t-36 4t-24 10q-4 4 -6 28t-4 60q-1 23 -1 48q1 14 1 26q0 40 2 74q2 36 4 62q3 26 7 33z" unicode=""/>
<glyph glyph-name="ograve" horiz-adv-x="401" unicode="" d="M179 591q-11 7 -25 19t-26 26t-18 27t2 22q4 5 16 5h4q15 0 34 -6q20 -6 40 -16t36 -23t26 -28q8 -12 8 -25v-5q-4 -11 -16 -15t-26 -2t-30 8q-15 6 -25 13zM157 342q-6 -6 -10 -29q-3 -23 -5 -54q-1 -13 -1 -27q0 -18 1 -38q2 -34 8 -62t15 -46q10 -18 24 -16t27 18 q14 16 24 42q10 24 16 54t8 57q0 6 1 13q0 21 -4 38q-5 23 -17 35q-28 29 -48 31q-2 0 -4 1q-17 0 -35 -17zM274 429q46 -29 71 -69t33 -84q3 -19 3 -39q0 -25 -6 -50q-9 -43 -33 -79t-60 -59t-82 -24h-4q-56 -1 -94 25q-40 26 -60 68t-24 90q-1 10 -1 19q0 37 11 71 q14 42 46 73q32 30 80 33q44 4 64 10t29 12t13 7q1 1 2 1q4 0 12 -5z"/>
<glyph glyph-name="oacute" horiz-adv-x="401" unicode="" d="M251 616q-11 -8 -27 -17t-34 -15t-32 -5q-14 0 -19 9q-1 2 -1 6q0 10 11 28q15 24 40 46t53 36q15 7 27 7q11 0 21 -6q10 -9 8 -21t-8 -26q-8 -12 -19 -24t-20 -18zM157 342q-6 -6 -10 -29q-3 -23 -5 -54q-1 -13 -1 -27q0 -18 1 -38q2 -34 8 -62t15 -46q10 -18 24 -16 t27 18q14 16 24 42q10 24 16 54t8 57q0 6 1 13q0 21 -4 38q-5 23 -17 35q-28 29 -48 31q-2 0 -4 1q-17 0 -35 -17zM274 429q46 -29 71 -69t33 -84q3 -19 3 -39q0 -25 -6 -50q-9 -43 -33 -79t-60 -59t-82 -24h-4q-56 -1 -94 25q-40 26 -60 68t-24 90q-1 10 -1 19q0 37 11 71 q14 42 46 73q32 30 80 33q44 4 64 10t29 12t13 7q1 1 2 1q4 0 12 -5z"/>
<glyph glyph-name="ocircumflex" horiz-adv-x="401" unicode="" d="M186 625q-13 -14 -22.5 -25.5t-18.5 -19.5t-18.5 -13t-22.5 -5q-13 -1 -13.5 11.5t5.5 30t14.5 35.5t13.5 27q10 20 19.5 31t17 12.5t11.5 1.5q8 0 19.5 -4t30.5 -15q14 -9 32.5 -30t33 -45t20 -44.5t-7.5 -27.5q-12 -7 -27 2t-30.5 24t-30 31t-26.5 23zM157 342 q-6 -6 -10 -29t-5 -45t-1 -36q0 -18 1.5 -45t7 -55t15.5 -46t24 -16t27 18.5t23.5 41t17 54t7.5 46.5t1 24q0 21 -4.5 41t-16.5 32q-28 29 -39 30.5t-13 1.5q-17 0 -35 -17zM274 429q46 -28 71 -68.5t30.5 -72.5t5.5 -51q0 -25 -8 -59.5t-31.5 -70t-59.5 -58.5t-82 -24h-4 q-55 0 -94 26t-60 67t-23 70t-2 39q0 38 12.5 76t44.5 68t80 33q44 3 64 9.5t29 12t11 7t4 1.5q4 0 12 -5z"/>
<glyph glyph-name="otilde" horiz-adv-x="401" unicode="" d="M210 598q-9 12 -14 19t-9 11t-7.5 5.5t-10.5 1.5q-14 0 -19.5 -6.5t-7.5 -17.5q-3 -12 -14 -18.5t-22 -2.5q-13 5 -15.5 16.5t-0.5 20.5q1 10 6.5 22.5t15 23.5t22 19t27.5 8q18 0 29 -3t19.5 -9t16 -15t19.5 -22q11 -12 20.5 -11.5t17 6.5t13.5 14t10 10q8 -9 10 -18 t2 -14q0 -12 -5 -29q-3 -13 -9.5 -22t-23.5 -14q-11 -3 -20 -3q-10 0 -23.5 5.5t-26.5 22.5zM157 342q-6 -6 -10 -29t-5 -45t-1 -36q0 -18 1.5 -45t7 -55t15.5 -46t24 -16t27 18.5t23.5 41t17 54t7.5 46.5t1 24q0 21 -4.5 41t-16.5 32q-28 29 -39 30.5t-13 1.5 q-17 0 -35 -17zM274 429q46 -28 71 -68.5t30.5 -72.5t5.5 -51q0 -25 -8 -59.5t-31.5 -70t-59.5 -58.5t-82 -24h-4q-55 0 -94 26t-60 67t-23 70t-2 39q0 38 12.5 76t44.5 68t80 33q44 3 64 9.5t29 12t11 7t4 1.5q4 0 12 -5z"/>
<glyph glyph-name="odieresis" horiz-adv-x="401" unicode="" d="M157 342q-6 -6 -10 -29q-3 -23 -5 -54q-1 -13 -1 -27q0 -18 1 -38q2 -34 8 -62t15 -46q10 -18 24 -16t27 18q14 16 24 42q10 24 16 54t8 57q0 6 1 13q0 21 -4 38q-5 23 -17 35q-28 29 -48 31q-2 0 -4 1q-17 0 -35 -17zM274 429q46 -29 71 -69t33 -84q3 -19 3 -39 q0 -25 -6 -50q-9 -43 -33 -79t-60 -59t-82 -24h-4q-56 -1 -94 25q-40 26 -60 68t-24 90q-1 10 -1 19q0 37 11 71q14 42 46 73q32 30 80 33q44 4 64 10t29 12t13 7q4 2 14 -4zM69 677l-2 -4l-3 -3q0 2 10 19v0q17 15 33 15t27 -24q4 -6 12 -13t16 -15t14 -15q6 -8 4 -17 q-4 -18 -16 -26q-10 -7 -23 -6h-3q-14 1 -30 9t-26 22t-14 32q-2 13 1 26zM263 676v4q1 4 1 1q9 18 22 19h3q13 0 23 -9q12 -11 18 -27q3 -8 3 -14q0 -8 -4 -16q-10 -20 -22 -20q-1 0 -1 -1q-12 1 -22 11t-16 26q-5 12 -5 23q0 -1 -1 -3z"/>
<glyph glyph-name="divide" horiz-adv-x="392" unicode="" d="M162 117q8 16 27 17h4q17 0 31 -8q16 -10 22 -26q2 -4 2 -8q0 -12 -13 -26q-19 -18 -36 -18t-28 10t-14 26q-1 4 -1 9q0 12 6 24zM140 454q1 14 7 18q5 4 13 6t15 2t12 6q23 -1 31 -14q8 -12 5 -28t-13 -29t-23 -14t-23 5t-16 15t-7 18q-2 9 -1 15zM383 275 q-3 -7 -11 -11t-19 -8q-10 -2 -20 -3t-16 -1q-15 -5 -27 -12t-23 -14t-24 -12t-31 -6q-20 -2 -51 -6q-20 -2 -39 -2q-10 0 -22 1q-30 2 -55 13q-24 11 -28 38q-1 3 -1 6q0 19 23 31q25 15 67 21q39 6 84 6h7q49 0 91 -6q42 -5 70 -14t25 -21z"/>
<glyph glyph-name="oslash" horiz-adv-x="536" unicode="" d="M400 362q-33 -41 -57 -90t-51 -89q-17 -29 -17 -46t13 -23q8 -4 21 -4h11q20 2 44 10q26 14 50 45t31 71q0 30 -6 54q-5 24 -13 39q-8 17 -16 25t-10 8zM176 344q-24 -42 -24 -86v-12q4 -50 51 -90l68 120t75 122h-29q-2 0 -4 1q-20 -1 -45 -5q-27 -4 -53 -15t-39 -35z M517 604q9 -2 5 -22t-16 -46t-27 -51q-15 -26 -25 -42q20 -17 41 -52t32 -79q8 -32 8 -66q1 -14 -1 -29q-4 -50 -35 -97q-31 -54 -73 -80t-84 -36q-33 -7 -62 -7q-8 1 -16 1q-36 2 -52 6q-3 2 -11 -8t-19 -22t-24 -22q-7 -5 -15 -5l-11 3q-10 10 -8 21t6 23t4 24t-12 21 q-28 20 -46 46t-26 53q-17 40 -19 82v14q1 36 9 70q10 40 31 76t51 63q27 22 58 33q32 11 62 14q18 2 35 2q11 0 23 -1q28 -1 50 -5q20 -4 32 -7t10 0q47 74 79 103q26 23 40 23q3 0 6 -1z"/>
<glyph glyph-name="ugrave" d="M200 538q-12 7 -26 19t-26 26t-16 27q-6 13 1 22q4 5 16 5h4q15 -1 34 -7t39 -15q20 -10 38 -23q16 -13 26 -28q8 -12 7 -25v-5q-5 -12 -17 -16t-26 -1t-29 9t-25 12zM140 354q-1 -24 -1 -54t2 -62t7 -58t15 -44q9 -16 24 -16h2q12 0 25 16q12 16 24 38q12 23 22 50 t18 51q8 25 11 41q4 16 4 18q1 12 19 22t40 11h8q16 1 32 -5q20 -8 23 -29q1 -10 1 -26v-17q0 -28 -2 -60q-1 -20 -1 -39v-27q1 -34 9 -62t22 -46q15 -17 41 -16h3q24 1 36 10t20 19t14 16t19 0q3 -2 3 -12q0 -9 -6 -23t-16 -28q-12 -14 -30 -26q-18 -11 -46 -16 q-12 -2 -26 -2q-17 0 -36 3q-26 3 -44 13t-31 22t-21 28q-8 15 -11 30q-7 23 -7 50q0 13 2 27q-13 -40 -34 -69q-18 -26 -46 -44q-22 -14 -51 -14q-9 0 -19 1q-42 7 -68 27t-42 49t-25 63q-8 34 -11 70q-3 28 -3 56t2 52t6 41t9 22q6 5 25 11t39 6q1 0 3 1q19 0 34 -7 t15 -26z" unicode=""/>
<glyph glyph-name="uacute" d="M277 604q-11 -8 -27 -17t-34 -15t-32 -5q-14 0 -19 9q-1 2 -1 6q0 10 11 28q15 24 40 46t53 36q15 7 27 7q11 0 21 -6q10 -9 8 -21t-8 -26q-8 -12 -19 -24t-20 -18zM140 354q-1 -24 -1 -54t2 -62t7 -58t15 -44q9 -16 24 -16h2q12 0 25 16q12 16 24 38q12 23 22 50t18 51 q8 25 11 41q4 16 4 18q1 12 19 22t40 11h8q16 1 32 -5q20 -8 23 -29q1 -10 1 -26v-17q0 -28 -2 -60q-1 -20 -1 -39v-27q1 -34 9 -62t22 -46q15 -17 41 -16h3q24 1 36 10t20 19t14 16t19 0q3 -2 3 -12q0 -9 -6 -23t-16 -28q-12 -14 -30 -26q-18 -11 -46 -16q-12 -2 -26 -2 q-17 0 -36 3q-26 3 -44 13t-31 22t-21 28q-8 15 -11 30q-7 23 -7 50q0 13 2 27q-13 -40 -34 -69q-18 -26 -46 -44q-22 -14 -51 -14q-9 0 -19 1q-42 7 -68 27t-42 49t-25 63q-8 34 -11 70q-3 28 -3 56t2 52t6 41t9 22q6 5 25 11t39 6q1 0 3 1q19 0 34 -7t15 -26z" unicode=""/>
<glyph glyph-name="ucircumflex" d="M232 646q-14 -12 -24 -23t-20 -19t-19 -11q-10 -4 -23 -3q-14 0 -13 13t8 30t17 34t17 25q13 19 23 29q10 9 21 11q3 0 5 1q10 0 20 -5q14 -6 31 -19q13 -9 29 -32t30 -48q12 -25 16 -46t-10 -27q-13 -6 -27 4q-15 10 -29 28q-14 16 -27 33t-25 25zM140 354 q-1 -24 -1 -54t2 -62t7 -58t15 -44q9 -16 24 -16h2q12 0 25 16q12 16 24 38q12 23 22 50t18 51q8 25 11 41q4 16 4 18q1 12 19 22t40 11h8q16 1 32 -5q20 -8 23 -29q1 -10 1 -26v-17q0 -28 -2 -60q-1 -20 -1 -39v-27q1 -34 9 -62t22 -46q15 -17 41 -16h3q24 1 36 10t20 19 t14 16t19 0q3 -2 3 -12q0 -9 -6 -23t-16 -28q-12 -14 -30 -26q-18 -11 -46 -16q-12 -2 -26 -2q-17 0 -36 3q-26 3 -44 13t-31 22t-21 28q-8 15 -11 30q-7 23 -7 50q0 13 2 27q-13 -40 -34 -69q-18 -26 -46 -44q-22 -14 -51 -14q-9 0 -19 1q-42 7 -68 27t-42 49t-25 63 q-8 34 -11 70q-3 28 -3 56t2 52t6 41t9 22q6 5 25 11t39 6q1 0 3 1q19 0 34 -7t15 -26z" unicode=""/>
<glyph glyph-name="udieresis" horiz-adv-x="498" unicode="" d="M138 354q-1 -24 -1 -54t2 -62t7 -58t15 -44q9 -16 24 -16h2q12 0 25 16q12 16 24 38q12 23 22 50t18 51q8 25 11 41q4 16 4 18q1 12 19 22t40 11h8q16 1 32 -5q20 -8 23 -29q1 -10 1 -26v-17q0 -28 -2 -60q-1 -20 -1 -39v-27q1 -34 9 -62t22 -46q15 -17 41 -16h3 q24 1 36 10t20 19t14 16t19 0q3 -2 3 -12q0 -9 -6 -23t-16 -28q-12 -14 -30 -26q-18 -11 -46 -16q-12 -2 -26 -2q-17 0 -36 3q-26 3 -44 13t-31 22t-21 28q-8 15 -11 30q-7 23 -7 50q0 13 2 27q-13 -40 -34 -69q-18 -26 -46 -44q-22 -14 -51 -14q-9 0 -19 1q-42 7 -68 27 t-42 49t-25 63q-8 34 -11 70q-3 28 -3 56t2 52t6 41t9 22q6 5 25 11t39 6q1 0 3 1q19 0 34 -7t15 -26zM113 648l-3 -6l-4 -5q0 2 12 24l1 1q21 17 39 17q20 0 32 -29q5 -8 15 -16q9 -8 19 -17t16 -19t6 -20q-4 -22 -18 -31q-13 -8 -29 -8h-4q-19 1 -37 11t-31 26t-17 38 q-1 5 -1 11q0 11 4 23zM325 645v5q1 5 1 1q10 23 26 23q1 0 2 1q16 0 30 -12q14 -11 22 -31q4 -9 3 -19q0 -9 -4 -18q-12 -25 -27 -25h-1q-15 0 -27 12t-20 33q-6 15 -5 27q0 -2 -1 -4z"/>
<glyph glyph-name="yacute" horiz-adv-x="460" unicode="" d="M234 556q-12 -8 -28 -17t-33 -15t-31 -5q-14 0 -20 9q-1 2 -1 6q0 10 11 28q15 24 40 46t53 36q15 7 27 7q11 0 21 -6q11 -9 9 -21t-10 -26q-8 -12 -18 -24q-11 -12 -20 -18zM71 414q21 -2 29 -16t11 -34q2 -15 2 -30v-11q-1 -15 -1 -28v-13q0 -19 6 -32q4 -13 18 -14 q12 -2 24 10t22 32q12 20 24 43q12 24 28 47q11 17 24 25t24 11q13 4 26 2h1l41 -31q9 -13 19 -35t20 -54t20 -78q10 -44 19 -104q8 -54 8 -102q0 -28 -2 -54q-8 -70 -30 -126t-54 -96q-34 -40 -73 -64t-81 -30q-16 -2 -31 -2q-26 0 -51 7q-38 11 -68 43t-44 73 q-12 32 -12 68q0 11 2 21q4 48 36 90q31 42 74 66q42 24 82 36q36 10 62 9h5q27 -1 26 -8q-1 -8 -15 -17q-14 -10 -36 -24t-52 -36q-28 -22 -56 -58q-27 -34 -27 -63q1 -31 23 -47q14 -10 36 -9q11 0 24 2q39 7 87 47q24 20 38 49t20 63q6 32 6 66q-1 3 -1 6q0 37 -4 73 q-10 84 -38 176q-16 -30 -36 -54q-18 -21 -42 -37t-54 -16q-45 0 -72 20q-28 20 -40 48q-12 29 -12 63q0 3 -1 5q0 32 6 58q5 28 17 46q11 18 22 18h1z"/>
<glyph glyph-name="thorn" horiz-adv-x="459" unicode="" d="M387 201q-4 16 -14 37.5t-24 41t-31.5 33t-36.5 13.5q-32 0 -54 -17t-35.5 -42.5t-20 -55t-7.5 -46.5t-1 -25q0 -15 2.5 -29t7.5 -14q28 0 67 6t73 18.5t54.5 31t20.5 40.5q0 4 -1 8zM45 389q0 24 -0.5 42t-0.5 20q0 30 6 56.5t18 36.5t23 10q13 0 30 -8q15 -16 22 -42 t10 -54t4.5 -55.5t4.5 -46.5q33 12 73 23t62 12t28 1q33 0 64.5 -11.5t51.5 -46.5q16 -24 19 -50.5t3 -37.5q0 -31 -11.5 -68.5t-45.5 -72t-94 -42.5q-20 0 -46 -1.5t-49 -4.5t-39 -7t-16 -8q3 -11 6 -35.5t3 -54.5t-3.5 -61.5t-14 -54.5t-24.5 -31.5t-27 -8.5q-11 0 -25 5 q-3 8 -6.5 43t-7 86.5t-7 114t-6 126t-4 122.5t-1.5 104z"/>
<glyph glyph-name="OE" horiz-adv-x="837" unicode="" d="M318 631q-17 5 -32 5q-14 0 -32.5 -6.5t-39 -29t-35.5 -54t-24.5 -65.5t-14.5 -66.5t-5 -57.5q2 -19 5 -47t9 -59t16 -62.5t25 -56.5t36 -41t50 -16q44 0 70.5 17.5t45.5 49.5q6 9 8.5 17.5t3 18.5t1.5 23t4 32q6 28 17.5 47.5t22.5 33t19 22t7 13.5q-2 7 -14 16.5 t-27.5 22.5t-30 30t-19.5 38q-6 25 -6 45q0 10 3 27.5t3 35.5q0 23 -14.5 42t-51.5 25zM441 75q-3 0 -11 -9t-25.5 -21t-44.5 -22.5t-67 -13.5q-11 -1 -23 -1q-47 0 -94.5 22.5t-86.5 68.5t-59 103.5t-20 113.5v16q6 115 37.5 189t76.5 115t89.5 52t79.5 11q16 0 32 -2 q16 0 29 -4t25.5 -9.5t25.5 -11t29 -9.5q31 32 65.5 42.5t63.5 10.5q14 0 28 -2q32 0 66 -11.5t58 -29.5q16 -16 19.5 -32t-2 -26.5t-11.5 -11t-7 -0.5q-12 0 -26 16q-31 29 -51 34.5t-32 5.5q-13 0 -30 -6t-34 -26t-27.5 -46t-13 -47t-2.5 -33q0 -14 2 -28q4 -33 19 -49 t35.5 -22t44 -6t43 -1.5t33.5 -9t16 -28.5q3 -16 -14.5 -24.5t-41.5 -15.5t-48.5 -16.5t-36.5 -26.5q-13 -19 -17.5 -38.5t-4.5 -38.5q0 -11 1 -23q9 -58 48 -78t77 -20q19 0 41 4q27 5 52 18.5t45 25t34.5 16.5t21.5 -5q4 -3 4 -9q0 -7 -7 -23.5t-32 -40.5t-66 -45t-98 -25 q-14 -1 -26 -1q-36 0 -69.5 10t-58 25.5t-38 30.5t-16.5 18z"/>
<glyph glyph-name="oe" horiz-adv-x="756" unicode="" d="M492 370q-31 -58 -31 -125q21 23 39 52t22 60q1 9 1 16q0 17 -7 19h-2q-10 0 -22 -22zM368 346q-2 8 -6 16q-10 20 -24 37t-33 29t-40 13q-13 1 -30 -7t-34 -22q-17 -16 -31 -40t-22 -54q-4 -15 -6 -40q-1 -14 -1 -30q1 -12 1 -24q2 -28 6 -58t16 -52q12 -24 30 -40 t44 -15h5q29 1 49 11q21 12 33 27q13 17 17 33t5 26v15q1 10 1 27q0 16 2 42t7 64q2 12 8 33q2 4 3 9zM389 397q9 15 19 29q16 22 36 37q21 15 48 19l14 2q21 0 47 -10q41 -16 55 -47q12 -26 12 -55q0 -6 -1 -12q-3 -36 -19 -72t-37 -63q-5 -9 -15 -21t-22 -24t-22 -24 q-11 -12 -20 -18q-6 -4 -2 -16t16 -26t30 -24t37 -10q15 0 31 4t32 12t29 18q14 10 25 20q10 10 23 24t25 26t24 20t20 6q-1 -2 -1 -3q-8 -19 -19 -43q-12 -26 -23 -46q-3 -4 -9 -16t-15 -26t-25 -29t-38 -26t-54 -17q-16 -3 -34 -2q-17 0 -36 2q-33 4 -59 18t-44 28 q-19 15 -29 26t-11 9q-14 -27 -45 -45q-32 -18 -70 -22q-9 -1 -18 -1q-30 -1 -60 9q-40 12 -74 45q-34 32 -55 86q-20 52 -20 127v7q0 27 10 61q11 34 31 65q20 32 50 58t70 37q18 6 41 7h13q16 1 32 -1q22 -2 41 -8t30 -13q21 -16 29 -43q5 -20 7 -39z"/>
<glyph glyph-name="Scaron" d="M286 777q14 13 26 25t22 23q10 9 22 15q11 6 25 5q15 -1 13 -13t-12 -30q-10 -16 -23 -33t-19 -26q-28 -41 -50 -45h-5q-22 0 -55 26q-15 11 -31 31q-17 20 -27 41t-12 39t13 24q6 2 11 2q9 0 18 -5q15 -10 29 -24t28 -30t27 -25zM362 567q-12 -1 -24 -3t-29 -10t-37 -23 q-20 -16 -48 -46q-27 -31 -33 -51q-2 -7 -2 -14q1 -12 7 -22q10 -16 34 -29t58 -28q34 -14 70 -22t68 -23t60 -44q26 -29 43 -84q3 -8 3 -17q0 -21 -16 -43q-22 -31 -62 -57q-38 -26 -84 -43t-84 -17h-7q-71 -1 -122 19q-53 20 -84 47t-39 51q-3 9 -3 15q0 12 9 17 q10 4 26 0t38 -12t53 -14q31 -8 67 -8h3q35 0 76 10q43 10 93 36q18 10 18 28q0 19 -16 39t-46 39t-68 30q-39 10 -77 20t-69 26t-51 40q-20 26 -24 70v11q0 37 19 73q22 40 62 70t96 42q30 7 61 6q28 0 59 -5q79 -17 116 -43q24 -17 24 -32q0 -9 -7 -17q-11 -11 -24 -9 t-29 10t-36 14q-13 4 -28 4q-7 0 -14 -1z" unicode=""/>
<glyph glyph-name="scaron" horiz-adv-x="369" unicode="" d="M264 487q4 -8 -1 -12.5t-14.5 -9t-21.5 -11t-23 -18.5t-18.5 -31t-7.5 -52q0 -27 14 -53t35 -51.5t46 -50t45 -50t30 -48.5t10 -44q0 -7 -1 -14q-5 -28 -31.5 -47.5t-64.5 -30t-62.5 -11t-28.5 -0.5q-39 0 -75.5 8t-64.5 26t-35 46q-8 29 -8 52q0 9 3 27t15 36.5t27 29 t26 16.5q12 6 19 6q8 0 11 -5t3 -10q0 -12 -12 -32q-5 -9 -5 -20q0 -5 2.5 -17t17 -27.5t37 -26.5t51.5 -12h7q15 0 31.5 4t30 14.5t13.5 26.5q0 12 -12 27.5t-44 41.5t-65.5 57.5t-59 67t-25.5 71.5q0 71 25.5 104t82.5 43q25 5 43 5q2 0 11.5 -0.5t20 -4.5t15.5 -9.5 t8 -10.5zM182 674q15 13 26.5 25.5t22 22.5t21.5 15.5t25 4.5q13 -1 13 -10q0 -11 -11 -30t-24 -36t-19 -26q-27 -41 -39.5 -43t-15.5 -2q-22 0 -55 26q-15 11 -31 31t-27.5 43t-11.5 41q0 15 13 20q6 2 11 2q9 0 21 -7t26 -21.5t28 -30.5t27 -25z"/>
<glyph glyph-name="Ydieresis" horiz-adv-x="450" unicode="" d="M75 646h2q14 0 32 -14q19 -16 37 -40t30 -56q13 -32 16 -62q8 -59 21 -83t27 -29q6 -2 12 -2q11 0 22 7q20 43 38 88q14 39 27 83t15 85q2 19 20 17t39 -20t37 -49q11 -23 11 -51q0 -11 -2 -23q-5 -39 -20 -96t-44 -119t-75 -124t-112 -110q-39 -29 -76 -39 q-24 -6 -41 -6q-10 -1 -18 1q-23 6 -23 26q0 18 31 44q51 42 83 86t53 79q23 41 36 81q-32 7 -64 24q-27 14 -57 40t-51 69q-16 31 -34 65t-25 62q-3 11 -3 21q0 15 6 25q10 18 50 20zM72 822l-5 -10l-3 -5q0 2 12 25l1 1q22 18 41 18q20 0 34 -30q6 -8 16 -17t20 -19 t16 -20t6 -21q-5 -22 -20 -32q-13 -8 -29 -9q-3 1 -5 1q-18 2 -38 12t-32 28q-14 18 -18 40q-1 6 -1 11q0 13 5 27zM316 819v2q1 5 1 1q11 23 27 24h3q16 0 30 -12q15 -14 23 -34q4 -10 4 -19q0 -10 -4 -19q-12 -26 -28 -26t-29 14t-21 34q-6 14 -7 25v-1q-2 -10 -2 -6 q1 2 3 17z"/>
<glyph glyph-name="circumflex" horiz-adv-x="391" unicode="" d="M182 627q-16 -21 -28 -37t-22 -28q-12 -12 -24 -20t-31 -10q-18 -2 -20 16q-1 4 -1 9q0 15 5 33q7 24 17 49t16 38q12 28 24 44t27 21q7 2 15 2q10 0 20 -2q20 -6 46 -20q20 -10 48 -38t49 -58q22 -31 31 -59q3 -10 3 -18q0 -14 -10 -21q-8 -5 -18 -5q-10 -1 -20 5 q-21 12 -43 31t-44 39t-40 29z"/>
<glyph glyph-name="tilde" d="M191 727q23 -11 37 -27t26 -30t26 -20q7 -4 15 -4t18 3q23 9 33 25t16 33q4 17 6 30t11 13q11 -1 21 -12q10 -10 16 -28q8 -20 8 -43q0 -19 -8 -37q-9 -20 -29 -36q-20 -17 -56 -26q-21 -5 -37 -5q-6 1 -12 1q-20 2 -37 12t-31 26t-29 38q-14 18 -28 18h-3 q-16 -2 -31 -11q-16 -9 -32 -17q-9 -5 -17 -5q-7 0 -14 3q-2 4 -2 10q0 9 4 22q8 22 25 42t43 29q11 4 24 4q17 0 37 -8z" unicode=""/>
<glyph glyph-name="endash" d="M348 361q20 -5 44 -14t41 -17q13 -8 17 -19q3 -7 3 -13q0 -4 -1 -9q-3 -11 -12 -19t-22 -7q-57 -5 -116 -9t-115 -11h-13q-22 0 -40 5q-22 7 -50 19q-13 9 -17 21q-3 8 -3 15q0 4 1 7q1 12 7 20t12 11t24 7t44 6q26 3 56 5t58 3t50 1t32 -2z" unicode=""/>
<glyph glyph-name="emdash" d="M400 350q20 -5 44 -14t41 -17q13 -9 17 -17q3 -5 3 -10q0 -3 -1 -6q-3 -8 -12 -13t-22 -5q-40 -8 -86 -8h-6q-50 0 -99 4q-50 2 -97 4h-23q-33 0 -61 -4h-13q-21 0 -39 5q-22 7 -51 19q-13 9 -17 18q-3 6 -3 12q0 3 1 5q2 8 8 14t11 9q5 4 29 8t60 8t78 6q36 2 73 2h14 q43 0 83 -6q40 -4 68 -14z" unicode=""/>
<glyph glyph-name="quoteleft" horiz-adv-x="287" unicode="" d="M201 745q1 -12 1 -24q0 -39 -8 -71q-10 -40 -28 -66q-16 -25 -35 -35q-12 -6 -23 -6q-6 0 -12 2q-12 5 -20 17t-10 30q-1 7 -2 15q0 11 2 23q4 20 12 40q9 23 28 40q20 17 40 27t36 12q4 1 7 1q10 0 12 -5z"/>
<glyph glyph-name="quotesinglbase" horiz-adv-x="297" unicode="" d="M123 131q16 0 26 -3.5t18 -9t17.5 -12.5t25.5 -13q0 -25 -8.5 -46.5t-23 -39.5t-32.5 -32.5t-37 -23.5q-25 -13 -40 -13q-5 0 -15.5 4t-12.5 16t-2 18q0 15 6 37.5t19 48t29 45.5t30 24z"/>
<glyph glyph-name="quotedblleft" horiz-adv-x="402" unicode="" d="M43 590q-17 22 -17 46q0 6 2 14q6 32 27 60q21 26 50 40q20 10 37 10q8 0 16 -2q12 -4 12 -24t-8 -47t-21 -55q-14 -28 -31 -44q-16 -18 -34 -20h-3q-16 0 -30 22zM261 556h-5q-12 0 -21 4q-11 6 -21 14t-22 17q-11 9 -26 14v10q0 17 5 33q7 20 19 38t28 31q16 14 34 23 q22 13 36 13q6 0 10 -2q16 -7 20 -25q3 -11 4 -25q0 -9 -2 -21q-4 -28 -12 -53q-10 -27 -22 -47t-25 -24z"/>
<glyph glyph-name="quotedblright" horiz-adv-x="402" unicode="" d="M90 748h4q10 0 20 -4q10 -6 21 -14t21 -16t24 -13v-6q0 -19 -5 -35q-5 -20 -17 -36t-28 -30q-16 -12 -31 -21q-22 -12 -35 -12q-5 -1 -9 1q-15 6 -20 24q-3 11 -3 25q0 9 1 18q3 26 11 51t22 44q12 19 24 24zM297 715q16 -20 16 -43q1 -7 -1 -14q-6 -31 -27 -56 q-19 -26 -47 -40q-19 -10 -35 -9q-8 0 -15 2q-12 3 -12 25q0 18 8 42q8 26 20 52q14 26 30 44q16 16 32 18h3q15 0 28 -21z"/>
<glyph glyph-name="dagger" horiz-adv-x="474" unicode="" d="M462 451q0 -8 -8 -21t-22 -25.5t-32 -21.5t-35 -9q-35 -2 -56.5 -2.5t-18.5 -8.5q4 -67 4.5 -103.5t0.5 -44.5q0 -53 -3 -99.5t-9.5 -78t-15.5 -34.5q-9 -4 -18 -4q-14 0 -29 13t-28 58t-18 107t-5 126q0 32 1 68q-14 0 -33.5 0.5t-39.5 2t-40 4t-35 6.5q-10 1 -12 7 t-2 11q0 3 1 9.5t6 15t10 12.5q13 12 30.5 16t33 5t27.5 1q6 0 11.5 -0.5t8.5 -0.5q15 0 27 2q4 1 5 18t1.5 42t0.5 54.5t2.5 56t8 46.5t16.5 26q31 -6 47.5 -22t24 -38t7.5 -48.5v-46.5q-1 -20 -1 -32t0.5 -30t7.5 -35h6q14 0 41 4t53 7t45 3q5 0 19.5 -0.5t14.5 -15.5z "/>
<glyph glyph-name="daggerdbl" horiz-adv-x="483" unicode="" d="M478 459q1 -10 -6 -21t-20 -20t-30 -15t-35 -6q-38 -2 -60.5 -2.5t-19.5 -8.5q1 -13 1 -36.5t-0.5 -51.5t-1.5 -57.5t-2 -53.5t-2 -39.5t-2 -15.5l10 -1q12 -1 31.5 -2.5t41 -4t36.5 -6t20 -7.5t-8 -8q-14 -4 -25.5 -9t-25 -10t-32.5 -10.5t-48 -10.5q-1 0 -2.5 -21 t-4 -53t-6 -70t-7 -71.5t-8 -57.5t-8.5 -29q-19 1 -32.5 19.5t-22.5 47t-14 63t-7.5 66.5t-3 57.5t-0.5 37.5q0 3 -8 4t-22 1.5t-32.5 1.5t-39.5 4q-15 1 -31.5 5.5t-26 12.5t-8 19t21.5 25q11 8 29 12t37.5 6t39 2.5t33.5 0.5q1 0 1.5 16.5t0.5 42t0.5 56t0.5 58v48.5v27 q-15 0 -35 0.5t-41.5 2t-42.5 4.5t-37 7q-11 1 -13.5 7.5t-2.5 11.5q0 4 1.5 10.5t7 15.5t10.5 13q14 12 32.5 16.5t34.5 5.5t30 1l8 -1h10q16 0 31 3q4 1 5.5 19t1.5 44.5v57.5t2.5 59.5t8.5 49.5t18 27q33 -6 50.5 -23t25 -40.5t8 -42t0.5 -28.5q0 -19 -1 -37.5t-1 -35.5 q0 -9 0.5 -25.5t8.5 -34.5q22 -8 40 -8.5t40 -2.5q28 -3 52 -7t46 -4z"/>
<glyph glyph-name="ellipsis" horiz-adv-x="526" unicode="" d="M162 -1q-17 -11 -31 -11q-7 0 -14 3q-20 9 -31 27q-12 20 -12 44q0 20 12 32q7 8 21 8q15 0 29 -6t27 -18t19 -25t2 -27t-22 -27zM331 24q-7 -14 -25 -22q-8 -4 -16 -5q-9 0 -17 5q-18 9 -24 22q-4 9 -4 19q1 3 1 7q2 14 10 26t18 19t22 7q1 0 1 1q10 0 16 -9 q1 -10 7 -18t10 -16t6 -17t-5 -19zM436 21q-22 13 -30 29q-2 4 -2 8q0 13 19 27q9 6 19 6q4 0 8 -1q15 -3 28 -11q12 -9 20 -19q5 -8 6 -13q0 -2 -1 -5q-3 -8 -11 -15t-16 -11q-8 -3 -17 -3q-1 1 -3 1q-10 0 -20 7z"/>
<glyph glyph-name="perthousand" horiz-adv-x="761" unicode="" d="M185 657q43 -15 63 -48t20 -73v-5q0 -37 -14 -75q-14 -40 -39 -70t-57 -42q-13 -5 -27 -5q-20 0 -40 11q-29 12 -44 34t-21 48q-4 19 -4 39v14q2 28 7 55q3 24 17 46t34 38t46 22q9 2 18 1q17 0 34 -6q5 4 4 9t3 7zM469 445q-17 -25 -47 -57t-68 -67t-78 -71 q-42 -36 -80 -69t-70 -61t-53 -49q-23 -25 -35 -25t-14 12q-1 3 -1 8q0 10 4 24q5 20 14 39q18 41 44 77t54 71q12 15 27 31t31 31t31 31t26 34q10 18 36 48t57 62q31 31 61 55t51 28q1 -3 7 -19t11 -38t5 -48t-13 -47zM402 86q4 8 -7 20t-27 23t-30 20q-15 9 -19 12 q-11 -15 -11 -41t11 -46q14 -6 31 -6q6 0 13 1q25 3 39 17zM478 161q15 -17 15 -36q-1 -7 -3 -13q-8 -26 -27 -47q-20 -21 -46 -36t-44 -19q-12 -3 -22 -3q-21 0 -39 12q-26 18 -40 49q-14 30 -16 66q0 3 -1 7q-1 31 13 55q14 26 46 34q8 2 18 3q27 0 67 -18q1 -2 11 -7 q10 -4 23 -12t25 -16t20 -19zM694 136q2 16 -3 30t-15 24t-26 12q-5 1 -10 0q-12 0 -25 -4q-11 -4 -19 -16t-10 -28q-2 -10 -2 -20v-12q2 -16 9 -30t19 -20t29 -1q27 5 40 25t13 40zM766 144q-3 -34 -23 -66q-21 -32 -49 -52t-62 -20q-1 0 -2 -1q-34 0 -66 30q-12 13 -22 37 t-14 52q-2 15 -2 29q0 13 2 25q4 26 18 41q12 14 39 15h18q19 0 37 -1q28 -3 48 -3q22 0 25 11q7 -3 17 -13t19 -24t15 -29q4 -10 3 -20q0 -6 -1 -11zM163 411q3 3 5 7l2 2q-1 -2 -3 -4q-3 -4 -5 -6q-2 -3 1 1zM163 411q3 3 5 7q0 1 2 2v0q7 10 13 24q8 20 12 42q3 16 3 33 v12q-2 22 -10 39q-8 18 -23 26q-9 5 -22 5q-7 0 -16 -2q-21 -5 -33 -26t-14 -49q-1 -7 -1 -15q1 -21 5 -41q6 -28 16 -48q12 -19 28 -24q3 -1 7 -1q13 0 28 16z"/>
<glyph glyph-name="guilsinglleft" horiz-adv-x="369" unicode="" d="M210 106q-40 16 -78 44t-62 62q-25 36 -25 72q0 34 32 62q17 14 39 36t47 40t51 26q12 4 24 3l28 -5q26 -10 28 -26v-6q0 -12 -10 -28q-12 -18 -32 -39q-22 -19 -44 -37t-42 -33q-19 -15 -27 -23q11 -8 31 -18t41 -23q22 -13 44 -28t38 -31q5 -8 11 -16t10 -16 q4 -9 4 -15t-5 -10q-11 -8 -29 -8q-8 -1 -16 1q-30 4 -58 16z"/>
<glyph glyph-name="guilsinglright" horiz-adv-x="369" unicode="" d="M70 144q12 22 34 48t42 50q22 24 39 42t20 21q-7 4 -25 13t-40 21t-42 26t-32 29q-9 12 -10 23q0 3 1 7q3 14 28 27q13 7 28 7q10 0 20 -3q26 -9 51 -25q24 -16 46 -36t35 -32q33 -32 37 -61q1 -7 1 -14q-1 -21 -11 -41q-14 -26 -38 -50q-26 -22 -54 -41t-52 -33 q-26 -14 -38 -26q-10 -7 -19 -7h-3q-10 2 -18 10q-6 8 -7 20t7 25z"/>
<glyph glyph-name="fraction" horiz-adv-x="522" unicode="" d="M121 39q-4 -3 -4 -2q-14 -7 -26 -7q-13 0 -23 8t-14 20q-5 13 -4 34q0 28 15 60q17 34 39 66t46 62t41 51q45 57 90 111t87 113q6 7 15 23t21 36q12 18 24 35t24 27q10 8 20 7q2 -1 4 -1q12 -2 21 -22q11 -21 11 -45q0 -7 -2 -15q-4 -32 -20 -68q-16 -34 -41 -69t-51 -67 t-51 -61q-25 -28 -41 -48q-18 -21 -46 -53t-56 -68q-28 -35 -50 -69t-29 -58z"/>
<glyph glyph-name="Euro" horiz-adv-x="608" unicode=""/>
<glyph glyph-name="trademark" horiz-adv-x="675" unicode="" d="M531 623q-11 -9 -15 -25t-6 -34t-6 -36q-3 -18 -10 -28q-7 -12 -20 -15q-3 -1 -6 -1q-12 0 -29 9q-21 13 -35 31t-28 38q-12 20 -25 40t-31 33q-4 -21 -7 -46q-2 -19 -2 -38v-13q1 -26 5 -49q4 -24 16 -43q14 -16 8 -22t-20 -3t-28 13q-16 10 -22 29q-8 20 -10 51 q-1 16 -1 31q-1 17 1 33q2 32 11 60q8 28 23 44q16 4 24 8q7 3 12 3h2q6 -1 12 -8t21 -23q17 -24 37 -44t37 -42q3 18 11 38t20 36t26 27q16 11 37 11q25 -6 49 -32t43 -56q19 -31 31 -60t14 -41q1 -9 1 -17q0 -16 -4 -30q-6 -22 -16 -38q-11 -16 -21 -22q-10 -7 -17 -3 q-19 9 -31 42t-22 72q-9 39 -16 73t-13 47zM249 635v0q-25 -7 -45 -12t-20 -3v-25q0 -13 -1 -28q1 -15 1 -33q0 -34 2 -68t4 -50q2 -8 -4 -19t-16 -11l-1 -1q-11 1 -21 17q-12 16 -20 64q-7 36 -10 72t-5 70q-10 3 -21 4t-23 2t-23 4t-21 11q-19 13 -19 23q0 4 2 8 q10 14 41 20t71 6q3 0 6 1q37 1 68 -5q34 -6 52 -18q10 -6 10 -14q0 -7 -7 -15z"/>
<glyph glyph-name="minus" d="M335 352q20 -8 43 -15t40 -15q12 -7 18 -18q4 -9 5 -17q1 -13 -11 -23q-10 -8 -26 -11q-26 -7 -64 -13t-80 -8h-18q-35 0 -73 5q-47 6 -91 24q-14 7 -18 18q-3 7 -3 15q0 4 1 8q2 12 8 20t12 11q5 3 21 7q15 4 39 8t52 6q28 3 54 4h26h25q24 -1 40 -6z" unicode=""/>
</font>
</defs>
</svg>
