<?xml version="1.0" standalone="no"?>
<!DOCTYPE svg PUBLIC "-//W3C//DTD SVG 1.1//EN" "http://www.w3.org/Graphics/SVG/1.1/DTD/svg11.dtd" >
<svg xmlns="http://www.w3.org/2000/svg" xmlns:xlink="http://www.w3.org/1999/xlink" version="1.1">
<metadata>
Created by FontForge 20160405 at Tue Jan 16 01:40:58 2018
 By www-data
Copyright (c) 2016 by AnthonyJames. All rights reserved.
</metadata>
<defs>
<font id="SFKingston-Black" horiz-adv-x="628" >
  <font-face 
    font-family="SF Kingston"
    font-weight="900"
    font-stretch="normal"
    units-per-em="1000"
    panose-1="0 0 0 0 0 0 0 0 0 0"
    ascent="800"
    descent="-200"
    x-height="495"
    cap-height="740"
    bbox="-150 -275 1249 1092"
    underline-thickness="50"
    underline-position="-150"
    unicode-range="U+0001-FB04"
  />
<missing-glyph horiz-adv-x="500" 
 />
    <glyph glyph-name="AE" unicode="AE" horiz-adv-x="868" 
d="M848 550l-180 180v0h-108l53 -53v-302l126 126h10v-262h-10l-126 126v-355h55l180 180h10v-190h-479v10h84l-53 54v121h-237l-78 -175h93v-10h-178v10h74l326 730h448v-190h-10zM178 195h232v520z" />
    <glyph glyph-name="ae" unicode="ae" horiz-adv-x="834" 
d="M557 5q53 0 100 18t83 53l7 -7q-36 -35 -85 -54.5t-105 -19.5q-58 0 -110 22l-119 119q-2 -30 -15.5 -55.5t-34.5 -44.5t-49 -30t-59 -11q-27 0 -51.5 9t-43 25t-29.5 37.5t-11 47.5q0 25 10 45t27 36.5t40 29.5t49 24q41 17 91.5 32t94.5 33t74 41t30 57q0 21 -14.5 35
t-37 22.5t-49 12t-49.5 3.5q-39 0 -81 -8.5t-77 -27.5q19 2 36.5 -3.5t30.5 -17.5t20.5 -28t7.5 -35q0 -35 -25 -60t-60 -25l-85 85q0 30 21 54.5t54 41t74.5 25.5t83.5 9q39 0 72.5 -7.5t58.5 -21.5q58 29 125 29q53 0 97.5 -19t76.5 -50.5t50 -73.5t18 -87h-306
q-1 -32 0.5 -64.5t6.5 -64.5q8 -59 23 -95t34 -36zM557 485q-12 0 -23 -16t-19.5 -44.5t-14.5 -67t-7 -82.5h103q0 42 -1.5 80t-5.5 67t-12 46t-20 17zM290 63q28 36 28 83q-13 16 -20.5 40t-7.5 59v37q-33 -23 -51.5 -55t-18.5 -80q0 -13 3 -28t10 -27.5t18.5 -21
t28.5 -8.5q2 0 5 0.5t5 0.5z" />
    <glyph glyph-name="ij" unicode="ij" horiz-adv-x="707" 
d="M258 586q0 -35 -25 -60t-60 -25l-85 85q0 35 25 60t60 25t60 -25t25 -60zM305 485h-84l53 -54v-421h31v-10h-265v10h84l-53 54v421h-31v10h265v-10zM619 586q0 -35 -25 -60t-60 -25l-85 85q0 35 25 60t60 25t60 -25t25 -60zM667 485h-85l54 -54v-507q0 -41 -16.5 -77.5
t-45 -63.5t-66.5 -42.5t-81 -15.5q-42 0 -78.5 14t-63.5 36t-42.5 49.5t-15.5 54.5q0 35 25 60t60 25l85 -85q0 -35 -25 -60t-60 -25q-26 0 -46 14q25 -31 67 -52t94 -21q42 0 79.5 16t64.5 43l-138 138v553h-31v10h265v-10z" />
    <glyph glyph-name="OE" unicode="OE" horiz-adv-x="1025" 
d="M985 190h10v-190h-479v10h84l-35 35q-38 -22 -80.5 -33.5t-89.5 -11.5q-34 0 -65.5 6.5t-61.5 17.5l-199 200q-29 69 -29 146q0 76 28 143.5t76 118t112.5 79.5t138.5 29q41 0 79 -9t73 -26v25h-31v10h479v-190h-10l-180 180h-108l53 -53v-302l126 126h10v-262h-10
l-126 126v-355h55zM395 10q29 0 55 28.5t45 77t30 114t11 140.5t-11 140.5t-30 114t-45 77t-55 28.5t-55 -28.5t-45 -77t-30 -114t-11 -140.5t11 -140.5t30 -114t45 -77t55 -28.5z" />
    <glyph glyph-name="oe" unicode="oe" horiz-adv-x="907" 
d="M565 245q0 -50 5 -93.5t14 -76t20.5 -51.5t25.5 -19q52 0 99 18t84 53l7 -7q-37 -35 -85.5 -54.5t-104.5 -19.5q-58 0 -111 22l-42 43q-35 -31 -81 -48t-98 -17q-58 0 -111 22l-140 141q-17 42 -17 87q0 52 21 97.5t57.5 79.5t85 53.5t104.5 19.5q47 0 89 -14t77 -40
q34 26 76 40t90 14q53 0 97.5 -19t76.5 -50.5t50 -73.5t18 -87h-307v-20zM630 485q-12 0 -23 -16t-19.5 -44.5t-14.5 -67t-7 -82.5h103q0 42 -1.5 80t-5.5 67t-12 46t-20 17zM362 245q0 49 -5 93t-14 76.5t-20.5 51.5t-24.5 19q-14 0 -25.5 -19t-20.5 -51.5t-14 -76
t-5 -93.5t5 -93.5t14 -76t20.5 -51.5t25.5 -19q13 0 24.5 19t20.5 51.5t14 76t5 93.5z" />
    <glyph glyph-name="f_f" unicode="ff" horiz-adv-x="890" 
d="M310 586q0 35 25 60t60 25q26 0 46 -14q-25 31 -67 52t-94 21q-43 0 -80 -16t-64 -43l138 -138v-156h138v-138h-10l-128 128v-357h31v-10h-265v10h84l-53 54v477q0 41 16.5 77.5t45 63.5t66.5 42.5t81 15.5q42 0 78.5 -14t63.5 -36t42.5 -49.5t15.5 -54.5q0 -35 -25 -60
t-60 -25zM740 586q0 35 25 60t60 25q26 0 46 -14q-25 31 -67 52t-94 21q-43 0 -80 -16t-64 -43l138 -138v-156h138v-138h-10l-128 128v-357h31v-10h-265v10h84l-53 54v477q0 41 16.5 77.5t45 63.5t66.5 42.5t81 15.5q42 0 78.5 -14t63.5 -36t42.5 -49.5t15.5 -54.5
q0 -35 -25 -60t-60 -25z" />
    <glyph glyph-name="fi" unicode="fi" horiz-adv-x="750" 
d="M310 586q0 35 25 60t60 25q26 0 46 -14q-25 31 -67 52t-94 21q-43 0 -80 -16t-64 -43l138 -138v-156h138v-138h-10l-128 128v-357h31v-10h-265v10h84l-53 54v477q0 41 16.5 77.5t45 63.5t66.5 42.5t81 15.5q42 0 78.5 -14t63.5 -36t42.5 -49.5t15.5 -54.5q0 -35 -25 -60
t-60 -25zM710 485h-84l53 -54v-421h31v-10h-265v10h84l-53 54v421h-31v10h265v-10z" />
    <glyph glyph-name="fl" unicode="fl" horiz-adv-x="727" 
d="M687 730h-84l53 -53v-667h31v-10h-265v10h84l-53 54v522q0 25 -14 50.5t-38.5 46.5t-57.5 34t-72 13q-40 0 -75 -15.5t-61 -42.5l139 -139v-156h138v-138h-10l-128 128v-357h31v-10h-265v10h85l-54 54v477q0 41 16 77.5t43 63.5t63.5 42.5t77.5 15.5q32 0 61 -9t53 -24
t41.5 -35t26.5 -41v99h-31v10h265v-10z" />
    <glyph glyph-name="f_t" unicode="ft" horiz-adv-x="759" 
d="M310 586q0 35 25 60t60 25q26 0 46 -14q-25 31 -67 52t-94 21q-43 0 -80 -16t-64 -43l138 -138v-156h138v-138h-10l-128 128v-357h31v-10h-265v10h84l-53 54v477q0 41 16.5 77.5t45 63.5t66.5 42.5t81 15.5q42 0 78.5 -14t63.5 -36t42.5 -49.5t15.5 -54.5q0 -35 -25 -60
t-60 -25zM744 33q-21 -12 -57.5 -25t-87.5 -13q-28 0 -52 8t-42 21.5t-28.5 31.5t-10.5 39v390h-31v10h31l193 153h10v-153h56v-10h-109l53 -54v-323q0 -12 2 -25.5t6.5 -24.5t13 -18t20.5 -7q14 0 28 9z" />
    <glyph glyph-name="f_j" unicode="fj" horiz-adv-x="750" 
d="M310 586q0 35 25 60t60 25q26 0 46 -14q-25 31 -67 52t-94 21q-43 0 -80 -16t-64 -43l138 -138v-156h138v-138h-10l-128 128v-357h31v-10h-265v10h84l-53 54v477q0 41 16.5 77.5t45 63.5t66.5 42.5t81 15.5q42 0 78.5 -14t63.5 -36t42.5 -49.5t15.5 -54.5q0 -35 -25 -60
t-60 -25zM710 485h-85l54 -54v-507q0 -41 -16.5 -77.5t-45 -63.5t-66.5 -42.5t-81 -15.5q-42 0 -78.5 14t-63.5 36t-42.5 49.5t-15.5 54.5q0 35 25 60t60 25l85 -85q0 -35 -25 -60t-60 -25q-26 0 -46 14q25 -31 67 -52t94 -21q42 0 79.5 16t64.5 43l-138 138v553h-31v10h265
v-10z" />
    <glyph glyph-name=".notdef" horiz-adv-x="500" 
 />
    <glyph glyph-name=".null" horiz-adv-x="0" 
 />
    <glyph glyph-name="nonmarkingreturn" unicode="&#xd;" horiz-adv-x="500" 
 />
    <glyph glyph-name="NULL" horiz-adv-x="0" 
 />
    <glyph glyph-name="NULL" horiz-adv-x="0" 
 />
    <glyph glyph-name="one.alt" horiz-adv-x="383" 
d="M99 64v466l-45 -19l-4 10l242 99h10v-610h31v-10h-265v10h84l-53 54v0z" />
    <glyph glyph-name="two.alt" horiz-adv-x="666" 
d="M82 434q0 35 21 68.5t57 59.5t84.5 42t104.5 16q55 0 103.5 -16t85 -42t57.5 -59.5t21 -68.5q0 -37 -20 -67t-53 -54t-73.5 -42.5t-82.5 -32.5t-80 -24.5t-65 -17.5h347l7 -7q0 -39 -13 -76.5t-36.5 -67t-56 -47.5t-71.5 -18q-51 0 -94 18.5t-80.5 40.5t-68.5 38t-58 12
q-20 -21 -34.5 -43t-22.5 -46h-11q14 42 46 79t72.5 71.5t83.5 68.5t78.5 71t58.5 79t23 92q0 28 -7.5 53t-20 44.5t-30 32.5t-38.5 17q-58 -5 -104 -27t-76 -53q26 16 56 16q22 0 42 -9t35 -24t24 -35t9 -42l-110 -110q-23 0 -43 8.5t-35 23.5t-23.5 35t-8.5 43z" />
    <glyph glyph-name="three.alt" horiz-adv-x="647" 
d="M317 315q55 0 103.5 -17t85 -46.5t57.5 -69t21 -84.5t-21 -85t-57.5 -69.5t-85 -46.5t-103.5 -17t-103.5 16.5t-85 43.5t-57.5 60t-21 66q0 23 8.5 43t23.5 35t35 23.5t43 8.5l110 -110q0 -23 -8.5 -43t-23.5 -35t-35 -23.5t-43 -8.5q-26 0 -50 13q26 -26 60 -43.5
t69 -25.5q31 10 57 29t45 45t29.5 57.5t10.5 66.5q0 37 -12.5 70t-34.5 58t-51 39t-62 14q-8 0 -15 -1t-15 -3q-14 -9 -25 -17l-6 8q26 20 59 37t70 33.5t75 32.5t73 35h-321l-7 7q0 38 12.5 75.5t36 67t56 48t72.5 18.5q44 0 79.5 -13t66 -29t58 -29t55.5 -13
q11 0 20.5 4.5t16.5 15.5q5 22 5 44h10q0 -94 -86 -161q-27 -21 -58.5 -38t-65.5 -32.5t-68.5 -30t-65.5 -29.5q31 6 64 6z" />
    <glyph glyph-name="four.alt" horiz-adv-x="616" 
d="M566 88h-116l54 -53v-145h31v-10h-265v10h84l-53 54v144h-251q0 25 20 59.5t50.5 76t65.5 88.5t65.5 97t50.5 101.5t20 102.5l7 7h206q0 -67 -19.5 -119.5t-51.5 -94t-73 -73.5t-84.5 -58t-86 -47.5t-76.5 -42t-56.5 -41.5t-26.5 -46h240v116q54 31 103.5 66.5t89.5 83.5
h10v-266h62v-10z" />
    <glyph glyph-name="five.alt" horiz-adv-x="634" 
d="M317 315q55 0 103.5 -17t85 -46.5t57.5 -69t21 -84.5t-21 -85t-57.5 -69.5t-85 -46.5t-103.5 -17t-103.5 16.5t-85 43.5t-57.5 60t-21 66q0 23 8.5 43t23.5 35t35 23.5t43 8.5l110 -110q0 -23 -8.5 -43t-23.5 -35t-35 -23.5t-43 -8.5q-26 0 -50 13q26 -26 60 -43.5
t69 -25.5q31 10 57 29t45 45t29.5 57.5t10.5 66.5q0 37 -12.5 70t-34.5 58t-51 39t-62 14q-21 0 -45 -8q-13 -7 -25 -15t-23 -18l-7 7v355h10v-44q13 -20 35 -20q26 0 52 13t55 29t62.5 29t75.5 13q38 0 69 -18.5t53.5 -48t34.5 -67t12 -75.5l-7 -7h-442v-150q36 29 84 45
t102 16z" />
    <glyph glyph-name="six.alt" horiz-adv-x="655" 
d="M374 435q46 0 87.5 -14t73.5 -39.5t51 -62t19 -81.5t-20.5 -88t-55.5 -76.5t-82 -53.5t-100 -20q-65 0 -119.5 24t-94 71t-61.5 116t-22 159t22 159t61.5 116t94 71t119.5 24q58 0 105.5 -17.5t81.5 -44.5t52.5 -60t18.5 -64q0 -23 -8.5 -43t-23.5 -35t-35 -23.5
t-43 -8.5l-110 110q0 22 8.5 42t23.5 35t35 24t43 9q32 0 57 -17q-38 42 -92 62.5t-113 20.5q-20 0 -36 -22.5t-28.5 -63.5t-20 -100t-8.5 -131q29 11 59.5 16.5t60.5 5.5zM347 10q18 0 29 28t17 65t7.5 74.5t1.5 55.5q0 19 -1.5 49.5t-6.5 61t-14.5 54t-26.5 27.5
q-26 -2 -51 -7.5t-49 -15.5v-32q0 -81 7 -147.5t19 -114t29.5 -73t38.5 -25.5z" />
    <glyph glyph-name="seven.alt" horiz-adv-x="639" 
d="M589 600q0 -55 -21.5 -108.5t-54.5 -106t-70.5 -103t-70.5 -100t-54.5 -97.5t-21.5 -95q0 -23 -9 -43t-24.5 -35t-36 -23.5t-43.5 -8.5l-110 110q0 47 22.5 89.5t60 80.5t84.5 72t95.5 64.5t95 57.5t81.5 50h-455l-7 7q0 38 14.5 75.5t40.5 67t62.5 48t80.5 18.5
q49 0 88 -13t72.5 -29t63.5 -29t61 -13q26 0 42 20q2 11 3 22t1 22h10z" />
    <glyph glyph-name="eight.alt" horiz-adv-x="655" 
d="M433 381q78 -22 125 -71t47 -112q0 -42 -20.5 -78t-57.5 -62.5t-88 -42t-112 -15.5q-60 0 -111 15.5t-88 42t-57.5 62.5t-20.5 78q0 63 47 112t125 71q-69 22 -110.5 67t-41.5 105q0 39 19 73.5t53 59.5t81.5 39.5t103.5 14.5q57 0 104 -14.5t81.5 -39.5t53.5 -59.5
t19 -73.5q0 -60 -41.5 -105t-110.5 -67zM327 385q33 0 54 46.5t21 121.5q0 37 -5.5 69.5t-15.5 56.5t-24 37.5t-30 13.5t-29.5 -13.5t-23.5 -37.5t-15.5 -56.5t-5.5 -69.5q0 -75 21 -121.5t53 -46.5zM327 10q16 0 30 14.5t24 40t15.5 59.5t5.5 74q0 79 -21 128t-54 49
q-16 0 -29.5 -13t-23.5 -36t-15.5 -56t-5.5 -72q0 -40 5.5 -74t15.5 -59.5t23.5 -40t29.5 -14.5z" />
    <glyph glyph-name="nine.alt" unicode="&#x9;" horiz-adv-x="655" 
d="M281 185q-46 0 -87.5 14t-73.5 39.5t-51 62t-19 81.5t20.5 88t55.5 76.5t82 53.5t100 20q65 0 119.5 -24t94 -71t61.5 -116t22 -159t-22 -159t-61.5 -116t-94 -71t-119.5 -24q-58 0 -105.5 17.5t-81.5 44.5t-52.5 60t-18.5 64q0 23 8.5 43t23.5 35t35 23.5t43 8.5
l110 -110q0 -23 -8.5 -43t-23.5 -35t-35 -23.5t-43 -8.5q-32 0 -57 17q38 -42 92 -62.5t113 -20.5q19 0 35.5 22.5t28.5 63.5t19.5 100t9.5 131q-29 -11 -59.5 -16.5t-60.5 -5.5zM308 610q-18 0 -29 -28t-17 -65t-7.5 -74.5t-1.5 -55.5q0 -19 1.5 -49.5t6.5 -61t14.5 -54
t26.5 -27.5q26 2 51 7.5t49 15.5v32q0 81 -7 147.5t-19 114t-29.5 73t-38.5 25.5z" />
    <glyph glyph-name="zero.alt" unicode="&#xa;" horiz-adv-x="694" 
d="M347 620q65 0 119.5 -20t94 -59.5t61.5 -97.5t22 -133t-22 -133t-61.5 -97.5t-94 -59.5t-119.5 -20t-119.5 20t-94 59.5t-61.5 97.5t-22 133t22 133t61.5 97.5t94 59.5t119.5 20zM347 10q21 0 38 21.5t29 60.5t19 94.5t7 123.5t-7 123.5t-19 94.5t-29 60.5t-38 21.5
t-38.5 -21.5t-29.5 -60.5t-19 -94.5t-7 -123.5t7 -123.5t19 -94.5t29.5 -60.5t38.5 -21.5z" />
    <glyph glyph-name="z.alt" horiz-adv-x="500" 
d="M478 159l7 -7l-156 -166q-21 -21 -53 -21q-28 0 -58.5 10t-59 21.5t-53.5 21.5t-41 10q-14 0 -23 -11l-19 -19l-7 7l271 287h-167q-14 0 -21.5 -5t-13.5 -11l-8 5v214h402l7 -7l-292 -310q15 7 38.5 -1t52.5 -20.5t61 -24t64 -11.5q29 0 48 15z" />
    <glyph glyph-name="space" unicode=" " horiz-adv-x="200" 
 />
    <glyph glyph-name="exclam" unicode="!" horiz-adv-x="290" 
d="M145 220q23 0 43 -8.5t35 -23.5t23.5 -35t8.5 -43l-110 -110q-23 0 -43 8.5t-35 23.5t-23.5 35t-8.5 43t8.5 43t23.5 35t35 23.5t43 8.5zM140 236q-29 92 -51 171q-10 34 -19 68t-16 64.5t-11.5 55t-4.5 38.5l107 107q22 0 41.5 -8.5t34 -23t23 -34t8.5 -41.5
q0 -14 -4.5 -38.5t-11.5 -55t-16.5 -64.5t-18.5 -68q-23 -79 -51 -171h-10z" />
    <glyph glyph-name="quotedbl" unicode="&#x22;" horiz-adv-x="325" 
d="M74 740l110 -8l-121 -227l-28 2zM215 740l110 -8l-121 -227l-28 2z" />
    <glyph glyph-name="numbersign" unicode="#" horiz-adv-x="601" 
d="M556 475h-108l-25 -160h108l-11 -65h-107l-31 -200h-66l32 200h-140l-32 -200h-65l31 200h-107l10 65h107l25 160h-107l10 65h108l31 200h65l-31 -200h140l31 200h66l-31 -200h107zM358 315l25 160h-140l-25 -160h140z" />
    <glyph glyph-name="dollar" unicode="$" horiz-adv-x="683" 
d="M633 197q0 -42 -21.5 -77.5t-59 -62t-87.5 -42t-108 -15.5v-55h-30v56q-56 3 -106 19t-88 42.5t-60.5 61.5t-22.5 77q0 23 8.5 43t23.5 35t35 23.5t43 8.5l110 -110q0 -23 -8.5 -43t-23.5 -35t-35 -23.5t-43 -8.5q-40 0 -70 25q19 -25 46 -43.5t58.5 -31.5t65.5 -20.5
t67 -9.5v249l-168 168q-34 34 -60.5 68.5t-26.5 72.5q0 39 22.5 68.5t59 50.5t82 33.5t91.5 16.5v57h30v-55h16h241v-190h-11l-136 136q-22 23 -50.5 35.5t-59.5 7.5v-197l202 -202q31 -32 52.5 -64t21.5 -69zM327 718q-16 -10 -25.5 -26t-10.5 -36t7.5 -43.5t28.5 -48.5
v154zM357 11q38 5 62 27t24 53q0 18 -8 36.5t-20.5 36t-27.5 34.5t-30 32v-219z" />
    <glyph glyph-name="percent" unicode="%" horiz-adv-x="873" 
d="M396 540q0 -49 -13.5 -86t-37.5 -62.5t-57 -38.5t-73 -13q-39 0 -72 13t-57 38.5t-37.5 62.5t-13.5 86t13.5 86t37.5 62.5t57 38.5t72 13q40 0 73 -13t57 -38.5t37.5 -62.5t13.5 -86zM169 540q0 -87 13 -138.5t33 -51.5q21 0 34 51.5t13 138.5t-13 138.5t-34 51.5
q-20 0 -33 -51.5t-13 -138.5zM657 400q39 0 72.5 -13t57.5 -38.5t37.5 -62.5t13.5 -86t-13.5 -86t-37.5 -62.5t-57.5 -38.5t-72.5 -13t-72 13t-57 38.5t-37.5 62.5t-13.5 86t13.5 86t37.5 62.5t57 38.5t72 13zM657 10q21 0 34 51.5t13 138.5t-13 138.5t-34 51.5t-34 -51.5
t-13 -138.5t13 -138.5t34 -51.5zM678 740l-409 -740h-74l409 740h74z" />
    <glyph glyph-name="ampersand" unicode="&#x26;" horiz-adv-x="793" 
d="M758 416l-180 -179l114 -173l-54 -54h99v-10h-247l-58 90l-95 -95q-63 0 -118 16.5t-96 44.5t-64.5 66t-23.5 82q0 33 14.5 63.5t40.5 55.5t61.5 44.5t78.5 30.5l-73 112q-22 33 -23 62.5t13.5 55t42.5 46.5t65 35.5t80.5 22.5t89.5 8h241v-190h-10l-136 136
q-23 23 -47.5 33.5t-47.5 10.5q-28 0 -48.5 -14t-30 -37.5t-5.5 -54.5t26 -65l201 -307v175h190v-11zM221 302q0 -40 16 -75t43.5 -62t64.5 -44t79 -20l-184 282q-19 -40 -19 -81z" />
    <glyph glyph-name="quotesingle" unicode="'" horiz-adv-x="184" 
d="M74 740l110 -8l-121 -227l-28 2z" />
    <glyph glyph-name="parenleft" unicode="(" horiz-adv-x="349" 
d="M218 370q0 -75 7 -144t20 -127t30.5 -103t38.5 -72l-4 -9q-60 28 -110.5 73.5t-87 105t-57 129.5t-20.5 147t20.5 147t57 129.5t87 105t110.5 73.5l4 -9q-21 -27 -38.5 -72t-30.5 -103t-20 -127t-7 -144z" />
    <glyph glyph-name="parenright" unicode=")" horiz-adv-x="349" 
d="M131 370q0 75 -7 144t-20 127t-30.5 103t-38.5 72l4 9q60 -28 110.5 -73.5t87 -105t57 -129.5t20.5 -147t-20.5 -147t-57 -129.5t-87 -105t-110.5 -73.5l-4 9q21 27 38.5 72t30.5 103t20 127t7 144z" />
    <glyph glyph-name="asterisk" unicode="*" horiz-adv-x="383" 
d="M35 533l2 6l109 42l-109 41l-2 6l37 64l6 2l91 -74l-19 115l5 5h73l5 -5l-19 -115l90 74l7 -2l37 -64l-2 -6l-109 -41l109 -42l2 -6l-37 -64l-7 -1l-90 73l19 -115l-5 -5h-73l-5 5l19 115l-91 -73l-6 1l-37 64v0z" />
    <glyph glyph-name="plus" unicode="+" horiz-adv-x="450" 
d="M252 433v-162h163v-55h-163v-163h-55v163h-162v55h162v162h55v0z" />
    <glyph glyph-name="comma" unicode="," horiz-adv-x="249" 
d="M89 165l110 -8l-121 -227l-28 2l39 233v0z" />
    <glyph glyph-name="hyphen" unicode="-" horiz-adv-x="450" 
d="M50 271h350v-55h-350v55z" />
    <glyph glyph-name="period" unicode="." horiz-adv-x="270" 
d="M220 80q0 -35 -25 -60t-60 -25l-85 85q0 35 25 60t60 25t60 -25t25 -60z" />
    <glyph glyph-name="slash" unicode="/" horiz-adv-x="471" 
d="M436 740l-330 -780h-71l331 780h70v0z" />
    <glyph glyph-name="zero" unicode="0" horiz-adv-x="694" 
d="M347 740q65 0 119.5 -24t94 -71t61.5 -116t22 -159t-22 -159t-61.5 -116t-94 -71t-119.5 -24t-119.5 24t-94 71t-61.5 116t-22 159t22 159t61.5 116t94 71t119.5 24zM347 10q21 0 38 25.5t29 73t19 114t7 147.5t-7 147.5t-19 114t-29 73t-38 25.5t-38.5 -25.5t-29.5 -73
t-19 -114t-7 -147.5t7 -147.5t19 -114t29.5 -73t38.5 -25.5z" />
    <glyph glyph-name="one" unicode="1" horiz-adv-x="383" 
d="M302 10h31v-10h-265v10h84l-53 54v586l-45 -19l-4 10l242 99h10v-730v0z" />
    <glyph glyph-name="two" unicode="2" horiz-adv-x="666" 
d="M89 70q-19 -35 -29 -70h-10q14 53 46 99.5t72.5 90t83.5 86t78.5 89.5t58.5 99.5t23 116.5q0 28 -7.5 53t-20 44.5t-30 32.5t-38.5 17q-58 -5 -104 -27t-76 -53q26 16 56 16q22 0 42 -9t35 -24t24 -35t9 -42l-110 -110q-23 0 -43 8.5t-35 23.5t-23.5 35t-8.5 43
q0 35 21 68.5t57 59.5t84.5 42t104.5 16q55 0 103.5 -16t85 -42t57.5 -59.5t21 -68.5q0 -46 -27 -85.5t-69 -74t-92.5 -63t-98 -53t-85.5 -45t-55 -37.5h400l7 -7q0 -39 -13 -76.5t-36.5 -67t-56 -47.5t-71.5 -18q-48 0 -89.5 17t-77.5 38t-67 38t-58 17q-24 0 -38 -20z" />
    <glyph glyph-name="three" unicode="3" horiz-adv-x="647" 
d="M317 435q55 0 103.5 -17t85 -46.5t57.5 -69t21 -84.5t-21 -85t-57.5 -69.5t-85 -46.5t-103.5 -17t-103.5 16.5t-85 43.5t-57.5 60t-21 66q0 23 8.5 43t23.5 35t35 23.5t43 8.5l110 -110q0 -23 -8.5 -43t-23.5 -35t-35 -23.5t-43 -8.5q-26 0 -50 13q26 -26 60 -43.5
t69 -25.5q31 10 57 29t45 45t29.5 57.5t10.5 66.5q0 37 -12.5 70t-34.5 58t-51 39t-62 14q-8 0 -15 -1t-15 -3q-14 -9 -25 -17l-6 8q26 20 59 37t70 33.5t75 32.5t73 35h-321l-7 7q0 38 12.5 75.5t36 67t56 48t72.5 18.5q44 0 79.5 -13t66 -29t58 -29t55.5 -13
q11 0 20.5 4.5t16.5 15.5q5 22 5 44h10q0 -94 -86 -161q-27 -21 -58.5 -38t-65.5 -32.5t-68.5 -30t-65.5 -29.5q31 6 64 6z" />
    <glyph glyph-name="four" unicode="4" horiz-adv-x="616" 
d="M566 208h-116l54 -53v-145h31v-10h-265v10h84l-53 54v144h-251q0 25 20 59.5t50.5 76t65.5 88.5t65.5 97t50.5 101.5t20 102.5l7 7h206q0 -67 -19.5 -119.5t-51.5 -94t-73 -73.5t-84.5 -58t-86 -47.5t-76.5 -42t-56.5 -41.5t-26.5 -46h240v116q54 31 103.5 66.5
t89.5 83.5h10v-266h62v-10z" />
    <glyph glyph-name="five" unicode="5" horiz-adv-x="634" 
d="M317 435q55 0 103.5 -17t85 -46.5t57.5 -69t21 -84.5t-21 -85t-57.5 -69.5t-85 -46.5t-103.5 -17t-103.5 16.5t-85 43.5t-57.5 60t-21 66q0 23 8.5 43t23.5 35t35 23.5t43 8.5l110 -110q0 -23 -8.5 -43t-23.5 -35t-35 -23.5t-43 -8.5q-26 0 -50 13q26 -26 60 -43.5
t69 -25.5q31 10 57 29t45 45t29.5 57.5t10.5 66.5q0 37 -12.5 70t-34.5 58t-51 39t-62 14q-21 0 -45 -8q-13 -7 -25 -15t-23 -18l-7 7v355h10v-44q13 -20 35 -20q26 0 52 13t55 29t62.5 29t75.5 13q38 0 69 -18.5t53.5 -48t34.5 -67t12 -75.5l-7 -7h-442v-150q36 29 84 45
t102 16z" />
    <glyph glyph-name="six" unicode="6" horiz-adv-x="655" 
d="M374 435q46 0 87.5 -14t73.5 -39.5t51 -62t19 -81.5t-20.5 -88t-55.5 -76.5t-82 -53.5t-100 -20q-65 0 -119.5 24t-94 71t-61.5 116t-22 159t22 159t61.5 116t94 71t119.5 24q58 0 105.5 -17.5t81.5 -44.5t52.5 -60t18.5 -64q0 -23 -8.5 -43t-23.5 -35t-35 -23.5
t-43 -8.5l-110 110q0 22 8.5 42t23.5 35t35 24t43 9q32 0 57 -17q-38 42 -92 62.5t-113 20.5q-20 0 -36 -22.5t-28.5 -63.5t-20 -100t-8.5 -131q29 11 59.5 16.5t60.5 5.5zM347 10q18 0 29 28t17 65t7.5 74.5t1.5 55.5q0 19 -1.5 49.5t-6.5 61t-14.5 54t-26.5 27.5
q-26 -2 -51 -7.5t-49 -15.5v-32q0 -81 7 -147.5t19 -114t29.5 -73t38.5 -25.5z" />
    <glyph glyph-name="seven" unicode="7" horiz-adv-x="639" 
d="M589 720q0 -55 -21.5 -108.5t-54.5 -106t-70.5 -103t-70.5 -100t-54.5 -97.5t-21.5 -95q0 -23 -9 -43t-24.5 -35t-36 -23.5t-43.5 -8.5l-110 110q0 47 22.5 89.5t60 80.5t84.5 72t95.5 64.5t95 57.5t81.5 50h-455l-7 7q0 38 14.5 75.5t40.5 67t62.5 48t80.5 18.5
q49 0 88 -13t72.5 -29t63.5 -29t61 -13q26 0 42 20q2 11 3 22t1 22h10z" />
    <glyph glyph-name="eight" unicode="8" horiz-adv-x="655" 
d="M433 381q78 -22 125 -71t47 -112q0 -42 -20.5 -78t-57.5 -62.5t-88 -42t-112 -15.5q-60 0 -111 15.5t-88 42t-57.5 62.5t-20.5 78q0 63 47 112t125 71q-69 22 -110.5 67t-41.5 105q0 39 19 73.5t53 59.5t81.5 39.5t103.5 14.5q57 0 104 -14.5t81.5 -39.5t53.5 -59.5
t19 -73.5q0 -60 -41.5 -105t-110.5 -67zM327 385q33 0 54 46.5t21 121.5q0 37 -5.5 69.5t-15.5 56.5t-24 37.5t-30 13.5t-29.5 -13.5t-23.5 -37.5t-15.5 -56.5t-5.5 -69.5q0 -75 21 -121.5t53 -46.5zM327 10q16 0 30 14.5t24 40t15.5 59.5t5.5 74q0 79 -21 128t-54 49
q-16 0 -29.5 -13t-23.5 -36t-15.5 -56t-5.5 -72q0 -40 5.5 -74t15.5 -59.5t23.5 -40t29.5 -14.5z" />
    <glyph glyph-name="nine" unicode="9" horiz-adv-x="655" 
d="M281 305q-46 0 -87.5 14t-73.5 39.5t-51 62t-19 81.5t20.5 88t55.5 76.5t82 53.5t100 20q65 0 119.5 -24t94 -71t61.5 -116t22 -159t-22 -159t-61.5 -116t-94 -71t-119.5 -24q-58 0 -105.5 17.5t-81.5 44.5t-52.5 60t-18.5 64q0 23 8.5 43t23.5 35t35 23.5t43 8.5
l110 -110q0 -23 -8.5 -43t-23.5 -35t-35 -23.5t-43 -8.5q-32 0 -57 17q38 -42 92 -62.5t113 -20.5q19 0 35.5 22.5t28.5 63.5t19.5 100t9.5 131q-29 -11 -59.5 -16.5t-60.5 -5.5zM308 730q-18 0 -29 -28t-17 -65t-7.5 -74.5t-1.5 -55.5q0 -19 1.5 -49.5t6.5 -61t14.5 -54
t26.5 -27.5q26 2 51 7.5t49 15.5v32q0 81 -7 147.5t-19 114t-29.5 73t-38.5 25.5z" />
    <glyph glyph-name="colon" unicode=":" horiz-adv-x="270" 
d="M220 80q0 -35 -25 -60t-60 -25l-85 85q0 35 25 60t60 25t60 -25t25 -60zM220 380q0 -35 -25 -60t-60 -25l-85 85q0 35 25 60t60 25t60 -25t25 -60z" />
    <glyph glyph-name="semicolon" unicode=";" horiz-adv-x="270" 
d="M220 380q0 -35 -25 -60t-60 -25l-85 85q0 35 25 60t60 25t60 -25t25 -60zM220 157l-121 -227l-28 2l39 233z" />
    <glyph glyph-name="less" unicode="&#x3c;" horiz-adv-x="491" 
d="M456 393l-300 -153l300 -152l-25 -49l-396 201l396 202z" />
    <glyph glyph-name="equal" unicode="=" horiz-adv-x="450" 
d="M35 294v55h380v-55h-380zM35 138v55h380v-55h-380z" />
    <glyph glyph-name="greater" unicode="&#x3e;" horiz-adv-x="491" 
d="M60 442l396 -202l-396 -201l-25 49l300 152l-300 153z" />
    <glyph glyph-name="question" unicode="?" horiz-adv-x="604" 
d="M172 220q23 0 43 -8.5t35 -23.5t23.5 -35t8.5 -43l-110 -110q-23 0 -43 8.5t-35 23.5t-23.5 35t-8.5 43t8.5 43t23.5 35t35 23.5t43 8.5zM569 572q0 -45 -26 -82t-66 -67.5t-87.5 -56t-91 -47.5t-77 -42.5t-44.5 -40.5h-10v90q24 26 56.5 49.5t61.5 52t49.5 66.5t20.5 92
q0 22 -6.5 47t-18.5 46t-29 35t-38 14q-41 -4 -81 -16.5t-73 -35.5q16 6 36 6q23 0 43 -8.5t35 -23.5t23.5 -35t8.5 -43l-110 -110q-23 0 -43 8.5t-35 23.5t-23.5 35t-8.5 43q0 35 21 66t57.5 53.5t85 35.5t103.5 13t103.5 -13t85 -35.5t57.5 -53.5t21 -66z" />
    <glyph glyph-name="at" unicode="@" horiz-adv-x="844" 
d="M598 187q-3 -17 3.5 -19t11.5 0q68 23 115 74q38 42 56 95.5t13 110.5q-6 55 -34 106t-74.5 90t-109 62.5t-137.5 23.5q-82 0 -154.5 -28.5t-126.5 -77.5t-85 -114.5t-31 -139.5q0 -75 31 -140.5t85 -114t126.5 -77t154.5 -28.5q65 0 126 18.5t114 54.5l6 -8
q-51 -35 -113.5 -55t-132.5 -20q-84 0 -158.5 29t-129.5 79.5t-87 117.5t-32 144q0 76 32 143.5t87 118t129.5 79.5t158.5 29q78 0 142.5 -24.5t112 -65t76 -93t34.5 -108.5q6 -60 -13.5 -115.5t-58.5 -98t-95.5 -68t-125.5 -25.5q-55 0 -81 14.5t-33 33.5
q-23 -24 -50.5 -36.5t-65.5 -12.5q-67 0 -106.5 44.5t-39.5 124.5q0 57 18 108.5t51 91t79 63t102 23.5q35 0 70 -3.5t69.5 -6t67 -0.5t61.5 14l10 -2zM366 174q15 10 31 27q-2 7 0 15l61 366q-19 -4 -36 -23t-31.5 -48t-26.5 -64t-20 -71t-12.5 -69t-4.5 -58q0 -14 1 -27.5
t5 -24.5t12 -17.5t21 -5.5z" />
    <glyph glyph-name="A" unicode="A" horiz-adv-x="614" 
d="M493 10h111v-10h-287v10h34l-57 175h-144l-56 -175h94v-10h-178v10h74l235 730h10v0l218 -676zM154 195h137l-69 213z" />
    <glyph glyph-name="B" unicode="B" horiz-adv-x="699" 
d="M491 391q38 -6 70.5 -23.5t56.5 -43t37.5 -58.5t13.5 -69q0 -41 -16.5 -77t-45.5 -62.5t-68 -42t-83 -15.5h-396v10h84l-53 54v666h-31v10h376q40 0 75 -14t61.5 -38t41.5 -56.5t15 -69.5q0 -30 -10.5 -57.5t-28.5 -50t-43.5 -39t-55.5 -24.5zM241 730l53 -53v-284h16
q22 0 43 13.5t37 36.5t26 53.5t10 65.5t-10 65.5t-26 53.5t-37 36t-43 13h-69zM324 10q25 0 48.5 14.5t42 40t29.5 59.5t11 73t-11 72.5t-29.5 59t-42 40t-48.5 14.5h-30v-373h30z" />
    <glyph glyph-name="C" unicode="C" horiz-adv-x="692" 
d="M395 10q68 0 130 26t111 76l7 -7q-48 -49 -112 -77t-136 -28q-34 0 -65.5 6.5t-61.5 17.5l-199 200q-29 69 -29 146q0 76 28 143.5t76 118t112.5 79.5t138.5 29q51 0 101 -15t89 -40.5t63 -60t24 -72.5q0 -23 -9 -43t-24 -35t-35 -23.5t-42 -8.5l-110 110q0 23 8.5 43
t23.5 35t35 23.5t43 8.5q27 0 50 -12q-37 35 -94.5 57.5t-122.5 22.5q-29 0 -55 -28.5t-45 -77t-30 -114t-11 -140.5t11 -140.5t30 -114t45 -77t55 -28.5z" />
    <glyph glyph-name="D" unicode="D" horiz-adv-x="749" 
d="M341 740q76 0 143 -29t117 -79.5t79 -118t29 -143.5q0 -77 -29 -144t-79 -117.5t-117 -79.5t-143 -29h-281v10h84l-53 54v666h-31v10h281zM294 14q37 9 73 37t64.5 74t46 107.5t17.5 137.5q0 72 -17.5 138t-51.5 117t-77 78t-91 27h-17l53 -53v-663z" />
    <glyph glyph-name="E" unicode="E" horiz-adv-x="570" 
d="M349 10l180 180h11v-190h-480v10h84l-53 54v666h-31v10h480v-190h-11l-180 180h-108l53 -53v-302l126 126h10v-262h-10l-126 126v-355h55v0z" />
    <glyph glyph-name="F" unicode="F" horiz-adv-x="560" 
d="M519 550l-180 180h-108l53 -53v-302l126 126h10v-262h-10l-126 126v-355h31v-10h-265v10h84l-53 54v666h-31v10h480v-190h-11v0z" />
    <glyph glyph-name="G" unicode="G" horiz-adv-x="694" 
d="M674 276h-85l54 -53v-118q-48 -49 -112 -77t-136 -28q-34 0 -65.5 6.5t-61.5 17.5l-199 200q-29 69 -29 146q0 76 28 143.5t76 118t112.5 79.5t138.5 29q51 0 101 -15t89 -40.5t63 -60t24 -72.5q0 -23 -9 -43t-24 -35t-35 -23.5t-42 -8.5l-110 110q0 23 8.5 43t23.5 35
t35 23.5t43 8.5q27 0 50 -12q-40 38 -98.5 59t-118.5 21q-29 0 -55 -28.5t-45 -77t-30 -114t-11 -140.5t11 -140.5t30 -114t45 -77t55 -28.5q64 0 118 22l-73 73v171h-31v10h265v-10z" />
    <glyph glyph-name="H" unicode="H" horiz-adv-x="710" 
d="M650 740v-10h-84l53 -53v-667h31v-10h-265v10h85l-54 54v301h-122v-355h31v-10h-265v10h84l-53 54v666h-31v10h265v-10h-84l53 -53v-302h122v355h-31v10h265v0z" />
    <glyph glyph-name="I" unicode="I" horiz-adv-x="385" 
d="M325 740v-10h-84l53 -53v-667h31v-10h-265v10h84l-53 54v666h-31v10h265v0z" />
    <glyph glyph-name="J" unicode="J" horiz-adv-x="510" 
d="M226 730h-31v10h265v-10h-85l54 -53v-478q0 -41 -16.5 -77.5t-45 -63.5t-66.5 -42.5t-81 -15.5q-42 0 -78.5 12.5t-63.5 33.5t-42.5 49t-15.5 59q0 23 8.5 43t23.5 35t35 23.5t43 8.5l110 -110q0 -23 -8.5 -43t-23.5 -35t-35 -23.5t-43 -8.5q-22 0 -45 10
q28 -21 62.5 -32.5t72.5 -11.5q42 0 79.5 16t64.5 43l-138 138v523z" />
    <glyph glyph-name="K" unicode="K" horiz-adv-x="723" 
d="M713 740v-10l-266 -266l235 -454h31v-10h-255l-162 313l-2 -2v-301h31v-10h-265v10h84l-53 54v666h-31v10h265v-10h-84l53 -53v-352l229 229v186h190v0z" />
    <glyph glyph-name="L" unicode="L" horiz-adv-x="550" 
d="M529 190h11v-190h-480v10h84l-53 54v666h-31v10h265v-10h-84l53 -53v-667h55l180 180v0z" />
    <glyph glyph-name="M" unicode="M" horiz-adv-x="807" 
d="M747 740v-10h-85l54 -53v-667h31v-10h-229v10h84l-53 54v642l-217 -706h-11l-217 707v-697h84v-10h-178v10h84v720h-51v10h264l121 -394l121 394h198v0z" />
    <glyph glyph-name="N" unicode="N" horiz-adv-x="617" 
d="M607 730h-84v-720h61v-10h-273l-207 706v-696h84v-10h-178v10h84v720h-61v10h273l207 -706v696h-84v10h178v-10v0z" />
    <glyph glyph-name="O" unicode="O" horiz-adv-x="790" 
d="M395 740q73 0 138 -29t113 -79.5t76 -118t28 -143.5q0 -77 -28 -144t-76 -117.5t-113 -79.5t-138 -29q-34 0 -65.5 6.5t-61.5 17.5l-199 200q-29 69 -29 146q0 76 28 143.5t76 118t112.5 79.5t138.5 29zM395 10q29 0 55 28.5t45 77t30 114t11 140.5t-11 140.5t-30 114
t-45 77t-55 28.5t-55 -28.5t-45 -77t-30 -114t-11 -140.5t11 -140.5t30 -114t45 -77t55 -28.5z" />
    <glyph glyph-name="P" unicode="P" horiz-adv-x="689" 
d="M456 740q44 0 83 -15.5t68 -42t45.5 -62.5t16.5 -77q0 -49 -24 -90.5t-65 -72t-95.5 -47.5t-116.5 -17q-38 0 -74 6v-312h31v-10h-265v10h84l-53 54v666h-31v10h396zM294 337q35 1 64.5 19t51 46.5t33.5 65t12 75.5t-11 73t-29.5 59.5t-42 40t-48.5 14.5h-83l53 -53v-340
z" />
    <glyph glyph-name="Q" unicode="Q" horiz-adv-x="850" 
d="M750 370q0 -77 -28 -144t-76 -117.5t-113 -79.5t-138 -29q-34 0 -65.5 6.5t-61.5 17.5l-199 200q-29 69 -29 146q0 76 28 143.5t76 118t112.5 79.5t138.5 29q73 0 138 -29t113 -79.5t76 -118t28 -143.5zM395 10q29 0 55 28.5t45 77t30 114t11 140.5t-11 140.5t-30 114
t-45 77t-55 28.5t-55 -28.5t-45 -77t-30 -114t-11 -140.5t11 -140.5t30 -114t45 -77t55 -28.5zM810 -158v-10h-277l-138 138v10h277z" />
    <glyph glyph-name="R" unicode="R" horiz-adv-x="710" 
d="M700 10v-10h-254l-152 292v-282h31v-10h-265v10h84l-53 54v666h-31v10h396q44 0 83 -15.5t68 -42t45.5 -62.5t16.5 -77q0 -36 -13.5 -68.5t-37 -58t-56 -43t-69.5 -23.5l176 -340h31zM241 730l53 -53v-320h30q25 0 48.5 14.5t42 40t29.5 59t11 72.5t-11 73t-29.5 59.5
t-42 40t-48.5 14.5h-83z" />
    <glyph glyph-name="S" unicode="S" horiz-adv-x="643" 
d="M613 197q0 -42 -22 -78t-59.5 -62.5t-88.5 -41.5t-109 -15q-60 0 -115 15t-97 41.5t-67 63.5t-25 81q0 23 8.5 43t23.5 35t35 23.5t43 8.5l110 -110q0 -23 -8.5 -43t-23.5 -35t-35 -23.5t-43 -8.5q-40 0 -70 25q20 -26 48.5 -45.5t62 -32.5t69.5 -20t70 -8
q44 0 73.5 23.5t29.5 57.5q0 19 -9 38.5t-22.5 38t-30 36.5t-31.5 33l-191 191q-34 34 -60.5 68.5t-26.5 72.5q0 44 28.5 76t72.5 53t97 31.5t103 10.5h241v-190h-11l-136 136q-23 23 -47.5 33.5t-46.5 10.5q-30 0 -51.5 -15.5t-28.5 -41.5t4.5 -59.5t46.5 -69.5l215 -214
q31 -32 52.5 -64t21.5 -69z" />
    <glyph glyph-name="T" unicode="T" horiz-adv-x="714" 
d="M704 740v-190h-10l-182 182l2 -2h-109l54 -53v-667h31v-10h-266v10h85l-54 54v666h-55l2 2l-182 -182h-10v190h694v0z" />
    <glyph glyph-name="U" unicode="U" horiz-adv-x="705" 
d="M655 730h-84l53 -53v-491q0 -39 -21 -72.5t-57 -59t-84.5 -40t-103.5 -14.5q-24 0 -46 3l-221 221v506h-31v10h265v-10h-84l53 -53v-642l23 -23q10 -1 20 -1.5t21 -0.5q17 0 32.5 1.5t30.5 3.5v715h-31v10h265v-10z" />
    <glyph glyph-name="V" unicode="V" horiz-adv-x="614" 
d="M604 740v-10h-74l-235 -730h-10l-218 677l53 53h-110v10h287v-10h-34l128 -399l129 399h-94v10h178v0z" />
    <glyph glyph-name="W" unicode="W" horiz-adv-x="947" 
d="M759 740h178v-10h-73l-235 -730h-11l-161 502l-162 -502h-10l-218 677l53 53h-110v10h287v-10h-34l128 -399l60 187l-51 159l54 53h-111v10h288v-10h-34l128 -399l128 399h-94v10v0z" />
    <glyph glyph-name="X" unicode="X" horiz-adv-x="664" 
d="M654 730h-75l-181 -270l199 -396l-53 -54h110v-10h-284v10h31l-130 260l-173 -260h90v-10h-178v10h76l180 270l-199 397l53 53h-110v10h284v-10h-31l130 -260l174 260h-91v10h178v-10v0z" />
    <glyph glyph-name="Y" unicode="Y" horiz-adv-x="655" 
d="M570 730l-157 -360l-1 -360h31v-10h-265v10h85l-54 54v283l-142 330l53 53h-110v10h287v-10h-31l146 -338l147 338h-92v10h178v-10h-75v0z" />
    <glyph glyph-name="Z" unicode="Z" horiz-adv-x="664" 
d="M654 740v-10h-110l53 -53l-334 -667h138l180 180h10v-190h-581v10h110l-53 54l334 666h-138l-180 -180h-10v190h581v0z" />
    <glyph glyph-name="bracketleft" unicode="[" horiz-adv-x="374" 
d="M35 -85v910h304v-10h-101v-890h101v-10h-304v0z" />
    <glyph glyph-name="backslash" unicode="\" horiz-adv-x="471" 
d="M35 740h70l331 -780h-71z" />
    <glyph glyph-name="bracketright" unicode="]" horiz-adv-x="374" 
d="M35 -85v10h101v890h-101v10h304v-910h-304z" />
    <glyph glyph-name="asciicircum" unicode="^" horiz-adv-x="520" 
d="M460 517l-12 -12l-188 146l-188 -146l-12 12l126 223h148l126 -223v0z" />
    <glyph glyph-name="underscore" unicode="_" horiz-adv-x="540" 
d="M35 -100v40h470v-40h-470v0z" />
    <glyph glyph-name="grave" unicode="`" horiz-adv-x="330" 
d="M270 560l-10 -10l-200 180l10 10h128l72 -180v0z" />
    <glyph glyph-name="a" unicode="a" horiz-adv-x="564" 
d="M524 10v-10h-182l-50 50q-14 -18 -45.5 -36.5t-76.5 -18.5q-27 0 -51.5 9t-43 25t-29.5 37.5t-11 47.5q0 25 10 45t27 36.5t40 29.5t49 24q41 17 91.5 32t94.5 33t74 41t30 57q0 21 -14.5 35t-37 22.5t-49 12t-49.5 3.5q-40 0 -81.5 -9t-76.5 -27q19 2 36.5 -3.5
t30.5 -17.5t20.5 -28t7.5 -35q0 -35 -25 -60t-60 -25l-85 85q0 30 21 54.5t54 41t74.5 25.5t83.5 9q35 0 69.5 -7t61.5 -21.5t44 -37.5t17 -56v-160v-203h31zM220 147q0 -17 4.5 -33.5t13 -28.5t21.5 -18.5t31 -3.5v219q-33 -23 -51.5 -55t-18.5 -80z" />
    <glyph glyph-name="b" unicode="b" horiz-adv-x="581" 
d="M357 495q27 0 60.5 -14t63 -43.5t50 -75t20.5 -107.5q0 -45 -20 -91t-60 -83.5t-99.5 -61.5t-137.5 -24q-60 0 -109 15l-54 54v666h-31v10h265v-10h-84l53 -53v-238l47 47q5 5 16 7t20 2zM366 249q0 25 -3 54t-9.5 57.5t-18 53.5t-29.5 43l-32 -32v-418q27 16 44.5 44
t28 62t15 69.5t4.5 66.5z" />
    <glyph glyph-name="c" unicode="c" horiz-adv-x="533" 
d="M298 5q52 0 99 18t84 53l7 -7q-37 -35 -85.5 -54.5t-104.5 -19.5q-58 0 -111 22l-140 141q-17 42 -17 87q0 52 21 97.5t57.5 79.5t85 53.5t104.5 19.5q36 0 73.5 -9.5t68 -26.5t49.5 -41t19 -53q0 -35 -25 -60t-60 -25l-85 85q0 19 8.5 36t22 28.5t31.5 17t38 1.5
q-29 17 -65.5 27t-74.5 10q-14 0 -25.5 -19t-20.5 -51.5t-14 -76t-5 -93.5t5 -93.5t14 -76t20.5 -51.5t25.5 -19z" />
    <glyph glyph-name="d" unicode="d" horiz-adv-x="622" 
d="M582 730h-84l53 -53v-667h31v-10h-182l-49 50q-25 -26 -55.5 -40.5t-65.5 -14.5q-41 0 -76.5 18t-61.5 50t-41.5 76t-15.5 96t19 99t51 83t75.5 57t92.5 21q19 0 29 -3.5t12 -5.5l34 -34v278h-31v10h265v-10zM330 57q10 0 18 4v377l-19 19q-19 -3 -35.5 -19.5t-29 -43
t-19.5 -61t-7 -73.5q0 -42 7 -79t19.5 -64.5t29.5 -43.5t36 -16z" />
    <glyph glyph-name="e" unicode="e" horiz-adv-x="575" 
d="M298 5q52 0 99 18t84 53l7 -7q-37 -35 -85.5 -54.5t-104.5 -19.5q-58 0 -111 22l-140 141q-17 42 -17 87q0 52 21 97.5t57.5 79.5t85 53.5t104.5 19.5q52 0 96.5 -19t77 -50.5t50.5 -73.5t18 -87h-307v-20q0 -50 5 -93.5t14 -76t20.5 -51.5t25.5 -19zM298 485
q-12 0 -23 -16t-19.5 -44.5t-14.5 -67t-7 -82.5h103q0 42 -1.5 80t-5.5 67t-12 46t-20 17z" />
    <glyph glyph-name="f" unicode="f" horiz-adv-x="460" 
d="M310 586q0 35 25 60t60 25q26 0 46 -14q-25 31 -67 52t-94 21q-43 0 -80 -16t-64 -43l138 -138v-156h138v-138h-10l-128 128v-357h31v-10h-265v10h84l-53 54v477q0 41 16.5 77.5t45 63.5t66.5 42.5t81 15.5q42 0 78.5 -14t63.5 -36t42.5 -49.5t15.5 -54.5q0 -35 -25 -60
t-60 -25l-85 85v0z" />
    <glyph glyph-name="g" unicode="g" horiz-adv-x="581" 
d="M569 566l-113 -113q38 -23 61 -56t23 -71q0 -35 -19.5 -65.5t-53.5 -53.5t-79.5 -36.5t-97.5 -13.5q-40 0 -76 8t-67 22l-11 -11q-11 -23 7 -42.5t58 -19.5h187q42 0 75.5 -14t57 -37.5t36 -55.5t12.5 -68q0 -42 -18.5 -80.5t-52 -68.5t-81.5 -47.5t-108 -17.5
q-47 0 -90 9.5t-78 26.5t-60 39.5t-37 49.5l94 94l7 -7q-17 -37 -11.5 -73.5t28 -65t61 -46t88.5 -17.5q41 0 73.5 11.5t55.5 29.5t35 40t12 43q0 17 -7.5 32t-24 26.5t-44 18t-66.5 6.5h-136q-35 0 -66 12.5t-53.5 33.5t-35 49.5t-10.5 60.5l129 128h-85q-23 21 -35.5 46.5
t-12.5 53.5q0 35 19.5 65.5t53.5 53.5t79.5 36.5t97.5 13.5q39 0 75 -7.5t66 -21.5v110h138v-10zM290 167q10 0 18.5 12.5t15 34t10 50.5t3.5 62t-3.5 62t-10 50.5t-15 34t-18.5 12.5t-18.5 -12.5t-15 -34t-10 -50.5t-3.5 -62t3.5 -62t10 -50.5t15 -34t18.5 -12.5z" />
    <glyph glyph-name="h" unicode="h" 
d="M588 10v-10h-265v10h84l-53 54v303q0 43 -11 64t-28 26q-11 -6 -20.5 -14t-20.5 -17v-416h31v-10h-265v10h84l-53 54v666h-31v10h265v-10h-84l53 -53v-238q32 27 65.5 41.5t71.5 14.5q27 0 53 -7.5t47 -23t33.5 -40t12.5 -57.5v-357h31z" />
    <glyph glyph-name="i" unicode="i" horiz-adv-x="345" 
d="M258 586q0 -35 -25 -60t-60 -25l-85 85q0 35 25 60t60 25t60 -25t25 -60zM305 485h-84l53 -54v-421h31v-10h-265v10h84l-53 54v421h-31v10h265v-10z" />
    <glyph glyph-name="j" unicode="j" horiz-adv-x="362" 
d="M274 586q0 -35 -25 -60t-60 -25l-85 85q0 35 25 60t60 25t60 -25t25 -60zM322 485h-85l54 -54v-507q0 -41 -16.5 -77.5t-45 -63.5t-66.5 -42.5t-81 -15.5q-42 0 -78.5 14t-63.5 36t-42.5 49.5t-15.5 54.5q0 35 25 60t60 25l85 -85q0 -35 -25 -60t-60 -25q-26 0 -46 14
q25 -31 67 -52t94 -21q42 0 79.5 16t64.5 43l-138 138v553h-31v10h265v-10z" />
    <glyph glyph-name="k" unicode="k" horiz-adv-x="593" 
d="M550 10h28v-10h-84h-145l-75 164v-154h31v-10h-265v10h84l-53 54v666h-31v10h265v-10h-84l53 -53v-459l143 143v134h138v-10l-152 -151l147 -324v0z" />
    <glyph glyph-name="l" unicode="l" horiz-adv-x="345" 
d="M305 740v-10h-84l53 -53v-667h31v-10h-265v10h84l-53 54v666h-31v10h265v0z" />
    <glyph glyph-name="m" unicode="m" horiz-adv-x="911" 
d="M871 10v-10h-266v10h85l-54 54v303q0 43 -11 64t-27 26q-24 -14 -50 -40q9 -23 9 -50v-357h31v-10h-265v10h84l-53 54v303q0 43 -11 64t-28 26q-11 -6 -20.5 -14t-20.5 -17v-416h31v-10h-265v10h84l-53 54v421h-31v10h178l56 -56q32 27 65.5 41.5t71.5 14.5
q41 0 77.5 -16.5t54.5 -52.5q71 69 151 69q27 0 53 -7.5t47 -23t33.5 -40t12.5 -57.5v-357h31z" />
    <glyph glyph-name="n" unicode="n" 
d="M274 439q32 27 65.5 41.5t71.5 14.5q27 0 53 -7.5t47 -23t33.5 -40t12.5 -57.5v-357h31v-10h-265v10h84l-53 54v303q0 43 -11 64t-28 26q-11 -6 -20.5 -14t-20.5 -17v-416h31v-10h-265v10h84l-53 54v421h-31v10h178l56 -56v0z" />
    <glyph glyph-name="o" unicode="o" horiz-adv-x="595" 
d="M298 495q55 0 104 -19.5t85 -53.5t57 -79.5t21 -97.5t-21 -97.5t-57 -79.5t-85 -53.5t-104 -19.5q-58 0 -111 22l-140 141q-17 42 -17 87q0 52 21 97.5t57.5 79.5t85 53.5t104.5 19.5zM298 5q13 0 24.5 19t20.5 51.5t14 76t5 93.5t-5 93.5t-14 76t-20.5 51.5t-24.5 19
q-14 0 -25.5 -19t-20.5 -51.5t-14 -76t-5 -93.5t5 -93.5t14 -76t20.5 -51.5t25.5 -19z" />
    <glyph glyph-name="p" unicode="p" horiz-adv-x="615" 
d="M395 495q33 0 67 -16.5t61.5 -48.5t44.5 -78.5t17 -106.5q0 -52 -16.5 -97.5t-45 -79.5t-67 -53.5t-81.5 -19.5q-21 0 -37.5 5.5t-29.5 13t-21.5 16.5t-12.5 15v-310h31v-10h-265v10h84l-53 54v696h-31v10h178l56 -56q26 23 54.5 39.5t66.5 16.5zM288 55q19 0 36.5 16
t30.5 44t20.5 65.5t7.5 79.5q0 69 -20 122t-51 74q-18 -12 -38 -31v-368q4 -1 7 -1.5t7 -0.5z" />
    <glyph glyph-name="q" unicode="q" horiz-adv-x="615" 
d="M544 485v-750h31v-10h-265v10h84l-53 54v256q-4 -6 -12.5 -15t-21.5 -16.5t-29.5 -13t-37.5 -5.5q-44 0 -82 19.5t-66.5 53.5t-45 79.5t-16.5 97.5q0 60 17 106.5t44.5 78.5t61.5 48.5t67 16.5q38 0 66.5 -16.5t54.5 -39.5l56 56h178v-10h-31zM327 55q4 0 14 2v368
q-20 19 -38 31q-31 -21 -51 -74t-20 -122q0 -42 7.5 -79.5t20 -65.5t30 -44t37.5 -16z" />
    <glyph glyph-name="r" unicode="r" horiz-adv-x="500" 
d="M398 514q16 0 31.5 -5.5t28 -16.5t20 -27.5t7.5 -38.5q0 -17 -6.5 -32.5t-18 -27t-27 -18.5t-33.5 -7l-85 85q0 29 17 52q-16 -12 -30.5 -26t-27.5 -26v-416h31v-10h-265v10h84l-53 54v421h-31v10h178l56 -56q13 13 27 26t29.5 24t32.5 18t35 7z" />
    <glyph glyph-name="s" unicode="s" horiz-adv-x="523" 
d="M475 357h-10l-17 17l-83 83q-15 15 -30.5 21.5t-29.5 6.5q-22 0 -36.5 -13.5t-14.5 -36.5q0 -14 7.5 -31t25.5 -36l151 -150q21 -21 35.5 -42.5t14.5 -47.5q0 -29 -17 -53t-46.5 -42t-69.5 -28t-86 -10q-47 0 -90 10t-76 28t-53 43t-20 55q0 35 25 60t60 25l85 -85
q0 -20 -8.5 -37.5t-23 -29t-33 -16.5t-38.5 0q31 -19 68 -29t73 -13q24 4 39.5 19t15.5 35q0 26 -21 51.5t-42 46.5l-126 126q-23 23 -41 46t-18 49q0 30 20 51.5t51 36t68.5 21.5t72.5 7h218v-138z" />
    <glyph glyph-name="t" unicode="t" horiz-adv-x="364" 
d="M349 33q-21 -12 -57.5 -25t-87.5 -13q-28 0 -52 8t-42 21.5t-28.5 31.5t-10.5 39v390h-31v10h31l193 153h10v-153h56v-10h-109l53 -54v-323q0 -12 2 -25.5t6.5 -24.5t13 -18t20.5 -7q14 0 28 9z" />
    <glyph glyph-name="u" unicode="u" 
d="M557 10h31v-10h-178l-56 56q-29 -29 -64 -45t-73 -16q-27 0 -53.5 7.5t-47 23t-33 40t-12.5 57.5v362h-31v10h265v-10h-84l53 -54v-308q0 -44 10 -64t26 -25q12 8 22.5 16.5t21.5 19.5v415h-31v10h265v-10h-85l54 -54v-421z" />
    <glyph glyph-name="v" unicode="v" horiz-adv-x="579" 
d="M386 495h178v-10h-74l-156 -485h-123l-139 431l53 54h-110v10h250l109 -339l106 329h-94v10v0z" />
    <glyph glyph-name="w" unicode="w" horiz-adv-x="906" 
d="M713 495h178v-10h-74l-156 -485h-123l-102 316l-102 -316h-123l-139 431l53 54h-110v10h250l109 -339l57 176l-32 99l53 54h-110v10h250l109 -339l106 329h-94v10v0z" />
    <glyph glyph-name="x" unicode="x" horiz-adv-x="551" 
d="M536 485h-75l-96 -193l114 -228l-53 -54h110v-10h-248l-96 192l-91 -182h92v-10h-178v10h75l97 193l-115 228l53 54h-110v10h248l96 -192l91 182h-92v10h178v-10v0z" />
    <glyph glyph-name="y" unicode="y" horiz-adv-x="570" 
d="M555 495v-10h-73l-194 -601q-51 -159 -165 -159q-30 0 -56.5 12.5t-47 33.5t-32 49t-11.5 59q0 35 25 60t60 25l85 -85q0 -35 -25 -60t-60 -25q-19 0 -35.5 8t-28.5 21q17 -39 51 -63.5t75 -24.5q31 0 56 12.5t44 33.5t32.5 48.5t23.5 57.5l36 113h-113l-139 431l54 54
h-111v10h250l109 -339l106 329h-94v10h178z" />
    <glyph glyph-name="z" unicode="z" horiz-adv-x="551" 
d="M536 495v-10h-110l53 -54l-211 -421h69l128 128h10v-138h-460v10h110l-53 54l211 421h-69l-128 -128h-10v138h460v0z" />
    <glyph glyph-name="braceleft" unicode="{" horiz-adv-x="348" 
d="M280 569l-199 -199l199 -199v-246h33v-10h-34q-42 0 -79 16t-64.5 43.5t-43.5 65t-16 79.5v246h-41v10h41v246q0 42 16 79.5t43.5 65t64.5 43.5t79 16h34v-10h-33v-246z" />
    <glyph glyph-name="bar" unicode="|" horiz-adv-x="125" 
d="M35 4v740h55v-740h-55v0z" />
    <glyph glyph-name="braceright" unicode="}" horiz-adv-x="348" 
d="M35 815v10h34q42 0 79 -16t64.5 -43.5t43.5 -65t16 -79.5v-246h41v-10h-41v-246q0 -42 -16 -79.5t-43.5 -65t-64.5 -43.5t-79 -16h-34v10h33v246l199 199l-199 199v246h-33z" />
    <glyph glyph-name="asciitilde" unicode="~" horiz-adv-x="570" 
d="M459 240q23 0 41 16.5t22 39.5l13 -1q-5 -30 -18.5 -55.5t-33 -44t-43.5 -29t-51 -10.5q-42 0 -80.5 24t-73 53.5t-65.5 53.5t-59 24q-23 0 -41.5 -15.5t-22.5 -40.5l-12 3q5 29 18.5 54.5t33 44t43.5 29t51 10.5q28 0 54.5 -11.5t51.5 -29t48 -37.5t44.5 -37.5t41 -29
t38.5 -11.5z" />
    <glyph glyph-name="exclamdown" unicode="&#xa1;" horiz-adv-x="290" 
d="M145 520q-23 0 -43 8.5t-35 23.5t-23.5 35t-8.5 43t8.5 43t23.5 35t35 23.5t43 8.5l110 -110q0 -23 -8.5 -43t-23.5 -35t-35 -23.5t-43 -8.5zM150 504q28 -92 51 -171q9 -34 18.5 -68t16.5 -64.5t11.5 -55t4.5 -38.5q0 -22 -8.5 -41.5t-23 -34t-34 -23t-41.5 -8.5
l-107 107q0 14 4.5 38.5t11.5 55t16 64.5t19 68q22 79 51 171h10z" />
    <glyph glyph-name="cent" unicode="&#xa2;" horiz-adv-x="578" 
d="M318 130q52 0 99 18t84 53l7 -7q-37 -35 -85.5 -54.5t-104.5 -19.5q-58 0 -111 22l-17 17l-81 -146l-26 14l85 154l-101 102q-17 42 -17 87q0 52 21 97.5t57.5 79.5t85 53.5t104.5 19.5q21 0 42.5 -3t42.5 -10l66 120l26 -14l-63 -116q41 -17 68.5 -44.5t27.5 -62.5
t-25 -60t-60 -25l-76 76l-109 -199q7 -67 23 -109.5t37 -42.5zM458 573q-7 5 -15 8.5t-16 7.5l-10 -18q21 6 41 2zM253 370v-16.5t1 -16.5l144 261q-39 12 -80 12q-14 0 -25.5 -19t-20.5 -51.5t-14 -76t-5 -93.5z" />
    <glyph glyph-name="sterling" unicode="&#xa3;" horiz-adv-x="634" 
d="M584 554q0 -23 -8.5 -43t-23.5 -35t-35 -23.5t-43 -8.5l-110 110q0 22 8.5 42t23.5 35t35 24t43 9q29 0 56 -16q-30 31 -76.5 53t-103.5 27q-21 -4 -38.5 -17t-30.5 -32.5t-20.5 -44.5t-7.5 -53q0 -45 15 -96t26 -106l116 101h12v-220h-12l-112 98q17 -97 -12 -174
t-118 -134q16 3 38 -2q40 0 72.5 13.5t55.5 35t35 47.5t12 52h195l8 -7q0 -39 -12.5 -78t-35 -70.5t-55.5 -51t-73 -19.5q-38 0 -69 11t-57.5 24.5t-51.5 24.5t-51 11q-23 0 -51 -9t-66 -32l-6 9q57 34 79 76t21.5 89t-17 97t-36.5 99t-36.5 96t-16.5 88q0 35 21 68.5
t57.5 59.5t85 42t103.5 16t103.5 -16t85 -42t57.5 -59.5t21 -68.5z" />
    <glyph glyph-name="currency" unicode="&#xa4;" horiz-adv-x="559" 
d="M524 449l-83 -82q20 -26 31 -57.5t11 -66.5t-11 -65.5t-31 -56.5l83 -83l-39 -39l-82 83q-26 -20 -57.5 -31t-66.5 -11t-66 11t-57 31l-82 -83l-39 39l83 83q-42 53 -42 122q0 70 42 124l-83 82l39 39l82 -82q26 20 57 30.5t66 10.5t66.5 -10.5t57.5 -30.5l82 82zM279 95
q31 0 58 11.5t47 32t32 47.5t12 57q0 31 -12 58t-32 47t-47 32t-58 12q-30 0 -57 -12t-47.5 -32t-32 -47t-11.5 -58q0 -30 11.5 -57t32 -47.5t47.5 -32t57 -11.5z" />
    <glyph glyph-name="yen" unicode="&#xa5;" horiz-adv-x="735" 
d="M507 730v10h178v-10h-75l-157 -360v-23h154l-11 -65h-143v-32h138l-10 -66h-128l-1 -174h31v-10h-265v10h85l-54 54v120h-153l10 66h143v32h-138l10 65h128l-142 330l53 53h-110v10h287v-10h-31l146 -338l147 338h-92v0z" />
    <glyph glyph-name="brokenbar" unicode="&#xa6;" horiz-adv-x="125" 
d="M35 405v339h55v-339h-55zM35 4v338h55v-338h-55z" />
    <glyph glyph-name="section" unicode="&#xa7;" horiz-adv-x="528" 
d="M443 223q21 -21 35.5 -42.5t14.5 -47.5q0 -29 -17 -53t-46.5 -42t-69.5 -28t-86 -10t-89 9.5t-76.5 27.5t-53.5 43t-20 56q0 35 25 60t60 25l85 -85q0 -35 -25 -60t-60 -25q-5 0 -9 0.5t-9 1.5q31 -19 68 -29t73 -13q24 4 39.5 19t15.5 35q0 26 -21 51.5t-42 46.5
l-126 126q-23 23 -41 46t-18 49q0 38 30 62t74 38l-45 45q-23 23 -41 46t-18 49q0 30 20 51.5t51 36t68.5 21.5t72.5 7h218v-138h-10l-100 100q-15 15 -30.5 21.5t-29.5 6.5q-22 0 -36.5 -13.5t-14.5 -36.5q0 -14 7.5 -31t25.5 -36l151 -150q21 -21 35.5 -42.5t14.5 -47.5
q0 -35 -24.5 -63t-66.5 -46z" />
    <glyph glyph-name="dieresis" unicode="&#xa8;" horiz-adv-x="404" 
d="M344 680q0 -25 -17.5 -42.5t-42.5 -17.5q-26 0 -43 17.5t-17 42.5t17 42.5t43 17.5q25 0 42.5 -17.5t17.5 -42.5zM180 680q0 -25 -17.5 -42.5t-42.5 -17.5t-42.5 17.5t-17.5 42.5t17.5 42.5t42.5 17.5t42.5 -17.5t17.5 -42.5z" />
    <glyph glyph-name="copyright" unicode="&#xa9;" horiz-adv-x="700" 
d="M350 685q63 0 120.5 -23.5t102.5 -68.5t68.5 -102.5t23.5 -120.5t-23.5 -120.5t-68.5 -102.5t-102.5 -68.5t-120.5 -23.5t-120.5 23.5t-102.5 68.5t-68.5 102.5t-23.5 120.5t23.5 120.5t68.5 102.5t102.5 68.5t120.5 23.5zM552 169q40 40 61.5 92t21.5 109t-21.5 109
t-61.5 93q-41 40 -93 61.5t-109 21.5t-109 -21.5t-92 -61.5q-41 -41 -62.5 -93t-21.5 -109t21.5 -109t62.5 -92q40 -41 92 -62.5t109 -21.5t109 21.5t93 62.5zM384 481q0 17 7.5 31t20 23t28 12t31.5 -2q-23 18 -55 29t-66 11q-18 0 -33.5 -17t-27 -46t-18.5 -68t-7 -84
t7 -84t18.5 -68t27 -46t33.5 -17q41 0 78 16t66 45l7 -7q-29 -30 -67.5 -47t-83.5 -17q-41 0 -77 15l-121 121q-18 40 -18 89q0 46 17 87t46.5 72t68.5 48.5t84 17.5q31 0 61 -9t54 -24.5t38.5 -36.5t14.5 -44q0 -28 -19.5 -47.5t-47.5 -19.5z" />
    <glyph glyph-name="ordfeminine" unicode="&#xaa;" horiz-adv-x="461" 
d="M426 354v-10h-145l-40 40q-11 -14 -37 -29t-61 -15q-21 0 -40.5 7t-34.5 20t-24 30t-9 38q0 41 29.5 66t71.5 42q33 13 73 25.5t75.5 26.5t59.5 33t24 46q0 21 -20 34q-41 22 -100 22q-32 0 -64 -7t-57 -19q29 1 50 -19t21 -49t-20 -48.5t-48 -19.5l-68 68
q0 24 16.5 43.5t43 33t60 20.5t66.5 7q27 0 54.5 -5.5t49.5 -17t35.5 -30t13.5 -45.5v-288h25zM239 568q-26 -19 -41 -43.5t-15 -62.5q0 -14 4 -29.5t15 -26.5q16 -16 37 -11v173z" />
    <glyph glyph-name="guillemotleft" unicode="&#xab;" horiz-adv-x="417" 
d="M149 248l81 -163l-7 -8l-188 171l188 169l7 -7l-81 -162v0zM301 248l81 -163l-7 -8l-188 171l188 169l7 -7l-81 -162v0z" />
    <glyph glyph-name="logicalnot" unicode="&#xac;" horiz-adv-x="477" 
d="M35 333h407v-179h-55v124h-352v55v0z" />
    <glyph glyph-name="registered" unicode="&#xae;" horiz-adv-x="700" 
d="M350 685q63 0 120.5 -23.5t102.5 -68.5t68.5 -102.5t23.5 -120.5t-23.5 -120.5t-68.5 -102.5t-102.5 -68.5t-120.5 -23.5t-120.5 23.5t-102.5 68.5t-68.5 102.5t-23.5 120.5t23.5 120.5t68.5 102.5t102.5 68.5t120.5 23.5zM65 370q0 -64 26 -119.5t72 -95.5h40l-29 29
v401h-11q-48 -42 -73 -97.5t-25 -117.5zM298 556v-194h18q15 0 29.5 9t26 24.5t18 36t6.5 43.5t-6.5 43t-18 35t-26 23.5t-29.5 8.5h-47zM175 145q77 -60 175 -60t175 60h-135l-92 178v-168h19v-10h-142zM537 155q48 42 73 97.5t25 117.5q0 57 -21.5 109t-61.5 93
q-41 40 -93 61.5t-109 21.5q-98 0 -175 -60h221q27 0 50.5 -9.5t41.5 -26t28 -38t10 -46.5q0 -45 -30.5 -77t-76.5 -40l105 -203h13z" />
    <glyph glyph-name="macron" unicode="&#xaf;" horiz-adv-x="460" 
d="M60 740h340v-46h-340v46z" />
    <glyph glyph-name="degree" unicode="&#xb0;" horiz-adv-x="370" 
d="M185 440q-31 0 -58.5 12t-47.5 32t-32 47.5t-12 58.5t12 58.5t32 47.5t47.5 32t58.5 12t58.5 -12t47.5 -32t32 -47.5t12 -58.5t-12 -58.5t-32 -47.5t-47.5 -32t-58.5 -12zM185 670q-33 0 -56.5 -23.5t-23.5 -56.5t23.5 -56.5t56.5 -23.5t56.5 23.5t23.5 56.5t-23.5 56.5
t-56.5 23.5z" />
    <glyph glyph-name="plusminus" unicode="&#xb1;" horiz-adv-x="450" 
d="M253 297h162v-55h-162v-162h-55v162h-163v55h163v163h55v-163zM35 67h380v-55h-380v55z" />
    <glyph glyph-name="twosuperior" unicode="&#xb2;" horiz-adv-x="376" 
d="M52 639q0 19 11.5 37t31 32.5t46 23t56.5 8.5t56 -8.5t45.5 -23t31 -32.5t11.5 -37q0 -36 -28.5 -65t-66.5 -52.5t-75.5 -42t-55.5 -33.5h211l4 -4q0 -21 -7 -41t-19.5 -36t-30 -26t-38.5 -10q-29 0 -54 11.5t-46 23.5t-39 20t-31 2q-15 -24 -20 -46h-10q7 29 24.5 54
t39.5 48.5t45.5 46.5t42.5 48.5t31.5 54t12.5 62.5q0 26 -11.5 47t-29.5 29q-29 -1 -53.5 -10.5t-41.5 -23.5q14 4 28 1.5t24.5 -10.5t17 -20.5t6.5 -27.5l-59 -59q-25 0 -42.5 17t-17.5 42z" />
    <glyph glyph-name="threesuperior" unicode="&#xb3;" horiz-adv-x="368" 
d="M179 575q30 0 56.5 -9t46 -25t31 -37.5t11.5 -45.5t-11.5 -45.5t-31 -37.5t-46 -25.5t-56.5 -9.5t-56.5 9t-46 23.5t-30.5 32.5t-11 36q0 25 17.5 42t41.5 17l60 -59q0 -15 -6.5 -27t-17 -20t-23.5 -11t-27 0q25 -20 65 -30q30 13 49.5 41t19.5 64q0 22 -8 40.5t-21 32
t-30.5 20.5t-36.5 4q-11 -6 -19 -13l-6 8q28 22 68 37.5t78 35.5h-169l-3 4q0 21 7 41t19.5 36t30 26t38.5 10q24 0 43 -7t35.5 -15.5t31 -15.5t29.5 -7q13 0 19 9q3 10 3 25h10q0 -34 -17.5 -57.5t-44 -41t-58 -31t-60.5 -26.5q7 2 13 2h13z" />
    <glyph glyph-name="acute" unicode="&#xb4;" horiz-adv-x="330" 
d="M60 560l72 180h128l10 -10l-200 -180l-10 10v0z" />
    <glyph glyph-name="mu" unicode="&#xb5;" horiz-adv-x="618" 
d="M318 495h265v-10h-85l54 -54v-421h31v-10h-178l-56 56q-29 -29 -64 -45t-73 -16q-32 0 -62.5 10t-51.5 33q16 -33 40 -62t45.5 -56.5t37 -54t15.5 -52.5q0 -35 -25 -60t-60 -25l-85 85v672h-31v10h265v-10h-84l53 -54v-308q0 -43 10 -63.5t26 -25.5q12 8 22.5 16.5
t21.5 19.5v415h-31v10z" />
    <glyph glyph-name="paragraph" unicode="&#xb6;" horiz-adv-x="421" 
d="M386 740v-740h-10v730h-101v-730h-10v340q-48 0 -89.5 14t-73 40t-49.5 63t-18 84q0 46 18 82.5t49.5 62.5t73 40t89.5 14h121z" />
    <glyph glyph-name="periodcentered" unicode="&#xb7;" horiz-adv-x="240" 
d="M120 330q35 0 60 -25t25 -60t-25 -60t-60 -25l-85 85q0 35 25 60t60 25z" />
    <glyph glyph-name="cedilla" unicode="&#xb8;" horiz-adv-x="297" 
d="M143 -21q39 0 66.5 -25.5t27.5 -61.5t-27.5 -61t-66.5 -25q-15 0 -30 4.5t-26.5 12t-19 18.5t-7.5 23q0 15 10.5 25.5t25.5 10.5l37 -36q0 -15 -10 -25.5t-25 -11.5q8 -4 15.5 -6.5t15.5 -3.5q14 3 24.5 24.5t10.5 50.5t-10.5 51t-24.5 25q-22 -3 -42 -18l-6 8
q10 9 23.5 22.5t24.5 25.5h14q-7 -8 -15 -16l-16 -16q17 5 31 5z" />
    <glyph glyph-name="onesuperior" unicode="&#xb9;" horiz-adv-x="223" 
d="M188 350v-10h-143v10h41l-25 24v312l-22 -9l-4 9l131 54h5v-390h17z" />
    <glyph glyph-name="ordmasculine" unicode="&#xba;" horiz-adv-x="498" 
d="M249 740q44 0 83 -16t68 -43t46 -63.5t17 -77.5t-17 -77.5t-46 -63.5t-68 -43t-83 -16q-48 0 -88 18l-113 112q-6 17 -9.5 34t-3.5 36q0 41 17 77.5t46 63.5t68 43t83 16zM249 350q11 0 20.5 15t16.5 40.5t11 60.5t4 74t-4 74t-11 60.5t-16.5 40.5t-20.5 15t-20 -15
t-16 -40.5t-11 -60.5t-4 -74t4 -74t11 -60.5t16 -40.5t20 -15z" />
    <glyph glyph-name="guillemotright" unicode="&#xbb;" horiz-adv-x="417" 
d="M268 248l-81 162l7 7l188 -169l-188 -171l-7 8l81 163v0zM116 248l-81 162l7 7l188 -169l-188 -171l-7 8l81 163v0z" />
    <glyph glyph-name="onequarter" unicode="&#xbc;" horiz-adv-x="698" 
d="M629 122h34v-10h-63l29 -28v-74h17v-10h-143v10h41l-25 24v78h-135q0 21 23 52.5t50.5 69t50.5 79.5t23 83l4 4h111q0 -47 -17 -81.5t-43.5 -59.5t-57.5 -43t-58.5 -33t-48.5 -29.5t-26 -31.5h124v59q29 17 56 36t49 45h5v-140zM574 740l-409 -740h-74l409 740h74z
M45 350h41l-25 24v312l-22 -9l-4 9l131 54h5v-390h17v-10h-143v10z" />
    <glyph glyph-name="onehalf" unicode="&#xbd;" horiz-adv-x="741" 
d="M417 300q0 19 11.5 37t31 32.5t46 23t56.5 8.5t56 -8.5t45.5 -23t31 -32.5t11.5 -37q0 -36 -28.5 -65t-66.5 -52.5t-75.5 -42t-55.5 -33.5h212l3 -4q0 -21 -7 -41t-19.5 -36t-30 -26t-38.5 -10q-29 0 -54 11.5t-46 23.5t-38.5 20t-30.5 2q-14 -23 -21 -46h-10q8 29 25 54
t39 48.5t45.5 46.5t42.5 48.5t31.5 54t12.5 62.5q0 26 -11.5 47t-29.5 29q-29 -1 -53.5 -10.5t-41.5 -23.5q14 4 28 1.5t24.5 -10.5t17 -20.5t6.5 -27.5l-59 -59q-25 0 -42.5 17t-17.5 42zM45 350h41l-25 24v312l-22 -9l-4 9l131 54h5v-390h17v-10h-143v10zM574 740
l-409 -740h-74l409 740h74z" />
    <glyph glyph-name="threequarters" unicode="&#xbe;" horiz-adv-x="828" 
d="M760 122h33v-10h-62l29 -28v-74h16v-10h-143v10h41l-24 24v78h-136q0 21 23 52.5t50.5 69t50.5 79.5t23 83l4 4h111q0 -47 -17 -81.5t-43 -59.5t-57.5 -43t-59 -33t-48 -29.5t-25.5 -31.5h124v59q29 17 56 36t48 45h6v-140zM704 740l-408 -740h-74l408 740h74zM333 729
q0 -34 -17.5 -57.5t-44 -41t-58 -31t-60.5 -26.5q7 2 13 2h13q30 0 56.5 -9t46 -25t31 -37.5t11.5 -45.5t-11.5 -45.5t-31 -37.5t-46 -25.5t-56.5 -9.5t-56.5 9t-46 23.5t-30.5 32.5t-11 36q0 25 17.5 42t41.5 17l60 -59q0 -15 -6.5 -27t-17 -20t-23.5 -11t-27 0
q25 -20 65 -30q30 13 49.5 41t19.5 64q0 22 -8 40.5t-21 32t-30.5 20.5t-36.5 4q-11 -6 -19 -13l-6 8q28 22 68 37.5t78 35.5h-169l-3 4q0 21 7 41t19.5 36t30 26t38.5 10q24 0 43 -7t35.5 -15.5t31 -15.5t29.5 -7q13 0 19 9q3 10 3 25h10z" />
    <glyph glyph-name="questiondown" unicode="&#xbf;" horiz-adv-x="604" 
d="M432 520q-23 0 -43 8.5t-35 23.5t-23.5 35t-8.5 43l110 110q23 0 43 -8.5t35 -23.5t23.5 -35t8.5 -43t-8.5 -43t-23.5 -35t-35 -23.5t-43 -8.5zM35 168q0 45 26 82t66 67.5t87.5 56t91 47.5t77 42t44.5 41h10v-90q-24 -26 -56.5 -49.5t-61.5 -52t-49.5 -66.5t-20.5 -92
q0 -23 6.5 -48t18.5 -46t29 -34.5t38 -13.5q41 4 81 16.5t73 35.5q-17 -6 -36 -6q-23 0 -43 8.5t-35 23.5t-23.5 35t-8.5 43l110 110q23 0 43 -9t35 -24t23.5 -35t8.5 -42q0 -35 -21 -66t-57.5 -53.5t-85 -35.5t-103.5 -13t-103.5 13t-85 35.5t-57.5 53.5t-21 66z" />
    <glyph glyph-name="Agrave" unicode="&#xc0;" horiz-adv-x="614" 
d="M493 10h111v-10h-287v10h34l-57 175h-144l-56 -175h94v-10h-178v10h74l235 730h10v0l218 -676zM154 195h137l-69 213zM430 805l-10 -10l-200 180l10 10h128l72 -180v0z" />
    <glyph glyph-name="Aacute" unicode="&#xc1;" horiz-adv-x="614" 
d="M493 10h111v-10h-287v10h34l-57 175h-144l-56 -175h94v-10h-178v10h74l235 730h10v0l218 -676zM154 195h137l-69 213zM219 805l72 180h128l10 -10l-200 -180l-10 10v0z" />
    <glyph glyph-name="Acircumflex" unicode="&#xc2;" horiz-adv-x="614" 
d="M493 10h111v-10h-287v10h34l-57 175h-144l-56 -175h94v-10h-178v10h74l235 730h10v0l218 -676zM154 195h137l-69 213zM486 805l-10 -10l-152 118l-151 -118l-10 10l102 180h119l102 -180v0z" />
    <glyph glyph-name="Atilde" unicode="&#xc3;" horiz-adv-x="614" 
d="M493 10h111v-10h-287v10h34l-57 175h-144l-56 -175h94v-10h-178v10h74l235 730h10v0l218 -676zM154 195h137l-69 213zM451 872q16 0 29 12t16 29l10 -1q-8 -43 -37 -72t-69 -29q-30 0 -58 17.5t-52.5 39t-47 39t-42.5 17.5q-16 0 -29 -12t-16 -29l-10 2q7 43 36.5 71.5
t68.5 28.5q31 0 58.5 -17.5t52.5 -39t47.5 -39t42.5 -17.5z" />
    <glyph glyph-name="Adieresis" unicode="&#xc4;" horiz-adv-x="614" 
d="M493 10h111v-10h-287v10h34l-57 175h-144l-56 -175h94v-10h-178v10h74l235 730h10v0l218 -676zM154 195h137l-69 213zM466 925q0 -25 -17.5 -42.5t-42.5 -17.5q-26 0 -43 17.5t-17 42.5t17 42.5t43 17.5q25 0 42.5 -17.5t17.5 -42.5zM302 925q0 -25 -17.5 -42.5
t-42.5 -17.5t-42.5 17.5t-17.5 42.5t17.5 42.5t42.5 17.5t42.5 -17.5t17.5 -42.5z" />
    <glyph glyph-name="Aring" unicode="&#xc5;" horiz-adv-x="614" 
d="M493 10h111v-10h-287v10h34l-57 175h-144l-56 -175h94v-10h-178v10h74l235 730h10v0l218 -676zM154 195h137l-69 213zM324 773q26 0 43.5 18t17.5 44t-17.5 43.5t-43.5 17.5t-44 -17.5t-18 -43.5t18 -44t44 -18zM324 930q19 0 36.5 -7.5t30.5 -20.5t20.5 -30.5t7.5 -36.5
q0 -20 -7.5 -37t-20.5 -30t-30.5 -20.5t-36.5 -7.5q-20 0 -37 7.5t-30 20.5t-20.5 30t-7.5 37q0 19 7.5 36.5t20.5 30.5t30 20.5t37 7.5z" />
    <glyph glyph-name="Ccedilla" unicode="&#xc7;" horiz-adv-x="712" 
d="M452 552q0 23 8.5 43t23.5 35t35 23.5t43 8.5q27 0 50 -12q-37 35 -94.5 57.5t-122.5 22.5q-29 0 -55 -28.5t-45 -77t-30 -114t-11 -140.5t11 -140.5t30 -114t45 -77t55 -28.5q68 0 130 26t111 76l7 -7q-48 -49 -112 -77t-136 -28q-22 0 -43 3q-7 -8 -15.5 -16.5
l-16.5 -16.5q15 5 31 5q19 0 36 -7t29.5 -18.5t20 -27.5t7.5 -34t-7.5 -34t-20 -27.5t-29.5 -18.5t-36 -7q-15 0 -30 4.5t-27 12.5t-19.5 18.5t-7.5 22.5q0 15 10.5 25.5t26.5 10.5l36 -36q0 -15 -10 -25t-24 -11q7 -5 14.5 -7t15.5 -4q15 4 25 25.5t10 50.5t-10 50.5
t-25 25.5q-24 -5 -41 -19l-6 8l51 51q-35 6 -72 20l-199 200q-29 69 -29 146q0 76 28 143.5t76 118t112.5 79.5t138.5 29q51 0 101 -15t89 -40.5t63 -60t24 -72.5q0 -23 -9 -43t-24 -35t-35 -23.5t-42 -8.5l-110 110v0z" />
    <glyph glyph-name="Egrave" unicode="&#xc8;" horiz-adv-x="500" 
d="M222 10h98l140 140h10v-150h-410v10h85l-54 54v666h-31v10h410v-150h-10l-140 140h-151l53 -53v-302l105 105h10v-220h-10l-105 105v-355zM370 805l-10 -10l-200 180l10 10h128z" />
    <glyph glyph-name="Eacute" unicode="&#xc9;" horiz-adv-x="500" 
d="M222 365l105 -105h10v220h-10l-105 -105v302l-53 53h151l140 -140h10v150h-410v-10h31v-666l54 -54h-85v-10h410v150h-10l-140 -140h-98v355zM160 805l72 180h128l10 -10l-200 -180l-10 10v0z" />
    <glyph glyph-name="Ecircumflex" unicode="&#xca;" horiz-adv-x="500" 
d="M222 10h98l140 140h10v-150h-410v10h85l-54 54v666h-31v10h410v-150h-10l-140 140h-151l53 -53v-302l105 105h10v-220h-10l-105 105v-355zM427 805l-10 -10l-152 118l-151 -118l-10 10l102 180h119z" />
    <glyph glyph-name="Edieresis" unicode="&#xcb;" horiz-adv-x="500" 
d="M222 10h98l140 140h10v-150h-410v10h85l-54 54v666h-31v10h410v-150h-10l-140 140h-151l53 -53v-302l105 105h10v-220h-10l-105 105v-355zM407 925q0 -25 -17.5 -42.5t-42.5 -17.5q-26 0 -43 17.5t-17 42.5t17 42.5t43 17.5q25 0 42.5 -17.5t17.5 -42.5zM243 925
q0 -25 -17.5 -42.5t-42.5 -17.5t-42.5 17.5t-17.5 42.5t17.5 42.5t42.5 17.5t42.5 -17.5t17.5 -42.5z" />
    <glyph glyph-name="Igrave" unicode="&#xcc;" horiz-adv-x="385" 
d="M325 740v-10h-84l53 -53v-667h31v-10h-265v10h84l-53 54v666h-31v10h265v0zM297 805l-10 -10l-200 180l10 10h128l72 -180v0z" />
    <glyph glyph-name="Iacute" unicode="&#xcd;" horiz-adv-x="385" 
d="M325 740v-10h-84l53 -53v-667h31v-10h-265v10h84l-53 54v666h-31v10h265v0zM87 805l72 180h128l10 -10l-200 -180l-10 10v0z" />
    <glyph glyph-name="Icircumflex" unicode="&#xce;" horiz-adv-x="385" 
d="M325 740v-10h-84l53 -53v-667h31v-10h-265v10h84l-53 54v666h-31v10h265v0zM354 805l-10 -10l-152 118l-151 -118l-10 10l102 180h119l102 -180v0z" />
    <glyph glyph-name="Idieresis" unicode="&#xcf;" horiz-adv-x="385" 
d="M325 740v-10h-84l53 -53v-667h31v-10h-265v10h84l-53 54v666h-31v10h265v0zM334 925q0 -25 -17.5 -42.5t-42.5 -17.5q-26 0 -43 17.5t-17 42.5t17 42.5t43 17.5q25 0 42.5 -17.5t17.5 -42.5zM170 925q0 -25 -17.5 -42.5t-42.5 -17.5t-42.5 17.5t-17.5 42.5t17.5 42.5
t42.5 17.5t42.5 -17.5t17.5 -42.5z" />
    <glyph glyph-name="Eth" unicode="&#xd0;" horiz-adv-x="729" 
d="M321 740q76 0 143 -29t117 -79.5t79 -118t29 -143.5q0 -77 -29 -144t-79 -117.5t-117 -79.5t-143 -29h-281v10h84l-53 53v302h-71v10h71v355h-31v10h281zM274 14q37 9 73 37t64.5 74t46 107.5t17.5 137.5q0 72 -17.5 138t-51.5 117t-77 78t-91 27h-17l53 -54v-301h126
v-10h-126v-351z" />
    <glyph glyph-name="Ntilde" unicode="&#xd1;" horiz-adv-x="617" 
d="M607 730h-84v-720h61v-10h-273l-207 706v-696h84v-10h-178v10h84v720h-61v10h273l207 -706v696h-84v10h178v-10v0zM434 872q16 0 29 12t16 29l10 -1q-8 -43 -37 -72t-69 -29q-30 0 -58 17.5t-52.5 39t-47 39t-42.5 17.5q-16 0 -29 -12t-16 -29l-10 2q7 43 36.5 71.5
t68.5 28.5q31 0 58.5 -17.5t52.5 -39t47.5 -39t42.5 -17.5z" />
    <glyph glyph-name="Ograve" unicode="&#xd2;" horiz-adv-x="790" 
d="M395 740q73 0 138 -29t113 -79.5t76 -118t28 -143.5q0 -77 -28 -144t-76 -117.5t-113 -79.5t-138 -29q-34 0 -65.5 6.5t-61.5 17.5l-199 200q-29 69 -29 146q0 76 28 143.5t76 118t112.5 79.5t138.5 29zM395 10q29 0 55 28.5t45 77t30 114t11 140.5t-11 140.5t-30 114
t-45 77t-55 28.5t-55 -28.5t-45 -77t-30 -114t-11 -140.5t11 -140.5t30 -114t45 -77t55 -28.5zM500 805l-10 -10l-200 180l10 10h128l72 -180v0z" />
    <glyph glyph-name="Oacute" unicode="&#xd3;" horiz-adv-x="790" 
d="M395 740q73 0 138 -29t113 -79.5t76 -118t28 -143.5q0 -77 -28 -144t-76 -117.5t-113 -79.5t-138 -29q-34 0 -65.5 6.5t-61.5 17.5l-199 200q-29 69 -29 146q0 76 28 143.5t76 118t112.5 79.5t138.5 29zM395 10q29 0 55 28.5t45 77t30 114t11 140.5t-11 140.5t-30 114
t-45 77t-55 28.5t-55 -28.5t-45 -77t-30 -114t-11 -140.5t11 -140.5t30 -114t45 -77t55 -28.5zM290 805l72 180h128l10 -10l-200 -180l-10 10v0z" />
    <glyph glyph-name="Ocircumflex" unicode="&#xd4;" horiz-adv-x="790" 
d="M395 740q73 0 138 -29t113 -79.5t76 -118t28 -143.5q0 -77 -28 -144t-76 -117.5t-113 -79.5t-138 -29q-34 0 -65.5 6.5t-61.5 17.5l-199 200q-29 69 -29 146q0 76 28 143.5t76 118t112.5 79.5t138.5 29zM395 10q29 0 55 28.5t45 77t30 114t11 140.5t-11 140.5t-30 114
t-45 77t-55 28.5t-55 -28.5t-45 -77t-30 -114t-11 -140.5t11 -140.5t30 -114t45 -77t55 -28.5zM557 805l-10 -10l-152 118l-151 -118l-10 10l102 180h119l102 -180v0z" />
    <glyph glyph-name="Otilde" unicode="&#xd5;" horiz-adv-x="790" 
d="M395 740q73 0 138 -29t113 -79.5t76 -118t28 -143.5q0 -77 -28 -144t-76 -117.5t-113 -79.5t-138 -29q-34 0 -65.5 6.5t-61.5 17.5l-199 200q-29 69 -29 146q0 76 28 143.5t76 118t112.5 79.5t138.5 29zM395 10q29 0 55 28.5t45 77t30 114t11 140.5t-11 140.5t-30 114
t-45 77t-55 28.5t-55 -28.5t-45 -77t-30 -114t-11 -140.5t11 -140.5t30 -114t45 -77t55 -28.5zM521 872q16 0 29 12t16 29l10 -1q-8 -43 -37 -72t-69 -29q-30 0 -58 17.5t-52.5 39t-47 39t-42.5 17.5q-16 0 -29 -12t-16 -29l-10 2q7 43 36.5 71.5t68.5 28.5q31 0 58.5 -17.5
t52.5 -39t47.5 -39t42.5 -17.5z" />
    <glyph glyph-name="Odieresis" unicode="&#xd6;" horiz-adv-x="790" 
d="M395 740q73 0 138 -29t113 -79.5t76 -118t28 -143.5q0 -77 -28 -144t-76 -117.5t-113 -79.5t-138 -29q-34 0 -65.5 6.5t-61.5 17.5l-199 200q-29 69 -29 146q0 76 28 143.5t76 118t112.5 79.5t138.5 29zM395 10q29 0 55 28.5t45 77t30 114t11 140.5t-11 140.5t-30 114
t-45 77t-55 28.5t-55 -28.5t-45 -77t-30 -114t-11 -140.5t11 -140.5t30 -114t45 -77t55 -28.5zM537 925q0 -25 -17.5 -42.5t-42.5 -17.5q-26 0 -43 17.5t-17 42.5t17 42.5t43 17.5q25 0 42.5 -17.5t17.5 -42.5zM373 925q0 -25 -17.5 -42.5t-42.5 -17.5t-42.5 17.5
t-17.5 42.5t17.5 42.5t42.5 17.5t42.5 -17.5t17.5 -42.5z" />
    <glyph glyph-name="multiply" unicode="&#xd7;" horiz-adv-x="378" 
d="M304 397l39 -39l-115 -115l115 -114l-39 -39l-115 115l-115 -115l-39 39l115 114l-115 115l39 39l115 -115l115 115v0z" />
    <glyph glyph-name="Oslash" unicode="&#xd8;" horiz-adv-x="790" 
d="M655 622q45 -50 70 -114t25 -138q0 -77 -28 -144t-76 -117.5t-113 -79.5t-138 -29q-34 0 -65.5 6.5t-61.5 17.5l-106 106l-133 -134l-8 8l134 133l-86 87q-29 69 -29 146q0 76 28 143.5t76 118t112.5 79.5t138.5 29q75 0 139.5 -29.5t113.5 -80.5l113 114l8 -8zM254 370
q0 -67 9 -125l262 262q-8 49 -21 90t-30 70.5t-37 46t-42 16.5q-29 0 -55 -28.5t-45 -77t-30 -114t-11 -140.5zM536 370q0 66 -9 125l-262 -262q8 -49 21 -90t30 -70.5t37 -46t42 -16.5q29 0 55 28.5t45 77t30 114t11 140.5z" />
    <glyph glyph-name="Ugrave" unicode="&#xd9;" horiz-adv-x="705" 
d="M655 730h-84l53 -53v-491q0 -39 -21 -72.5t-57 -59t-84.5 -40t-103.5 -14.5q-24 0 -46 3l-221 221v506h-31v10h265v-10h-84l53 -53v-642l23 -23q10 -1 20 -1.5t21 -0.5q17 0 32.5 1.5t30.5 3.5v715h-31v10h265v-10zM457 805l-10 -10l-200 180l10 10h128l72 -180v0z" />
    <glyph glyph-name="Uacute" unicode="&#xda;" horiz-adv-x="705" 
d="M655 730h-84l53 -53v-491q0 -39 -21 -72.5t-57 -59t-84.5 -40t-103.5 -14.5q-24 0 -46 3l-221 221v506h-31v10h265v-10h-84l53 -53v-642l23 -23q10 -1 20 -1.5t21 -0.5q17 0 32.5 1.5t30.5 3.5v715h-31v10h265v-10zM247 805l72 180h128l10 -10l-200 -180l-10 10v0z" />
    <glyph glyph-name="Ucircumflex" unicode="&#xdb;" horiz-adv-x="705" 
d="M655 730h-84l53 -53v-491q0 -39 -21 -72.5t-57 -59t-84.5 -40t-103.5 -14.5q-24 0 -46 3l-221 221v506h-31v10h265v-10h-84l53 -53v-642l23 -23q10 -1 20 -1.5t21 -0.5q17 0 32.5 1.5t30.5 3.5v715h-31v10h265v-10zM514 805l-10 -10l-152 118l-151 -118l-10 10l102 180
h119l102 -180v0z" />
    <glyph glyph-name="Udieresis" unicode="&#xdc;" horiz-adv-x="705" 
d="M655 730h-84l53 -53v-491q0 -39 -21 -72.5t-57 -59t-84.5 -40t-103.5 -14.5q-24 0 -46 3l-221 221v506h-31v10h265v-10h-84l53 -53v-642l23 -23q10 -1 20 -1.5t21 -0.5q17 0 32.5 1.5t30.5 3.5v715h-31v10h265v-10zM494 925q0 -25 -17.5 -42.5t-42.5 -17.5
q-26 0 -43 17.5t-17 42.5t17 42.5t43 17.5q25 0 42.5 -17.5t17.5 -42.5zM330 925q0 -25 -17.5 -42.5t-42.5 -17.5t-42.5 17.5t-17.5 42.5t17.5 42.5t42.5 17.5t42.5 -17.5t17.5 -42.5z" />
    <glyph glyph-name="Yacute" unicode="&#xdd;" horiz-adv-x="655" 
d="M570 730l-157 -360l-1 -360h31v-10h-265v10h85l-54 54v283l-142 330l53 53h-110v10h287v-10h-31l146 -338l147 338h-92v10h178v-10h-75v0zM222 805l72 180h128l10 -10l-200 -180l-10 10v0z" />
    <glyph glyph-name="Thorn" unicode="&#xde;" horiz-adv-x="612" 
d="M344 495q49 0 92.5 -17.5t75.5 -46.5t51 -68t19 -81t-15.5 -78.5t-41.5 -62.5t-62 -41t-76 -15q-33 0 -63 11t-55 31v-117h31v-10h-265v10h84l-53 53v507h-31v10h265v-10h-84l53 -54v-64l34 34q2 2 12 5.5t29 3.5zM287 136q19 0 36 13t29.5 35.5t19.5 52.5t7 65
q0 31 -7 58t-19.5 48t-29 34t-35.5 15l-19 -19v-299q9 -3 18 -3z" />
    <glyph glyph-name="germandbls" unicode="&#xdf;" horiz-adv-x="767" 
d="M475 586q0 -23 -11 -38.5t-20 -30.5t-8.5 -31.5t24.5 -40.5l227 -227q21 -21 35.5 -42.5t14.5 -47.5q0 -29 -17 -53t-46.5 -42t-69.5 -28t-86 -10q-47 0 -90 10t-76 28t-53 43t-20 55q0 35 25 60t60 25l85 -85q0 -20 -8.5 -37.5t-23 -29t-33 -16.5t-38.5 0q31 -19 68 -29
t73 -13q24 4 39.5 19t15.5 35q0 26 -21 51.5t-42 46.5l-126 126q-23 23 -41 46t-18 49q0 23 12.5 42t31.5 35t41.5 30.5t41.5 30t31.5 32t12.5 37.5q0 25 -14.5 50.5t-40 46.5t-60.5 34t-75 13q-43 0 -80 -16t-64 -43l138 -138v-523h31v-10h-265v10h84l-53 54v477
q0 41 16.5 77.5t45 63.5t66.5 42.5t81 15.5q42 0 78.5 -14t63.5 -36t42.5 -49.5t15.5 -54.5z" />
    <glyph glyph-name="agrave" unicode="&#xe0;" horiz-adv-x="564" 
d="M524 10v-10h-182l-50 50q-14 -18 -45.5 -36.5t-76.5 -18.5q-27 0 -51.5 9t-43 25t-29.5 37.5t-11 47.5q0 25 10 45t27 36.5t40 29.5t49 24q41 17 91.5 32t94.5 33t74 41t30 57q0 21 -14.5 35t-37 22.5t-49 12t-49.5 3.5q-40 0 -81.5 -9t-76.5 -27q19 2 36.5 -3.5
t30.5 -17.5t20.5 -28t7.5 -35q0 -35 -25 -60t-60 -25l-85 85q0 30 21 54.5t54 41t74.5 25.5t83.5 9q35 0 69.5 -7t61.5 -21.5t44 -37.5t17 -56v-160v-203h31zM220 147q0 -17 4.5 -33.5t13 -28.5t21.5 -18.5t31 -3.5v219q-33 -23 -51.5 -55t-18.5 -80zM387 560l-10 -10
l-200 180l10 10h128l72 -180v0z" />
    <glyph glyph-name="aacute" unicode="&#xe1;" horiz-adv-x="564" 
d="M524 10v-10h-182l-50 50q-14 -18 -45.5 -36.5t-76.5 -18.5q-27 0 -51.5 9t-43 25t-29.5 37.5t-11 47.5q0 25 10 45t27 36.5t40 29.5t49 24q41 17 91.5 32t94.5 33t74 41t30 57q0 21 -14.5 35t-37 22.5t-49 12t-49.5 3.5q-40 0 -81.5 -9t-76.5 -27q19 2 36.5 -3.5
t30.5 -17.5t20.5 -28t7.5 -35q0 -35 -25 -60t-60 -25l-85 85q0 30 21 54.5t54 41t74.5 25.5t83.5 9q35 0 69.5 -7t61.5 -21.5t44 -37.5t17 -56v-160v-203h31zM220 147q0 -17 4.5 -33.5t13 -28.5t21.5 -18.5t31 -3.5v219q-33 -23 -51.5 -55t-18.5 -80zM177 560l72 180h128
l10 -10l-200 -180l-10 10v0z" />
    <glyph glyph-name="acircumflex" unicode="&#xe2;" horiz-adv-x="564" 
d="M524 10v-10h-182l-50 50q-14 -18 -45.5 -36.5t-76.5 -18.5q-27 0 -51.5 9t-43 25t-29.5 37.5t-11 47.5q0 25 10 45t27 36.5t40 29.5t49 24q41 17 91.5 32t94.5 33t74 41t30 57q0 21 -14.5 35t-37 22.5t-49 12t-49.5 3.5q-40 0 -81.5 -9t-76.5 -27q19 2 36.5 -3.5
t30.5 -17.5t20.5 -28t7.5 -35q0 -35 -25 -60t-60 -25l-85 85q0 30 21 54.5t54 41t74.5 25.5t83.5 9q35 0 69.5 -7t61.5 -21.5t44 -37.5t17 -56v-160v-203h31zM220 147q0 -17 4.5 -33.5t13 -28.5t21.5 -18.5t31 -3.5v219q-33 -23 -51.5 -55t-18.5 -80zM444 560l-10 -10
l-152 118l-151 -118l-10 10l102 180h119l102 -180v0z" />
    <glyph glyph-name="atilde" unicode="&#xe3;" horiz-adv-x="564" 
d="M524 10v-10h-182l-50 50q-14 -18 -45.5 -36.5t-76.5 -18.5q-27 0 -51.5 9t-43 25t-29.5 37.5t-11 47.5q0 25 10 45t27 36.5t40 29.5t49 24q41 17 91.5 32t94.5 33t74 41t30 57q0 21 -14.5 35t-37 22.5t-49 12t-49.5 3.5q-40 0 -81.5 -9t-76.5 -27q19 2 36.5 -3.5
t30.5 -17.5t20.5 -28t7.5 -35q0 -35 -25 -60t-60 -25l-85 85q0 30 21 54.5t54 41t74.5 25.5t83.5 9q35 0 69.5 -7t61.5 -21.5t44 -37.5t17 -56v-160v-203h31zM220 147q0 -17 4.5 -33.5t13 -28.5t21.5 -18.5t31 -3.5v219q-33 -23 -51.5 -55t-18.5 -80zM408 627q16 0 29 12
t16 29l10 -1q-8 -43 -37 -72t-69 -29q-30 0 -58 17.5t-52.5 39t-47 39t-42.5 17.5q-16 0 -29 -12t-16 -29l-10 2q7 43 36.5 71.5t68.5 28.5q31 0 58.5 -17.5t52.5 -39t47.5 -39t42.5 -17.5z" />
    <glyph glyph-name="adieresis" unicode="&#xe4;" horiz-adv-x="564" 
d="M524 10v-10h-182l-50 50q-14 -18 -45.5 -36.5t-76.5 -18.5q-27 0 -51.5 9t-43 25t-29.5 37.5t-11 47.5q0 25 10 45t27 36.5t40 29.5t49 24q41 17 91.5 32t94.5 33t74 41t30 57q0 21 -14.5 35t-37 22.5t-49 12t-49.5 3.5q-40 0 -81.5 -9t-76.5 -27q19 2 36.5 -3.5
t30.5 -17.5t20.5 -28t7.5 -35q0 -35 -25 -60t-60 -25l-85 85q0 30 21 54.5t54 41t74.5 25.5t83.5 9q35 0 69.5 -7t61.5 -21.5t44 -37.5t17 -56v-160v-203h31zM220 147q0 -17 4.5 -33.5t13 -28.5t21.5 -18.5t31 -3.5v219q-33 -23 -51.5 -55t-18.5 -80zM424 680
q0 -25 -17.5 -42.5t-42.5 -17.5q-26 0 -43 17.5t-17 42.5t17 42.5t43 17.5q25 0 42.5 -17.5t17.5 -42.5zM260 680q0 -25 -17.5 -42.5t-42.5 -17.5t-42.5 17.5t-17.5 42.5t17.5 42.5t42.5 17.5t42.5 -17.5t17.5 -42.5z" />
    <glyph glyph-name="aring" unicode="&#xe5;" horiz-adv-x="564" 
d="M524 10v-10h-182l-50 50q-14 -18 -45.5 -36.5t-76.5 -18.5q-27 0 -51.5 9t-43 25t-29.5 37.5t-11 47.5q0 25 10 45t27 36.5t40 29.5t49 24q41 17 91.5 32t94.5 33t74 41t30 57q0 21 -14.5 35t-37 22.5t-49 12t-49.5 3.5q-40 0 -81.5 -9t-76.5 -27q19 2 36.5 -3.5
t30.5 -17.5t20.5 -28t7.5 -35q0 -35 -25 -60t-60 -25l-85 85q0 30 21 54.5t54 41t74.5 25.5t83.5 9q35 0 69.5 -7t61.5 -21.5t44 -37.5t17 -56v-160v-203h31zM220 147q0 -17 4.5 -33.5t13 -28.5t21.5 -18.5t31 -3.5v219q-33 -23 -51.5 -55t-18.5 -80zM282 583q26 0 43.5 18
t17.5 44t-17.5 43.5t-43.5 17.5t-44 -17.5t-18 -43.5t18 -44t44 -18zM282 740q19 0 36.5 -7.5t30.5 -20.5t20.5 -30.5t7.5 -36.5q0 -20 -7.5 -37t-20.5 -30t-30.5 -20.5t-36.5 -7.5q-20 0 -37 7.5t-30 20.5t-20.5 30t-7.5 37q0 19 7.5 36.5t20.5 30.5t30 20.5t37 7.5z" />
    <glyph glyph-name="ccedilla" unicode="&#xe7;" horiz-adv-x="533" 
d="M338 365q0 19 8.5 36t22 28.5t31.5 16.5t38 2q-29 17 -65.5 27t-74.5 10q-14 0 -25.5 -19t-20.5 -51.5t-14 -76.5t-5 -93q0 -50 5 -93.5t14 -76t20.5 -51.5t25.5 -19q52 0 99 18t84 53l7 -7q-37 -35 -85.5 -54.5t-104.5 -19.5q-9 0 -17 0.5t-16 1.5l-32 -32q17 5 31 5
q19 0 36 -7t29.5 -18.5t20 -27.5t7.5 -34t-7.5 -34t-20 -27.5t-29.5 -18.5t-36 -7q-15 0 -30 4.5t-26.5 12.5t-19 18.5t-7.5 22.5q0 15 10.5 25.5t25.5 10.5l37 -36q0 -15 -10.5 -25t-24.5 -11q7 -5 15 -7l16 -4q14 4 24.5 25.5t10.5 50.5t-10.5 50.5t-25.5 25.5
q-24 -5 -41 -19l-6 8q10 10 24 24.5t26 26.5q-34 5 -65 18l-140 141q-17 42 -17 87q0 52 21 97.5t57.5 79.5t85 53.5t104.5 19.5q36 0 73.5 -9.5t68 -26.5t49.5 -41t19 -53q0 -35 -25 -60t-60 -25l-85 85v0z" />
    <glyph glyph-name="egrave" unicode="&#xe8;" horiz-adv-x="575" 
d="M298 5q52 0 99 18t84 53l7 -7q-37 -35 -85.5 -54.5t-104.5 -19.5q-58 0 -111 22l-140 141q-17 42 -17 87q0 52 21 97.5t57.5 79.5t85 53.5t104.5 19.5q52 0 96.5 -19t77 -50.5t50.5 -73.5t18 -87h-307v-20q0 -50 5 -93.5t14 -76t20.5 -51.5t25.5 -19zM298 485
q-12 0 -23 -16t-19.5 -44.5t-14.5 -67t-7 -82.5h103q0 42 -1.5 80t-5.5 67t-12 46t-20 17zM402 560l-10 -10l-200 180l10 10h128l72 -180v0z" />
    <glyph glyph-name="eacute" unicode="&#xe9;" horiz-adv-x="575" 
d="M298 5q52 0 99 18t84 53l7 -7q-37 -35 -85.5 -54.5t-104.5 -19.5q-58 0 -111 22l-140 141q-17 42 -17 87q0 52 21 97.5t57.5 79.5t85 53.5t104.5 19.5q52 0 96.5 -19t77 -50.5t50.5 -73.5t18 -87h-307v-20q0 -50 5 -93.5t14 -76t20.5 -51.5t25.5 -19zM298 485
q-12 0 -23 -16t-19.5 -44.5t-14.5 -67t-7 -82.5h103q0 42 -1.5 80t-5.5 67t-12 46t-20 17zM192 560l72 180h128l10 -10l-200 -180l-10 10v0z" />
    <glyph glyph-name="ecircumflex" unicode="&#xea;" horiz-adv-x="575" 
d="M298 5q52 0 99 18t84 53l7 -7q-37 -35 -85.5 -54.5t-104.5 -19.5q-58 0 -111 22l-140 141q-17 42 -17 87q0 52 21 97.5t57.5 79.5t85 53.5t104.5 19.5q52 0 96.5 -19t77 -50.5t50.5 -73.5t18 -87h-307v-20q0 -50 5 -93.5t14 -76t20.5 -51.5t25.5 -19zM298 485
q-12 0 -23 -16t-19.5 -44.5t-14.5 -67t-7 -82.5h103q0 42 -1.5 80t-5.5 67t-12 46t-20 17zM459 560l-10 -10l-152 118l-151 -118l-10 10l102 180h119l102 -180v0z" />
    <glyph glyph-name="edieresis" unicode="&#xeb;" horiz-adv-x="575" 
d="M298 5q52 0 99 18t84 53l7 -7q-37 -35 -85.5 -54.5t-104.5 -19.5q-58 0 -111 22l-140 141q-17 42 -17 87q0 52 21 97.5t57.5 79.5t85 53.5t104.5 19.5q52 0 96.5 -19t77 -50.5t50.5 -73.5t18 -87h-307v-20q0 -50 5 -93.5t14 -76t20.5 -51.5t25.5 -19zM298 485
q-12 0 -23 -16t-19.5 -44.5t-14.5 -67t-7 -82.5h103q0 42 -1.5 80t-5.5 67t-12 46t-20 17zM439 680q0 -25 -17.5 -42.5t-42.5 -17.5q-26 0 -43 17.5t-17 42.5t17 42.5t43 17.5q25 0 42.5 -17.5t17.5 -42.5zM275 680q0 -25 -17.5 -42.5t-42.5 -17.5t-42.5 17.5t-17.5 42.5
t17.5 42.5t42.5 17.5t42.5 -17.5t17.5 -42.5z" />
    <glyph glyph-name="igrave" unicode="&#xec;" horiz-adv-x="345" 
d="M305 485h-84l53 -54v-421h31v-10h-265v10h84l-53 54v421h-31v10h265v-10zM277 560l-10 -10l-200 180l10 10h128l72 -180v0z" />
    <glyph glyph-name="iacute" unicode="&#xed;" horiz-adv-x="345" 
d="M305 485h-84l53 -54v-421h31v-10h-265v10h84l-53 54v421h-31v10h265v-10zM67 560l72 180h128l10 -10l-200 -180l-10 10v0z" />
    <glyph glyph-name="icircumflex" unicode="&#xee;" horiz-adv-x="345" 
d="M305 485h-84l53 -54v-421h31v-10h-265v10h84l-53 54v421h-31v10h265v-10zM334 560l-10 -10l-152 118l-151 -118l-10 10l102 180h119l102 -180v0z" />
    <glyph glyph-name="idieresis" unicode="&#xef;" horiz-adv-x="345" 
d="M305 485h-84l53 -54v-421h31v-10h-265v10h84l-53 54v421h-31v10h265v-10zM314 680q0 -25 -17.5 -42.5t-42.5 -17.5q-26 0 -43 17.5t-17 42.5t17 42.5t43 17.5q25 0 42.5 -17.5t17.5 -42.5zM150 680q0 -25 -17.5 -42.5t-42.5 -17.5t-42.5 17.5t-17.5 42.5t17.5 42.5
t42.5 17.5t42.5 -17.5t17.5 -42.5z" />
    <glyph glyph-name="eth" unicode="&#xf0;" horiz-adv-x="596" 
d="M284 667q66 -41 118.5 -92t88.5 -106.5t55 -113t19 -110.5q0 -52 -21 -97.5t-57.5 -79.5t-85 -53.5t-103.5 -19.5q-58 0 -111 22l-140 141q-17 42 -17 87q0 52 21 97.5t57.5 79.5t85 53.5t104.5 19.5h8.5t8.5 -1q-18 45 -40.5 80.5t-46.5 64.5l-152 -78l-5 9l151 76
q-28 32 -53 53t-45 32l3 9q40 -13 76.5 -30t70.5 -37l130 66l4 -9zM298 5q13 0 24.5 19t20.5 51.5t14 76t5 93.5q0 49 -5 93t-14 76.5t-20.5 51.5t-24.5 19q-14 0 -25.5 -19t-20.5 -51.5t-14 -76.5t-5 -93q0 -50 5 -93.5t14 -76t20.5 -51.5t25.5 -19z" />
    <glyph glyph-name="ntilde" unicode="&#xf1;" 
d="M274 439q32 27 65.5 41.5t71.5 14.5q27 0 53 -7.5t47 -23t33.5 -40t12.5 -57.5v-357h31v-10h-265v10h84l-53 54v303q0 43 -11 64t-28 26q-11 -6 -20.5 -14t-20.5 -17v-416h31v-10h-265v10h84l-53 54v421h-31v10h178l56 -56v0zM440 627q16 0 29 12t16 29l10 -1
q-8 -43 -37 -72t-69 -29q-30 0 -58 17.5t-52.5 39t-47 39t-42.5 17.5q-16 0 -29 -12t-16 -29l-10 2q7 43 36.5 71.5t68.5 28.5q31 0 58.5 -17.5t52.5 -39t47.5 -39t42.5 -17.5z" />
    <glyph glyph-name="ograve" unicode="&#xf2;" horiz-adv-x="605" 
d="M308 495q55 0 104 -19.5t85 -53.5t57 -79.5t21 -97.5t-21 -97.5t-57 -79.5t-85 -53.5t-104 -19.5q-58 0 -111 22l-140 141q-17 42 -17 87q0 52 21 97.5t57.5 79.5t85 53.5t104.5 19.5zM308 5q13 0 24.5 19t20.5 51.5t14 76t5 93.5t-5 93.5t-14 76t-20.5 51.5t-24.5 19
q-14 0 -25.5 -19t-20.5 -51.5t-14 -76t-5 -93.5t5 -93.5t14 -76t20.5 -51.5t25.5 -19zM407 560l-10 -10l-200 180l10 10h128l72 -180v0z" />
    <glyph glyph-name="oacute" unicode="&#xf3;" horiz-adv-x="595" 
d="M298 495q55 0 104 -19.5t85 -53.5t57 -79.5t21 -97.5t-21 -97.5t-57 -79.5t-85 -53.5t-104 -19.5q-58 0 -111 22l-140 141q-17 42 -17 87q0 52 21 97.5t57.5 79.5t85 53.5t104.5 19.5zM298 5q13 0 24.5 19t20.5 51.5t14 76t5 93.5t-5 93.5t-14 76t-20.5 51.5t-24.5 19
q-14 0 -25.5 -19t-20.5 -51.5t-14 -76t-5 -93.5t5 -93.5t14 -76t20.5 -51.5t25.5 -19zM192 560l72 180h128l10 -10l-200 -180l-10 10v0z" />
    <glyph glyph-name="ocircumflex" unicode="&#xf4;" horiz-adv-x="595" 
d="M298 495q55 0 104 -19.5t85 -53.5t57 -79.5t21 -97.5t-21 -97.5t-57 -79.5t-85 -53.5t-104 -19.5q-58 0 -111 22l-140 141q-17 42 -17 87q0 52 21 97.5t57.5 79.5t85 53.5t104.5 19.5zM298 5q13 0 24.5 19t20.5 51.5t14 76t5 93.5t-5 93.5t-14 76t-20.5 51.5t-24.5 19
q-14 0 -25.5 -19t-20.5 -51.5t-14 -76t-5 -93.5t5 -93.5t14 -76t20.5 -51.5t25.5 -19zM459 560l-10 -10l-152 118l-151 -118l-10 10l102 180h119l102 -180v0z" />
    <glyph glyph-name="otilde" unicode="&#xf5;" horiz-adv-x="595" 
d="M298 495q55 0 104 -19.5t85 -53.5t57 -79.5t21 -97.5t-21 -97.5t-57 -79.5t-85 -53.5t-104 -19.5q-58 0 -111 22l-140 141q-17 42 -17 87q0 52 21 97.5t57.5 79.5t85 53.5t104.5 19.5zM298 5q13 0 24.5 19t20.5 51.5t14 76t5 93.5t-5 93.5t-14 76t-20.5 51.5t-24.5 19
q-14 0 -25.5 -19t-20.5 -51.5t-14 -76t-5 -93.5t5 -93.5t14 -76t20.5 -51.5t25.5 -19zM423 627q16 0 29 12t16 29l10 -1q-8 -43 -37 -72t-69 -29q-30 0 -58 17.5t-52.5 39t-47 39t-42.5 17.5q-16 0 -29 -12t-16 -29l-10 2q7 43 36.5 71.5t68.5 28.5q31 0 58.5 -17.5
t52.5 -39t47.5 -39t42.5 -17.5z" />
    <glyph glyph-name="odieresis" unicode="&#xf6;" horiz-adv-x="595" 
d="M298 495q55 0 104 -19.5t85 -53.5t57 -79.5t21 -97.5t-21 -97.5t-57 -79.5t-85 -53.5t-104 -19.5q-58 0 -111 22l-140 141q-17 42 -17 87q0 52 21 97.5t57.5 79.5t85 53.5t104.5 19.5zM298 5q13 0 24.5 19t20.5 51.5t14 76t5 93.5t-5 93.5t-14 76t-20.5 51.5t-24.5 19
q-14 0 -25.5 -19t-20.5 -51.5t-14 -76t-5 -93.5t5 -93.5t14 -76t20.5 -51.5t25.5 -19zM439 680q0 -25 -17.5 -42.5t-42.5 -17.5q-26 0 -43 17.5t-17 42.5t17 42.5t43 17.5q25 0 42.5 -17.5t17.5 -42.5zM275 680q0 -25 -17.5 -42.5t-42.5 -17.5t-42.5 17.5t-17.5 42.5
t17.5 42.5t42.5 17.5t42.5 -17.5t17.5 -42.5z" />
    <glyph glyph-name="divide" unicode="&#xf7;" horiz-adv-x="450" 
d="M35 271h380v-55h-380v55zM155 363q0 29 20.5 49.5t49.5 20.5t49.5 -20.5t20.5 -49.5t-20.5 -49.5t-49.5 -20.5zM155 124q0 29 20.5 49.5t49.5 20.5l70 -70q0 -29 -20.5 -49.5t-49.5 -20.5t-49.5 20.5t-20.5 49.5z" />
    <glyph glyph-name="oslash" unicode="&#xf8;" horiz-adv-x="595" 
d="M484 424q38 -34 59.5 -80t21.5 -99q0 -52 -21 -97.5t-57.5 -79.5t-85 -53.5t-103.5 -19.5q-58 0 -111 22l-55 55l-81 -81l-7 7l81 81l-78 79q-17 42 -17 87q0 52 21 97.5t57.5 79.5t85 53.5t104.5 19.5q51 0 97 -17t81 -47l68 67l7 -7zM233 245q0 -14 0.5 -28t1.5 -28
l124 125q-3 37 -9 68.5t-14 54t-17.5 35.5t-20.5 13q-14 0 -25.5 -19t-20.5 -51.5t-14 -76.5t-5 -93zM298 5q13 0 24.5 19t20.5 51.5t14 76t5 93.5q0 14 -0.5 28t-1.5 28l-124 -125q3 -37 9 -68.5t14 -54t18 -35.5t21 -13z" />
    <glyph glyph-name="ugrave" unicode="&#xf9;" 
d="M557 10h31v-10h-178l-56 56q-29 -29 -64 -45t-73 -16q-27 0 -53.5 7.5t-47 23t-33 40t-12.5 57.5v362h-31v10h265v-10h-84l53 -54v-308q0 -44 10 -64t26 -25q12 8 22.5 16.5t21.5 19.5v415h-31v10h265v-10h-85l54 -54v-421zM419 560l-10 -10l-200 180l10 10h128l72 -180
v0z" />
    <glyph glyph-name="uacute" unicode="&#xfa;" 
d="M557 10h31v-10h-178l-56 56q-29 -29 -64 -45t-73 -16q-27 0 -53.5 7.5t-47 23t-33 40t-12.5 57.5v362h-31v10h265v-10h-84l53 -54v-308q0 -44 10 -64t26 -25q12 8 22.5 16.5t21.5 19.5v415h-31v10h265v-10h-85l54 -54v-421zM209 560l72 180h128l10 -10l-200 -180l-10 10
v0z" />
    <glyph glyph-name="ucircumflex" unicode="&#xfb;" 
d="M557 10h31v-10h-178l-56 56q-29 -29 -64 -45t-73 -16q-27 0 -53.5 7.5t-47 23t-33 40t-12.5 57.5v362h-31v10h265v-10h-84l53 -54v-308q0 -44 10 -64t26 -25q12 8 22.5 16.5t21.5 19.5v415h-31v10h265v-10h-85l54 -54v-421zM476 560l-10 -10l-152 118l-151 -118l-10 10
l102 180h119l102 -180v0z" />
    <glyph glyph-name="udieresis" unicode="&#xfc;" 
d="M557 10h31v-10h-178l-56 56q-29 -29 -64 -45t-73 -16q-27 0 -53.5 7.5t-47 23t-33 40t-12.5 57.5v362h-31v10h265v-10h-84l53 -54v-308q0 -44 10 -64t26 -25q12 8 22.5 16.5t21.5 19.5v415h-31v10h265v-10h-85l54 -54v-421zM456 680q0 -25 -17.5 -42.5t-42.5 -17.5
q-26 0 -43 17.5t-17 42.5t17 42.5t43 17.5q25 0 42.5 -17.5t17.5 -42.5zM292 680q0 -25 -17.5 -42.5t-42.5 -17.5t-42.5 17.5t-17.5 42.5t17.5 42.5t42.5 17.5t42.5 -17.5t17.5 -42.5z" />
    <glyph glyph-name="yacute" unicode="&#xfd;" horiz-adv-x="570" 
d="M555 495v-10h-73l-194 -601q-51 -159 -165 -159q-30 0 -56.5 12.5t-47 33.5t-32 49t-11.5 59q0 35 25 60t60 25l85 -85q0 -35 -25 -60t-60 -25q-19 0 -35.5 8t-28.5 21q17 -39 51 -63.5t75 -24.5q31 0 56 12.5t44 33.5t32.5 48.5t23.5 57.5l36 113h-113l-139 431l54 54
h-111v10h250l109 -339l106 329h-94v10h178zM180 560l72 180h128l10 -10l-200 -180l-10 10v0z" />
    <glyph glyph-name="thorn" unicode="&#xfe;" horiz-adv-x="607" 
d="M344 495q49 0 92.5 -21t76 -57t51 -83t18.5 -99t-15.5 -96t-41.5 -76t-62 -50t-76 -18q-33 0 -63 13.5t-55 37.5v-281h31v-10h-265v10h84l-53 54v911h-31v10h265v-10h-84l53 -53v-225l34 34q2 2 12 5.5t29 3.5zM287 57q19 0 36 16t29.5 43.5t19.5 64.5t7 79q0 39 -7 73.5
t-19.5 61t-29 43t-35.5 19.5l-19 -19v-377q8 -4 18 -4z" />
    <glyph glyph-name="ydieresis" unicode="&#xff;" horiz-adv-x="570" 
d="M555 495v-10h-73l-194 -601q-51 -159 -165 -159q-30 0 -56.5 12.5t-47 33.5t-32 49t-11.5 59q0 35 25 60t60 25l85 -85q0 -35 -25 -60t-60 -25q-19 0 -35.5 8t-28.5 21q17 -39 51 -63.5t75 -24.5q31 0 56 12.5t44 33.5t32.5 48.5t23.5 57.5l36 113h-113l-139 431l54 54
h-111v10h250l109 -339l106 329h-94v10h178zM427 680q0 -25 -17.5 -42.5t-42.5 -17.5q-26 0 -43 17.5t-17 42.5t17 42.5t43 17.5q25 0 42.5 -17.5t17.5 -42.5zM263 680q0 -25 -17.5 -42.5t-42.5 -17.5t-42.5 17.5t-17.5 42.5t17.5 42.5t42.5 17.5t42.5 -17.5t17.5 -42.5z" />
    <glyph glyph-name="Amacron" unicode="&#x100;" horiz-adv-x="614" 
d="M493 10h111v-10h-287v10h34l-57 175h-144l-56 -175h94v-10h-178v10h74l235 730h10v0l218 -676zM154 195h137l-69 213zM154 985h340v-46h-340v46z" />
    <glyph glyph-name="amacron" unicode="&#x101;" horiz-adv-x="564" 
d="M524 10v-10h-182l-50 50q-14 -18 -45.5 -36.5t-76.5 -18.5q-27 0 -51.5 9t-43 25t-29.5 37.5t-11 47.5q0 25 10 45t27 36.5t40 29.5t49 24q41 17 91.5 32t94.5 33t74 41t30 57q0 21 -14.5 35t-37 22.5t-49 12t-49.5 3.5q-40 0 -81.5 -9t-76.5 -27q19 2 36.5 -3.5
t30.5 -17.5t20.5 -28t7.5 -35q0 -35 -25 -60t-60 -25l-85 85q0 30 21 54.5t54 41t74.5 25.5t83.5 9q35 0 69.5 -7t61.5 -21.5t44 -37.5t17 -56v-160v-203h31zM220 147q0 -17 4.5 -33.5t13 -28.5t21.5 -18.5t31 -3.5v219q-33 -23 -51.5 -55t-18.5 -80zM112 740h340v-46h-340
v46z" />
    <glyph glyph-name="Abreve" unicode="&#x102;" horiz-adv-x="614" 
d="M493 10h111v-10h-287v10h34l-57 175h-144l-56 -175h94v-10h-178v10h74l235 730h10v0l218 -676zM154 195h137l-69 213zM458 973q0 3 -0.5 6t-0.5 6h12q12 -24 12 -52t-12.5 -52.5t-33.5 -42.5t-49.5 -28.5t-61.5 -10.5t-61.5 10.5t-49.5 28.5t-33.5 42.5t-12.5 52.5t12 52
h13q-1 -4 -1 -12q0 -21 10.5 -39t29 -31.5t42.5 -21t51 -7.5t51.5 7.5t43 21t29 31.5t10.5 39z" />
    <glyph glyph-name="abreve" unicode="&#x103;" horiz-adv-x="564" 
d="M524 10v-10h-182l-50 50q-14 -18 -45.5 -36.5t-76.5 -18.5q-27 0 -51.5 9t-43 25t-29.5 37.5t-11 47.5q0 25 10 45t27 36.5t40 29.5t49 24q41 17 91.5 32t94.5 33t74 41t30 57q0 21 -14.5 35t-37 22.5t-49 12t-49.5 3.5q-40 0 -81.5 -9t-76.5 -27q19 2 36.5 -3.5
t30.5 -17.5t20.5 -28t7.5 -35q0 -35 -25 -60t-60 -25l-85 85q0 30 21 54.5t54 41t74.5 25.5t83.5 9q35 0 69.5 -7t61.5 -21.5t44 -37.5t17 -56v-160v-203h31zM220 147q0 -17 4.5 -33.5t13 -28.5t21.5 -18.5t31 -3.5v219q-33 -23 -51.5 -55t-18.5 -80zM416 728q0 3 -0.5 6
t-0.5 6h12q12 -24 12 -52t-12.5 -52.5t-33.5 -42.5t-49.5 -28.5t-61.5 -10.5t-61.5 10.5t-49.5 28.5t-33.5 42.5t-12.5 52.5t12 52h13q-1 -4 -1 -12q0 -21 10.5 -39t29 -31.5t42.5 -21t51 -7.5t51.5 7.5t43 21t29 31.5t10.5 39z" />
    <glyph glyph-name="Aogonek" unicode="&#x104;" horiz-adv-x="614" 
d="M604 10v-10h-85l-22 -22q-9 -9 -14.5 -22t-5.5 -27q0 -29 20.5 -49t49.5 -20t48 19l9 -8l-73 -73q-5 -1 -8.5 -1.5t-8.5 -0.5q-37 0 -63 26t-26 64q0 18 7 34.5t19 28.5l51 51h-186v10h35l-57 175h-144l-56 -175h94v-10h-178v10h73l236 730h10l218 -677l-54 -53h111z
M291 195l-69 213l-68 -213h137z" />
    <glyph glyph-name="aogonek" unicode="&#x105;" horiz-adv-x="564" 
d="M493 10h31v-10h-182l-50 50q-13 -16 -39.5 -32.5t-63.5 -21.5l-18 -18q-20 -18 -20 -49q0 -29 20 -49t49 -20q28 0 49 19l8 -8l-73 -73q-10 -2 -16 -2q-38 0 -64 26t-26 64q0 18 7 34.5t19 28.5l46 46q-27 0 -51.5 9t-43 25t-29.5 37.5t-11 47.5q0 25 10 45t27 36.5
t40 29.5t49 24q41 16 91.5 31t94.5 33t74 41.5t30 57.5q0 21 -15 35t-37 22.5t-48.5 12t-49.5 3.5q-40 0 -81.5 -9t-76.5 -27q19 2 36.5 -3.5t30.5 -17.5t20.5 -28t7.5 -35q0 -35 -25 -60t-60 -25l-85 85q0 30 21 54.5t54 41t74.5 25.5t83.5 9q35 0 69.5 -7t61.5 -21.5
t44 -37.5t17 -56v-160v-203zM289 282q-32 -23 -50.5 -55t-18.5 -80q0 -18 4.5 -34t13 -28t21.5 -18.5t30 -3.5v219z" />
    <glyph glyph-name="Cacute" unicode="&#x106;" horiz-adv-x="692" 
d="M395 10q68 0 130 26t111 76l7 -7q-48 -49 -112 -77t-136 -28q-34 0 -65.5 6.5t-61.5 17.5l-199 200q-29 69 -29 146q0 76 28 143.5t76 118t112.5 79.5t138.5 29q51 0 101 -15t89 -40.5t63 -60t24 -72.5q0 -23 -9 -43t-24 -35t-35 -23.5t-42 -8.5l-110 110q0 23 8.5 43
t23.5 35t35 23.5t43 8.5q27 0 50 -12q-37 35 -94.5 57.5t-122.5 22.5q-29 0 -55 -28.5t-45 -77t-30 -114t-11 -140.5t11 -140.5t30 -114t45 -77t55 -28.5zM281 805l72 180h128l10 -10l-200 -180l-10 10v0z" />
    <glyph glyph-name="cacute" unicode="&#x107;" horiz-adv-x="533" 
d="M298 5q52 0 99 18t84 53l7 -7q-37 -35 -85.5 -54.5t-104.5 -19.5q-58 0 -111 22l-140 141q-17 42 -17 87q0 52 21 97.5t57.5 79.5t85 53.5t104.5 19.5q36 0 73.5 -9.5t68 -26.5t49.5 -41t19 -53q0 -35 -25 -60t-60 -25l-85 85q0 19 8.5 36t22 28.5t31.5 17t38 1.5
q-29 17 -65.5 27t-74.5 10q-14 0 -25.5 -19t-20.5 -51.5t-14 -76t-5 -93.5t5 -93.5t14 -76t20.5 -51.5t25.5 -19zM171 560l72 180h128l10 -10l-200 -180l-10 10v0z" />
    <glyph glyph-name="Cdotaccent" unicode="&#x10a;" horiz-adv-x="692" 
d="M395 10q68 0 130 26t111 76l7 -7q-48 -49 -112 -77t-136 -28q-34 0 -65.5 6.5t-61.5 17.5l-199 200q-29 69 -29 146q0 76 28 143.5t76 118t112.5 79.5t138.5 29q51 0 101 -15t89 -40.5t63 -60t24 -72.5q0 -23 -9 -43t-24 -35t-35 -23.5t-42 -8.5l-110 110q0 23 8.5 43
t23.5 35t35 23.5t43 8.5q27 0 50 -12q-37 35 -94.5 57.5t-122.5 22.5q-29 0 -55 -28.5t-45 -77t-30 -114t-11 -140.5t11 -140.5t30 -114t45 -77t55 -28.5zM446 925q0 -25 -17.5 -42.5t-42.5 -17.5t-42.5 17.5t-17.5 42.5t17.5 42.5t42.5 17.5t42.5 -17.5t17.5 -42.5z" />
    <glyph glyph-name="cdotaccent" unicode="&#x10b;" horiz-adv-x="533" 
d="M298 5q52 0 99 18t84 53l7 -7q-37 -35 -85.5 -54.5t-104.5 -19.5q-58 0 -111 22l-140 141q-17 42 -17 87q0 52 21 97.5t57.5 79.5t85 53.5t104.5 19.5q36 0 73.5 -9.5t68 -26.5t49.5 -41t19 -53q0 -35 -25 -60t-60 -25l-85 85q0 19 8.5 36t22 28.5t31.5 17t38 1.5
q-29 17 -65.5 27t-74.5 10q-14 0 -25.5 -19t-20.5 -51.5t-14 -76t-5 -93.5t5 -93.5t14 -76t20.5 -51.5t25.5 -19zM336 680q0 -25 -17.5 -42.5t-42.5 -17.5t-42.5 17.5t-17.5 42.5t17.5 42.5t42.5 17.5t42.5 -17.5t17.5 -42.5z" />
    <glyph glyph-name="Ccaron" unicode="&#x10c;" horiz-adv-x="692" 
d="M395 10q68 0 130 26t111 76l7 -7q-48 -49 -112 -77t-136 -28q-34 0 -65.5 6.5t-61.5 17.5l-199 200q-29 69 -29 146q0 76 28 143.5t76 118t112.5 79.5t138.5 29q51 0 101 -15t89 -40.5t63 -60t24 -72.5q0 -23 -9 -43t-24 -35t-35 -23.5t-42 -8.5l-110 110q0 23 8.5 43
t23.5 35t35 23.5t43 8.5q27 0 50 -12q-37 35 -94.5 57.5t-122.5 22.5q-29 0 -55 -28.5t-45 -77t-30 -114t-11 -140.5t11 -140.5t30 -114t45 -77t55 -28.5zM225 975l10 10l151 -118l152 118l10 -10l-102 -180h-119l-102 180v0z" />
    <glyph glyph-name="ccaron" unicode="&#x10d;" horiz-adv-x="533" 
d="M298 5q52 0 99 18t84 53l7 -7q-37 -35 -85.5 -54.5t-104.5 -19.5q-58 0 -111 22l-140 141q-17 42 -17 87q0 52 21 97.5t57.5 79.5t85 53.5t104.5 19.5q36 0 73.5 -9.5t68 -26.5t49.5 -41t19 -53q0 -35 -25 -60t-60 -25l-85 85q0 19 8.5 36t22 28.5t31.5 17t38 1.5
q-29 17 -65.5 27t-74.5 10q-14 0 -25.5 -19t-20.5 -51.5t-14 -76t-5 -93.5t5 -93.5t14 -76t20.5 -51.5t25.5 -19zM115 730l10 10l151 -118l152 118l10 -10l-102 -180h-119l-102 180v0z" />
    <glyph glyph-name="Dcaron" unicode="&#x10e;" horiz-adv-x="749" 
d="M341 740q76 0 143 -29t117 -79.5t79 -118t29 -143.5q0 -77 -29 -144t-79 -117.5t-117 -79.5t-143 -29h-281v10h84l-53 54v666h-31v10h281zM294 14q37 9 73 37t64.5 74t46 107.5t17.5 137.5q0 72 -17.5 138t-51.5 117t-77 78t-91 27h-17l53 -53v-663zM133 975l10 10
l151 -118l152 118l10 -10l-102 -180h-119l-102 180v0z" />
    <glyph glyph-name="dcaron" unicode="&#x10f;" horiz-adv-x="680" 
d="M582 730h-84l53 -53v-667h31v-10h-182l-49 50q-25 -26 -55.5 -40.5t-65.5 -14.5q-41 0 -76.5 18t-61.5 50t-41.5 76t-15.5 96t19 99t51 83t75.5 57t92.5 21q19 0 29 -3.5t12 -5.5l34 -34v278h-31v10h265v-10zM330 57q10 0 18 4v377l-19 19q-19 -3 -35.5 -19.5t-29 -43
t-19.5 -61t-7 -73.5q0 -42 7 -79t19.5 -64.5t29.5 -43.5t36 -16zM640 740l110 -8l-121 -227l-28 2z" />
    <glyph glyph-name="dcroat" unicode="&#x111;" horiz-adv-x="622" 
d="M582 595v-10h-395v10h395zM582 730h-84l53 -53v-667h31v-10h-182l-49 50q-25 -26 -55.5 -40.5t-65.5 -14.5q-41 0 -76.5 18t-61.5 50t-41.5 76t-15.5 96t19 99t51 83t75.5 57t92.5 21q19 0 29 -3.5t12 -5.5l34 -34v278h-31v10h265v-10zM330 57q10 0 18 4v377l-19 19
q-19 -3 -35.5 -19.5t-29 -43t-19.5 -61t-7 -73.5q0 -42 7 -79t19.5 -64.5t29.5 -43.5t36 -16z" />
    <glyph glyph-name="Emacron" unicode="&#x112;" horiz-adv-x="570" 
d="M349 10l180 180h11v-190h-480v10h84l-53 54v666h-31v10h480v-190h-11l-180 180h-108l53 -53v-302l126 126h10v-262h-10l-126 126v-355h55v0zM125 985h340v-46h-340v46z" />
    <glyph glyph-name="emacron" unicode="&#x113;" horiz-adv-x="575" 
d="M298 5q52 0 99 18t84 53l7 -7q-37 -35 -85.5 -54.5t-104.5 -19.5q-58 0 -111 22l-140 141q-17 42 -17 87q0 52 21 97.5t57.5 79.5t85 53.5t104.5 19.5q52 0 96.5 -19t77 -50.5t50.5 -73.5t18 -87h-307v-20q0 -50 5 -93.5t14 -76t20.5 -51.5t25.5 -19zM298 485
q-12 0 -23 -16t-19.5 -44.5t-14.5 -67t-7 -82.5h103q0 42 -1.5 80t-5.5 67t-12 46t-20 17zM127 740h340v-46h-340v46z" />
    <glyph glyph-name="Ebreve" unicode="&#x114;" horiz-adv-x="570" 
d="M349 10l180 180h11v-190h-480v10h84l-53 54v666h-31v10h480v-190h-11l-180 180h-108l53 -53v-302l126 126h10v-262h-10l-126 126v-355h55v0zM419 973q0 3 -0.5 6t-0.5 6h12q12 -24 12 -52t-12.5 -52.5t-33.5 -42.5t-49.5 -28.5t-61.5 -10.5t-61.5 10.5t-49.5 28.5
t-33.5 42.5t-12.5 52.5t12 52h13q-1 -4 -1 -12q0 -21 10.5 -39t29 -31.5t42.5 -21t51 -7.5t51.5 7.5t43 21t29 31.5t10.5 39z" />
    <glyph glyph-name="ebreve" unicode="&#x115;" horiz-adv-x="575" 
d="M298 5q52 0 99 18t84 53l7 -7q-37 -35 -85.5 -54.5t-104.5 -19.5q-58 0 -111 22l-140 141q-17 42 -17 87q0 52 21 97.5t57.5 79.5t85 53.5t104.5 19.5q52 0 96.5 -19t77 -50.5t50.5 -73.5t18 -87h-307v-20q0 -50 5 -93.5t14 -76t20.5 -51.5t25.5 -19zM298 485
q-12 0 -23 -16t-19.5 -44.5t-14.5 -67t-7 -82.5h103q0 42 -1.5 80t-5.5 67t-12 46t-20 17zM431 728q0 3 -0.5 6t-0.5 6h12q12 -24 12 -52t-12.5 -52.5t-33.5 -42.5t-49.5 -28.5t-61.5 -10.5t-61.5 10.5t-49.5 28.5t-33.5 42.5t-12.5 52.5t12 52h13q-1 -4 -1 -12
q0 -21 10.5 -39t29 -31.5t42.5 -21t51 -7.5t51.5 7.5t43 21t29 31.5t10.5 39z" />
    <glyph glyph-name="Edotaccent" unicode="&#x116;" horiz-adv-x="570" 
d="M349 10l180 180h11v-190h-480v10h84l-53 54v666h-31v10h480v-190h-11l-180 180h-108l53 -53v-302l126 126h10v-262h-10l-126 126v-355h55v0zM345 925q0 -25 -17.5 -42.5t-42.5 -17.5t-42.5 17.5t-17.5 42.5t17.5 42.5t42.5 17.5t42.5 -17.5t17.5 -42.5z" />
    <glyph glyph-name="edotaccent" unicode="&#x117;" horiz-adv-x="575" 
d="M298 5q52 0 99 18t84 53l7 -7q-37 -35 -85.5 -54.5t-104.5 -19.5q-58 0 -111 22l-140 141q-17 42 -17 87q0 52 21 97.5t57.5 79.5t85 53.5t104.5 19.5q52 0 96.5 -19t77 -50.5t50.5 -73.5t18 -87h-307v-20q0 -50 5 -93.5t14 -76t20.5 -51.5t25.5 -19zM298 485
q-12 0 -23 -16t-19.5 -44.5t-14.5 -67t-7 -82.5h103q0 42 -1.5 80t-5.5 67t-12 46t-20 17zM357 680q0 -25 -17.5 -42.5t-42.5 -17.5t-42.5 17.5t-17.5 42.5t17.5 42.5t42.5 17.5t42.5 -17.5t17.5 -42.5z" />
    <glyph glyph-name="Eogonek" unicode="&#x118;" horiz-adv-x="570" 
d="M60 740h480v-190h-11l-180 180h-108l53 -53v-302l126 126h10v-262h-10l-126 126v-355h55l180 180h11v-190h-235l-22 -22q-9 -9 -14.5 -22t-5.5 -27q0 -29 20 -49t49 -20q28 0 49 19l8 -8l-73 -73q-4 -1 -7.5 -1.5t-8.5 -0.5q-37 0 -63.5 26t-26.5 64t27 63l51 51h-228v10
h84l-53 54v666h-31v10z" />
    <glyph glyph-name="eogonek" unicode="&#x119;" horiz-adv-x="575" 
d="M233 265v-20q0 -50 5 -93.5t14 -76t20.5 -51.5t25.5 -19q52 0 99 18t84 53l7 -7q-37 -35 -85.5 -54.5t-104.5 -19.5h-9l-16 -17q-21 -19 -21 -49q0 -29 20.5 -49t49.5 -20t48 19l9 -8l-73 -73q-10 -2 -17 -2q-37 0 -63 26t-26 64q0 18 7 34.5t19 28.5l47 47q-46 5 -86 21
l-140 141q-17 42 -17 87q0 52 21 97.5t57.5 79.5t85 53.5t104.5 19.5q52 0 96.5 -19t76.5 -50.5t50 -73.5t18 -87h-306zM298 485q-12 0 -23 -16t-19.5 -44.5t-14.5 -67t-7 -82.5h103q0 42 -1.5 80t-6 67t-12 46t-19.5 17z" />
    <glyph glyph-name="Ecaron" unicode="&#x11a;" horiz-adv-x="570" 
d="M349 10l180 180h11v-190h-480v10h84l-53 54v666h-31v10h480v-190h-11l-180 180h-108l53 -53v-302l126 126h10v-262h-10l-126 126v-355h55v0zM124 975l10 10l151 -118l152 118l10 -10l-102 -180h-119l-102 180v0z" />
    <glyph glyph-name="ecaron" unicode="&#x11b;" horiz-adv-x="575" 
d="M298 5q52 0 99 18t84 53l7 -7q-37 -35 -85.5 -54.5t-104.5 -19.5q-58 0 -111 22l-140 141q-17 42 -17 87q0 52 21 97.5t57.5 79.5t85 53.5t104.5 19.5q52 0 96.5 -19t77 -50.5t50.5 -73.5t18 -87h-307v-20q0 -50 5 -93.5t14 -76t20.5 -51.5t25.5 -19zM298 485
q-12 0 -23 -16t-19.5 -44.5t-14.5 -67t-7 -82.5h103q0 42 -1.5 80t-5.5 67t-12 46t-20 17zM136 730l10 10l151 -118l152 118l10 -10l-102 -180h-119l-102 180v0z" />
    <glyph glyph-name="Gbreve" unicode="&#x11e;" horiz-adv-x="694" 
d="M674 276h-85l54 -53v-118q-48 -49 -112 -77t-136 -28q-34 0 -65.5 6.5t-61.5 17.5l-199 200q-29 69 -29 146q0 76 28 143.5t76 118t112.5 79.5t138.5 29q51 0 101 -15t89 -40.5t63 -60t24 -72.5q0 -23 -9 -43t-24 -35t-35 -23.5t-42 -8.5l-110 110q0 23 8.5 43t23.5 35
t35 23.5t43 8.5q27 0 50 -12q-40 38 -98.5 59t-118.5 21q-29 0 -55 -28.5t-45 -77t-30 -114t-11 -140.5t11 -140.5t30 -114t45 -77t55 -28.5q64 0 118 22l-73 73v171h-31v10h265v-10zM521 973q0 3 -0.5 6t-0.5 6h12q12 -24 12 -52t-12.5 -52.5t-33.5 -42.5t-49.5 -28.5
t-61.5 -10.5t-61.5 10.5t-49.5 28.5t-33.5 42.5t-12.5 52.5t12 52h13q-1 -4 -1 -12q0 -21 10.5 -39t29 -31.5t42.5 -21t51 -7.5t51.5 7.5t43 21t29 31.5t10.5 39z" />
    <glyph glyph-name="gbreve" unicode="&#x11f;" horiz-adv-x="581" 
d="M569 566l-113 -113q38 -23 61 -56t23 -71q0 -35 -19.5 -65.5t-53.5 -53.5t-79.5 -36.5t-97.5 -13.5q-40 0 -76 8t-67 22l-11 -11q-11 -23 7 -42.5t58 -19.5h187q42 0 75.5 -14t57 -37.5t36 -55.5t12.5 -68q0 -42 -18.5 -80.5t-52 -68.5t-81.5 -47.5t-108 -17.5
q-47 0 -90 9.5t-78 26.5t-60 39.5t-37 49.5l94 94l7 -7q-17 -37 -11.5 -73.5t28 -65t61 -46t88.5 -17.5q41 0 73.5 11.5t55.5 29.5t35 40t12 43q0 17 -7.5 32t-24 26.5t-44 18t-66.5 6.5h-136q-35 0 -66 12.5t-53.5 33.5t-35 49.5t-10.5 60.5l129 128h-85q-23 21 -35.5 46.5
t-12.5 53.5q0 35 19.5 65.5t53.5 53.5t79.5 36.5t97.5 13.5q39 0 75 -7.5t66 -21.5v110h138v-10zM290 167q10 0 18.5 12.5t15 34t10 50.5t3.5 62t-3.5 62t-10 50.5t-15 34t-18.5 12.5t-18.5 -12.5t-15 -34t-10 -50.5t-3.5 -62t3.5 -62t10 -50.5t15 -34t18.5 -12.5zM424 728
q0 3 -0.5 6t-0.5 6h12q12 -24 12 -52t-12.5 -52.5t-33.5 -42.5t-49.5 -28.5t-61.5 -10.5t-61.5 10.5t-49.5 28.5t-33.5 42.5t-12.5 52.5t12 52h13q-1 -4 -1 -12q0 -21 10.5 -39t29 -31.5t42.5 -21t51 -7.5t51.5 7.5t43 21t29 31.5t10.5 39z" />
    <glyph glyph-name="Gdotaccent" unicode="&#x120;" horiz-adv-x="694" 
d="M674 276h-85l54 -53v-118q-48 -49 -112 -77t-136 -28q-34 0 -65.5 6.5t-61.5 17.5l-199 200q-29 69 -29 146q0 76 28 143.5t76 118t112.5 79.5t138.5 29q51 0 101 -15t89 -40.5t63 -60t24 -72.5q0 -23 -9 -43t-24 -35t-35 -23.5t-42 -8.5l-110 110q0 23 8.5 43t23.5 35
t35 23.5t43 8.5q27 0 50 -12q-40 38 -98.5 59t-118.5 21q-29 0 -55 -28.5t-45 -77t-30 -114t-11 -140.5t11 -140.5t30 -114t45 -77t55 -28.5q64 0 118 22l-73 73v171h-31v10h265v-10zM447 925q0 -25 -17.5 -42.5t-42.5 -17.5t-42.5 17.5t-17.5 42.5t17.5 42.5t42.5 17.5
t42.5 -17.5t17.5 -42.5z" />
    <glyph glyph-name="gdotaccent" unicode="&#x121;" horiz-adv-x="581" 
d="M569 566l-113 -113q38 -23 61 -56t23 -71q0 -35 -19.5 -65.5t-53.5 -53.5t-79.5 -36.5t-97.5 -13.5q-40 0 -76 8t-67 22l-11 -11q-11 -23 7 -42.5t58 -19.5h187q42 0 75.5 -14t57 -37.5t36 -55.5t12.5 -68q0 -42 -18.5 -80.5t-52 -68.5t-81.5 -47.5t-108 -17.5
q-47 0 -90 9.5t-78 26.5t-60 39.5t-37 49.5l94 94l7 -7q-17 -37 -11.5 -73.5t28 -65t61 -46t88.5 -17.5q41 0 73.5 11.5t55.5 29.5t35 40t12 43q0 17 -7.5 32t-24 26.5t-44 18t-66.5 6.5h-136q-35 0 -66 12.5t-53.5 33.5t-35 49.5t-10.5 60.5l129 128h-85q-23 21 -35.5 46.5
t-12.5 53.5q0 35 19.5 65.5t53.5 53.5t79.5 36.5t97.5 13.5q39 0 75 -7.5t66 -21.5v110h138v-10zM290 167q10 0 18.5 12.5t15 34t10 50.5t3.5 62t-3.5 62t-10 50.5t-15 34t-18.5 12.5t-18.5 -12.5t-15 -34t-10 -50.5t-3.5 -62t3.5 -62t10 -50.5t15 -34t18.5 -12.5zM350 680
q0 -25 -17.5 -42.5t-42.5 -17.5t-42.5 17.5t-17.5 42.5t17.5 42.5t42.5 17.5t42.5 -17.5t17.5 -42.5z" />
    <glyph glyph-name="Gcedilla" unicode="&#x122;" horiz-adv-x="694" 
d="M272 -235l51 180h128l10 -10l-179 -180zM674 276h-85l54 -53v-118q-48 -49 -112 -77t-136 -28q-34 0 -65.5 6.5t-61.5 17.5l-199 200q-29 69 -29 146q0 76 28 143.5t76 118t112.5 79.5t138.5 29q51 0 101 -15t89 -40.5t63 -60t24 -72.5q0 -23 -9 -43t-24 -35t-35 -23.5
t-42 -8.5l-110 110q0 23 8.5 43t23.5 35t35 23.5t43 8.5q27 0 50 -12q-40 38 -98.5 59t-118.5 21q-29 0 -55 -28.5t-45 -77t-30 -114t-11 -140.5t11 -140.5t30 -114t45 -77t55 -28.5q64 0 118 22l-73 73v171h-31v10h265v-10z" />
    <glyph glyph-name="gcedilla" unicode="&#x123;" horiz-adv-x="581" 
d="M411 786l-51 -180h-128l-10 10l179 180zM569 576h-138v-110q-30 14 -66 21.5t-75 7.5q-52 0 -97.5 -13.5t-79.5 -36.5t-53.5 -53.5t-19.5 -65.5q0 -28 12.5 -53.5t35.5 -46.5h85l-129 -128q-2 -32 10.5 -60.5t35 -49.5t53.5 -33.5t66 -12.5h136q39 0 66.5 -6.5t44 -18
t24 -26.5t7.5 -32q0 -21 -12 -43t-35 -40t-55.5 -29.5t-73.5 -11.5q-50 0 -88.5 17.5t-61 46t-28 65t11.5 73.5l-7 7l-94 -94q12 -27 37 -49.5t60 -39.5t78 -26.5t90 -9.5q60 0 108 17.5t81.5 47.5t52 68.5t18.5 80.5q0 36 -12.5 68t-36 55.5t-57 37.5t-75.5 14h-187
q-40 0 -58 19.5t-7 42.5l11 11q31 -14 67 -22t76 -8q52 0 97.5 13.5t79.5 36.5t53.5 53.5t19.5 65.5q0 38 -23 71t-61 56l113 113v10zM290 167q-10 0 -18.5 12.5t-15 34t-10 50.5t-3.5 62t3.5 62t10 50.5t15 34t18.5 12.5t18.5 -12.5t15 -34t10 -50.5t3.5 -62t-3.5 -62
t-10 -50.5t-15 -34t-18.5 -12.5z" />
    <glyph glyph-name="Hbar" unicode="&#x126;" horiz-adv-x="710" 
d="M650 740v-10h-84l53 -53v-82h31v-10h-31v-575h31v-10h-265v10h85l-54 54v301h-122v-355h31v-10h-265v10h85l-54 54v521h-31v10h31v135h-31v10h265v-10h-84l53 -53v-82h122v135h-31v10h265zM416 375v210h-122v-210h122z" />
    <glyph glyph-name="hbar" unicode="&#x127;" 
d="M435 595v-10h-395v10h395zM588 10v-10h-265v10h84l-53 54v303q0 43 -11 64t-28 26q-11 -6 -20.5 -14t-20.5 -17v-416h31v-10h-265v10h84l-53 54v666h-31v10h265v-10h-84l53 -53v-238q32 27 65.5 41.5t71.5 14.5q27 0 53 -7.5t47 -23t33.5 -40t12.5 -57.5v-357h31z" />
    <glyph glyph-name="Imacron" unicode="&#x12a;" horiz-adv-x="385" 
d="M325 740v-10h-84l53 -53v-667h31v-10h-265v10h84l-53 54v666h-31v10h265v0zM22 985h340v-46h-340v46z" />
    <glyph glyph-name="imacron" unicode="&#x12b;" horiz-adv-x="345" 
d="M305 485h-84l53 -54v-421h31v-10h-265v10h84l-53 54v421h-31v10h265v-10zM2 740h340v-46h-340v46z" />
    <glyph glyph-name="Ibreve" unicode="&#x12c;" horiz-adv-x="385" 
d="M325 740v-10h-84l53 -53v-667h31v-10h-265v10h84l-53 54v666h-31v10h265v0zM326 973q0 3 -0.5 6t-0.5 6h12q12 -24 12 -52t-12.5 -52.5t-33.5 -42.5t-49.5 -28.5t-61.5 -10.5t-61.5 10.5t-49.5 28.5t-33.5 42.5t-12.5 52.5t12 52h13q-1 -4 -1 -12q0 -21 10.5 -39
t29 -31.5t42.5 -21t51 -7.5t51.5 7.5t43 21t29 31.5t10.5 39z" />
    <glyph glyph-name="ibreve" unicode="&#x12d;" horiz-adv-x="345" 
d="M305 485h-84l53 -54v-421h31v-10h-265v10h84l-53 54v421h-31v10h265v-10zM306 728q0 3 -0.5 6t-0.5 6h12q12 -24 12 -52t-12.5 -52.5t-33.5 -42.5t-49.5 -28.5t-61.5 -10.5t-61.5 10.5t-49.5 28.5t-33.5 42.5t-12.5 52.5t12 52h13q-1 -4 -1 -12q0 -21 10.5 -39t29 -31.5
t42.5 -21t51 -7.5t51.5 7.5t43 21t29 31.5t10.5 39z" />
    <glyph glyph-name="Iogonek" unicode="&#x12e;" horiz-adv-x="385" 
d="M60 740h265v-10h-84l53 -54v-666h31v-10h-128l-21 -22q-21 -19 -21 -49q0 -29 20.5 -49t49.5 -20t48 19l9 -8l-73 -73q-10 -2 -16 -2q-38 0 -64 26t-26 64q0 18 7 34.5t19 28.5l51 51h-120v10h84l-53 53v667h-31v10z" />
    <glyph glyph-name="iogonek" unicode="&#x12f;" horiz-adv-x="345" 
d="M258 586q0 -18 -7 -33.5t-18.5 -27t-27 -18t-32.5 -6.5l-85 85q0 35 25 60t60 25q17 0 32.5 -6.5t27 -18t18.5 -27t7 -33.5zM40 495h265v-10h-84l53 -53v-422h31v-10h-128l-21 -21q-21 -21 -21 -50t20.5 -49t49.5 -20q30 0 48 20l9 -9l-73 -73q-10 -2 -16 -2
q-38 0 -64 26t-26 64q0 19 7 35t19 28l51 51h-120v10h84l-53 54v421h-31v10z" />
    <glyph glyph-name="dotlessi" unicode="&#x131;" horiz-adv-x="345" 
d="M305 485h-84l53 -54v-421h31v-10h-265v10h84l-53 54v421h-31v10h265v-10z" />
    <glyph glyph-name="Kcedilla" unicode="&#x136;" horiz-adv-x="723" 
d="M713 730l-266 -266l235 -454h31v-10h-255l-162 313l-2 -2v-301h31v-10h-265v10h84l-53 54v666h-31v10h265v-10h-84l53 -53v-352l229 229v186h190v-10zM262 -235l51 180h128l10 -10l-179 -180z" />
    <glyph glyph-name="kcedilla" unicode="&#x137;" horiz-adv-x="593" 
d="M184 -235l51 180h128l10 -10l-179 -180zM550 10h28v-10h-84h-145l-75 164v-154h31v-10h-265v10h84l-53 54v666h-31v10h265v-10h-84l53 -53v-459l143 143v134h138v-10l-152 -151z" />
    <glyph glyph-name="Lacute" unicode="&#x139;" horiz-adv-x="550" 
d="M529 190h11v-190h-480v10h84l-53 54v666h-31v10h265v-10h-84l53 -53v-667h55l180 180v0zM170 805l72 180h128l10 -10l-200 -180l-10 10v0z" />
    <glyph glyph-name="lacute" unicode="&#x13a;" horiz-adv-x="345" 
d="M305 740v-10h-84l53 -53v-667h31v-10h-265v10h84l-53 54v666h-31v10h265v0zM67 805l72 180h128l10 -10l-200 -180l-10 10v0z" />
    <glyph glyph-name="Lcedilla" unicode="&#x13b;" horiz-adv-x="550" 
d="M192 -235l51 180h128l10 -10l-179 -180zM529 190h11v-190h-480v10h84l-53 54v666h-31v10h265v-10h-84l53 -53v-667h55z" />
    <glyph glyph-name="lcedilla" unicode="&#x13c;" horiz-adv-x="345" 
d="M64 -235l51 180h128l10 -10l-179 -180zM305 740v-10h-84l53 -53v-667h31v-10h-265v10h84l-53 54v666h-31v10h265z" />
    <glyph glyph-name="Lcaron" unicode="&#x13d;" horiz-adv-x="550" 
d="M529 190h11v-190h-480v10h84l-53 54v666h-31v10h265v-10h-84l53 -53v-667h55l180 180v0zM383 740l110 -8l-121 -227l-28 2z" />
    <glyph glyph-name="lcaron" unicode="&#x13e;" horiz-adv-x="345" 
d="M305 740v-10h-84l53 -53v-667h31v-10h-265v10h84l-53 54v666h-31v10h265v0zM363 740l110 -8l-121 -227l-28 2z" />
    <glyph glyph-name="Ldot" unicode="&#x13f;" horiz-adv-x="550" 
d="M529 190h11v-190h-480v10h84l-53 54v666h-31v10h265v-10h-84l53 -53v-667h55l180 180v0zM437 480q35 0 60 -25t25 -60t-25 -60t-60 -25l-85 85q0 35 25 60t60 25z" />
    <glyph glyph-name="ldot" unicode="&#x140;" horiz-adv-x="494" 
d="M305 740v-10h-84l53 -53v-667h31v-10h-265v10h84l-53 54v666h-31v10h265v0zM409 480q35 0 60 -25t25 -60t-25 -60t-60 -25l-85 85q0 35 25 60t60 25z" />
    <glyph glyph-name="Lslash" unicode="&#x141;" horiz-adv-x="550" 
d="M529 190h11v-190h-480v10h85l-54 54v197l-88 -88l-7 7l95 96v454h-31v10h265v-10h-84l53 -53v-198l149 149l8 -7l-157 -156v-455h55l180 180v0z" />
    <glyph glyph-name="lslash" unicode="&#x142;" horiz-adv-x="345" 
d="M274 465v-455h31v-10h-265v10h85l-54 54v197l-88 -88l-7 7l95 96v454h-31v10h265v-10h-84l53 -53v-198l88 88l7 -7l-95 -95v0z" />
    <glyph glyph-name="Nacute" unicode="&#x143;" horiz-adv-x="617" 
d="M607 730h-84v-720h61v-10h-273l-207 706v-696h84v-10h-178v10h84v720h-61v10h273l207 -706v696h-84v10h178v-10v0zM203 805l72 180h128l10 -10l-200 -180l-10 10v0z" />
    <glyph glyph-name="nacute" unicode="&#x144;" 
d="M274 439q32 27 65.5 41.5t71.5 14.5q27 0 53 -7.5t47 -23t33.5 -40t12.5 -57.5v-357h31v-10h-265v10h84l-53 54v303q0 43 -11 64t-28 26q-11 -6 -20.5 -14t-20.5 -17v-416h31v-10h-265v10h84l-53 54v421h-31v10h178l56 -56v0zM209 560l72 180h128l10 -10l-200 -180
l-10 10v0z" />
    <glyph glyph-name="Ncedilla" unicode="&#x145;" horiz-adv-x="617" 
d="M242 -235l51 180h128l10 -10l-179 -180zM607 730h-84v-720h61v-10h-273l-207 706v-696h84v-10h-178v10h84v720h-61v10h273l207 -706v696h-84v10h178v-10z" />
    <glyph glyph-name="ncedilla" unicode="&#x146;" 
d="M184 -235l51 180h128l10 -10l-179 -180zM274 439q32 27 65.5 41.5t71.5 14.5q27 0 53 -7.5t47 -23t33.5 -40t12.5 -57.5v-357h31v-10h-265v10h84l-53 54v303q0 43 -11 64t-28 26q-11 -6 -20.5 -14t-20.5 -17v-416h31v-10h-265v10h84l-53 54v421h-31v10h178z" />
    <glyph glyph-name="Ncaron" unicode="&#x147;" horiz-adv-x="617" 
d="M607 730h-84v-720h61v-10h-273l-207 706v-696h84v-10h-178v10h84v720h-61v10h273l207 -706v696h-84v10h178v-10v0zM147 975l10 10l151 -118l152 118l10 -10l-102 -180h-119l-102 180v0z" />
    <glyph glyph-name="ncaron" unicode="&#x148;" 
d="M274 439q32 27 65.5 41.5t71.5 14.5q27 0 53 -7.5t47 -23t33.5 -40t12.5 -57.5v-357h31v-10h-265v10h84l-53 54v303q0 43 -11 64t-28 26q-11 -6 -20.5 -14t-20.5 -17v-416h31v-10h-265v10h84l-53 54v421h-31v10h178l56 -56v0zM153 730l10 10l151 -118l152 118l10 -10
l-102 -180h-119l-102 180v0z" />
    <glyph glyph-name="Omacron" unicode="&#x14c;" horiz-adv-x="790" 
d="M395 740q73 0 138 -29t113 -79.5t76 -118t28 -143.5q0 -77 -28 -144t-76 -117.5t-113 -79.5t-138 -29q-34 0 -65.5 6.5t-61.5 17.5l-199 200q-29 69 -29 146q0 76 28 143.5t76 118t112.5 79.5t138.5 29zM395 10q29 0 55 28.5t45 77t30 114t11 140.5t-11 140.5t-30 114
t-45 77t-55 28.5t-55 -28.5t-45 -77t-30 -114t-11 -140.5t11 -140.5t30 -114t45 -77t55 -28.5zM225 985h340v-46h-340v46z" />
    <glyph glyph-name="omacron" unicode="&#x14d;" horiz-adv-x="595" 
d="M298 495q55 0 104 -19.5t85 -53.5t57 -79.5t21 -97.5t-21 -97.5t-57 -79.5t-85 -53.5t-104 -19.5q-58 0 -111 22l-140 141q-17 42 -17 87q0 52 21 97.5t57.5 79.5t85 53.5t104.5 19.5zM298 5q13 0 24.5 19t20.5 51.5t14 76t5 93.5t-5 93.5t-14 76t-20.5 51.5t-24.5 19
q-14 0 -25.5 -19t-20.5 -51.5t-14 -76t-5 -93.5t5 -93.5t14 -76t20.5 -51.5t25.5 -19zM127 740h340v-46h-340v46z" />
    <glyph glyph-name="Obreve" unicode="&#x14e;" horiz-adv-x="790" 
d="M395 740q73 0 138 -29t113 -79.5t76 -118t28 -143.5q0 -77 -28 -144t-76 -117.5t-113 -79.5t-138 -29q-34 0 -65.5 6.5t-61.5 17.5l-199 200q-29 69 -29 146q0 76 28 143.5t76 118t112.5 79.5t138.5 29zM395 10q29 0 55 28.5t45 77t30 114t11 140.5t-11 140.5t-30 114
t-45 77t-55 28.5t-55 -28.5t-45 -77t-30 -114t-11 -140.5t11 -140.5t30 -114t45 -77t55 -28.5zM529 973q0 3 -0.5 6t-0.5 6h12q12 -24 12 -52t-12.5 -52.5t-33.5 -42.5t-49.5 -28.5t-61.5 -10.5t-61.5 10.5t-49.5 28.5t-33.5 42.5t-12.5 52.5t12 52h13q-1 -4 -1 -12
q0 -21 10.5 -39t29 -31.5t42.5 -21t51 -7.5t51.5 7.5t43 21t29 31.5t10.5 39z" />
    <glyph glyph-name="obreve" unicode="&#x14f;" horiz-adv-x="595" 
d="M298 495q55 0 104 -19.5t85 -53.5t57 -79.5t21 -97.5t-21 -97.5t-57 -79.5t-85 -53.5t-104 -19.5q-58 0 -111 22l-140 141q-17 42 -17 87q0 52 21 97.5t57.5 79.5t85 53.5t104.5 19.5zM298 5q13 0 24.5 19t20.5 51.5t14 76t5 93.5t-5 93.5t-14 76t-20.5 51.5t-24.5 19
q-14 0 -25.5 -19t-20.5 -51.5t-14 -76t-5 -93.5t5 -93.5t14 -76t20.5 -51.5t25.5 -19zM431 728q0 3 -0.5 6t-0.5 6h12q12 -24 12 -52t-12.5 -52.5t-33.5 -42.5t-49.5 -28.5t-61.5 -10.5t-61.5 10.5t-49.5 28.5t-33.5 42.5t-12.5 52.5t12 52h13q-1 -4 -1 -12q0 -21 10.5 -39
t29 -31.5t42.5 -21t51 -7.5t51.5 7.5t43 21t29 31.5t10.5 39z" />
    <glyph glyph-name="Ohungarumlaut" unicode="&#x150;" horiz-adv-x="790" 
d="M395 740q73 0 138 -29t113 -79.5t76 -118t28 -143.5q0 -77 -28 -144t-76 -117.5t-113 -79.5t-138 -29q-34 0 -65.5 6.5t-61.5 17.5l-199 200q-29 69 -29 146q0 76 28 143.5t76 118t112.5 79.5t138.5 29zM395 10q29 0 55 28.5t45 77t30 114t11 140.5t-11 140.5t-30 114
t-45 77t-55 28.5t-55 -28.5t-45 -77t-30 -114t-11 -140.5t11 -140.5t30 -114t45 -77t55 -28.5zM199 805l72 180h128l10 -10l-200 -180l-10 10v0zM381 805l72 180h128l10 -10l-200 -180l-10 10v0z" />
    <glyph glyph-name="ohungarumlaut" unicode="&#x151;" horiz-adv-x="595" 
d="M298 495q55 0 104 -19.5t85 -53.5t57 -79.5t21 -97.5t-21 -97.5t-57 -79.5t-85 -53.5t-104 -19.5q-58 0 -111 22l-140 141q-17 42 -17 87q0 52 21 97.5t57.5 79.5t85 53.5t104.5 19.5zM298 5q13 0 24.5 19t20.5 51.5t14 76t5 93.5t-5 93.5t-14 76t-20.5 51.5t-24.5 19
q-14 0 -25.5 -19t-20.5 -51.5t-14 -76t-5 -93.5t5 -93.5t14 -76t20.5 -51.5t25.5 -19zM101 560l72 180h128l10 -10l-200 -180l-10 10v0zM283 560l72 180h128l10 -10l-200 -180l-10 10v0z" />
    <glyph glyph-name="Racute" unicode="&#x154;" horiz-adv-x="710" 
d="M700 10v-10h-254l-152 292v-282h31v-10h-265v10h84l-53 54v666h-31v10h396q44 0 83 -15.5t68 -42t45.5 -62.5t16.5 -77q0 -36 -13.5 -68.5t-37 -58t-56 -43t-69.5 -23.5l176 -340h31zM241 730l53 -53v-320h30q25 0 48.5 14.5t42 40t29.5 59t11 72.5t-11 73t-29.5 59.5
t-42 40t-48.5 14.5h-83zM250 805l72 180h128l10 -10l-200 -180l-10 10v0z" />
    <glyph glyph-name="racute" unicode="&#x155;" horiz-adv-x="500" 
d="M398 514q16 0 31.5 -5.5t28 -16.5t20 -27.5t7.5 -38.5q0 -17 -6.5 -32.5t-18 -27t-27 -18.5t-33.5 -7l-85 85q0 29 17 52q-16 -12 -30.5 -26t-27.5 -26v-416h31v-10h-265v10h84l-53 54v421h-31v10h178l56 -56q13 13 27 26t29.5 24t32.5 18t35 7zM145 560l72 180h128
l10 -10l-200 -180l-10 10v0z" />
    <glyph glyph-name="Rcedilla" unicode="&#x156;" horiz-adv-x="710" 
d="M255 -235l51 180h128l10 -10l-179 -180zM700 10v-10h-254l-152 292v-282h31v-10h-265v10h84l-53 54v666h-31v10h396q44 0 83 -15.5t68 -42t45.5 -62.5t16.5 -77q0 -36 -13.5 -68.5t-37 -58t-56 -43t-69.5 -23.5l176 -340h31zM241 730l53 -53v-320h30q25 0 48.5 14.5
t42 40t29.5 59t11 72.5t-11 73t-29.5 59.5t-42 40t-48.5 14.5h-83z" />
    <glyph glyph-name="rcedilla" unicode="&#x157;" horiz-adv-x="500" 
d="M64 -235l51 180h128l10 -10l-179 -180zM398 514q16 0 31.5 -5.5t28 -16.5t20 -27.5t7.5 -38.5q0 -17 -6.5 -32.5t-18 -27t-27 -18.5t-33.5 -7l-85 85q0 29 17 52q-16 -12 -30.5 -26t-27.5 -26v-416h31v-10h-265v10h84l-53 54v421h-31v10h178l56 -56q13 13 27 26t29.5 24
t32.5 18t35 7z" />
    <glyph glyph-name="Rcaron" unicode="&#x158;" horiz-adv-x="710" 
d="M700 10v-10h-254l-152 292v-282h31v-10h-265v10h84l-53 54v666h-31v10h396q44 0 83 -15.5t68 -42t45.5 -62.5t16.5 -77q0 -36 -13.5 -68.5t-37 -58t-56 -43t-69.5 -23.5l176 -340h31zM241 730l53 -53v-320h30q25 0 48.5 14.5t42 40t29.5 59t11 72.5t-11 73t-29.5 59.5
t-42 40t-48.5 14.5h-83zM194 975l10 10l151 -118l152 118l10 -10l-102 -180h-119l-102 180v0z" />
    <glyph glyph-name="rcaron" unicode="&#x159;" horiz-adv-x="500" 
d="M398 514q16 0 31.5 -5.5t28 -16.5t20 -27.5t7.5 -38.5q0 -17 -6.5 -32.5t-18 -27t-27 -18.5t-33.5 -7l-85 85q0 29 17 52q-16 -12 -30.5 -26t-27.5 -26v-416h31v-10h-265v10h84l-53 54v421h-31v10h178l56 -56q13 13 27 26t29.5 24t32.5 18t35 7zM89 730l10 10l151 -118
l152 118l10 -10l-102 -180h-119l-102 180v0z" />
    <glyph glyph-name="Sacute" unicode="&#x15a;" horiz-adv-x="643" 
d="M613 197q0 -42 -22 -78t-59.5 -62.5t-88.5 -41.5t-109 -15q-60 0 -115 15t-97 41.5t-67 63.5t-25 81q0 23 8.5 43t23.5 35t35 23.5t43 8.5l110 -110q0 -23 -8.5 -43t-23.5 -35t-35 -23.5t-43 -8.5q-40 0 -70 25q20 -26 48.5 -45.5t62 -32.5t69.5 -20t70 -8
q44 0 73.5 23.5t29.5 57.5q0 19 -9 38.5t-22.5 38t-30 36.5t-31.5 33l-191 191q-34 34 -60.5 68.5t-26.5 72.5q0 44 28.5 76t72.5 53t97 31.5t103 10.5h241v-190h-11l-136 136q-23 23 -47.5 33.5t-46.5 10.5q-30 0 -51.5 -15.5t-28.5 -41.5t4.5 -59.5t46.5 -69.5l215 -214
q31 -32 52.5 -64t21.5 -69zM216 805l72 180h128l10 -10l-200 -180l-10 10v0z" />
    <glyph glyph-name="sacute" unicode="&#x15b;" horiz-adv-x="523" 
d="M475 357h-10l-17 17l-83 83q-15 15 -30.5 21.5t-29.5 6.5q-22 0 -36.5 -13.5t-14.5 -36.5q0 -14 7.5 -31t25.5 -36l151 -150q21 -21 35.5 -42.5t14.5 -47.5q0 -29 -17 -53t-46.5 -42t-69.5 -28t-86 -10q-47 0 -90 10t-76 28t-53 43t-20 55q0 35 25 60t60 25l85 -85
q0 -20 -8.5 -37.5t-23 -29t-33 -16.5t-38.5 0q31 -19 68 -29t73 -13q24 4 39.5 19t15.5 35q0 26 -21 51.5t-42 46.5l-126 126q-23 23 -41 46t-18 49q0 30 20 51.5t51 36t68.5 21.5t72.5 7h218v-138zM156 560l72 180h128l10 -10l-200 -180l-10 10v0z" />
    <glyph glyph-name="Scedilla" unicode="&#x15e;" horiz-adv-x="643" 
d="M539 330q31 -32 52.5 -64t21.5 -69q0 -42 -22 -78t-59.5 -62.5t-88.5 -41.5t-109 -15h-18q-7 -7 -15 -14.5t-16 -15.5q17 5 31 5q39 0 66.5 -25.5t27.5 -61.5t-27.5 -61.5t-66.5 -25.5q-15 0 -29.5 4.5t-26.5 12.5t-19.5 18.5t-7.5 22.5q0 15 10.5 25.5t26.5 10.5l36 -36
q0 -15 -10 -25t-25 -11q8 -5 15.5 -7t15.5 -4q15 4 25 25.5t10 50.5t-10 50.5t-25 25.5q-11 -2 -22 -6.5t-19 -12.5l-7 8q10 10 23.5 23t24.5 25q-55 4 -104 20t-86.5 42.5t-59.5 61.5t-22 76q0 23 8.5 43t23.5 35t35 23.5t43 8.5l110 -110q0 -23 -8.5 -43t-23.5 -35
t-35 -23.5t-43 -8.5q-40 0 -70 25q20 -26 48.5 -45.5t62 -32.5t69.5 -20t70 -8q44 0 73.5 23.5t29.5 57.5q0 19 -9 38.5t-22.5 38t-30 36.5t-31.5 33l-191 190q-34 35 -61 69.5t-27 72.5q0 44 28.5 76t73 53t97.5 31.5t103 10.5h241v-190h-11l-136 136q-23 23 -47.5 33.5
t-46.5 10.5q-30 0 -51.5 -15.5t-28.5 -41.5t4.5 -59.5t46.5 -69.5z" />
    <glyph glyph-name="scedilla" unicode="&#x15f;" horiz-adv-x="523" 
d="M438 218q21 -21 35.5 -43t14.5 -47q0 -29 -17 -53t-46.5 -42t-69.5 -28t-86 -10h-16l-30 -30q17 5 31 5q19 0 36 -7t29.5 -18.5t20 -27.5t7.5 -34t-7.5 -34t-20 -27.5t-29.5 -18.5t-36 -7q-15 0 -30 4.5t-26.5 12.5t-19 18.5t-7.5 22.5q0 15 10.5 25.5t25.5 10.5l37 -36
q0 -15 -10.5 -25t-24.5 -11q7 -5 15 -7l16 -4q14 4 24.5 25.5t10.5 50.5t-10.5 50.5t-25.5 25.5q-24 -5 -41 -19l-6 8l48 48q-42 3 -80.5 14t-67 28.5t-45.5 41t-17 51.5q0 35 25 60t60 25l85 -85q0 -20 -8.5 -37.5t-23 -29t-33 -16.5t-38.5 0q31 -19 68 -29t73 -13
q24 4 39.5 19t15.5 35q0 13 -6 26t-15.5 25.5t-20.5 24t-21 22.5l-126 126q-23 23 -41.5 46t-18.5 49q0 30 20 51.5t51.5 36t69 21.5t72.5 7h218v-138h-10l-17 17l-83 83q-15 15 -30.5 21.5t-29.5 6.5q-22 0 -36.5 -13.5t-14.5 -36.5q0 -14 7.5 -31t25.5 -36z" />
    <glyph glyph-name="Scaron" unicode="&#x160;" horiz-adv-x="643" 
d="M613 197q0 -42 -22 -78t-59.5 -62.5t-88.5 -41.5t-109 -15q-60 0 -115 15t-97 41.5t-67 63.5t-25 81q0 23 8.5 43t23.5 35t35 23.5t43 8.5l110 -110q0 -23 -8.5 -43t-23.5 -35t-35 -23.5t-43 -8.5q-40 0 -70 25q20 -26 48.5 -45.5t62 -32.5t69.5 -20t70 -8
q44 0 73.5 23.5t29.5 57.5q0 19 -9 38.5t-22.5 38t-30 36.5t-31.5 33l-191 191q-34 34 -60.5 68.5t-26.5 72.5q0 44 28.5 76t72.5 53t97 31.5t103 10.5h241v-190h-11l-136 136q-23 23 -47.5 33.5t-46.5 10.5q-30 0 -51.5 -15.5t-28.5 -41.5t4.5 -59.5t46.5 -69.5l215 -214
q31 -32 52.5 -64t21.5 -69zM160 975l10 10l151 -118l152 118l10 -10l-102 -180h-119l-102 180v0z" />
    <glyph glyph-name="scaron" unicode="&#x161;" horiz-adv-x="523" 
d="M475 357h-10l-17 17l-83 83q-15 15 -30.5 21.5t-29.5 6.5q-22 0 -36.5 -13.5t-14.5 -36.5q0 -14 7.5 -31t25.5 -36l151 -150q21 -21 35.5 -42.5t14.5 -47.5q0 -29 -17 -53t-46.5 -42t-69.5 -28t-86 -10q-47 0 -90 10t-76 28t-53 43t-20 55q0 35 25 60t60 25l85 -85
q0 -20 -8.5 -37.5t-23 -29t-33 -16.5t-38.5 0q31 -19 68 -29t73 -13q24 4 39.5 19t15.5 35q0 26 -21 51.5t-42 46.5l-126 126q-23 23 -41 46t-18 49q0 30 20 51.5t51 36t68.5 21.5t72.5 7h218v-138zM100 730l10 10l151 -118l152 118l10 -10l-102 -180h-119l-102 180v0z" />
    <glyph glyph-name="Tcommaaccent" unicode="&#x162;" horiz-adv-x="714" 
d="M242 -235l51 180h128l10 -10l-179 -180zM704 740v-190h-10l-182 182l2 -2h-109l54 -53v-667h31v-10h-266v10h85l-54 54v666h-55l2 2l-182 -182h-10v190h694z" />
    <glyph glyph-name="tcommaaccent" unicode="&#x163;" horiz-adv-x="364" 
d="M84 -235l51 180h128l10 -10l-179 -180zM349 33q-21 -12 -57.5 -25t-87.5 -13q-28 0 -52 8t-42 21.5t-28.5 31.5t-10.5 39v390h-31v10h31l193 153h10v-153h56v-10h-109l53 -54v-323q0 -12 2 -25.5t6.5 -24.5t13 -18t20.5 -7q14 0 28 9z" />
    <glyph glyph-name="Tcaron" unicode="&#x164;" horiz-adv-x="714" 
d="M704 740v-190h-10l-182 182l2 -2h-109l54 -53v-667h31v-10h-266v10h85l-54 54v666h-55l2 2l-182 -182h-10v190h694v0zM196 975l10 10l151 -118l152 118l10 -10l-102 -180h-119l-102 180v0z" />
    <glyph glyph-name="tcaron" unicode="&#x165;" horiz-adv-x="364" 
d="M349 33q-21 -12 -57.5 -25t-87.5 -13q-28 0 -52 8t-42 21.5t-28.5 31.5t-10.5 39v390h-31v10h31l193 153h10v-153h56v-10h-109l53 -54v-323q0 -12 2 -25.5t6.5 -24.5t13 -18t20.5 -7q14 0 28 9zM363 740l110 -8l-121 -227l-28 2z" />
    <glyph glyph-name="Umacron" unicode="&#x16a;" horiz-adv-x="705" 
d="M655 730h-84l53 -53v-491q0 -39 -21 -72.5t-57 -59t-84.5 -40t-103.5 -14.5q-24 0 -46 3l-221 221v506h-31v10h265v-10h-84l53 -53v-642l23 -23q10 -1 20 -1.5t21 -0.5q17 0 32.5 1.5t30.5 3.5v715h-31v10h265v-10zM182 985h340v-46h-340v46z" />
    <glyph glyph-name="umacron" unicode="&#x16b;" 
d="M557 10h31v-10h-178l-56 56q-29 -29 -64 -45t-73 -16q-27 0 -53.5 7.5t-47 23t-33 40t-12.5 57.5v362h-31v10h265v-10h-84l53 -54v-308q0 -44 10 -64t26 -25q12 8 22.5 16.5t21.5 19.5v415h-31v10h265v-10h-85l54 -54v-421zM144 740h340v-46h-340v46z" />
    <glyph glyph-name="Ubreve" unicode="&#x16c;" horiz-adv-x="705" 
d="M655 730h-84l53 -53v-491q0 -39 -21 -72.5t-57 -59t-84.5 -40t-103.5 -14.5q-24 0 -46 3l-221 221v506h-31v10h265v-10h-84l53 -53v-642l23 -23q10 -1 20 -1.5t21 -0.5q17 0 32.5 1.5t30.5 3.5v715h-31v10h265v-10zM486 973q0 3 -0.5 6t-0.5 6h12q12 -24 12 -52
t-12.5 -52.5t-33.5 -42.5t-49.5 -28.5t-61.5 -10.5t-61.5 10.5t-49.5 28.5t-33.5 42.5t-12.5 52.5t12 52h13q-1 -4 -1 -12q0 -21 10.5 -39t29 -31.5t42.5 -21t51 -7.5t51.5 7.5t43 21t29 31.5t10.5 39z" />
    <glyph glyph-name="ubreve" unicode="&#x16d;" 
d="M557 10h31v-10h-178l-56 56q-29 -29 -64 -45t-73 -16q-27 0 -53.5 7.5t-47 23t-33 40t-12.5 57.5v362h-31v10h265v-10h-84l53 -54v-308q0 -44 10 -64t26 -25q12 8 22.5 16.5t21.5 19.5v415h-31v10h265v-10h-85l54 -54v-421zM448 728q0 3 -0.5 6t-0.5 6h12q12 -24 12 -52
t-12.5 -52.5t-33.5 -42.5t-49.5 -28.5t-61.5 -10.5t-61.5 10.5t-49.5 28.5t-33.5 42.5t-12.5 52.5t12 52h13q-1 -4 -1 -12q0 -21 10.5 -39t29 -31.5t42.5 -21t51 -7.5t51.5 7.5t43 21t29 31.5t10.5 39z" />
    <glyph glyph-name="Uring" unicode="&#x16e;" horiz-adv-x="705" 
d="M655 730h-84l53 -53v-491q0 -39 -21 -72.5t-57 -59t-84.5 -40t-103.5 -14.5q-24 0 -46 3l-221 221v506h-31v10h265v-10h-84l53 -53v-642l23 -23q10 -1 20 -1.5t21 -0.5q17 0 32.5 1.5t30.5 3.5v715h-31v10h265v-10zM352 828q26 0 43.5 18t17.5 44t-17.5 43.5t-43.5 17.5
t-44 -17.5t-18 -43.5t18 -44t44 -18zM352 985q19 0 36.5 -7.5t30.5 -20.5t20.5 -30.5t7.5 -36.5q0 -20 -7.5 -37t-20.5 -30t-30.5 -20.5t-36.5 -7.5q-20 0 -37 7.5t-30 20.5t-20.5 30t-7.5 37q0 19 7.5 36.5t20.5 30.5t30 20.5t37 7.5z" />
    <glyph glyph-name="uring" unicode="&#x16f;" 
d="M557 10h31v-10h-178l-56 56q-29 -29 -64 -45t-73 -16q-27 0 -53.5 7.5t-47 23t-33 40t-12.5 57.5v362h-31v10h265v-10h-84l53 -54v-308q0 -44 10 -64t26 -25q12 8 22.5 16.5t21.5 19.5v415h-31v10h265v-10h-85l54 -54v-421zM314 583q26 0 43.5 18t17.5 44t-17.5 43.5
t-43.5 17.5t-44 -17.5t-18 -43.5t18 -44t44 -18zM314 740q19 0 36.5 -7.5t30.5 -20.5t20.5 -30.5t7.5 -36.5q0 -20 -7.5 -37t-20.5 -30t-30.5 -20.5t-36.5 -7.5q-20 0 -37 7.5t-30 20.5t-20.5 30t-7.5 37q0 19 7.5 36.5t20.5 30.5t30 20.5t37 7.5z" />
    <glyph glyph-name="Uhungarumlaut" unicode="&#x170;" horiz-adv-x="705" 
d="M655 730h-84l53 -53v-491q0 -39 -21 -72.5t-57 -59t-84.5 -40t-103.5 -14.5q-24 0 -46 3l-221 221v506h-31v10h265v-10h-84l53 -53v-642l23 -23q10 -1 20 -1.5t21 -0.5q17 0 32.5 1.5t30.5 3.5v715h-31v10h265v-10zM156 805l72 180h128l10 -10l-200 -180l-10 10v0z
M338 805l72 180h128l10 -10l-200 -180l-10 10v0z" />
    <glyph glyph-name="uhungarumlaut" unicode="&#x171;" 
d="M557 10h31v-10h-178l-56 56q-29 -29 -64 -45t-73 -16q-27 0 -53.5 7.5t-47 23t-33 40t-12.5 57.5v362h-31v10h265v-10h-84l53 -54v-308q0 -44 10 -64t26 -25q12 8 22.5 16.5t21.5 19.5v415h-31v10h265v-10h-85l54 -54v-421zM118 560l72 180h128l10 -10l-200 -180l-10 10
v0zM300 560l72 180h128l10 -10l-200 -180l-10 10v0z" />
    <glyph glyph-name="Uogonek" unicode="&#x172;" horiz-adv-x="706" 
d="M390 740h265v-10h-84l53 -54v-490q0 -38 -20.5 -71.5t-55.5 -58.5t-83 -40t-102 -16l-22 -22q-20 -18 -20 -49q0 -29 20 -49t49 -20q28 0 49 19l8 -8l-73 -73q-10 -2 -16 -2q-38 0 -64 26t-26 64q0 18 7 34.5t19 28.5l51 51q-8 1 -16.5 1t-16.5 2l-221 221v506h-31v10
h265v-10h-84l53 -54v-641l23 -23q10 -1 20 -1.5t21 -0.5q17 0 32.5 1.5t30.5 3.5v715h-31v10z" />
    <glyph glyph-name="uogonek" unicode="&#x173;" 
d="M323 495h265v-10h-85l54 -54v-421h31v-10h-178l-56 56q-52 -52 -119 -60l-18 -18q-9 -9 -14.5 -22t-5.5 -27q0 -29 20 -49t49 -20q28 0 49 19l8 -8l-73 -73q-4 -1 -7.5 -1.5t-8.5 -0.5q-37 0 -63.5 26t-26.5 64t27 63l46 46q-27 0 -53.5 7.5t-47 23t-33 40t-12.5 57.5
v362h-31v10h265v-10h-84l53 -54v-308q0 -44 10 -64t26 -25q12 8 22.5 16.5t21.5 19.5v415h-31v10z" />
    <glyph glyph-name="Wcircumflex" unicode="&#x174;" horiz-adv-x="947" 
d="M759 740h178v-10h-73l-235 -730h-11l-161 502l-162 -502h-10l-218 677l53 53h-110v10h287v-10h-34l128 -399l60 187l-51 159l54 53h-111v10h288v-10h-34l128 -399l128 399h-94v10v0zM635 805l-10 -10l-152 118l-151 -118l-10 10l102 180h119l102 -180v0z" />
    <glyph glyph-name="wcircumflex" unicode="&#x175;" horiz-adv-x="906" 
d="M713 495h178v-10h-74l-156 -485h-123l-102 316l-102 -316h-123l-139 431l53 54h-110v10h250l109 -339l57 176l-32 99l53 54h-110v10h250l109 -339l106 329h-94v10v0zM615 560l-10 -10l-152 118l-151 -118l-10 10l102 180h119l102 -180v0z" />
    <glyph glyph-name="Ycircumflex" unicode="&#x176;" horiz-adv-x="655" 
d="M570 730l-157 -360l-1 -360h31v-10h-265v10h85l-54 54v283l-142 330l53 53h-110v10h287v-10h-31l146 -338l147 338h-92v10h178v-10h-75v0zM489 805l-10 -10l-152 118l-151 -118l-10 10l102 180h119l102 -180v0z" />
    <glyph glyph-name="ycircumflex" unicode="&#x177;" horiz-adv-x="570" 
d="M555 495v-10h-73l-194 -601q-51 -159 -165 -159q-30 0 -56.5 12.5t-47 33.5t-32 49t-11.5 59q0 35 25 60t60 25l85 -85q0 -35 -25 -60t-60 -25q-19 0 -35.5 8t-28.5 21q17 -39 51 -63.5t75 -24.5q31 0 56 12.5t44 33.5t32.5 48.5t23.5 57.5l36 113h-113l-139 431l54 54
h-111v10h250l109 -339l106 329h-94v10h178zM447 560l-10 -10l-152 118l-151 -118l-10 10l102 180h119l102 -180v0z" />
    <glyph glyph-name="Ydieresis" unicode="&#x178;" horiz-adv-x="655" 
d="M570 730l-157 -360l-1 -360h31v-10h-265v10h85l-54 54v283l-142 330l53 53h-110v10h287v-10h-31l146 -338l147 338h-92v10h178v-10h-75v0zM469 925q0 -25 -17.5 -42.5t-42.5 -17.5q-26 0 -43 17.5t-17 42.5t17 42.5t43 17.5q25 0 42.5 -17.5t17.5 -42.5zM305 925
q0 -25 -17.5 -42.5t-42.5 -17.5t-42.5 17.5t-17.5 42.5t17.5 42.5t42.5 17.5t42.5 -17.5t17.5 -42.5z" />
    <glyph glyph-name="Zacute" unicode="&#x179;" horiz-adv-x="664" 
d="M654 740v-10h-110l53 -53l-334 -667h138l180 180h10v-190h-581v10h110l-53 54l334 666h-138l-180 -180h-10v190h581v0zM227 805l72 180h128l10 -10l-200 -180l-10 10v0z" />
    <glyph glyph-name="zacute" unicode="&#x17a;" horiz-adv-x="551" 
d="M536 495v-10h-110l53 -54l-211 -421h69l128 128h10v-138h-460v10h110l-53 54l211 421h-69l-128 -128h-10v138h460v0zM170 560l72 180h128l10 -10l-200 -180l-10 10v0z" />
    <glyph glyph-name="Zdotaccent" unicode="&#x17b;" horiz-adv-x="664" 
d="M654 740v-10h-110l53 -53l-334 -667h138l180 180h10v-190h-581v10h110l-53 54l334 666h-138l-180 -180h-10v190h581v0zM392 925q0 -25 -17.5 -42.5t-42.5 -17.5t-42.5 17.5t-17.5 42.5t17.5 42.5t42.5 17.5t42.5 -17.5t17.5 -42.5z" />
    <glyph glyph-name="zdotaccent" unicode="&#x17c;" horiz-adv-x="551" 
d="M536 495v-10h-110l53 -54l-211 -421h69l128 128h10v-138h-460v10h110l-53 54l211 421h-69l-128 -128h-10v138h460v0zM335 680q0 -25 -17.5 -42.5t-42.5 -17.5t-42.5 17.5t-17.5 42.5t17.5 42.5t42.5 17.5t42.5 -17.5t17.5 -42.5z" />
    <glyph glyph-name="Zcaron" unicode="&#x17d;" horiz-adv-x="664" 
d="M654 740v-10h-110l53 -53l-334 -667h138l180 180h10v-190h-581v10h110l-53 54l334 666h-138l-180 -180h-10v190h581v0zM171 975l10 10l151 -118l152 118l10 -10l-102 -180h-119l-102 180v0z" />
    <glyph glyph-name="zcaron" unicode="&#x17e;" horiz-adv-x="551" 
d="M536 495v-10h-110l53 -54l-211 -421h69l128 128h10v-138h-460v10h110l-53 54l211 421h-69l-128 -128h-10v138h460v0zM114 730l10 10l151 -118l152 118l10 -10l-102 -180h-119l-102 180v0z" />
    <glyph glyph-name="Schwa" unicode="&#x18f;" horiz-adv-x="570" 
d="M272 485q-52 0 -99 -18t-84 -53l-7 7q37 35 85.5 54.5t104.5 19.5q58 0 111 -22l140 -141q17 -42 17 -87q0 -52 -21 -97.5t-57.5 -79.5t-85.5 -53.5t-104 -19.5q-53 0 -97 19t-76.5 50.5t-50.5 73.5t-18 87h307v20q0 50 -5 93.5t-14 76t-21 51.5t-25 19zM272 5
q12 0 23 16t19.5 44.5t14 67t7.5 82.5h-103q0 -42 1.5 -80t5.5 -67t12 -46t20 -17z" />
    <glyph glyph-name="florin" unicode="&#x192;" horiz-adv-x="684" 
d="M621 660q13 -17 20.5 -35.5t7.5 -38.5q0 -35 -25 -60t-60 -25l-85 85q0 35 25 60t60 25q25 0 47 -14q-25 31 -67 52t-94 21q-43 0 -80 -16t-65 -43l139 -138v-609q0 -41 -16.5 -77.5t-45 -63.5t-66.5 -42.5t-81 -15.5q-56 0 -101 23t-71 57q-12 17 -20 35.5t-8 38.5
q0 35 25 60t60 25l85 -85q0 -35 -25 -60t-60 -25q-26 0 -46 14q25 -31 67 -52t94 -21q42 0 79.5 16t64.5 43l-138 138v609q0 41 16.5 77.5t44.5 63.5t66 42.5t82 15.5q55 0 100 -23t71 -57z" />
    <glyph glyph-name="Aringacute" unicode="&#x1fa;" horiz-adv-x="614" 
d="M493 10h111v-10h-287v10h34l-57 175h-144l-56 -175h94v-10h-178v10h74l235 730h10v0l218 -676zM154 195h137l-69 213zM324 773q26 0 43.5 18t17.5 44t-17.5 43.5t-43.5 17.5t-44 -17.5t-18 -43.5t18 -44t44 -18zM324 930q19 0 36.5 -7.5t30.5 -20.5t20.5 -30.5t7.5 -36.5
q0 -20 -7.5 -37t-20.5 -30t-30.5 -20.5t-36.5 -7.5q-20 0 -37 7.5t-30 20.5t-20.5 30t-7.5 37q0 19 7.5 36.5t20.5 30.5t30 20.5t37 7.5zM219 912l72 180h128l10 -10l-200 -180l-10 10v0z" />
    <glyph glyph-name="aringacute" unicode="&#x1fb;" horiz-adv-x="564" 
d="M524 10v-10h-182l-50 50q-14 -18 -45.5 -36.5t-76.5 -18.5q-27 0 -51.5 9t-43 25t-29.5 37.5t-11 47.5q0 25 10 45t27 36.5t40 29.5t49 24q41 17 91.5 32t94.5 33t74 41t30 57q0 21 -14.5 35t-37 22.5t-49 12t-49.5 3.5q-40 0 -81.5 -9t-76.5 -27q19 2 36.5 -3.5
t30.5 -17.5t20.5 -28t7.5 -35q0 -35 -25 -60t-60 -25l-85 85q0 30 21 54.5t54 41t74.5 25.5t83.5 9q35 0 69.5 -7t61.5 -21.5t44 -37.5t17 -56v-160v-203h31zM220 147q0 -17 4.5 -33.5t13 -28.5t21.5 -18.5t31 -3.5v219q-33 -23 -51.5 -55t-18.5 -80zM282 583q26 0 43.5 18
t17.5 44t-17.5 43.5t-43.5 17.5t-44 -17.5t-18 -43.5t18 -44t44 -18zM282 740q19 0 36.5 -7.5t30.5 -20.5t20.5 -30.5t7.5 -36.5q0 -20 -7.5 -37t-20.5 -30t-30.5 -20.5t-36.5 -7.5q-20 0 -37 7.5t-30 20.5t-20.5 30t-7.5 37q0 19 7.5 36.5t20.5 30.5t30 20.5t37 7.5z
M177 750l72 180h128l10 -10l-200 -180l-10 10v0z" />
    <glyph glyph-name="AEacute" unicode="&#x1fc;" horiz-adv-x="868" 
d="M848 550l-180 180v0h-108l53 -53v-302l126 126h10v-262h-10l-126 126v-355h55l180 180h10v-190h-479v10h84l-53 54v121h-237l-78 -175h93v-10h-178v10h74l326 730h448v-190h-10zM178 195h232v520zM429 805l72 180h128l10 -10l-200 -180l-10 10v0z" />
    <glyph glyph-name="aeacute" unicode="&#x1fd;" horiz-adv-x="834" 
d="M557 5q53 0 100 18t83 53l7 -7q-36 -35 -85 -54.5t-105 -19.5q-58 0 -110 22l-119 119q-2 -30 -15.5 -55.5t-34.5 -44.5t-49 -30t-59 -11q-27 0 -51.5 9t-43 25t-29.5 37.5t-11 47.5q0 25 10 45t27 36.5t40 29.5t49 24q41 17 91.5 32t94.5 33t74 41t30 57q0 21 -14.5 35
t-37 22.5t-49 12t-49.5 3.5q-39 0 -81 -8.5t-77 -27.5q19 2 36.5 -3.5t30.5 -17.5t20.5 -28t7.5 -35q0 -35 -25 -60t-60 -25l-85 85q0 30 21 54.5t54 41t74.5 25.5t83.5 9q39 0 72.5 -7.5t58.5 -21.5q58 29 125 29q53 0 97.5 -19t76.5 -50.5t50 -73.5t18 -87h-306
q-1 -32 0.5 -64.5t6.5 -64.5q8 -59 23 -95t34 -36zM557 485q-12 0 -23 -16t-19.5 -44.5t-14.5 -67t-7 -82.5h103q0 42 -1.5 80t-5.5 67t-12 46t-20 17zM290 63q28 36 28 83q-13 16 -20.5 40t-7.5 59v37q-33 -23 -51.5 -55t-18.5 -80q0 -13 3 -28t10 -27.5t18.5 -21
t28.5 -8.5q2 0 5 0.5t5 0.5zM312 560l72 180h128l10 -10l-200 -180l-10 10v0z" />
    <glyph glyph-name="Oslashacute" unicode="&#x1fe;" horiz-adv-x="790" 
d="M769 736l-8 8l-113 -114q-49 51 -113.5 80.5t-139.5 29.5q-74 0 -138.5 -29t-112.5 -79.5t-76 -118t-28 -143.5q0 -77 29 -146l86 -87l-134 -133l8 -8l133 134l106 -106q30 -11 61.5 -17.5t65.5 -6.5q73 0 138 29t113 79.5t76 117.5t28 144q0 74 -25 138t-70 114z
M254 370q0 75 11 140.5t30 114t45 77t55 28.5q22 0 42 -16.5t37 -46t30 -70.5t21 -90l-262 -262q-9 58 -9 125zM536 370q0 -75 -11 -140.5t-30 -114t-45 -77t-55 -28.5q-22 0 -42 16.5t-37 46t-30 70.5t-21 90l262 262q9 -59 9 -125zM290 805l72 180h128l10 -10l-200 -180z
" />
    <glyph glyph-name="oslashacute" unicode="&#x1ff;" horiz-adv-x="551" 
d="M462 424l67 67l-7 7l-68 -67q-35 30 -81 47t-97 17q-56 0 -104.5 -19.5t-85 -53.5t-57.5 -79.5t-21 -97.5q0 -45 17 -87l78 -79l-81 -81l7 -7l81 81l55 -55q53 -22 111 -22q55 0 103.5 19.5t85 53.5t57.5 79.5t21 97.5q0 53 -21.5 99t-59.5 80zM211 245q0 49 5 93
t14 76.5t20.5 51.5t25.5 19q11 0 20.5 -13t17.5 -35.5t14 -54t9 -68.5l-124 -125q-1 14 -1.5 28t-0.5 28zM276 5q-11 0 -21 13t-18 35.5t-14 54t-9 68.5l124 125q1 -14 1.5 -28t0.5 -28q0 -50 -5 -93.5t-14 -76t-20.5 -51.5t-24.5 -19zM170 560l72 180h128l10 -10l-200 -180
z" />
    <glyph glyph-name="Scommaaccent" unicode="&#x218;" horiz-adv-x="643" 
d="M205 -235l51 180h128l10 -10l-179 -180zM613 197q0 -42 -22 -78t-59.5 -62.5t-88.5 -41.5t-109 -15q-60 0 -115 15t-97 41.5t-67 63.5t-25 81q0 23 8.5 43t23.5 35t35 23.5t43 8.5l110 -110q0 -23 -8.5 -43t-23.5 -35t-35 -23.5t-43 -8.5q-40 0 -70 25q20 -26 48.5 -45.5
t62 -32.5t69.5 -20t70 -8q44 0 73.5 23.5t29.5 57.5q0 19 -9 38.5t-22.5 38t-30 36.5t-31.5 33l-191 191q-34 34 -60.5 68.5t-26.5 72.5q0 44 28.5 76t72.5 53t97 31.5t103 10.5h241v-190h-11l-136 136q-23 23 -47.5 33.5t-46.5 10.5q-30 0 -51.5 -15.5t-28.5 -41.5
t4.5 -59.5t46.5 -69.5l215 -214q31 -32 52.5 -64t21.5 -69z" />
    <glyph glyph-name="scommaaccent" unicode="&#x219;" horiz-adv-x="523" 
d="M154 -235l51 180h128l10 -10l-179 -180zM475 357h-10l-17 17l-83 83q-15 15 -30.5 21.5t-29.5 6.5q-22 0 -36.5 -13.5t-14.5 -36.5q0 -14 7.5 -31t25.5 -36l151 -150q21 -21 35.5 -42.5t14.5 -47.5q0 -29 -17 -53t-46.5 -42t-69.5 -28t-86 -10q-47 0 -90 10t-76 28
t-53 43t-20 55q0 35 25 60t60 25l85 -85q0 -20 -8.5 -37.5t-23 -29t-33 -16.5t-38.5 0q31 -19 68 -29t73 -13q24 4 39.5 19t15.5 35q0 26 -21 51.5t-42 46.5l-126 126q-23 23 -41 46t-18 49q0 30 20 51.5t51 36t68.5 21.5t72.5 7h218v-138z" />
    <glyph glyph-name="Z.alt" unicode="&#x25a;" horiz-adv-x="690" 
d="M611 183l8 -6l-164 -182q-16 -16 -35.5 -23t-41.5 -7q-41 0 -81.5 14.5t-78 31.5t-70.5 31.5t-57 14.5q-20 0 -34 -16l-40 -43l-7 7l480 532h-337q-14 0 -21.5 -5t-13.5 -11l-9 6v213h564l7 -7l-467 -518q22 12 54 -0.5t70.5 -31.5t82.5 -37t91 -18q20 0 38 5t32 17z" />
    <glyph glyph-name="circumflex" unicode="&#x2c6;" horiz-adv-x="443" 
d="M383 560l-10 -10l-152 118l-151 -118l-10 10l102 180h119l102 -180v0z" />
    <glyph glyph-name="caron" unicode="&#x2c7;" horiz-adv-x="443" 
d="M60 730l10 10l151 -118l152 118l10 -10l-102 -180h-119l-102 180v0z" />
    <glyph glyph-name="breve" unicode="&#x2d8;" horiz-adv-x="434" 
d="M351 728q0 3 -0.5 6t-0.5 6h12q12 -24 12 -52t-12.5 -52.5t-33.5 -42.5t-49.5 -28.5t-61.5 -10.5t-61.5 10.5t-49.5 28.5t-33.5 42.5t-12.5 52.5t12 52h13q-1 -4 -1 -12q0 -21 10.5 -39t29 -31.5t42.5 -21t51 -7.5t51.5 7.5t43 21t29 31.5t10.5 39z" />
    <glyph glyph-name="dotaccent" unicode="&#x2d9;" horiz-adv-x="240" 
d="M180 680q0 -25 -17.5 -42.5t-42.5 -17.5t-42.5 17.5t-17.5 42.5t17.5 42.5t42.5 17.5t42.5 -17.5t17.5 -42.5z" />
    <glyph glyph-name="ring" unicode="&#x2da;" horiz-adv-x="310" 
d="M155 583q26 0 43.5 18t17.5 44t-17.5 43.5t-43.5 17.5t-44 -17.5t-18 -43.5t18 -44t44 -18zM155 740q19 0 36.5 -7.5t30.5 -20.5t20.5 -30.5t7.5 -36.5q0 -20 -7.5 -37t-20.5 -30t-30.5 -20.5t-36.5 -7.5q-20 0 -37 7.5t-30 20.5t-20.5 30t-7.5 37q0 19 7.5 36.5
t20.5 30.5t30 20.5t37 7.5z" />
    <glyph glyph-name="ogonek" unicode="&#x2db;" horiz-adv-x="299" 
d="M182 -140q29 0 48 19l9 -8l-73 -73q-10 -2 -16 -2q-38 0 -64 26t-26 64q0 18 7 34.5t19 28.5l52 52h18l-23 -23q-21 -19 -21 -49q0 -29 20.5 -49t49.5 -20z" />
    <glyph glyph-name="tilde" unicode="&#x2dc;" horiz-adv-x="481" 
d="M366 627q16 0 29 12t16 29l10 -1q-8 -43 -37 -72t-69 -29q-30 0 -58 17.5t-52.5 39t-47 39t-42.5 17.5q-16 0 -29 -12t-16 -29l-10 2q7 43 36.5 71.5t68.5 28.5q31 0 58.5 -17.5t52.5 -39t47.5 -39t42.5 -17.5z" />
    <glyph glyph-name="hungarumlaut" unicode="&#x2dd;" horiz-adv-x="512" 
d="M60 560l72 180h128l10 -10l-200 -180l-10 10v0zM242 560l72 180h128l10 -10l-200 -180l-10 10v0z" />
    <glyph glyph-name="Wgrave" unicode="&#x1e80;" horiz-adv-x="947" 
d="M759 740h178v-10h-73l-235 -730h-11l-161 502l-162 -502h-10l-218 677l53 53h-110v10h287v-10h-34l128 -399l60 187l-51 159l54 53h-111v10h288v-10h-34l128 -399l128 399h-94v10v0zM578 805l-10 -10l-200 180l10 10h128l72 -180v0z" />
    <glyph glyph-name="wgrave" unicode="&#x1e81;" horiz-adv-x="906" 
d="M713 495h178v-10h-74l-156 -485h-123l-102 316l-102 -316h-123l-139 431l53 54h-110v10h250l109 -339l57 176l-32 99l53 54h-110v10h250l109 -339l106 329h-94v10v0zM558 560l-10 -10l-200 180l10 10h128l72 -180v0z" />
    <glyph glyph-name="Wacute" unicode="&#x1e82;" horiz-adv-x="947" 
d="M759 740h178v-10h-73l-235 -730h-11l-161 502l-162 -502h-10l-218 677l53 53h-110v10h287v-10h-34l128 -399l60 187l-51 159l54 53h-111v10h288v-10h-34l128 -399l128 399h-94v10v0zM368 805l72 180h128l10 -10l-200 -180l-10 10v0z" />
    <glyph glyph-name="wacute" unicode="&#x1e83;" horiz-adv-x="906" 
d="M713 495h178v-10h-74l-156 -485h-123l-102 316l-102 -316h-123l-139 431l53 54h-110v10h250l109 -339l57 176l-32 99l53 54h-110v10h250l109 -339l106 329h-94v10v0zM348 560l72 180h128l10 -10l-200 -180l-10 10v0z" />
    <glyph glyph-name="Wdieresis" unicode="&#x1e84;" horiz-adv-x="947" 
d="M759 740h178v-10h-73l-235 -730h-11l-161 502l-162 -502h-10l-218 677l53 53h-110v10h287v-10h-34l128 -399l60 187l-51 159l54 53h-111v10h288v-10h-34l128 -399l128 399h-94v10v0zM615 925q0 -25 -17.5 -42.5t-42.5 -17.5q-26 0 -43 17.5t-17 42.5t17 42.5t43 17.5
q25 0 42.5 -17.5t17.5 -42.5zM451 925q0 -25 -17.5 -42.5t-42.5 -17.5t-42.5 17.5t-17.5 42.5t17.5 42.5t42.5 17.5t42.5 -17.5t17.5 -42.5z" />
    <glyph glyph-name="wdieresis" unicode="&#x1e85;" horiz-adv-x="906" 
d="M713 495h178v-10h-74l-156 -485h-123l-102 316l-102 -316h-123l-139 431l53 54h-110v10h250l109 -339l57 176l-32 99l53 54h-110v10h250l109 -339l106 329h-94v10v0zM595 680q0 -25 -17.5 -42.5t-42.5 -17.5q-26 0 -43 17.5t-17 42.5t17 42.5t43 17.5q25 0 42.5 -17.5
t17.5 -42.5zM431 680q0 -25 -17.5 -42.5t-42.5 -17.5t-42.5 17.5t-17.5 42.5t17.5 42.5t42.5 17.5t42.5 -17.5t17.5 -42.5z" />
    <glyph glyph-name="Ygrave" unicode="&#x1ef2;" horiz-adv-x="655" 
d="M570 730l-157 -360l-1 -360h31v-10h-265v10h85l-54 54v283l-142 330l53 53h-110v10h287v-10h-31l146 -338l147 338h-92v10h178v-10h-75v0zM432 805l-10 -10l-200 180l10 10h128l72 -180v0z" />
    <glyph glyph-name="ygrave" unicode="&#x1ef3;" horiz-adv-x="570" 
d="M555 495v-10h-73l-194 -601q-51 -159 -165 -159q-30 0 -56.5 12.5t-47 33.5t-32 49t-11.5 59q0 35 25 60t60 25l85 -85q0 -35 -25 -60t-60 -25q-19 0 -35.5 8t-28.5 21q17 -39 51 -63.5t75 -24.5q31 0 56 12.5t44 33.5t32.5 48.5t23.5 57.5l36 113h-113l-139 431l54 54
h-111v10h250l109 -339l106 329h-94v10h178zM390 560l-10 -10l-200 180l10 10h128l72 -180v0z" />
    <glyph glyph-name="endash" unicode="&#x2013;" horiz-adv-x="450" 
d="M35 271h380v-55h-380v55z" />
    <glyph glyph-name="emdash" unicode="&#x2014;" horiz-adv-x="450" 
d="M35 271h380v-55h-380v55z" />
    <glyph glyph-name="quoteleft" unicode="&#x2018;" horiz-adv-x="184" 
d="M35 513l121 227l28 -2l-39 -233z" />
    <glyph glyph-name="quoteright" unicode="&#x2019;" horiz-adv-x="184" 
d="M74 740l110 -8l-121 -227l-28 2z" />
    <glyph glyph-name="quotesinglbase" unicode="&#x201a;" horiz-adv-x="240" 
d="M205 80q0 -35 -25 -60t-60 -25l-85 85q0 35 25 60t60 25t60 -25t25 -60z" />
    <glyph glyph-name="quotedblleft" unicode="&#x201c;" horiz-adv-x="325" 
d="M286 505l-110 8l121 227l28 -2zM145 505l-110 8l121 227l28 -2z" />
    <glyph glyph-name="quotedblright" unicode="&#x201d;" horiz-adv-x="325" 
d="M74 740l110 -8l-121 -227l-28 2zM215 740l110 -8l-121 -227l-28 2z" />
    <glyph glyph-name="quotedblbase" unicode="&#x201e;" horiz-adv-x="660" 
d="M205 80q0 -35 -25 -60t-60 -25l-85 85q0 35 25 60t60 25t60 -25t25 -60zM415 80q0 -35 -25 -60t-60 -25l-85 85q0 35 25 60t60 25t60 -25t25 -60zM625 80q0 -35 -25 -60t-60 -25l-85 85q0 35 25 60t60 25t60 -25t25 -60z" />
    <glyph glyph-name="dagger" unicode="&#x2020;" horiz-adv-x="495" 
d="M242 -110q0 49 -6.5 114.5t-17.5 135t-25 137.5t-29 122q11 11 24.5 27t25.5 33.5t20 34t8 28.5q-12 0 -28.5 -8t-34 -20t-33.5 -25.5t-27 -24.5l-84 83l84 84q11 -11 27 -24.5t33.5 -25.5t34 -20t28.5 -8q0 12 -8 28.5t-20 33.5t-25.5 33.5t-24.5 27.5l83 84l84 -84
q-11 -11 -24.5 -27.5t-25.5 -33.5t-20 -33.5t-8 -28.5q12 0 28.5 8t33.5 20t33.5 25.5t27.5 24.5l84 -84l-84 -83q-11 11 -27.5 24.5t-33.5 25.5t-33.5 20t-28.5 8q0 -12 8 -28.5t20 -34t25.5 -33.5t24.5 -27q-15 -54 -29 -122t-25 -137.5t-17.5 -135t-6.5 -114.5h-11z" />
    <glyph glyph-name="daggerdbl" unicode="&#x2021;" horiz-adv-x="495" 
d="M253 533q12 0 28.5 8t33.5 20t33.5 25.5t27.5 24.5l84 -84l-84 -83q-11 11 -27.5 24.5t-33.5 25.5t-33.5 20t-28.5 8q0 -12 8 -28.5t20 -34t25.5 -33.5t24.5 -27q-15 -17 -29 -33q-12 -14 -24.5 -28t-20.5 -23q8 -9 20.5 -23t24.5 -28q14 -16 29 -32q-11 -11 -24.5 -27.5
t-25.5 -33.5t-20 -33.5t-8 -28.5q12 0 28.5 8t33.5 20t33.5 25.5t27.5 24.5l84 -83l-84 -84q-11 11 -27.5 24.5t-33.5 25.5t-33.5 20t-28.5 8q0 -12 8 -28.5t20 -34t25.5 -33.5t24.5 -27l-84 -84l-83 84q11 11 24.5 27t25.5 33.5t20 34t8 28.5q-12 0 -28.5 -8t-34 -20
t-33.5 -25.5t-27 -24.5l-84 84l84 83q11 -11 27 -24.5t33.5 -25.5t34 -20t28.5 -8q0 12 -8 28.5t-20 33.5t-25.5 33.5t-24.5 27.5l74 83l-74 84q11 11 24.5 27t25.5 33.5t20 34t8 28.5q-12 0 -28.5 -8t-34 -20t-33.5 -25.5t-27 -24.5l-84 83l84 84q11 -11 27 -24.5
t33.5 -25.5t34 -20t28.5 -8q0 12 -8 28.5t-20 33.5t-25.5 33.5t-24.5 27.5l83 84l84 -84q-11 -11 -24.5 -27.5t-25.5 -33.5t-20 -33.5t-8 -28.5z" />
    <glyph glyph-name="bullet" unicode="&#x2022;" horiz-adv-x="290" 
d="M145 355q23 0 43 -8.5t35 -23.5t23.5 -35t8.5 -43t-8.5 -43t-23.5 -35t-35 -23.5t-43 -8.5l-110 110q0 23 8.5 43t23.5 35t35 23.5t43 8.5z" />
    <glyph glyph-name="ellipsis" unicode="&#x2026;" horiz-adv-x="450" 
d="M205 80q0 -35 -25 -60t-60 -25l-85 85q0 35 25 60t60 25t60 -25t25 -60zM415 80q0 -35 -25 -60t-60 -25l-85 85q0 35 25 60t60 25t60 -25t25 -60z" />
    <glyph glyph-name="perthousand" unicode="&#x2030;" horiz-adv-x="1284" 
d="M215 740q40 0 73 -13t57 -38.5t37.5 -62.5t13.5 -86t-13.5 -86t-37.5 -62.5t-57 -38.5t-73 -13q-39 0 -72 13t-57 38.5t-37.5 62.5t-13.5 86t13.5 86t37.5 62.5t57 38.5t72 13zM215 350q21 0 34 51.5t13 138.5t-13 138.5t-34 51.5q-20 0 -33 -51.5t-13 -138.5t13 -138.5
t33 -51.5zM657 400q39 0 72.5 -13t57.5 -38.5t37.5 -62.5t13.5 -86t-13.5 -86t-37.5 -62.5t-57.5 -38.5t-72.5 -13t-72 13t-57 38.5t-37.5 62.5t-13.5 86t13.5 86t37.5 62.5t57 38.5t72 13zM657 10q21 0 34 51.5t13 138.5t-13 138.5t-34 51.5t-34 -51.5t-13 -138.5
t13 -138.5t34 -51.5zM1068 400q39 0 72.5 -13t57.5 -38.5t37.5 -62.5t13.5 -86t-13.5 -86t-37.5 -62.5t-57.5 -38.5t-72.5 -13t-72 13t-57 38.5t-37.5 62.5t-13.5 86t13.5 86t37.5 62.5t57 38.5t72 13zM1068 10q21 0 34 51.5t13 138.5t-13 138.5t-34 51.5t-34 -51.5
t-13 -138.5t13 -138.5t34 -51.5zM269 0h-74l409 740h74z" />
    <glyph glyph-name="guilsinglleft" unicode="&#x2039;" horiz-adv-x="265" 
d="M149 248l81 -163l-7 -8l-188 171l188 169l7 -7l-81 -162v0z" />
    <glyph glyph-name="guilsinglright" unicode="&#x203a;" horiz-adv-x="265" 
d="M116 248l-81 162l7 7l188 -169l-188 -171l-7 8l81 163v0z" />
    <glyph glyph-name="fraction" unicode="&#x2044;" horiz-adv-x="542" 
d="M512 740l-408 -740h-74l408 740h74v0z" />
    <glyph glyph-name="Euro" unicode="&#x20ac;" horiz-adv-x="764" 
d="M607 31q54 21 101 59l6 -8q-46 -38 -103.5 -60t-121.5 -22q-56 0 -107.5 17t-95 48t-76.5 73.5t-53 93.5h-107l75 114h7q-2 24 0 48h-82l75 114h32q20 51 53 93.5t76.5 73.5t95 48t107.5 17q64 0 121.5 -22t103.5 -60l-6 -8q-47 38 -101 59q-57 21 -118 21
q-70 0 -133 -27t-113 -78q-25 -26 -43.5 -55.5t-31.5 -61.5h447l-75 -114h-398q-2 -24 0 -48h473l-75 -114h-372q13 -32 31.5 -61.5t43.5 -55.5q50 -51 113 -78t133 -27q61 0 118 21z" />
    <glyph glyph-name="trademark" unicode="&#x2122;" horiz-adv-x="765" 
d="M352 740v-95h-5l-85 85h-39l21 -22v-328h16v-10h-133v10h37l-21 22v328h-18l-85 -85h-5v95h317zM730 740v-10h-37l22 -22v-328h15v-10h-114v10h37l-22 22v305l-103 -337h-10l-104 337v-327h37v-10h-89v10h42v350h-25v10h131l61 -197l60 197h99z" />
    <glyph glyph-name="minus" unicode="&#x2212;" horiz-adv-x="450" 
d="M35 216v55h380v-55h-380v0z" />
    <glyph glyph-name="lessequal" unicode="&#x2264;" horiz-adv-x="491" 
d="M431 473l25 -49l-300 -153l300 -152l-25 -49l-396 201zM62 14v55h389v-55h-389z" />
    <glyph glyph-name="greaterequal" unicode="&#x2265;" horiz-adv-x="491" 
d="M456 271l-396 -201l-25 49l300 152l-300 153l25 49zM40 14v55h389v-55h-389z" />
    <glyph glyph-name="Pcircle" unicode="&#x24c5;" horiz-adv-x="700" 
d="M573 593q45 -45 68.5 -102.5t23.5 -120.5t-23.5 -120.5t-68.5 -102.5t-102.5 -68.5t-120.5 -23.5t-120.5 23.5t-102.5 68.5t-68.5 102.5t-23.5 120.5t23.5 120.5t68.5 102.5t102.5 68.5t120.5 23.5t120.5 -23.5t102.5 -68.5zM552 169q40 40 61.5 92t21.5 109t-21.5 109
t-61.5 93q-41 40 -93 61.5t-109 21.5t-109 -21.5t-92 -61.5q-41 -41 -62.5 -93t-21.5 -109t21.5 -109t62.5 -92q40 -41 92 -62.5t109 -21.5t109 21.5t93 62.5zM426 595q27 0 50.5 -9.5t41 -26t27.5 -38t10 -46.5q0 -30 -14.5 -55t-39.5 -43.5t-58.5 -29t-70.5 -10.5
q-25 0 -45 4v-186h19v-10h-161v10h47l-28 29v401h-19v10h241zM327 350q21 1 39 12t31 28t20.5 39.5t7.5 45.5t-6.5 43t-18 35t-25.5 23.5t-29 8.5h-47l28 -29v-206z" />
    <glyph glyph-name="pcircle" unicode="&#x24df;" horiz-adv-x="700" 
d="M573 593q45 -45 68.5 -102.5t23.5 -120.5t-23.5 -120.5t-68.5 -102.5t-102.5 -68.5t-120.5 -23.5t-120.5 23.5t-102.5 68.5t-68.5 102.5t-23.5 120.5t23.5 120.5t68.5 102.5t102.5 68.5t120.5 23.5t120.5 -23.5t102.5 -68.5zM552 169q40 40 61.5 92t21.5 109t-21.5 109
t-61.5 93q-41 40 -93 61.5t-109 21.5t-109 -21.5t-92 -61.5q-41 -41 -62.5 -93t-21.5 -109t21.5 -109t62.5 -92q40 -41 92 -62.5t109 -21.5t109 21.5t93 62.5zM426 595q27 0 50.5 -9.5t41 -26t27.5 -38t10 -46.5q0 -30 -14.5 -55t-39.5 -43.5t-58.5 -29t-70.5 -10.5
q-25 0 -45 4v-186h19v-10h-161v10h47l-28 29v401h-19v10h241zM327 350q21 1 39 12t31 28t20.5 39.5t7.5 45.5t-6.5 43t-18 35t-25.5 23.5t-29 8.5h-47l28 -29v-206z" />
    <glyph glyph-name="zero.numr" horiz-adv-x="391" 
d="M195 740q71 0 116 -51t45 -149t-45 -149t-116 -51q-70 0 -115 51t-45 149t45 149t115 51zM195 350q23 0 37 51.5t14 138.5t-14 138.5t-37 51.5t-36.5 -51.5t-13.5 -138.5t13.5 -138.5t36.5 -51.5z" />
    <glyph glyph-name="one.numr" horiz-adv-x="223" 
d="M171 350h17v-10h-143v10h41l-25 24v312l-22 -9l-4 9l131 54h5v-390v0z" />
    <glyph glyph-name="two.numr" horiz-adv-x="376" 
d="M52 639q0 19 11.5 37t31 32.5t46 23t56.5 8.5t56 -8.5t45.5 -23t31 -32.5t11.5 -37q0 -36 -28.5 -65t-66.5 -52.5t-75.5 -42t-55.5 -33.5h211l4 -4q0 -21 -7 -41t-19.5 -36t-30 -26t-38.5 -10q-29 0 -54 11.5t-46 23.5t-39 20t-31 2q-15 -24 -20 -46h-10q7 29 24.5 54
t39.5 48.5t45.5 46.5t42.5 48.5t31.5 54t12.5 62.5q0 26 -11.5 47t-29.5 29q-29 -1 -53.5 -10.5t-41.5 -23.5q14 4 28 1.5t24.5 -10.5t17 -20.5t6.5 -27.5l-59 -59q-25 0 -42.5 17t-17.5 42z" />
    <glyph glyph-name="three.numr" horiz-adv-x="368" 
d="M179 575q30 0 56.5 -9t46 -25t31 -37.5t11.5 -45.5t-11.5 -45.5t-31 -37.5t-46 -25.5t-56.5 -9.5t-56.5 9t-46 23.5t-30.5 32.5t-11 36q0 25 17.5 42t41.5 17l60 -59q0 -15 -6.5 -27t-17 -20t-23.5 -11t-27 0q25 -20 65 -30q30 13 49.5 41t19.5 64q0 22 -8 40.5t-21 32
t-30.5 20.5t-36.5 4q-11 -6 -19 -13l-6 8q28 22 68 37.5t78 35.5h-169l-3 4q0 21 7 41t19.5 36t30 26t38.5 10q24 0 43 -7t35.5 -15.5t31 -15.5t29.5 -7q13 0 19 9q3 10 3 25h10q0 -34 -17.5 -57.5t-44 -41t-58 -31t-60.5 -26.5q7 2 13 2h13z" />
    <glyph glyph-name="four.numr" horiz-adv-x="339" 
d="M304 452h-63l29 -28v-74h17v-10h-143v10h41l-24 24v78h-136q0 21 23 52.5t50.5 69t50.5 79.5t23 83l4 4h111q0 -47 -17 -81.5t-43 -59.5t-57.5 -43t-59 -33t-48 -29.5t-25.5 -31.5h124v59q29 17 55.5 36t48.5 45h5v-140h34v-10z" />
    <glyph glyph-name="five.numr" horiz-adv-x="359" 
d="M179 575q30 0 56.5 -9t46 -25t31 -37.5t11.5 -45.5t-11.5 -45.5t-31 -37.5t-46 -25.5t-56.5 -9.5t-56.5 9t-46 23.5t-30.5 32.5t-11 36q0 25 17.5 42t41.5 17l60 -59q0 -15 -6.5 -27t-17 -20t-23.5 -11t-27 0q25 -20 65 -30q30 13 49.5 41t19.5 64q0 21 -7.5 39t-20 31.5
t-29 20.5t-34.5 6q-12 -5 -23 -11t-20 -14l-7 7v192h10v-29q6 -5 15 -5q14 0 28 7t29.5 15.5t33.5 15.5t41 7q21 0 37.5 -10t28.5 -26t18.5 -36t6.5 -41l-3 -4h-235v-78q41 30 96 30z" />
    <glyph glyph-name="six.numr" horiz-adv-x="370" 
d="M210 575q25 0 47.5 -7.5t39.5 -21.5t27.5 -34t10.5 -44t-11 -47t-30 -41t-44.5 -29t-54.5 -11q-70 0 -115 51t-45 149t45 149t115 51q31 0 57 -9.5t44.5 -24t28.5 -32.5t10 -35q0 -25 -17.5 -42t-41.5 -17l-60 59q0 15 7 27.5t18 20.5t25 10.5t28 -1.5q-17 14 -42 24
t-57 10q-20 0 -34 -45t-16 -122q31 12 65 12zM195 350q10 0 16 14.5t9 34t4 38.5t1 29q0 9 -0.5 25t-3.5 31.5t-8 28t-14 14.5q-14 -1 -27.5 -4t-26.5 -8q-1 -23 0.5 -46.5t3.5 -46.5q5 -51 17 -80.5t29 -29.5z" />
    <glyph glyph-name="seven.numr" horiz-adv-x="341" 
d="M326 729q0 -45 -24.5 -87.5t-54.5 -84t-54.5 -81t-24.5 -77.5q0 -24 -17.5 -41.5t-43.5 -17.5l-60 59q0 28 15.5 53.5t39 47.5t51.5 41t54 34.5t45.5 27.5t26.5 20h-240l-4 4q0 21 7.5 41t22 36t34 26t43.5 10q27 0 48 -7t39 -15.5t34 -15.5t33 -7q11 0 17 5q3 13 3 29
h10z" />
    <glyph glyph-name="eight.numr" horiz-adv-x="370" 
d="M242 546q42 -12 67.5 -38t25.5 -61q0 -23 -11 -42.5t-31 -33.5t-47.5 -22.5t-60.5 -8.5t-60.5 8.5t-47.5 22.5t-31 33.5t-11 42.5q0 35 25.5 61t67.5 38q-38 12 -60 36.5t-22 56.5q0 21 10.5 39.5t29 32t44 21.5t55.5 8t55.5 -8t44 -21.5t29 -32t10.5 -39.5
q0 -32 -22 -56.5t-60 -36.5zM185 730q-17 0 -28.5 -26.5t-11.5 -64.5q0 -39 11.5 -62.5t28.5 -23.5t28.5 23.5t11.5 62.5q0 38 -11.5 64.5t-28.5 26.5zM185 350q17 0 28.5 27.5t11.5 69.5q0 41 -11.5 66t-28.5 25t-28.5 -25t-11.5 -66q0 -42 11.5 -69.5t28.5 -27.5z" />
    <glyph glyph-name="nine.numr" horiz-adv-x="370" 
d="M160 505q-25 0 -47.5 7.5t-40 21.5t-27.5 34t-10 44t11 47t30 41t44.5 29t54.5 11q70 0 115 -51t45 -149t-45 -149t-115 -51q-32 0 -57.5 9.5t-44 24t-28.5 32.5t-10 35q0 25 17.5 42t41.5 17l60 -59q0 -15 -7 -27.5t-18 -20.5t-25 -11t-28 2q17 -14 42 -24t57 -10
q20 0 34 45t16 122q-32 -12 -65 -12zM175 730q-10 0 -16 -14.5t-9 -34t-4 -38.5t-1 -29q0 -9 0.5 -25t3.5 -31.5t8 -28t14 -14.5q14 1 27.5 4t26.5 8q0 23 -0.5 46.5t-3.5 46.5q-5 52 -17 81t-29 29z" />
    <glyph glyph-name="zero.dnom" horiz-adv-x="391" 
d="M195 400q71 0 116 -51t45 -149t-45 -149t-116 -51q-70 0 -115 51t-45 149t45 149t115 51zM195 10q23 0 37 51.5t14 138.5t-14 138.5t-37 51.5t-36.5 -51.5t-13.5 -138.5t13.5 -138.5t36.5 -51.5z" />
    <glyph glyph-name="one.dnom" horiz-adv-x="223" 
d="M171 10h17v-10h-143v10h41l-25 24v312l-22 -9l-4 9l131 54h5v-390v0z" />
    <glyph glyph-name="two.dnom" horiz-adv-x="376" 
d="M52 299q0 19 11.5 37t31 32.5t46 23t56.5 8.5t56 -8.5t45.5 -23t31 -32.5t11.5 -37q0 -36 -28.5 -65t-66.5 -52.5t-75.5 -42t-55.5 -33.5h211l4 -4q0 -21 -7 -41t-19.5 -36t-30 -26t-38.5 -10q-29 0 -54 11.5t-46 23.5t-39 20t-31 2q-15 -24 -20 -46h-10q7 29 24.5 54
t39.5 48.5t45.5 46.5t42.5 48.5t31.5 54t12.5 62.5q0 26 -11.5 47t-29.5 29q-29 -1 -53.5 -10.5t-41.5 -23.5q14 4 28 1.5t24.5 -10.5t17 -20.5t6.5 -27.5l-59 -59q-25 0 -42.5 17t-17.5 42z" />
    <glyph glyph-name="three.dnom" horiz-adv-x="368" 
d="M179 235q30 0 56.5 -9t46 -25t31 -37.5t11.5 -45.5t-11.5 -45.5t-31 -37.5t-46 -25.5t-56.5 -9.5t-56.5 9t-46 23.5t-30.5 32.5t-11 36q0 25 17.5 42t41.5 17l60 -59q0 -15 -6.5 -27t-17 -20t-23.5 -11t-27 0q25 -20 65 -30q30 13 49.5 41t19.5 64q0 22 -8 40.5t-21 32
t-30.5 20.5t-36.5 4q-11 -6 -19 -13l-6 8q28 22 68 37.5t78 35.5h-169l-3 4q0 21 7 41t19.5 36t30 26t38.5 10q24 0 43 -7t35.5 -15.5t31 -15.5t29.5 -7q13 0 19 9q3 10 3 25h10q0 -34 -17.5 -57.5t-44 -41t-58 -31t-60.5 -26.5q7 2 13 2h13z" />
    <glyph glyph-name="four.dnom" horiz-adv-x="339" 
d="M304 112h-63l29 -28v-74h17v-10h-143v10h41l-24 24v78h-136q0 21 23 52.5t50.5 69t50.5 79.5t23 83l4 4h111q0 -47 -17 -81.5t-43 -59.5t-57.5 -43t-59 -33t-48 -29.5t-25.5 -31.5h124v59q29 17 55.5 36t48.5 45h5v-140h34v-10z" />
    <glyph glyph-name="five.dnom" horiz-adv-x="359" 
d="M179 235q30 0 56.5 -9t46 -25t31 -37.5t11.5 -45.5t-11.5 -45.5t-31 -37.5t-46 -25.5t-56.5 -9.5t-56.5 9t-46 23.5t-30.5 32.5t-11 36q0 25 17.5 42t41.5 17l60 -59q0 -15 -6.5 -27t-17 -20t-23.5 -11t-27 0q25 -20 65 -30q30 13 49.5 41t19.5 64q0 21 -7.5 39t-20 31.5
t-29 20.5t-34.5 6q-12 -5 -23 -11t-20 -14l-7 7v192h10v-29q6 -5 15 -5q14 0 28 7t29.5 15.5t33.5 15.5t41 7q21 0 37.5 -10t28.5 -26t18.5 -36t6.5 -41l-3 -4h-235v-78q41 30 96 30z" />
    <glyph glyph-name="six.dnom" horiz-adv-x="370" 
d="M210 235q25 0 47.5 -7.5t39.5 -21.5t27.5 -34t10.5 -44t-11 -47t-30 -41t-44.5 -29t-54.5 -11q-70 0 -115 51t-45 149t45 149t115 51q31 0 57 -9.5t44.5 -24t28.5 -32.5t10 -35q0 -25 -17.5 -42t-41.5 -17l-60 59q0 15 7 27.5t18 20.5t25 10.5t28 -1.5q-17 14 -42 24
t-57 10q-20 0 -34 -45t-16 -122q31 12 65 12zM195 10q10 0 16 14.5t9 34t4 38.5t1 29q0 9 -0.5 25t-3.5 31.5t-8 28t-14 14.5q-14 -1 -27.5 -4t-26.5 -8q-1 -23 0.5 -46.5t3.5 -46.5q5 -51 17 -80.5t29 -29.5z" />
    <glyph glyph-name="seven.dnom" horiz-adv-x="341" 
d="M326 389q0 -45 -24.5 -87.5t-54.5 -84t-54.5 -81t-24.5 -77.5q0 -24 -17.5 -41.5t-43.5 -17.5l-60 59q0 28 15.5 53.5t39 47.5t51.5 41t54 34.5t45.5 27.5t26.5 20h-240l-4 4q0 21 7.5 41t22 36t34 26t43.5 10q27 0 48 -7t39 -15.5t34 -15.5t33 -7q11 0 17 5q3 13 3 29
h10z" />
    <glyph glyph-name="eight.dnom" horiz-adv-x="370" 
d="M242 206q42 -12 67.5 -38t25.5 -61q0 -23 -11 -42.5t-31 -33.5t-47.5 -22.5t-60.5 -8.5t-60.5 8.5t-47.5 22.5t-31 33.5t-11 42.5q0 35 25.5 61t67.5 38q-38 12 -60 36.5t-22 56.5q0 21 10.5 39.5t29 32t44 21.5t55.5 8t55.5 -8t44 -21.5t29 -32t10.5 -39.5
q0 -32 -22 -56.5t-60 -36.5zM185 390q-17 0 -28.5 -26.5t-11.5 -64.5q0 -39 11.5 -62.5t28.5 -23.5t28.5 23.5t11.5 62.5q0 38 -11.5 64.5t-28.5 26.5zM185 10q17 0 28.5 27.5t11.5 69.5q0 41 -11.5 66t-28.5 25t-28.5 -25t-11.5 -66q0 -42 11.5 -69.5t28.5 -27.5z" />
    <glyph glyph-name="nine.dnom" horiz-adv-x="370" 
d="M160 165q-25 0 -47.5 7.5t-40 21.5t-27.5 34t-10 44t11 47t30 41t44.5 29t54.5 11q70 0 115 -51t45 -149t-45 -149t-115 -51q-32 0 -57.5 9.5t-44 24t-28.5 32.5t-10 35q0 25 17.5 42t41.5 17l60 -59q0 -15 -7 -27.5t-18 -20.5t-25 -11t-28 2q17 -14 42 -24t57 -10
q20 0 34 45t16 122q-32 -12 -65 -12zM175 390q-10 0 -16 -14.5t-9 -34t-4 -38.5t-1 -29q0 -9 0.5 -25t3.5 -31.5t8 -28t14 -14.5q14 1 27.5 4t26.5 8q0 23 -0.5 46.5t-3.5 46.5q-5 52 -17 81t-29 29z" />
    <glyph glyph-name="s_ordnl" horiz-adv-x="412" 
d="M346 519q17 -17 29 -34.5t12 -37.5q0 -23 -14 -42.5t-38 -34t-56 -22.5t-68 -8q-38 0 -72.5 8t-60.5 22.5t-42 34.5t-16 44q0 29 19.5 48.5t48.5 19.5l68 -68q0 -15 -6.5 -28.5t-17 -22.5t-24.5 -13.5t-29 -2.5q25 -14 55 -21.5t59 -9.5q17 5 27 16t10 25
q0 21 -16.5 41.5t-33.5 37.5l-101 101q-18 18 -32.5 37t-14.5 39q0 24 16 41t41 28.5t55 17t58 5.5h174v-110h-8l-80 80q-12 12 -24.5 16.5t-23.5 3.5q-17 0 -29 -9.5t-12 -27.5q0 -12 6 -25.5t21 -28.5l120 -120v0z" />
    <glyph glyph-name="t_ordnl" horiz-adv-x="292" 
d="M277 371q-17 -10 -46 -20.5t-70 -10.5q-22 0 -41.5 6.5t-33.5 17t-22.5 25t-8.5 31.5v310h-25v10h25l154 123h8v-123h45v-10h-86l41 -40v-259q0 -10 1.5 -20.5t5 -19t10 -14t16.5 -5.5t23 8z" />
    <glyph glyph-name="h_ordnl" horiz-adv-x="498" 
d="M468 354v-10h-212v10h66l-41 41v243q0 33 -8 49.5t-21 21.5q-18 -12 -35 -27v-328h25v-10h-212v10h66l-41 41v531h-25v10h212v-10h-66l41 -40v-190q26 22 53 33.5t57 11.5q22 0 42.5 -6t37 -19t26.5 -32t10 -46v-284h25z" />
    <glyph glyph-name="n_ordnl" horiz-adv-x="498" 
d="M217 354h25v-10h-212v10h66l-41 41v335h-25v10h142l45 -44q26 22 53 33.5t57 11.5q22 0 42.5 -6t37 -19t26.5 -32t10 -46v-284h25v-10h-212v10h66l-41 41v243q0 33 -8 49.5t-21 21.5q-18 -12 -35 -27v-328z" />
    <glyph glyph-name="d_ordnl" horiz-adv-x="493" 
d="M463 926h-66l41 -40v-532h25v-10h-146l-39 40q-20 -20 -45 -32t-52 -12q-32 0 -60.5 14.5t-49.5 40t-33.5 61t-12.5 76.5q0 42 15 79.5t40.5 66t60.5 45.5t74 17q15 0 23.5 -2.5t9.5 -4.5l27 -27v220h-25v10h213v-10zM275 695l-15 15q-15 -2 -28.5 -15.5t-23.5 -34.5
t-15.5 -49t-5.5 -59q0 -33 6 -62.5t16 -51.5t23.5 -35t28.5 -13q8 0 14 3v302z" />
    <glyph glyph-name="r_ordnl" horiz-adv-x="391" 
d="M316 755q26 0 48 -17.5t22 -51.5q0 -29 -20 -48.5t-48 -19.5l-68 68q0 18 10 35q-11 -9 -22 -19t-21 -20v-328h25v-10h-212v10h66l-41 41v335h-25v10h142l45 -44q20 20 45 39.5t54 19.5z" />
    <glyph glyph-name="fraction.alt" horiz-adv-x="132" 
d="M332 740l-408 -740h-74l408 740h74v0z" />
    </font>
</defs>
</svg>
